<svg width="36" height="36" viewBox="0 0 36 36" fill="none" xmlns="http://www.w3.org/2000/svg">
<g id="Plus PopUp Button">
<circle id="Oval 5" cx="18" cy="17.8112" r="16.8" fill="#1BA2DA"/>
<path id="Oval" fill-rule="evenodd" clip-rule="evenodd" d="M0.599976 17.8111C0.599976 27.4209 8.39022 35.2111 18 35.2111C27.6097 35.2111 35.4 27.4209 35.4 17.8111C35.4 8.20138 27.6097 0.411133 18 0.411133C8.39022 0.411133 0.599976 8.20138 0.599976 17.8111ZM34.2 17.8111C34.2 26.7581 26.947 34.0111 18 34.0111C9.05296 34.0111 1.79998 26.7581 1.79998 17.8111C1.79998 8.86412 9.05296 1.61113 18 1.61113C26.947 1.61113 34.2 8.86412 34.2 17.8111Z" fill="#D4D4D4"/>
<path id="+" fill-rule="evenodd" clip-rule="evenodd" d="M19.2 16.6111H24V19.0221H19.2H16.8L12 19.0111V16.6111H16.8H19.2Z" fill="white"/>
</g>
</svg>
