<svg width="22" height="5" viewBox="0 0 22 5" fill="none" xmlns="http://www.w3.org/2000/svg">
<g id="Exit">
<g id="Exit_2">
<path id="Overflow" fill-rule="evenodd" clip-rule="evenodd" d="M2.35849 0.504883C1.13083 0.504883 0.13562 1.51224 0.13562 2.75488C0.13562 3.99752 1.13083 5.00488 2.35849 5.00488C3.58614 5.00488 4.58135 3.99752 4.58135 2.75488C4.58135 1.51224 3.58614 0.504883 2.35849 0.504883ZM11.2229 0.504883C9.99523 0.504883 9.00002 1.51224 9.00002 2.75488C9.00002 3.99752 9.99523 5.00488 11.2229 5.00488C12.4505 5.00488 13.4458 3.99752 13.4458 2.75488C13.4458 1.51224 12.4505 0.504883 11.2229 0.504883ZM17 2.75488C17 1.51224 17.9952 0.504883 19.2229 0.504883C20.4505 0.504883 21.4458 1.51224 21.4458 2.75488C21.4458 3.99752 20.4505 5.00488 19.2229 5.00488C17.9952 5.00488 17 3.99752 17 2.75488Z" fill="#95004D"/>
<mask id="mask0_52_3631" style="mask-type:luminance" maskUnits="userSpaceOnUse" x="0" y="0" width="22" height="6">
<path id="Overflow_2" fill-rule="evenodd" clip-rule="evenodd" d="M2.35849 0.504883C1.13083 0.504883 0.13562 1.51224 0.13562 2.75488C0.13562 3.99752 1.13083 5.00488 2.35849 5.00488C3.58614 5.00488 4.58135 3.99752 4.58135 2.75488C4.58135 1.51224 3.58614 0.504883 2.35849 0.504883ZM11.2229 0.504883C9.99523 0.504883 9.00002 1.51224 9.00002 2.75488C9.00002 3.99752 9.99523 5.00488 11.2229 5.00488C12.4505 5.00488 13.4458 3.99752 13.4458 2.75488C13.4458 1.51224 12.4505 0.504883 11.2229 0.504883ZM17 2.75488C17 1.51224 17.9952 0.504883 19.2229 0.504883C20.4505 0.504883 21.4458 1.51224 21.4458 2.75488C21.4458 3.99752 20.4505 5.00488 19.2229 5.00488C17.9952 5.00488 17 3.99752 17 2.75488Z" fill="white"/>
</mask>
<g mask="url(#mask0_52_3631)">
<g id="&#226;&#134;&#179;&#240;&#159;&#142;&#168; Fill &#226;&#172;&#135;">
<path id="Fill" fill-rule="evenodd" clip-rule="evenodd" d="M-0.86145 15.1172L-0.86145 -9.15206H23.1151V15.1172L-0.86145 15.1172Z" fill="#9B9B9B"/>
</g>
</g>
</g>
</g>
</svg>
