<svg width="28" height="28" viewBox="0 0 28 28" fill="none" xmlns="http://www.w3.org/2000/svg">
<g id="Plus PopUp Button">
<circle id="Oval 5" cx="13.561" cy="13.9681" r="13.0933" fill="#1BA2DA"/>
<path id="Oval" fill-rule="evenodd" clip-rule="evenodd" d="M0 13.9682C0 21.4577 6.07144 27.5291 13.561 27.5291C21.0505 27.5291 27.1219 21.4577 27.1219 13.9682C27.1219 6.47867 21.0505 0.407227 13.561 0.407227C6.07144 0.407227 0 6.47867 0 13.9682ZM26.1867 13.9682C26.1867 20.9412 20.5339 26.5939 13.561 26.5939C6.58796 26.5939 0.935238 20.9412 0.935238 13.9682C0.935238 6.99519 6.58796 1.34246 13.561 1.34246C20.5339 1.34246 26.1867 6.99519 26.1867 13.9682Z" fill="#D4D4D4"/>
<path id="+" fill-rule="evenodd" clip-rule="evenodd" d="M14.6317 13.5391H17.6317V15.0459H14.6317L14.6317 18.0391H13.1317V15.0459L10.1317 15.0391V13.5391H13.1317V10.5391H14.6317V13.5391Z" fill="white"/>
</g>
</svg>
