<svg width="419" height="585" viewBox="0 0 419 585" fill="none" xmlns="http://www.w3.org/2000/svg">
<g clip-path="url(#clip0_3708_30485)">
<ellipse cx="127.06" cy="127.06" rx="127.06" ry="127.06" transform="matrix(1 0 0 -1 78.2676 359.559)" stroke="url(#paint0_angular_3708_30485)" stroke-width="34.1355" stroke-miterlimit="2.61313" stroke-linecap="round"/>
<circle cx="155.334" cy="115.762" r="16.8167" transform="rotate(-23.255 155.334 115.762)" fill="#96004D"/>
<circle cx="152.445" cy="117.207" r="16.8167" transform="rotate(-23.255 152.445 117.207)" fill="#96004D"/>
<ellipse cx="147.859" cy="119.5" rx="16.8167" ry="16.8167" transform="rotate(-23.255 147.859 119.5)" fill="#96004D"/>
<circle cx="159.027" cy="114.244" r="16.8167" transform="rotate(-21.4544 159.027 114.244)" fill="url(#paint1_radial_3708_30485)"/>
<circle cx="159.027" cy="114.244" r="16.8167" transform="rotate(-21.4544 159.027 114.244)" fill="#96004D"/>
<g style="mix-blend-mode:overlay" filter="url(#filter0_i_3708_30485)">
<ellipse cx="205.327" cy="232.5" rx="143.876" ry="143.877" fill="black" fill-opacity="0.01"/>
</g>
<g style="mix-blend-mode:screen" filter="url(#filter1_d_3708_30485)">
<ellipse cx="205.5" cy="232.5" rx="110.243" ry="110.243" fill="white" style="mix-blend-mode:multiply"/>
</g>
<g filter="url(#filter2_i_3708_30485)">
<ellipse cx="205.5" cy="232.5" rx="110.243" ry="110.243" fill="white"/>
</g>
<path d="M142.454 234.188V237.465L119.424 247.706V242.699L134.808 235.826L119.424 228.954V223.947L142.454 234.188ZM274.503 219.294C274.503 220.811 274.313 222.214 273.934 223.504C273.593 224.793 273.081 225.912 272.398 226.86C271.753 227.77 270.938 228.491 269.952 229.022C268.965 229.553 267.846 229.819 266.595 229.819C265.381 229.819 264.281 229.553 263.295 229.022C262.347 228.491 261.531 227.77 260.849 226.86C260.166 225.912 259.635 224.793 259.256 223.504C258.914 222.214 258.744 220.811 258.744 219.294C258.744 217.776 258.914 216.373 259.256 215.083C259.635 213.756 260.147 212.618 260.792 211.67C261.475 210.722 262.29 209.982 263.238 209.451C264.224 208.92 265.343 208.655 266.595 208.655C267.846 208.655 268.965 208.92 269.952 209.451C270.938 209.982 271.753 210.722 272.398 211.67C273.081 212.618 273.593 213.756 273.934 215.083C274.313 216.373 274.503 217.776 274.503 219.294ZM269.724 219.237C269.724 217.454 269.458 215.975 268.927 214.799C268.396 213.623 267.619 213.035 266.595 213.035C265.609 213.035 264.85 213.623 264.319 214.799C263.788 215.975 263.523 217.454 263.523 219.237C263.523 220.943 263.788 222.404 264.319 223.617C264.85 224.831 265.609 225.438 266.595 225.438C267.619 225.438 268.396 224.831 268.927 223.617C269.458 222.404 269.724 220.943 269.724 219.237ZM293.334 239.775C293.334 241.292 293.145 242.695 292.765 243.985C292.424 245.274 291.912 246.393 291.229 247.341C290.547 248.252 289.712 248.972 288.726 249.503C287.778 250.034 286.678 250.3 285.426 250.3C284.213 250.3 283.113 250.034 282.126 249.503C281.14 248.972 280.306 248.252 279.623 247.341C278.941 246.393 278.41 245.274 278.03 243.985C277.689 242.695 277.518 241.292 277.518 239.775C277.518 238.258 277.689 236.854 278.03 235.565C278.41 234.237 278.941 233.099 279.623 232.151C280.306 231.203 281.121 230.463 282.07 229.932C283.056 229.401 284.175 229.136 285.426 229.136C286.678 229.136 287.778 229.401 288.726 229.932C289.712 230.463 290.547 231.203 291.229 232.151C291.912 233.099 292.424 234.237 292.765 235.565C293.145 236.854 293.334 238.258 293.334 239.775ZM288.498 239.718C288.498 237.935 288.233 236.456 287.702 235.28C287.209 234.105 286.45 233.517 285.426 233.517C284.402 233.517 283.625 234.105 283.094 235.28C282.601 236.456 282.354 237.935 282.354 239.718C282.354 241.425 282.601 242.885 283.094 244.099C283.625 245.312 284.402 245.919 285.426 245.919C286.45 245.919 287.209 245.312 287.702 244.099C288.233 242.885 288.498 241.425 288.498 239.718ZM269.496 250.869L265.969 249.617L282.525 207.687L286.052 208.939L269.496 250.869Z" fill="#96004D"/>
<path d="M169.146 242.6C165.581 242.6 162.47 241.918 159.816 240.552C157.161 239.187 154.923 237.366 153.102 235.091C151.357 232.739 150.03 229.97 149.12 226.784C148.285 223.598 147.868 220.185 147.868 216.544C147.868 211.917 148.551 207.858 149.916 204.369C151.282 200.804 153.14 197.845 155.492 195.494C157.919 193.066 160.726 191.246 163.912 190.032C167.174 188.818 170.663 188.211 174.38 188.211C178.097 188.211 181.548 188.856 184.734 190.146C187.996 191.359 190.803 193.18 193.154 195.607C195.506 197.959 197.327 200.917 198.616 204.483C199.982 207.972 200.664 211.992 200.664 216.544C200.664 221.474 200.019 225.912 198.73 229.857C197.44 233.801 195.809 237.594 193.837 241.235L178.476 270.478H157.654L173.47 241.918L173.356 241.804C172.977 242.032 172.332 242.221 171.422 242.373C170.587 242.525 169.829 242.6 169.146 242.6ZM165.391 216.771C165.391 220.716 166.15 223.902 167.667 226.329C169.26 228.681 171.422 229.857 174.152 229.857C176.732 229.857 178.856 228.643 180.524 226.215C182.269 223.788 183.141 220.64 183.141 216.771C183.141 212.903 182.307 209.793 180.638 207.441C178.969 205.014 176.845 203.8 174.266 203.8C171.611 203.8 169.449 205.014 167.78 207.441C166.187 209.793 165.391 212.903 165.391 216.771ZM254.605 243.738C254.605 248.517 253.922 252.689 252.557 256.255C251.267 259.744 249.447 262.702 247.095 265.13C244.819 267.481 242.126 269.264 239.016 270.478C235.906 271.616 232.606 272.185 229.117 272.185C222.973 272.185 217.625 270.478 213.073 267.064C208.522 263.651 205.526 258.492 204.084 251.589L219.673 246.697C220.28 249.352 221.304 251.627 222.745 253.524C224.262 255.42 226.234 256.368 228.662 256.368C231.469 256.368 233.555 255.231 234.92 252.955C236.361 250.603 237.082 247.721 237.082 244.307C237.082 240.135 235.906 237.063 233.555 235.091C231.279 233.118 228.51 232.132 225.248 232.132C222.897 232.132 220.166 232.512 217.056 233.27C214.022 233.953 211.404 234.749 209.205 235.66L210.911 189.918H251.76V205.734H226.159L225.59 219.616C226.5 219.237 227.524 218.933 228.662 218.706C229.876 218.478 230.9 218.364 231.734 218.364C235.375 218.364 238.599 218.971 241.406 220.185C244.288 221.399 246.678 223.105 248.574 225.305C250.546 227.505 252.026 230.16 253.012 233.27C254.074 236.38 254.605 239.87 254.605 243.738Z" fill="#96004D"/>
<path d="M38.3182 422V406.985H43.1482C46.5082 406.985 48.7132 408.476 48.7132 411.626V411.71C48.7132 414.881 46.4242 416.288 43.2112 416.288H41.1112V422H38.3182ZM41.1112 414.272H43.1482C44.9962 414.272 45.9832 413.369 45.9832 411.71V411.626C45.9832 409.841 44.9332 409.148 43.1482 409.148H41.1112V414.272ZM50.9051 422V411.017H53.4461V413.075C54.1391 411.689 55.1681 410.87 57.0161 410.849V413.222C54.7901 413.243 53.4461 413.957 53.4461 416.288V422H50.9051ZM63.8562 422.21C60.6222 422.21 58.2912 420.089 58.2912 416.624V416.456C58.2912 413.054 60.6222 410.786 63.7512 410.786C66.4812 410.786 68.9382 412.403 68.9382 416.33V417.065H60.8952C60.9792 419.144 62.0292 420.32 63.9192 420.32C65.4522 420.32 66.2502 419.711 66.4392 418.64H68.8962C68.5392 420.95 66.6702 422.21 63.8562 422.21ZM60.9372 415.364H66.4182C66.2922 413.474 65.3262 412.634 63.7512 412.634C62.2182 412.634 61.1892 413.663 60.9372 415.364ZM71.6488 422V412.928H70.1578V411.017H71.6488V409.547C71.6488 407.132 72.9928 405.83 75.3448 405.83C75.9538 405.83 76.3318 405.893 76.7938 406.04V408.014C76.4998 407.909 76.1008 407.825 75.6388 407.825C74.6098 407.825 74.1898 408.497 74.1898 409.442V411.017H76.6888V412.928H74.1898V422H71.6488ZM83.1745 422.21C79.9405 422.21 77.6095 420.089 77.6095 416.624V416.456C77.6095 413.054 79.9405 410.786 83.0695 410.786C85.7995 410.786 88.2565 412.403 88.2565 416.33V417.065H80.2135C80.2975 419.144 81.3475 420.32 83.2375 420.32C84.7705 420.32 85.5685 419.711 85.7575 418.64H88.2145C87.8575 420.95 85.9885 422.21 83.1745 422.21ZM80.2555 415.364H85.7365C85.6105 413.474 84.6445 412.634 83.0695 412.634C81.5365 412.634 80.5075 413.663 80.2555 415.364ZM90.5262 422V411.017H93.0672V413.075C93.7602 411.689 94.7892 410.87 96.6372 410.849V413.222C94.4112 413.243 93.0672 413.957 93.0672 416.288V422H90.5262ZM98.8728 422V411.017H101.414V413.075C102.107 411.689 103.136 410.87 104.984 410.849V413.222C102.758 413.243 101.414 413.957 101.414 416.288V422H98.8728ZM111.824 422.21C108.59 422.21 106.259 420.089 106.259 416.624V416.456C106.259 413.054 108.59 410.786 111.719 410.786C114.449 410.786 116.906 412.403 116.906 416.33V417.065H108.863C108.947 419.144 109.997 420.32 111.887 420.32C113.42 420.32 114.218 419.711 114.407 418.64H116.864C116.507 420.95 114.638 422.21 111.824 422.21ZM108.905 415.364H114.386C114.26 413.474 113.294 412.634 111.719 412.634C110.186 412.634 109.157 413.663 108.905 415.364ZM123.292 422.21C120.541 422.21 118.462 420.257 118.462 416.687V416.519C118.462 413.012 120.541 410.786 123.397 410.786C125.182 410.786 126.295 411.605 126.904 412.697V405.935H129.445V422H126.904V420.152C126.316 421.244 124.909 422.21 123.292 422.21ZM123.922 420.194C125.686 420.194 126.988 419.018 126.988 416.561V416.393C126.988 413.978 125.875 412.781 124.027 412.781C122.158 412.781 121.066 414.083 121.066 416.456V416.624C121.066 419.039 122.284 420.194 123.922 420.194ZM137.469 422V411.017H140.01V412.76C140.535 411.689 141.753 410.786 143.559 410.786C145.764 410.786 147.318 412.067 147.318 415.091V422H144.777V415.322C144.777 413.663 144.105 412.907 142.593 412.907C141.165 412.907 140.01 413.789 140.01 415.532V422H137.469ZM153.122 422.21C151.106 422.21 149.447 421.244 149.447 418.955C149.447 416.393 151.925 415.469 155.075 415.469H156.44V414.902C156.44 413.432 155.936 412.697 154.445 412.697C153.122 412.697 152.471 413.327 152.345 414.419H149.888C150.098 411.857 152.135 410.786 154.592 410.786C157.049 410.786 158.981 411.794 158.981 414.797V422H156.482V420.656C155.768 421.601 154.802 422.21 153.122 422.21ZM153.731 420.383C155.285 420.383 156.44 419.564 156.44 418.157V417.065H155.138C153.206 417.065 151.967 417.506 151.967 418.85C151.967 419.774 152.471 420.383 153.731 420.383ZM165.611 422.189C163.427 422.189 162.293 421.013 162.293 418.934V412.928H160.823V411.017H162.293V408.602H164.834V411.017H167.249V412.928H164.834V418.703C164.834 419.669 165.296 420.11 166.094 420.11C166.598 420.11 166.976 420.047 167.333 419.9V421.916C166.934 422.063 166.388 422.189 165.611 422.189ZM170.927 409.211C170.087 409.211 169.415 408.581 169.415 407.762C169.415 406.922 170.087 406.292 170.927 406.292C171.767 406.292 172.439 406.922 172.439 407.762C172.439 408.581 171.767 409.211 170.927 409.211ZM169.688 422V411.017H172.229V422H169.688ZM180.219 422.21C176.985 422.21 174.591 419.963 174.591 416.624V416.456C174.591 413.054 177.006 410.786 180.24 410.786C183.453 410.786 185.868 413.033 185.868 416.393V416.561C185.868 419.984 183.453 422.21 180.219 422.21ZM180.24 420.236C182.13 420.236 183.264 418.829 183.264 416.582V416.435C183.264 414.167 182.13 412.781 180.24 412.781C178.35 412.781 177.195 414.146 177.195 416.414V416.582C177.195 418.829 178.308 420.236 180.24 420.236ZM188.164 422V411.017H190.705V412.76C191.23 411.689 192.448 410.786 194.254 410.786C196.459 410.786 198.013 412.067 198.013 415.091V422H195.472V415.322C195.472 413.663 194.8 412.907 193.288 412.907C191.86 412.907 190.705 413.789 190.705 415.532V422H188.164ZM203.817 422.21C201.801 422.21 200.142 421.244 200.142 418.955C200.142 416.393 202.62 415.469 205.77 415.469H207.135V414.902C207.135 413.432 206.631 412.697 205.14 412.697C203.817 412.697 203.166 413.327 203.04 414.419H200.583C200.793 411.857 202.83 410.786 205.287 410.786C207.744 410.786 209.676 411.794 209.676 414.797V422H207.177V420.656C206.463 421.601 205.497 422.21 203.817 422.21ZM204.426 420.383C205.98 420.383 207.135 419.564 207.135 418.157V417.065H205.833C203.901 417.065 202.662 417.506 202.662 418.85C202.662 419.774 203.166 420.383 204.426 420.383ZM212.652 422V405.935H215.193V422H212.652ZM228.103 422.21C224.953 422.21 222.559 420.152 222.559 416.645V416.477C222.559 412.991 225.037 410.786 228.103 410.786C230.539 410.786 232.828 411.878 233.122 414.902H230.665C230.455 413.432 229.489 412.823 228.145 412.823C226.402 412.823 225.163 414.167 225.163 416.435V416.603C225.163 418.997 226.339 420.257 228.208 420.257C229.552 420.257 230.707 419.459 230.854 417.905H233.185C232.996 420.425 231.085 422.21 228.103 422.21ZM240.266 422.21C237.032 422.21 234.638 419.963 234.638 416.624V416.456C234.638 413.054 237.053 410.786 240.287 410.786C243.5 410.786 245.915 413.033 245.915 416.393V416.561C245.915 419.984 243.5 422.21 240.266 422.21ZM240.287 420.236C242.177 420.236 243.311 418.829 243.311 416.582V416.435C243.311 414.167 242.177 412.781 240.287 412.781C238.397 412.781 237.242 414.146 237.242 416.414V416.582C237.242 418.829 238.355 420.236 240.287 420.236ZM248.211 422V411.017H250.752V412.697C251.277 411.668 252.474 410.786 254.091 410.786C255.519 410.786 256.653 411.395 257.199 412.76C258.039 411.395 259.551 410.786 260.916 410.786C262.932 410.786 264.57 412.025 264.57 415.049V422H262.029V415.217C262.029 413.6 261.336 412.907 260.076 412.907C258.816 412.907 257.661 413.747 257.661 415.427V422H255.12V415.217C255.12 413.6 254.406 412.907 253.167 412.907C251.907 412.907 250.752 413.747 250.752 415.427V422H248.211ZM267.488 422V411.017H270.029V412.697C270.554 411.668 271.751 410.786 273.368 410.786C274.796 410.786 275.93 411.395 276.476 412.76C277.316 411.395 278.828 410.786 280.193 410.786C282.209 410.786 283.847 412.025 283.847 415.049V422H281.306V415.217C281.306 413.6 280.613 412.907 279.353 412.907C278.093 412.907 276.938 413.747 276.938 415.427V422H274.397V415.217C274.397 413.6 273.683 412.907 272.444 412.907C271.184 412.907 270.029 413.747 270.029 415.427V422H267.488ZM291.595 422.21C288.361 422.21 286.03 420.089 286.03 416.624V416.456C286.03 413.054 288.361 410.786 291.49 410.786C294.22 410.786 296.677 412.403 296.677 416.33V417.065H288.634C288.718 419.144 289.768 420.32 291.658 420.32C293.191 420.32 293.989 419.711 294.178 418.64H296.635C296.278 420.95 294.409 422.21 291.595 422.21ZM288.676 415.364H294.157C294.031 413.474 293.065 412.634 291.49 412.634C289.957 412.634 288.928 413.663 288.676 415.364ZM298.947 422V411.017H301.488V413.075C302.181 411.689 303.21 410.87 305.058 410.849V413.222C302.832 413.243 301.488 413.957 301.488 416.288V422H298.947ZM311.877 422.21C308.727 422.21 306.333 420.152 306.333 416.645V416.477C306.333 412.991 308.811 410.786 311.877 410.786C314.313 410.786 316.602 411.878 316.896 414.902H314.439C314.229 413.432 313.263 412.823 311.919 412.823C310.176 412.823 308.937 414.167 308.937 416.435V416.603C308.937 418.997 310.113 420.257 311.982 420.257C313.326 420.257 314.481 419.459 314.628 417.905H316.959C316.77 420.425 314.859 422.21 311.877 422.21ZM320.449 409.211C319.609 409.211 318.937 408.581 318.937 407.762C318.937 406.922 319.609 406.292 320.449 406.292C321.289 406.292 321.961 406.922 321.961 407.762C321.961 408.581 321.289 409.211 320.449 409.211ZM319.21 422V411.017H321.751V422H319.21ZM327.725 422.21C325.709 422.21 324.05 421.244 324.05 418.955C324.05 416.393 326.528 415.469 329.678 415.469H331.043V414.902C331.043 413.432 330.539 412.697 329.048 412.697C327.725 412.697 327.074 413.327 326.948 414.419H324.491C324.701 411.857 326.738 410.786 329.195 410.786C331.652 410.786 333.584 411.794 333.584 414.797V422H331.085V420.656C330.371 421.601 329.405 422.21 327.725 422.21ZM328.334 420.383C329.888 420.383 331.043 419.564 331.043 418.157V417.065H329.741C327.809 417.065 326.57 417.506 326.57 418.85C326.57 419.774 327.074 420.383 328.334 420.383ZM336.56 422V405.935H339.101V422H336.56ZM350.079 422.21C348.063 422.21 346.404 421.244 346.404 418.955C346.404 416.393 348.882 415.469 352.032 415.469H353.397V414.902C353.397 413.432 352.893 412.697 351.402 412.697C350.079 412.697 349.428 413.327 349.302 414.419H346.845C347.055 411.857 349.092 410.786 351.549 410.786C354.006 410.786 355.938 411.794 355.938 414.797V422H353.439V420.656C352.725 421.601 351.759 422.21 350.079 422.21ZM350.688 420.383C352.242 420.383 353.397 419.564 353.397 418.157V417.065H352.095C350.163 417.065 348.924 417.506 348.924 418.85C348.924 419.774 349.428 420.383 350.688 420.383ZM358.85 422V411.017H361.391V412.76C361.916 411.689 363.134 410.786 364.94 410.786C367.145 410.786 368.699 412.067 368.699 415.091V422H366.158V415.322C366.158 413.663 365.486 412.907 363.974 412.907C362.546 412.907 361.391 413.789 361.391 415.532V422H358.85ZM375.743 422.21C372.992 422.21 370.913 420.257 370.913 416.687V416.519C370.913 413.012 372.992 410.786 375.848 410.786C377.633 410.786 378.746 411.605 379.355 412.697V405.935H381.896V422H379.355V420.152C378.767 421.244 377.36 422.21 375.743 422.21ZM376.373 420.194C378.137 420.194 379.439 419.018 379.439 416.561V416.393C379.439 413.978 378.326 412.781 376.478 412.781C374.609 412.781 373.517 414.083 373.517 416.456V416.624C373.517 419.039 374.735 420.194 376.373 420.194ZM31.5506 449V433.985H35.2886L39.2366 444.233L43.1006 433.985H46.7966V449H44.0036V437.66L39.5306 449H38.6276L34.0706 437.66V449H31.5506ZM54.7917 449.21C51.5577 449.21 49.2267 447.089 49.2267 443.624V443.456C49.2267 440.054 51.5577 437.786 54.6867 437.786C57.4167 437.786 59.8737 439.403 59.8737 443.33V444.065H51.8307C51.9147 446.144 52.9647 447.32 54.8547 447.32C56.3877 447.32 57.1857 446.711 57.3747 445.64H59.8317C59.4747 447.95 57.6057 449.21 54.7917 449.21ZM51.8727 442.364H57.3537C57.2277 440.474 56.2617 439.634 54.6867 439.634C53.1537 439.634 52.1247 440.663 51.8727 442.364ZM66.2593 449.21C63.5083 449.21 61.4293 447.257 61.4293 443.687V443.519C61.4293 440.012 63.5083 437.786 66.3643 437.786C68.1493 437.786 69.2623 438.605 69.8713 439.697V432.935H72.4123V449H69.8713V447.152C69.2833 448.244 67.8763 449.21 66.2593 449.21ZM66.8893 447.194C68.6533 447.194 69.9553 446.018 69.9553 443.561V443.393C69.9553 440.978 68.8423 439.781 66.9943 439.781C65.1253 439.781 64.0333 441.083 64.0333 443.456V443.624C64.0333 446.039 65.2513 447.194 66.8893 447.194ZM76.7344 436.211C75.8944 436.211 75.2224 435.581 75.2224 434.762C75.2224 433.922 75.8944 433.292 76.7344 433.292C77.5744 433.292 78.2464 433.922 78.2464 434.762C78.2464 435.581 77.5744 436.211 76.7344 436.211ZM75.4954 449V438.017H78.0364V449H75.4954ZM85.9426 449.21C82.7926 449.21 80.3986 447.152 80.3986 443.645V443.477C80.3986 439.991 82.8766 437.786 85.9426 437.786C88.3786 437.786 90.6676 438.878 90.9616 441.902H88.5046C88.2946 440.432 87.3286 439.823 85.9846 439.823C84.2416 439.823 83.0026 441.167 83.0026 443.435V443.603C83.0026 445.997 84.1786 447.257 86.0476 447.257C87.3916 447.257 88.5466 446.459 88.6936 444.905H91.0246C90.8356 447.425 88.9246 449.21 85.9426 449.21ZM96.1102 449.21C94.0942 449.21 92.4352 448.244 92.4352 445.955C92.4352 443.393 94.9132 442.469 98.0632 442.469H99.4282V441.902C99.4282 440.432 98.9242 439.697 97.4332 439.697C96.1102 439.697 95.4592 440.327 95.3332 441.419H92.8762C93.0862 438.857 95.1232 437.786 97.5802 437.786C100.037 437.786 101.969 438.794 101.969 441.797V449H99.4702V447.656C98.7562 448.601 97.7902 449.21 96.1102 449.21ZM96.7192 447.383C98.2732 447.383 99.4282 446.564 99.4282 445.157V444.065H98.1262C96.1942 444.065 94.9552 444.506 94.9552 445.85C94.9552 446.774 95.4592 447.383 96.7192 447.383ZM104.882 449V438.017H107.423V440.075C108.116 438.689 109.145 437.87 110.993 437.849V440.222C108.767 440.243 107.423 440.957 107.423 443.288V449H104.882ZM117.833 449.21C114.599 449.21 112.268 447.089 112.268 443.624V443.456C112.268 440.054 114.599 437.786 117.728 437.786C120.458 437.786 122.915 439.403 122.915 443.33V444.065H114.872C114.956 446.144 116.006 447.32 117.896 447.32C119.429 447.32 120.227 446.711 120.416 445.64H122.873C122.516 447.95 120.647 449.21 117.833 449.21ZM114.914 442.364H120.395C120.269 440.474 119.303 439.634 117.728 439.634C116.195 439.634 115.166 440.663 114.914 442.364ZM130.398 449V433.985H135.228C138.588 433.985 140.793 435.476 140.793 438.626V438.71C140.793 441.881 138.504 443.288 135.291 443.288H133.191V449H130.398ZM133.191 441.272H135.228C137.076 441.272 138.063 440.369 138.063 438.71V438.626C138.063 436.841 137.013 436.148 135.228 436.148H133.191V441.272ZM145.657 449.21C143.641 449.21 141.982 448.244 141.982 445.955C141.982 443.393 144.46 442.469 147.61 442.469H148.975V441.902C148.975 440.432 148.471 439.697 146.98 439.697C145.657 439.697 145.006 440.327 144.88 441.419H142.423C142.633 438.857 144.67 437.786 147.127 437.786C149.584 437.786 151.516 438.794 151.516 441.797V449H149.017V447.656C148.303 448.601 147.337 449.21 145.657 449.21ZM146.266 447.383C147.82 447.383 148.975 446.564 148.975 445.157V444.065H147.673C145.741 444.065 144.502 444.506 144.502 445.85C144.502 446.774 145.006 447.383 146.266 447.383ZM154.429 449V438.017H156.97V440.075C157.663 438.689 158.692 437.87 160.54 437.849V440.222C158.314 440.243 156.97 440.957 156.97 443.288V449H154.429ZM166.636 449.189C164.452 449.189 163.318 448.013 163.318 445.934V439.928H161.848V438.017H163.318V435.602H165.859V438.017H168.274V439.928H165.859V445.703C165.859 446.669 166.321 447.11 167.119 447.11C167.623 447.11 168.001 447.047 168.358 446.9V448.916C167.959 449.063 167.413 449.189 166.636 449.189ZM175.864 449V433.985H180.421C185.65 433.985 188.191 436.967 188.191 441.335V441.524C188.191 445.892 185.65 449 180.379 449H175.864ZM178.657 446.795H180.295C183.655 446.795 185.272 444.863 185.272 441.545V441.377C185.272 438.143 183.802 436.19 180.274 436.19H178.657V446.795ZM196.09 449V439.928H194.599V438.017H196.09V436.547C196.09 434.132 197.434 432.83 199.786 432.83C200.395 432.83 200.773 432.893 201.235 433.04V435.014C200.941 434.909 200.542 434.825 200.08 434.825C199.051 434.825 198.631 435.497 198.631 436.442V438.017H201.13V439.928H198.631V449H196.09ZM207.679 449.21C204.445 449.21 202.051 446.963 202.051 443.624V443.456C202.051 440.054 204.466 437.786 207.7 437.786C210.913 437.786 213.328 440.033 213.328 443.393V443.561C213.328 446.984 210.913 449.21 207.679 449.21ZM207.7 447.236C209.59 447.236 210.724 445.829 210.724 443.582V443.435C210.724 441.167 209.59 439.781 207.7 439.781C205.81 439.781 204.655 441.146 204.655 443.414V443.582C204.655 445.829 205.768 447.236 207.7 447.236ZM215.624 449V438.017H218.165V440.075C218.858 438.689 219.887 437.87 221.735 437.849V440.222C219.509 440.243 218.165 440.957 218.165 443.288V449H215.624ZM223.97 449V438.017H226.511V439.697C227.036 438.668 228.233 437.786 229.85 437.786C231.278 437.786 232.412 438.395 232.958 439.76C233.798 438.395 235.31 437.786 236.675 437.786C238.691 437.786 240.329 439.025 240.329 442.049V449H237.788V442.217C237.788 440.6 237.095 439.907 235.835 439.907C234.575 439.907 233.42 440.747 233.42 442.427V449H230.879V442.217C230.879 440.6 230.165 439.907 228.926 439.907C227.666 439.907 226.511 440.747 226.511 442.427V449H223.97ZM246.923 449.21C244.76 449.21 243.143 447.971 243.143 445.052V438.017H245.684V444.758C245.684 446.417 246.377 447.173 247.847 447.173C249.212 447.173 250.409 446.291 250.409 444.548V438.017H252.95V449H250.409V447.278C249.863 448.349 248.708 449.21 246.923 449.21ZM256.026 449V432.935H258.567V449H256.026ZM264.541 449.21C262.525 449.21 260.866 448.244 260.866 445.955C260.866 443.393 263.344 442.469 266.494 442.469H267.859V441.902C267.859 440.432 267.355 439.697 265.864 439.697C264.541 439.697 263.89 440.327 263.764 441.419H261.307C261.517 438.857 263.554 437.786 266.011 437.786C268.468 437.786 270.4 438.794 270.4 441.797V449H267.901V447.656C267.187 448.601 266.221 449.21 264.541 449.21ZM265.15 447.383C266.704 447.383 267.859 446.564 267.859 445.157V444.065H266.557C264.625 444.065 263.386 444.506 263.386 445.85C263.386 446.774 263.89 447.383 265.15 447.383ZM273.312 449V438.017H275.853V440.075C276.546 438.689 277.575 437.87 279.423 437.849V440.222C277.197 440.243 275.853 440.957 275.853 443.288V449H273.312ZM283 452.759L284.995 447.887L280.648 438.017H283.399L286.318 445.094L289.006 438.017H291.484L285.499 452.759H283ZM303.202 449.21C300.052 449.21 297.658 447.152 297.658 443.645V443.477C297.658 439.991 300.136 437.786 303.202 437.786C305.638 437.786 307.927 438.878 308.221 441.902H305.764C305.554 440.432 304.588 439.823 303.244 439.823C301.501 439.823 300.262 441.167 300.262 443.435V443.603C300.262 445.997 301.438 447.257 303.307 447.257C304.651 447.257 305.806 446.459 305.953 444.905H308.284C308.095 447.425 306.184 449.21 303.202 449.21ZM315.365 449.21C312.131 449.21 309.737 446.963 309.737 443.624V443.456C309.737 440.054 312.152 437.786 315.386 437.786C318.599 437.786 321.014 440.033 321.014 443.393V443.561C321.014 446.984 318.599 449.21 315.365 449.21ZM315.386 447.236C317.276 447.236 318.41 445.829 318.41 443.582V443.435C318.41 441.167 317.276 439.781 315.386 439.781C313.496 439.781 312.341 441.146 312.341 443.414V443.582C312.341 445.829 313.454 447.236 315.386 447.236ZM325.798 449L321.787 438.017H324.517L327.394 446.396L330.229 438.017H332.728L328.759 449H325.798ZM339.03 449.21C335.796 449.21 333.465 447.089 333.465 443.624V443.456C333.465 440.054 335.796 437.786 338.925 437.786C341.655 437.786 344.112 439.403 344.112 443.33V444.065H336.069C336.153 446.144 337.203 447.32 339.093 447.32C340.626 447.32 341.424 446.711 341.613 445.64H344.07C343.713 447.95 341.844 449.21 339.03 449.21ZM336.111 442.364H341.592C341.466 440.474 340.5 439.634 338.925 439.634C337.392 439.634 336.363 440.663 336.111 442.364ZM346.382 449V438.017H348.923V440.075C349.616 438.689 350.645 437.87 352.493 437.849V440.222C350.267 440.243 348.923 440.957 348.923 443.288V449H346.382ZM357.441 449.21C355.425 449.21 353.766 448.244 353.766 445.955C353.766 443.393 356.244 442.469 359.394 442.469H360.759V441.902C360.759 440.432 360.255 439.697 358.764 439.697C357.441 439.697 356.79 440.327 356.664 441.419H354.207C354.417 438.857 356.454 437.786 358.911 437.786C361.368 437.786 363.3 438.794 363.3 441.797V449H360.801V447.656C360.087 448.601 359.121 449.21 357.441 449.21ZM358.05 447.383C359.604 447.383 360.759 446.564 360.759 445.157V444.065H359.457C357.525 444.065 356.286 444.506 356.286 445.85C356.286 446.774 356.79 447.383 358.05 447.383ZM370.896 453.032C367.452 453.032 365.898 451.478 365.604 449.378H368.166C368.376 450.47 369.216 451.1 370.875 451.1C372.849 451.1 373.941 450.113 373.941 448.139V446.522C373.332 447.572 371.967 448.559 370.35 448.559C367.599 448.559 365.478 446.501 365.478 443.33V443.183C365.478 440.096 367.578 437.786 370.413 437.786C372.219 437.786 373.311 438.605 373.941 439.697V438.017H376.482V448.181C376.461 451.415 374.298 453.032 370.896 453.032ZM370.98 446.606C372.744 446.606 374.025 445.346 374.025 443.246V443.099C374.025 441.02 372.891 439.781 371.064 439.781C369.174 439.781 368.082 441.146 368.082 443.141V443.309C368.082 445.346 369.342 446.606 370.98 446.606ZM384.332 449.21C381.098 449.21 378.767 447.089 378.767 443.624V443.456C378.767 440.054 381.098 437.786 384.227 437.786C386.957 437.786 389.414 439.403 389.414 443.33V444.065H381.371C381.455 446.144 382.505 447.32 384.395 447.32C385.928 447.32 386.726 446.711 386.915 445.64H389.372C389.015 447.95 387.146 449.21 384.332 449.21ZM381.413 442.364H386.894C386.768 440.474 385.802 439.634 384.227 439.634C382.694 439.634 381.665 440.663 381.413 442.364ZM49.5967 476.21C47.4337 476.21 45.8167 474.971 45.8167 472.052V465.017H48.3577V471.758C48.3577 473.417 49.0507 474.173 50.5207 474.173C51.8857 474.173 53.0827 473.291 53.0827 471.548V465.017H55.6237V476H53.0827V474.278C52.5367 475.349 51.3817 476.21 49.5967 476.21ZM58.6365 476V465.017H61.1775V466.76C61.7025 465.689 62.9205 464.786 64.7265 464.786C66.9315 464.786 68.4855 466.067 68.4855 469.091V476H65.9445V469.322C65.9445 467.663 65.2725 466.907 63.7605 466.907C62.3325 466.907 61.1775 467.789 61.1775 469.532V476H58.6365ZM75.5289 476.21C72.7779 476.21 70.6989 474.257 70.6989 470.687V470.519C70.6989 467.012 72.7779 464.786 75.6339 464.786C77.4189 464.786 78.5319 465.605 79.1409 466.697V459.935H81.6819V476H79.1409V474.152C78.5529 475.244 77.1459 476.21 75.5289 476.21ZM76.1589 474.194C77.9229 474.194 79.2249 473.018 79.2249 470.561V470.393C79.2249 467.978 78.1119 466.781 76.2639 466.781C74.3949 466.781 73.3029 468.083 73.3029 470.456V470.624C73.3029 473.039 74.5209 474.194 76.1589 474.194ZM89.5319 476.21C86.2979 476.21 83.9669 474.089 83.9669 470.624V470.456C83.9669 467.054 86.2979 464.786 89.4269 464.786C92.1569 464.786 94.6139 466.403 94.6139 470.33V471.065H86.5709C86.6549 473.144 87.7049 474.32 89.5949 474.32C91.1279 474.32 91.9259 473.711 92.1149 472.64H94.5719C94.2149 474.95 92.3459 476.21 89.5319 476.21ZM86.6129 469.364H92.0939C91.9679 467.474 91.0019 466.634 89.4269 466.634C87.8939 466.634 86.8649 467.663 86.6129 469.364ZM96.8836 476V465.017H99.4246V467.075C100.118 465.689 101.147 464.87 102.995 464.849V467.222C100.769 467.243 99.4246 467.957 99.4246 470.288V476H96.8836ZM113.972 476.189C111.788 476.189 110.654 475.013 110.654 472.934V466.928H109.184V465.017H110.654V462.602H113.195V465.017H115.61V466.928H113.195V472.703C113.195 473.669 113.657 474.11 114.455 474.11C114.959 474.11 115.337 474.047 115.694 473.9V475.916C115.295 476.063 114.749 476.189 113.972 476.189ZM117.986 476V459.935H120.527V466.76C121.052 465.689 122.27 464.786 124.076 464.786C126.281 464.786 127.835 466.067 127.835 469.091V476H125.294V469.322C125.294 467.663 124.622 466.907 123.11 466.907C121.682 466.907 120.527 467.789 120.527 469.532V476H117.986ZM135.592 476.21C132.358 476.21 130.027 474.089 130.027 470.624V470.456C130.027 467.054 132.358 464.786 135.487 464.786C138.217 464.786 140.674 466.403 140.674 470.33V471.065H132.631C132.715 473.144 133.765 474.32 135.655 474.32C137.188 474.32 137.986 473.711 138.175 472.64H140.632C140.275 474.95 138.406 476.21 135.592 476.21ZM132.673 469.364H138.154C138.028 467.474 137.062 466.634 135.487 466.634C133.954 466.634 132.925 467.663 132.673 469.364ZM147.948 479.759V465.017H150.489V466.781C151.098 465.731 152.463 464.786 154.08 464.786C156.831 464.786 158.952 466.823 158.952 470.372V470.54C158.952 474.068 156.915 476.21 154.08 476.21C152.337 476.21 151.077 475.349 150.489 474.278V479.759H147.948ZM153.45 474.194C155.319 474.194 156.348 472.934 156.348 470.582V470.414C156.348 467.978 155.088 466.781 153.429 466.781C151.665 466.781 150.405 467.978 150.405 470.414V470.582C150.405 473.039 151.602 474.194 153.45 474.194ZM161.237 476V459.935H163.778V466.76C164.303 465.689 165.521 464.786 167.327 464.786C169.532 464.786 171.086 466.067 171.086 469.091V476H168.545V469.322C168.545 467.663 167.873 466.907 166.361 466.907C164.933 466.907 163.778 467.789 163.778 469.532V476H161.237ZM176.89 476.21C174.874 476.21 173.215 475.244 173.215 472.955C173.215 470.393 175.693 469.469 178.843 469.469H180.208V468.902C180.208 467.432 179.704 466.697 178.213 466.697C176.89 466.697 176.239 467.327 176.113 468.419H173.656C173.866 465.857 175.903 464.786 178.36 464.786C180.817 464.786 182.749 465.794 182.749 468.797V476H180.25V474.656C179.536 475.601 178.57 476.21 176.89 476.21ZM177.499 474.383C179.053 474.383 180.208 473.564 180.208 472.157V471.065H178.906C176.974 471.065 175.735 471.506 175.735 472.85C175.735 473.774 176.239 474.383 177.499 474.383ZM185.662 476V465.017H188.203V467.075C188.896 465.689 189.925 464.87 191.773 464.849V467.222C189.547 467.243 188.203 467.957 188.203 470.288V476H185.662ZM194.009 476V465.017H196.55V466.697C197.075 465.668 198.272 464.786 199.889 464.786C201.317 464.786 202.451 465.395 202.997 466.76C203.837 465.395 205.349 464.786 206.714 464.786C208.73 464.786 210.368 466.025 210.368 469.049V476H207.827V469.217C207.827 467.6 207.134 466.907 205.874 466.907C204.614 466.907 203.459 467.747 203.459 469.427V476H200.918V469.217C200.918 467.6 200.204 466.907 198.965 466.907C197.705 466.907 196.55 467.747 196.55 469.427V476H194.009ZM216.163 476.21C214.147 476.21 212.488 475.244 212.488 472.955C212.488 470.393 214.966 469.469 218.116 469.469H219.481V468.902C219.481 467.432 218.977 466.697 217.486 466.697C216.163 466.697 215.512 467.327 215.386 468.419H212.929C213.139 465.857 215.176 464.786 217.633 464.786C220.09 464.786 222.022 465.794 222.022 468.797V476H219.523V474.656C218.809 475.601 217.843 476.21 216.163 476.21ZM216.772 474.383C218.326 474.383 219.481 473.564 219.481 472.157V471.065H218.179C216.247 471.065 215.008 471.506 215.008 472.85C215.008 473.774 215.512 474.383 216.772 474.383ZM229.743 476.21C226.593 476.21 224.199 474.152 224.199 470.645V470.477C224.199 466.991 226.677 464.786 229.743 464.786C232.179 464.786 234.468 465.878 234.762 468.902H232.305C232.095 467.432 231.129 466.823 229.785 466.823C228.042 466.823 226.803 468.167 226.803 470.435V470.603C226.803 472.997 227.979 474.257 229.848 474.257C231.192 474.257 232.347 473.459 232.494 471.905H234.825C234.636 474.425 232.725 476.21 229.743 476.21ZM238.026 479.759L240.021 474.887L235.674 465.017H238.425L241.344 472.094L244.032 465.017H246.51L240.525 479.759H238.026ZM259.552 476.21C257.809 476.21 256.549 475.349 255.961 474.236V476H253.42V459.935H255.961V466.781C256.57 465.731 257.935 464.786 259.552 464.786C262.303 464.786 264.424 466.823 264.424 470.372V470.54C264.424 474.068 262.387 476.21 259.552 476.21ZM258.922 474.194C260.791 474.194 261.82 472.934 261.82 470.582V470.414C261.82 467.978 260.56 466.781 258.901 466.781C257.137 466.781 255.877 467.978 255.877 470.414V470.582C255.877 473.039 257.074 474.194 258.922 474.194ZM271.539 476.21C268.305 476.21 265.974 474.089 265.974 470.624V470.456C265.974 467.054 268.305 464.786 271.434 464.786C274.164 464.786 276.621 466.403 276.621 470.33V471.065H268.578C268.662 473.144 269.712 474.32 271.602 474.32C273.135 474.32 273.933 473.711 274.122 472.64H276.579C276.222 474.95 274.353 476.21 271.539 476.21ZM268.62 469.364H274.101C273.975 467.474 273.009 466.634 271.434 466.634C269.901 466.634 268.872 467.663 268.62 469.364ZM278.89 476V465.017H281.431V466.76C281.956 465.689 283.174 464.786 284.98 464.786C287.185 464.786 288.739 466.067 288.739 469.091V476H286.198V469.322C286.198 467.663 285.526 466.907 284.014 466.907C282.586 466.907 281.431 467.789 281.431 469.532V476H278.89ZM296.497 476.21C293.263 476.21 290.932 474.089 290.932 470.624V470.456C290.932 467.054 293.263 464.786 296.392 464.786C299.122 464.786 301.579 466.403 301.579 470.33V471.065H293.536C293.62 473.144 294.67 474.32 296.56 474.32C298.093 474.32 298.891 473.711 299.08 472.64H301.537C301.18 474.95 299.311 476.21 296.497 476.21ZM293.578 469.364H299.059C298.933 467.474 297.967 466.634 296.392 466.634C294.859 466.634 293.83 467.663 293.578 469.364ZM304.289 476V466.928H302.798V465.017H304.289V463.547C304.289 461.132 305.612 459.83 307.943 459.83C308.573 459.83 308.93 459.893 309.329 460.019V461.993C309.035 461.867 308.72 461.825 308.258 461.825C307.25 461.825 306.83 462.497 306.83 463.442V465.017H309.329V466.928H306.83V476H304.289ZM312.472 463.211C311.632 463.211 310.96 462.581 310.96 461.762C310.96 460.922 311.632 460.292 312.472 460.292C313.312 460.292 313.984 460.922 313.984 461.762C313.984 462.581 313.312 463.211 312.472 463.211ZM311.233 476V465.017H313.774V476H311.233ZM320.609 476.189C318.425 476.189 317.291 475.013 317.291 472.934V466.928H315.821V465.017H317.291V462.602H319.832V465.017H322.247V466.928H319.832V472.703C319.832 473.669 320.294 474.11 321.092 474.11C321.596 474.11 321.974 474.047 322.331 473.9V475.916C321.932 476.063 321.386 476.189 320.609 476.189ZM332.504 476.21C330.488 476.21 328.829 475.244 328.829 472.955C328.829 470.393 331.307 469.469 334.457 469.469H335.822V468.902C335.822 467.432 335.318 466.697 333.827 466.697C332.504 466.697 331.853 467.327 331.727 468.419H329.27C329.48 465.857 331.517 464.786 333.974 464.786C336.431 464.786 338.363 465.794 338.363 468.797V476H335.864V474.656C335.15 475.601 334.184 476.21 332.504 476.21ZM333.113 474.383C334.667 474.383 335.822 473.564 335.822 472.157V471.065H334.52C332.588 471.065 331.349 471.506 331.349 472.85C331.349 473.774 331.853 474.383 333.113 474.383ZM345.034 476.21C342.199 476.21 340.54 474.908 340.435 472.577H342.829C342.955 473.69 343.522 474.341 345.013 474.341C346.378 474.341 346.987 473.858 346.987 472.934C346.987 472.031 346.252 471.695 344.635 471.422C341.737 470.96 340.666 470.141 340.666 468.083C340.666 465.878 342.724 464.786 344.782 464.786C347.029 464.786 348.814 465.626 349.087 468.104H346.735C346.525 467.096 345.958 466.634 344.782 466.634C343.69 466.634 343.039 467.159 343.039 467.936C343.039 468.734 343.564 469.049 345.307 469.343C347.89 469.742 349.423 470.372 349.423 472.703C349.423 474.929 347.848 476.21 345.034 476.21ZM361.549 476.21C358.315 476.21 355.921 473.963 355.921 470.624V470.456C355.921 467.054 358.336 464.786 361.57 464.786C364.783 464.786 367.198 467.033 367.198 470.393V470.561C367.198 473.984 364.783 476.21 361.549 476.21ZM361.57 474.236C363.46 474.236 364.594 472.829 364.594 470.582V470.435C364.594 468.167 363.46 466.781 361.57 466.781C359.68 466.781 358.525 468.146 358.525 470.414V470.582C358.525 472.829 359.638 474.236 361.57 474.236ZM369.935 476V466.928H368.444V465.017H369.935V463.547C369.935 461.132 371.279 459.83 373.631 459.83C374.24 459.83 374.618 459.893 375.08 460.04V462.014C374.786 461.909 374.387 461.825 373.925 461.825C372.896 461.825 372.476 462.497 372.476 463.442V465.017H374.975V466.928H372.476V476H369.935ZM117.155 503V487.985H121.712C126.941 487.985 129.482 490.967 129.482 495.335V495.524C129.482 499.892 126.941 503 121.67 503H117.155ZM119.948 500.795H121.586C124.946 500.795 126.563 498.863 126.563 495.545V495.377C126.563 492.143 125.093 490.19 121.565 490.19H119.948V500.795ZM136.766 503.21C133.532 503.21 131.201 501.089 131.201 497.624V497.456C131.201 494.054 133.532 491.786 136.661 491.786C139.391 491.786 141.848 493.403 141.848 497.33V498.065H133.805C133.889 500.144 134.939 501.32 136.829 501.32C138.362 501.32 139.16 500.711 139.349 499.64H141.806C141.449 501.95 139.58 503.21 136.766 503.21ZM133.847 496.364H139.328C139.202 494.474 138.236 493.634 136.661 493.634C135.128 493.634 134.099 494.663 133.847 496.364ZM148.926 503.21C145.776 503.21 143.382 501.152 143.382 497.645V497.477C143.382 493.991 145.86 491.786 148.926 491.786C151.362 491.786 153.651 492.878 153.945 495.902H151.488C151.278 494.432 150.312 493.823 148.968 493.823C147.225 493.823 145.986 495.167 145.986 497.435V497.603C145.986 499.997 147.162 501.257 149.031 501.257C150.375 501.257 151.53 500.459 151.677 498.905H154.008C153.819 501.425 151.908 503.21 148.926 503.21ZM161.027 503.21C157.793 503.21 155.462 501.089 155.462 497.624V497.456C155.462 494.054 157.793 491.786 160.922 491.786C163.652 491.786 166.109 493.403 166.109 497.33V498.065H158.066C158.15 500.144 159.2 501.32 161.09 501.32C162.623 501.32 163.421 500.711 163.61 499.64H166.067C165.71 501.95 163.841 503.21 161.027 503.21ZM158.108 496.364H163.589C163.463 494.474 162.497 493.634 160.922 493.634C159.389 493.634 158.36 494.663 158.108 496.364ZM168.378 503V492.017H170.919V493.697C171.444 492.668 172.641 491.786 174.258 491.786C175.686 491.786 176.82 492.395 177.366 493.76C178.206 492.395 179.718 491.786 181.083 491.786C183.099 491.786 184.737 493.025 184.737 496.049V503H182.196V496.217C182.196 494.6 181.503 493.907 180.243 493.907C178.983 493.907 177.828 494.747 177.828 496.427V503H175.287V496.217C175.287 494.6 174.573 493.907 173.334 493.907C172.074 493.907 170.919 494.747 170.919 496.427V503H168.378ZM193.788 503.21C192.045 503.21 190.785 502.349 190.197 501.236V503H187.656V486.935H190.197V493.781C190.806 492.731 192.171 491.786 193.788 491.786C196.539 491.786 198.66 493.823 198.66 497.372V497.54C198.66 501.068 196.623 503.21 193.788 503.21ZM193.158 501.194C195.027 501.194 196.056 499.934 196.056 497.582V497.414C196.056 494.978 194.796 493.781 193.137 493.781C191.373 493.781 190.113 494.978 190.113 497.414V497.582C190.113 500.039 191.31 501.194 193.158 501.194ZM205.775 503.21C202.541 503.21 200.21 501.089 200.21 497.624V497.456C200.21 494.054 202.541 491.786 205.67 491.786C208.4 491.786 210.857 493.403 210.857 497.33V498.065H202.814C202.898 500.144 203.948 501.32 205.838 501.32C207.371 501.32 208.169 500.711 208.358 499.64H210.815C210.458 501.95 208.589 503.21 205.775 503.21ZM202.856 496.364H208.337C208.211 494.474 207.245 493.634 205.67 493.634C204.137 493.634 203.108 494.663 202.856 496.364ZM213.126 503V492.017H215.667V494.075C216.36 492.689 217.389 491.87 219.237 491.849V494.222C217.011 494.243 215.667 494.957 215.667 497.288V503H213.126ZM225.28 503V502.496L230.95 496.511C232.378 494.999 233.239 493.676 233.239 492.248C233.239 490.841 232.441 489.959 230.992 489.959C229.501 489.959 228.556 490.82 228.304 492.941H225.742C225.931 489.665 227.905 487.775 231.076 487.775C234.184 487.775 236.032 489.56 236.032 492.206C236.032 494.159 234.877 495.86 233.092 497.582L229.753 500.837H236.137V503H225.28ZM244.374 503.21C240.552 503.21 238.074 500.396 238.074 495.881V495.125C238.074 490.568 240.594 487.775 244.374 487.775C248.175 487.775 250.653 490.547 250.653 495.062V495.818C250.653 500.333 248.301 503.21 244.374 503.21ZM244.437 500.984C246.747 500.984 247.86 499.22 247.86 495.818V495.083C247.86 491.891 246.642 489.959 244.395 489.959C242.127 489.959 240.888 491.765 240.888 495.104V495.86C240.888 499.262 242.19 500.984 244.437 500.984ZM252.043 503V502.496L257.713 496.511C259.141 494.999 260.002 493.676 260.002 492.248C260.002 490.841 259.204 489.959 257.755 489.959C256.264 489.959 255.319 490.82 255.067 492.941H252.505C252.694 489.665 254.668 487.775 257.839 487.775C260.947 487.775 262.795 489.56 262.795 492.206C262.795 494.159 261.64 495.86 259.855 497.582L256.516 500.837H262.9V503H252.043ZM270.252 503.21C266.682 503.21 264.729 501.236 264.603 498.359H267.144C267.291 499.934 268.173 501.11 270.189 501.11C272.142 501.11 273.045 500.165 273.045 498.674C273.045 497.036 272.163 496.217 270.336 496.217H269.181V494.222H270.252C271.974 494.222 272.751 493.424 272.751 492.017C272.751 490.799 271.974 489.896 270.42 489.896C268.824 489.896 267.795 490.862 267.627 492.374H265.149C265.296 489.77 267.249 487.775 270.462 487.775C273.591 487.775 275.418 489.581 275.418 491.807C275.418 493.508 274.431 494.537 272.982 495.083C274.725 495.482 275.88 496.721 275.88 498.716C275.88 501.488 273.696 503.21 270.252 503.21ZM279.566 503.147C278.642 503.147 277.907 502.433 277.907 501.509C277.907 500.585 278.642 499.85 279.566 499.85C280.511 499.85 281.246 500.585 281.246 501.509C281.246 502.433 280.511 503.147 279.566 503.147ZM282.78 495.167V494.936L285.468 492.08C286.161 491.366 286.602 490.715 286.602 490.043C286.602 489.392 286.224 488.993 285.552 488.993C284.859 488.993 284.418 489.392 284.292 490.379H283.011C283.095 488.804 284.061 487.901 285.594 487.901C287.106 487.901 287.988 488.741 287.988 490.022C287.988 490.967 287.442 491.765 286.602 492.584L285.069 494.096H288.051V495.167H282.78ZM291.75 494.726L290.133 493.571L291.918 491.429L289.398 490.946L289.965 489.077L292.359 490.127L292.086 487.397H294.186L293.913 490.127L296.307 489.077L296.853 490.946L294.312 491.429L296.097 493.571L294.501 494.726L293.094 492.248L291.75 494.726ZM300.18 499.166V493.982H298.164V492.362H300.18V490.13H302.034V492.362H304.032V493.982H302.034V499.166H300.18Z" fill="#95004D"/>
<path d="M119.962 29L114.55 14.777H114.451L114.583 29H109.864V5.636H115.672L121.051 20.057H121.15L121.051 5.636H125.605V29H119.962ZM136.71 21.476H135.786C135.412 21.476 135.049 21.509 134.697 21.575C134.345 21.641 134.037 21.773 133.773 21.971C133.509 22.147 133.3 22.389 133.146 22.697C132.992 22.983 132.915 23.357 132.915 23.819C132.915 24.501 133.058 25.007 133.344 25.337C133.652 25.645 134.015 25.799 134.433 25.799C134.829 25.799 135.17 25.7 135.456 25.502C135.764 25.304 136.006 25.051 136.182 24.743C136.358 24.413 136.49 24.05 136.578 23.654C136.666 23.236 136.71 22.829 136.71 22.433V21.476ZM136.875 26.855C136.655 27.625 136.215 28.252 135.555 28.736C134.917 29.198 134.081 29.429 133.047 29.429C132.541 29.429 132.024 29.341 131.496 29.165C130.968 28.989 130.484 28.703 130.044 28.307C129.604 27.889 129.241 27.35 128.955 26.69C128.669 26.008 128.526 25.172 128.526 24.182C128.526 22.994 128.735 22.015 129.153 21.245C129.593 20.475 130.154 19.859 130.836 19.397C131.54 18.935 132.332 18.616 133.212 18.44C134.092 18.242 134.983 18.143 135.885 18.143H136.545V17.879C136.545 17.043 136.347 16.438 135.951 16.064C135.577 15.69 135.071 15.503 134.433 15.503C133.795 15.503 133.212 15.646 132.684 15.932C132.178 16.218 131.738 16.581 131.364 17.021L129.087 13.853C129.791 13.017 130.66 12.368 131.694 11.906C132.75 11.444 133.795 11.213 134.829 11.213C135.995 11.213 136.985 11.389 137.799 11.741C138.613 12.093 139.273 12.61 139.779 13.292C140.285 13.974 140.648 14.81 140.868 15.8C141.088 16.768 141.198 17.89 141.198 19.166V29H136.941V26.855H136.875ZM152.751 28.868C152.465 29.022 152.058 29.154 151.53 29.264C151.002 29.374 150.474 29.429 149.946 29.429C148.208 29.429 146.943 28.967 146.151 28.043C145.359 27.097 144.963 25.689 144.963 23.819V15.767H142.884V11.741H144.93V7.583H149.946V11.741H152.916V15.767H149.946V22.631C149.946 23.467 150.078 24.083 150.342 24.479C150.606 24.853 151.024 25.04 151.596 25.04C152.058 25.04 152.443 24.963 152.751 24.809V28.868ZM155.042 29V11.741H160.256V29H155.042ZM160.487 7.055C160.487 7.891 160.223 8.606 159.695 9.2C159.167 9.772 158.485 10.058 157.649 10.058C156.813 10.058 156.131 9.772 155.603 9.2C155.075 8.606 154.811 7.891 154.811 7.055C154.811 6.637 154.877 6.252 155.009 5.9C155.163 5.526 155.361 5.207 155.603 4.943C155.845 4.657 156.142 4.437 156.494 4.283C156.846 4.107 157.231 4.019 157.649 4.019C158.067 4.019 158.452 4.107 158.804 4.283C159.156 4.437 159.453 4.657 159.695 4.943C159.937 5.207 160.124 5.526 160.256 5.9C160.41 6.252 160.487 6.637 160.487 7.055ZM177.56 20.387C177.56 21.729 177.395 22.972 177.065 24.116C176.735 25.238 176.262 26.206 175.646 27.02C175.052 27.834 174.304 28.472 173.402 28.934C172.522 29.396 171.521 29.627 170.399 29.627C169.277 29.627 168.276 29.396 167.396 28.934C166.516 28.472 165.757 27.834 165.119 27.02C164.503 26.206 164.03 25.238 163.7 24.116C163.37 22.972 163.205 21.729 163.205 20.387C163.205 19.045 163.37 17.802 163.7 16.658C164.03 15.514 164.503 14.535 165.119 13.721C165.735 12.907 166.483 12.269 167.363 11.807C168.265 11.345 169.277 11.114 170.399 11.114C171.521 11.114 172.522 11.345 173.402 11.807C174.304 12.269 175.052 12.907 175.646 13.721C176.262 14.535 176.735 15.514 177.065 16.658C177.395 17.802 177.56 19.045 177.56 20.387ZM172.61 20.354C172.61 19.694 172.566 19.089 172.478 18.539C172.39 17.967 172.258 17.472 172.082 17.054C171.906 16.614 171.675 16.273 171.389 16.031C171.125 15.789 170.795 15.668 170.399 15.668C170.025 15.668 169.695 15.789 169.409 16.031C169.145 16.273 168.925 16.614 168.749 17.054C168.573 17.472 168.441 17.967 168.353 18.539C168.265 19.089 168.221 19.694 168.221 20.354C168.221 21.014 168.265 21.63 168.353 22.202C168.441 22.752 168.573 23.247 168.749 23.687C168.925 24.105 169.145 24.435 169.409 24.677C169.695 24.919 170.025 25.04 170.399 25.04C170.795 25.04 171.125 24.919 171.389 24.677C171.675 24.435 171.906 24.105 172.082 23.687C172.258 23.247 172.39 22.752 172.478 22.202C172.566 21.63 172.61 21.014 172.61 20.354ZM185.649 11.741V14.183H185.715C186.001 13.347 186.507 12.632 187.233 12.038C187.959 11.422 188.861 11.114 189.939 11.114C190.929 11.114 191.721 11.323 192.315 11.741C192.909 12.137 193.371 12.676 193.701 13.358C194.031 14.04 194.251 14.821 194.361 15.701C194.471 16.581 194.526 17.494 194.526 18.44V29H189.345V18.407C189.345 17.681 189.235 17.043 189.015 16.493C188.817 15.943 188.41 15.668 187.794 15.668C187.156 15.668 186.661 15.965 186.309 16.559C185.957 17.131 185.781 17.89 185.781 18.836V29H180.6V11.741H185.649ZM205.417 21.476H204.493C204.119 21.476 203.756 21.509 203.404 21.575C203.052 21.641 202.744 21.773 202.48 21.971C202.216 22.147 202.007 22.389 201.853 22.697C201.699 22.983 201.622 23.357 201.622 23.819C201.622 24.501 201.765 25.007 202.051 25.337C202.359 25.645 202.722 25.799 203.14 25.799C203.536 25.799 203.877 25.7 204.163 25.502C204.471 25.304 204.713 25.051 204.889 24.743C205.065 24.413 205.197 24.05 205.285 23.654C205.373 23.236 205.417 22.829 205.417 22.433V21.476ZM205.582 26.855C205.362 27.625 204.922 28.252 204.262 28.736C203.624 29.198 202.788 29.429 201.754 29.429C201.248 29.429 200.731 29.341 200.203 29.165C199.675 28.989 199.191 28.703 198.751 28.307C198.311 27.889 197.948 27.35 197.662 26.69C197.376 26.008 197.233 25.172 197.233 24.182C197.233 22.994 197.442 22.015 197.86 21.245C198.3 20.475 198.861 19.859 199.543 19.397C200.247 18.935 201.039 18.616 201.919 18.44C202.799 18.242 203.69 18.143 204.592 18.143H205.252V17.879C205.252 17.043 205.054 16.438 204.658 16.064C204.284 15.69 203.778 15.503 203.14 15.503C202.502 15.503 201.919 15.646 201.391 15.932C200.885 16.218 200.445 16.581 200.071 17.021L197.794 13.853C198.498 13.017 199.367 12.368 200.401 11.906C201.457 11.444 202.502 11.213 203.536 11.213C204.702 11.213 205.692 11.389 206.506 11.741C207.32 12.093 207.98 12.61 208.486 13.292C208.992 13.974 209.355 14.81 209.575 15.8C209.795 16.768 209.905 17.89 209.905 19.166V29H205.648V26.855H205.582ZM213.761 29V4.052H219.041V29H213.761ZM239.561 29L238.604 24.743H233.357L232.4 29H227.12L232.796 5.636H239.429L245.072 29H239.561ZM236.063 10.718H235.931L233.951 20.651H237.944L236.063 10.718ZM257.083 27.68C256.621 28.252 256.027 28.703 255.301 29.033C254.575 29.363 253.739 29.528 252.793 29.528C251.693 29.528 250.725 29.308 249.889 28.868C249.053 28.406 248.349 27.768 247.777 26.954C247.205 26.14 246.765 25.172 246.457 24.05C246.171 22.928 246.028 21.696 246.028 20.354C246.028 19.012 246.182 17.791 246.49 16.691C246.798 15.569 247.238 14.601 247.81 13.787C248.382 12.973 249.086 12.346 249.922 11.906C250.78 11.444 251.759 11.213 252.859 11.213C253.827 11.213 254.663 11.389 255.367 11.741C256.071 12.093 256.621 12.489 257.017 12.929L254.938 16.955C254.74 16.647 254.498 16.405 254.212 16.229C253.926 16.053 253.607 15.965 253.255 15.965C252.617 15.965 252.078 16.35 251.638 17.12C251.22 17.89 251.011 18.968 251.011 20.354C251.011 21.74 251.22 22.818 251.638 23.588C252.056 24.336 252.628 24.71 253.354 24.71C253.728 24.71 254.047 24.622 254.311 24.446C254.597 24.248 254.828 23.995 255.004 23.687L257.083 27.68ZM269.006 27.68C268.544 28.252 267.95 28.703 267.224 29.033C266.498 29.363 265.662 29.528 264.716 29.528C263.616 29.528 262.648 29.308 261.812 28.868C260.976 28.406 260.272 27.768 259.7 26.954C259.128 26.14 258.688 25.172 258.38 24.05C258.094 22.928 257.951 21.696 257.951 20.354C257.951 19.012 258.105 17.791 258.413 16.691C258.721 15.569 259.161 14.601 259.733 13.787C260.305 12.973 261.009 12.346 261.845 11.906C262.703 11.444 263.682 11.213 264.782 11.213C265.75 11.213 266.586 11.389 267.29 11.741C267.994 12.093 268.544 12.489 268.94 12.929L266.861 16.955C266.663 16.647 266.421 16.405 266.135 16.229C265.849 16.053 265.53 15.965 265.178 15.965C264.54 15.965 264.001 16.35 263.561 17.12C263.143 17.89 262.934 18.968 262.934 20.354C262.934 21.74 263.143 22.818 263.561 23.588C263.979 24.336 264.551 24.71 265.277 24.71C265.651 24.71 265.97 24.622 266.234 24.446C266.52 24.248 266.751 23.995 266.927 23.687L269.006 27.68ZM274.891 21.674C274.891 22.158 274.946 22.62 275.056 23.06C275.188 23.478 275.353 23.852 275.551 24.182C275.749 24.49 275.991 24.743 276.277 24.941C276.563 25.117 276.882 25.205 277.234 25.205C277.806 25.205 278.268 25.018 278.62 24.644C278.972 24.27 279.247 23.83 279.445 23.324L283.24 25.469C282.668 26.745 281.865 27.757 280.831 28.505C279.819 29.253 278.554 29.627 277.036 29.627C276.024 29.627 275.078 29.429 274.198 29.033C273.34 28.637 272.581 28.054 271.921 27.284C271.283 26.492 270.777 25.524 270.403 24.38C270.051 23.236 269.875 21.916 269.875 20.42C269.875 19.012 270.04 17.736 270.37 16.592C270.722 15.426 271.206 14.447 271.822 13.655C272.46 12.841 273.208 12.214 274.066 11.774C274.924 11.334 275.87 11.114 276.904 11.114C278.092 11.114 279.104 11.345 279.94 11.807C280.776 12.269 281.458 12.907 281.986 13.721C282.536 14.513 282.932 15.47 283.174 16.592C283.416 17.692 283.537 18.902 283.537 20.222V21.674H274.891ZM278.785 18.308C278.785 17.384 278.642 16.614 278.356 15.998C278.07 15.382 277.597 15.074 276.937 15.074C276.585 15.074 276.277 15.184 276.013 15.404C275.771 15.602 275.562 15.866 275.386 16.196C275.21 16.504 275.078 16.856 274.99 17.252C274.902 17.626 274.858 17.978 274.858 18.308H278.785ZM294.614 16.592C294.218 16.196 293.789 15.877 293.327 15.635C292.865 15.393 292.359 15.272 291.809 15.272C291.391 15.272 291.028 15.404 290.72 15.668C290.434 15.932 290.291 16.295 290.291 16.757C290.291 17.197 290.445 17.527 290.753 17.747C291.083 17.945 291.688 18.176 292.568 18.44C293.074 18.594 293.58 18.803 294.086 19.067C294.592 19.331 295.043 19.672 295.439 20.09C295.835 20.508 296.154 21.014 296.396 21.608C296.66 22.18 296.792 22.862 296.792 23.654C296.792 24.71 296.605 25.612 296.231 26.36C295.857 27.108 295.384 27.713 294.812 28.175C294.24 28.637 293.591 28.978 292.865 29.198C292.161 29.418 291.479 29.528 290.819 29.528C289.675 29.528 288.564 29.319 287.486 28.901C286.43 28.483 285.517 27.9 284.747 27.152L287.321 23.852C287.783 24.336 288.278 24.732 288.806 25.04C289.356 25.348 289.95 25.502 290.588 25.502C291.072 25.502 291.446 25.359 291.71 25.073C291.996 24.787 292.139 24.413 292.139 23.951C292.139 23.401 291.919 23.005 291.479 22.763C291.039 22.499 290.379 22.224 289.499 21.938C289.037 21.784 288.575 21.597 288.113 21.377C287.651 21.135 287.233 20.816 286.859 20.42C286.507 20.024 286.21 19.551 285.968 19.001C285.748 18.429 285.638 17.736 285.638 16.922C285.638 15.954 285.814 15.118 286.166 14.414C286.518 13.688 286.969 13.094 287.519 12.632C288.091 12.148 288.718 11.796 289.4 11.576C290.104 11.334 290.808 11.213 291.512 11.213C292.568 11.213 293.58 11.4 294.548 11.774C295.516 12.148 296.374 12.665 297.122 13.325L294.614 16.592ZM307.633 16.592C307.237 16.196 306.808 15.877 306.346 15.635C305.884 15.393 305.378 15.272 304.828 15.272C304.41 15.272 304.047 15.404 303.739 15.668C303.453 15.932 303.31 16.295 303.31 16.757C303.31 17.197 303.464 17.527 303.772 17.747C304.102 17.945 304.707 18.176 305.587 18.44C306.093 18.594 306.599 18.803 307.105 19.067C307.611 19.331 308.062 19.672 308.458 20.09C308.854 20.508 309.173 21.014 309.415 21.608C309.679 22.18 309.811 22.862 309.811 23.654C309.811 24.71 309.624 25.612 309.25 26.36C308.876 27.108 308.403 27.713 307.831 28.175C307.259 28.637 306.61 28.978 305.884 29.198C305.18 29.418 304.498 29.528 303.838 29.528C302.694 29.528 301.583 29.319 300.505 28.901C299.449 28.483 298.536 27.9 297.766 27.152L300.34 23.852C300.802 24.336 301.297 24.732 301.825 25.04C302.375 25.348 302.969 25.502 303.607 25.502C304.091 25.502 304.465 25.359 304.729 25.073C305.015 24.787 305.158 24.413 305.158 23.951C305.158 23.401 304.938 23.005 304.498 22.763C304.058 22.499 303.398 22.224 302.518 21.938C302.056 21.784 301.594 21.597 301.132 21.377C300.67 21.135 300.252 20.816 299.878 20.42C299.526 20.024 299.229 19.551 298.987 19.001C298.767 18.429 298.657 17.736 298.657 16.922C298.657 15.954 298.833 15.118 299.185 14.414C299.537 13.688 299.988 13.094 300.538 12.632C301.11 12.148 301.737 11.796 302.419 11.576C303.123 11.334 303.827 11.213 304.531 11.213C305.587 11.213 306.599 11.4 307.567 11.774C308.535 12.148 309.393 12.665 310.141 13.325L307.633 16.592ZM147.436 43.682C147.106 43.572 146.754 43.517 146.38 43.517C145.654 43.517 145.159 43.803 144.895 44.375C144.653 44.925 144.532 45.574 144.532 46.322V47.741H147.172V51.767H144.565V65H139.516V51.767H137.47V47.741H139.516V46.289C139.516 45.343 139.615 44.452 139.813 43.616C140.011 42.758 140.341 42.01 140.803 41.372C141.265 40.712 141.881 40.195 142.651 39.821C143.421 39.425 144.378 39.227 145.522 39.227C145.83 39.227 146.193 39.249 146.611 39.293C147.029 39.337 147.392 39.403 147.7 39.491L147.436 43.682ZM162.478 56.387C162.478 57.729 162.313 58.972 161.983 60.116C161.653 61.238 161.18 62.206 160.564 63.02C159.97 63.834 159.222 64.472 158.32 64.934C157.44 65.396 156.439 65.627 155.317 65.627C154.195 65.627 153.194 65.396 152.314 64.934C151.434 64.472 150.675 63.834 150.037 63.02C149.421 62.206 148.948 61.238 148.618 60.116C148.288 58.972 148.123 57.729 148.123 56.387C148.123 55.045 148.288 53.802 148.618 52.658C148.948 51.514 149.421 50.535 150.037 49.721C150.653 48.907 151.401 48.269 152.281 47.807C153.183 47.345 154.195 47.114 155.317 47.114C156.439 47.114 157.44 47.345 158.32 47.807C159.222 48.269 159.97 48.907 160.564 49.721C161.18 50.535 161.653 51.514 161.983 52.658C162.313 53.802 162.478 55.045 162.478 56.387ZM157.528 56.354C157.528 55.694 157.484 55.089 157.396 54.539C157.308 53.967 157.176 53.472 157 53.054C156.824 52.614 156.593 52.273 156.307 52.031C156.043 51.789 155.713 51.668 155.317 51.668C154.943 51.668 154.613 51.789 154.327 52.031C154.063 52.273 153.843 52.614 153.667 53.054C153.491 53.472 153.359 53.967 153.271 54.539C153.183 55.089 153.139 55.694 153.139 56.354C153.139 57.014 153.183 57.63 153.271 58.202C153.359 58.752 153.491 59.247 153.667 59.687C153.843 60.105 154.063 60.435 154.327 60.677C154.613 60.919 154.943 61.04 155.317 61.04C155.713 61.04 156.043 60.919 156.307 60.677C156.593 60.435 156.824 60.105 157 59.687C157.176 59.247 157.308 58.752 157.396 58.202C157.484 57.63 157.528 57.014 157.528 56.354ZM165.518 47.741H170.567V50.645H170.6C171.216 48.357 172.371 47.213 174.065 47.213C174.241 47.213 174.384 47.224 174.494 47.246C174.604 47.246 174.736 47.268 174.89 47.312L174.56 52.493C174.384 52.449 174.208 52.416 174.032 52.394C173.878 52.35 173.68 52.328 173.438 52.328C172.998 52.328 172.613 52.449 172.283 52.691C171.953 52.911 171.667 53.208 171.425 53.582C171.205 53.956 171.029 54.396 170.897 54.902C170.787 55.408 170.732 55.925 170.732 56.453V65H165.518V47.741ZM194.193 65V55.232H188.748V65H183.501V41.636H188.748V50.513H194.193V41.636H199.44V65H194.193ZM212.257 65V62.558H212.191C211.905 63.394 211.399 64.12 210.673 64.736C209.947 65.33 209.045 65.627 207.967 65.627C206.977 65.627 206.185 65.418 205.591 65C204.997 64.604 204.535 64.065 204.205 63.383C203.875 62.701 203.655 61.92 203.545 61.04C203.435 60.16 203.38 59.247 203.38 58.301V47.741H208.561V58.301C208.561 58.675 208.583 59.027 208.627 59.357C208.671 59.687 208.748 59.973 208.858 60.215C208.968 60.457 209.122 60.655 209.32 60.809C209.54 60.963 209.804 61.04 210.112 61.04C210.75 61.04 211.245 60.754 211.597 60.182C211.949 59.588 212.125 58.818 212.125 57.872V47.741H217.306V65H212.257ZM226.448 47.741V50.183H226.514C226.734 49.347 227.196 48.632 227.9 48.038C228.604 47.422 229.506 47.114 230.606 47.114C231.838 47.114 232.751 47.411 233.345 48.005C233.961 48.599 234.39 49.325 234.632 50.183H234.698C234.852 49.787 235.05 49.413 235.292 49.061C235.556 48.687 235.864 48.357 236.216 48.071C236.59 47.785 237.008 47.554 237.47 47.378C237.954 47.202 238.493 47.114 239.087 47.114C240.077 47.114 240.88 47.323 241.496 47.741C242.112 48.137 242.585 48.676 242.915 49.358C243.245 50.04 243.465 50.821 243.575 51.701C243.707 52.581 243.773 53.494 243.773 54.44V65H238.658V54.407C238.658 53.681 238.548 53.043 238.328 52.493C238.108 51.943 237.69 51.668 237.074 51.668C236.436 51.668 235.941 51.965 235.589 52.559C235.259 53.131 235.094 53.89 235.094 54.836V65H230.012V54.407C230.012 53.681 229.902 53.043 229.682 52.493C229.484 51.943 229.077 51.668 228.461 51.668C227.823 51.668 227.328 51.965 226.976 52.559C226.646 53.131 226.481 53.89 226.481 54.836V65H221.399V47.741H226.448ZM247.565 65V47.741H252.779V65H247.565ZM253.01 43.055C253.01 43.891 252.746 44.606 252.218 45.2C251.69 45.772 251.008 46.058 250.172 46.058C249.336 46.058 248.654 45.772 248.126 45.2C247.598 44.606 247.334 43.891 247.334 43.055C247.334 42.637 247.4 42.252 247.532 41.9C247.686 41.526 247.884 41.207 248.126 40.943C248.368 40.657 248.665 40.437 249.017 40.283C249.369 40.107 249.754 40.019 250.172 40.019C250.59 40.019 250.975 40.107 251.327 40.283C251.679 40.437 251.976 40.657 252.218 40.943C252.46 41.207 252.647 41.526 252.779 41.9C252.933 42.252 253.01 42.637 253.01 43.055ZM256.784 47.741H261.833V50.645H261.866C262.482 48.357 263.637 47.213 265.331 47.213C265.507 47.213 265.65 47.224 265.76 47.246C265.87 47.246 266.002 47.268 266.156 47.312L265.826 52.493C265.65 52.449 265.474 52.416 265.298 52.394C265.144 52.35 264.946 52.328 264.704 52.328C264.264 52.328 263.879 52.449 263.549 52.691C263.219 52.911 262.933 53.208 262.691 53.582C262.471 53.956 262.295 54.396 262.163 54.902C262.053 55.408 261.998 55.925 261.998 56.453V65H256.784V47.741ZM274.93 57.476H274.006C273.632 57.476 273.269 57.509 272.917 57.575C272.565 57.641 272.257 57.773 271.993 57.971C271.729 58.147 271.52 58.389 271.366 58.697C271.212 58.983 271.135 59.357 271.135 59.819C271.135 60.501 271.278 61.007 271.564 61.337C271.872 61.645 272.235 61.799 272.653 61.799C273.049 61.799 273.39 61.7 273.676 61.502C273.984 61.304 274.226 61.051 274.402 60.743C274.578 60.413 274.71 60.05 274.798 59.654C274.886 59.236 274.93 58.829 274.93 58.433V57.476ZM275.095 62.855C274.875 63.625 274.435 64.252 273.775 64.736C273.137 65.198 272.301 65.429 271.267 65.429C270.761 65.429 270.244 65.341 269.716 65.165C269.188 64.989 268.704 64.703 268.264 64.307C267.824 63.889 267.461 63.35 267.175 62.69C266.889 62.008 266.746 61.172 266.746 60.182C266.746 58.994 266.955 58.015 267.373 57.245C267.813 56.475 268.374 55.859 269.056 55.397C269.76 54.935 270.552 54.616 271.432 54.44C272.312 54.242 273.203 54.143 274.105 54.143H274.765V53.879C274.765 53.043 274.567 52.438 274.171 52.064C273.797 51.69 273.291 51.503 272.653 51.503C272.015 51.503 271.432 51.646 270.904 51.932C270.398 52.218 269.958 52.581 269.584 53.021L267.307 49.853C268.011 49.017 268.88 48.368 269.914 47.906C270.97 47.444 272.015 47.213 273.049 47.213C274.215 47.213 275.205 47.389 276.019 47.741C276.833 48.093 277.493 48.61 277.999 49.292C278.505 49.974 278.868 50.81 279.088 51.8C279.308 52.768 279.418 53.89 279.418 55.166V65H275.161V62.855H275.095Z" fill="#95004D"/>
</g>
<defs>
<filter id="filter0_i_3708_30485" x="61.4507" y="79.141" width="289.649" height="297.235" filterUnits="userSpaceOnUse" color-interpolation-filters="sRGB">
<feFlood flood-opacity="0" result="BackgroundImageFix"/>
<feBlend mode="normal" in="SourceGraphic" in2="BackgroundImageFix" result="shape"/>
<feColorMatrix in="SourceAlpha" type="matrix" values="0 0 0 0 0 0 0 0 0 0 0 0 0 0 0 0 0 0 127 0" result="hardAlpha"/>
<feMorphology radius="11.3785" operator="erode" in="SourceAlpha" result="effect1_innerShadow_3708_30485"/>
<feOffset dx="1.89641" dy="-9.48207"/>
<feGaussianBlur stdDeviation="7.58566"/>
<feComposite in2="hardAlpha" operator="arithmetic" k2="-1" k3="1"/>
<feColorMatrix type="matrix" values="0 0 0 0 0.0100407 0 0 0 0 0.0100407 0 0 0 0 0.0100407 0 0 0 0.632173 0"/>
<feBlend mode="normal" in2="shape" result="effect1_innerShadow_3708_30485"/>
</filter>
<filter id="filter1_d_3708_30485" x="64.9142" y="91.914" width="281.171" height="281.171" filterUnits="userSpaceOnUse" color-interpolation-filters="sRGB">
<feFlood flood-opacity="0" result="BackgroundImageFix"/>
<feColorMatrix in="SourceAlpha" type="matrix" values="0 0 0 0 0 0 0 0 0 0 0 0 0 0 0 0 0 0 127 0" result="hardAlpha"/>
<feMorphology radius="15.1713" operator="dilate" in="SourceAlpha" result="effect1_dropShadow_3708_30485"/>
<feOffset/>
<feGaussianBlur stdDeviation="7.58566"/>
<feColorMatrix type="matrix" values="0 0 0 0 0.105882 0 0 0 0 0.635294 0 0 0 0 0.854902 0 0 0 0.3013 0"/>
<feBlend mode="normal" in2="BackgroundImageFix" result="effect1_dropShadow_3708_30485"/>
<feBlend mode="normal" in="SourceGraphic" in2="effect1_dropShadow_3708_30485" result="shape"/>
</filter>
<filter id="filter2_i_3708_30485" x="95.2568" y="122.257" width="220.486" height="224.279" filterUnits="userSpaceOnUse" color-interpolation-filters="sRGB">
<feFlood flood-opacity="0" result="BackgroundImageFix"/>
<feBlend mode="normal" in="SourceGraphic" in2="BackgroundImageFix" result="shape"/>
<feColorMatrix in="SourceAlpha" type="matrix" values="0 0 0 0 0 0 0 0 0 0 0 0 0 0 0 0 0 0 127 0" result="hardAlpha"/>
<feMorphology radius="1.89641" operator="dilate" in="SourceAlpha" result="effect1_innerShadow_3708_30485"/>
<feOffset dy="3.79283"/>
<feGaussianBlur stdDeviation="13.2749"/>
<feComposite in2="hardAlpha" operator="arithmetic" k2="-1" k3="1"/>
<feColorMatrix type="matrix" values="0 0 0 0 0.415686 0 0 0 0 0.556863 0 0 0 0 0.694118 0 0 0 0.64 0"/>
<feBlend mode="normal" in2="shape" result="effect1_innerShadow_3708_30485"/>
</filter>
<radialGradient id="paint0_angular_3708_30485" cx="0" cy="0" r="1" gradientUnits="userSpaceOnUse" gradientTransform="translate(127.06 127.06) scale(127.06 127.06)">
<stop offset="0.295888" stop-color="white"/>
<stop offset="0.295987" stop-color="white"/>
<stop offset="0.296087" stop-color="white"/>
<stop offset="0.305917" stop-color="white"/>
<stop offset="0.326042" stop-color="#3DB0DF"/>
<stop offset="0.33125" stop-color="#96004D"/>
<stop offset="0.659375" stop-color="#96004D"/>
</radialGradient>
<radialGradient id="paint1_radial_3708_30485" cx="0" cy="0" r="1" gradientUnits="userSpaceOnUse" gradientTransform="translate(169.191 112.794) rotate(166.946) scale(18.1401)">
<stop stop-color="#96004D" stop-opacity="0.38"/>
<stop offset="1" stop-color="#96004D"/>
</radialGradient>
<clipPath id="clip0_3708_30485">
<rect width="418.5" height="585" fill="white"/>
</clipPath>
</defs>
</svg>
