<svg width="621" height="125" viewBox="0 0 621 125" fill="none" xmlns="http://www.w3.org/2000/svg">
<rect x="1.07129" y="0.642822" width="619" height="123" rx="3.5" fill="#071D49"/>
<rect x="1.07129" y="0.642822" width="619" height="123" rx="3.5" stroke="white"/>
<path fill-rule="evenodd" clip-rule="evenodd" d="M88.7992 12.1428L88.8245 12.2247V12.1428H97.1077V12.2247L97.1331 12.1428L100.914 24.7256L105.908 26.0945L114.844 17.6247L114.826 17.7083L114.866 17.6376L122.04 21.8411L122 21.9127L122.062 21.854L119.213 34.3394L122.381 37.2264L134.5 34.3773L134.443 34.4411L134.514 34.3997L138.655 41.6808L138.585 41.7221L138.667 41.7032L130.124 50.9894L131.249 55.1644L131.275 55.4204L142.229 58.8109L142.147 58.8368H142.207V67.2437H142.147L142.229 67.2695L131.275 70.6601L131.249 70.917L129.78 76.1437L137.552 84.7204L137.469 84.7014L137.52 84.7316L133.325 91.9807L133.273 91.9497L133.331 92.0144L121.956 89.248L120.425 91.0057L118.709 92.473L121.184 103.345L121.121 103.287L121.151 103.339L113.975 107.539L113.945 107.487L113.964 107.57L106.008 100.022L105.988 100.031C104.163 100.664 102.278 101.162 100.342 101.513L100.327 101.514L97.1331 112.143L97.1077 112.061V112.12H88.8245V112.061L88.7992 112.143L85.5009 101.167L82.075 100.366L81.5711 100.142L72.7992 108.457L72.8178 108.372L72.7882 108.425L65.6142 104.22L65.6439 104.169L65.5813 104.227L68.2716 92.4402L67.635 91.9704L65.0055 88.9618L53.3421 91.7032L53.3996 91.6394L53.348 91.6696L49.2068 84.3885L49.2575 84.3592L49.1747 84.3773L56.4839 76.4342H68.2902L69.2262 78.1851C74.2813 85.7799 82.8419 90.773 92.5514 90.773C108.087 90.773 120.682 77.9902 120.682 62.2221C120.682 46.454 108.087 33.6721 92.5514 33.6721C82.8419 33.6721 74.2813 38.6652 69.2262 46.2592L67.088 50.2575H56.4425L48.3799 41.3609L48.4628 41.3799L48.3926 41.3385L52.5888 34.0894L52.6589 34.1308L52.6014 34.067L65.0317 37.0894L67.635 34.1109L67.7305 34.0411L64.7476 20.9411L64.8111 20.9989L64.7705 20.9273L71.9461 16.7282L71.9867 16.7989L71.9681 16.7152L81.6514 25.9032L82.075 25.7152L84.9209 25.0497L88.7992 12.1428Z" fill="#DBA63D"/>
<path fill-rule="evenodd" clip-rule="evenodd" d="M72.7084 53.3664L72.354 55.18H52.5014L43.8961 46.1981H35.7707C35.3609 48.9354 33.039 51.055 30.2031 51.055C27.0744 51.055 24.5713 48.475 24.5713 45.3321C24.5713 42.1892 27.0744 39.6091 30.2031 39.6091C32.9587 39.6091 35.2289 41.6104 35.7313 44.235H44.7341L53.3394 53.2169H70.7372L70.8189 52.7988L70.8556 52.7093C74.4264 44.0133 82.7981 37.885 92.5812 37.885C105.628 37.885 116.156 48.773 116.156 62.1424C116.156 75.5119 105.628 86.3999 92.5812 86.3999C84.4296 86.3999 77.2551 82.1435 73.0261 75.6945L73.0003 75.6552L71.8046 73.3852H53.3394L44.7341 82.3671H35.5848C34.8773 84.6942 32.747 86.3999 30.2031 86.3999C27.0744 86.3999 24.5713 83.8199 24.5713 80.6769C24.5713 77.534 27.0744 74.954 30.2031 74.954C33.2407 74.954 35.6887 77.386 35.8286 80.404H43.8961L52.5014 71.4221H72.9895L74.6934 74.6568C78.5877 80.5686 85.1517 84.4367 92.5812 84.4367C104.489 84.4367 114.193 74.4833 114.193 62.1424C114.193 49.8016 104.489 39.8482 92.5812 39.8482C83.6817 39.8482 76.018 45.4027 72.7084 53.3664ZM33.8622 80.404C33.7254 78.4391 32.1235 76.9171 30.2031 76.9171C28.1946 76.9171 26.5346 78.5819 26.5346 80.6769C26.5346 82.7719 28.1946 84.4367 30.2031 84.4367C31.9439 84.4367 33.4229 83.1861 33.7862 81.4888V80.404H33.8622ZM33.7862 44.5202C33.4229 42.8229 31.9439 41.5723 30.2031 41.5723C28.1946 41.5723 26.5346 43.2371 26.5346 45.3321C26.5346 47.4271 28.1946 49.0919 30.2031 49.0919C31.9439 49.0919 33.4229 47.8413 33.7862 46.144V44.5202Z" fill="#EDF0FF"/>
<path fill-rule="evenodd" clip-rule="evenodd" d="M40.3475 58.8145C38.339 58.8145 36.6789 60.4793 36.6789 62.5743C36.6789 64.6693 38.339 66.3341 40.3475 66.3341C42.3559 66.3341 44.016 64.6693 44.016 62.5743C44.016 60.4793 42.3559 58.8145 40.3475 58.8145ZM34.7156 62.5743C34.7156 59.4313 37.2188 56.8513 40.3475 56.8513C43.2917 56.8513 45.6819 59.136 45.9535 62.0246L86.3127 62.0598C86.5681 59.1547 88.9658 56.8513 91.922 56.8513C95.0507 56.8513 97.5538 59.4313 97.5538 62.5743C97.5538 65.7172 95.0507 68.2972 91.922 68.2972C89.2909 68.2972 87.1023 66.4726 86.4726 64.0231L45.8059 63.9876C45.1883 66.455 42.9912 68.2972 40.3475 68.2972C37.2188 68.2972 34.7156 65.7172 34.7156 62.5743ZM91.922 58.8145C89.9135 58.8145 88.2535 60.4793 88.2535 62.5743C88.2535 64.6693 89.9135 66.3341 91.922 66.3341C93.9304 66.3341 95.5905 64.6693 95.5905 62.5743C95.5905 60.4793 93.9304 58.8145 91.922 58.8145Z" fill="#DBA63D"/>
<path opacity="0.8" d="M591.71 78.3973C591.593 77.9902 591.428 77.6305 591.216 77.3181C591.004 77.0002 590.745 76.7325 590.438 76.515C590.137 76.292 589.791 76.1218 589.401 76.0047C589.016 75.8876 588.589 75.829 588.121 75.829C587.245 75.829 586.475 76.0466 585.812 76.4816C585.153 76.9166 584.64 77.5496 584.272 78.3806C583.904 79.206 583.72 80.2154 583.72 81.4089C583.72 82.6024 583.901 83.6175 584.264 84.454C584.626 85.2906 585.139 85.9292 585.803 86.3698C586.467 86.8048 587.251 87.0223 588.154 87.0223C588.974 87.0223 589.674 86.8773 590.254 86.5873C590.84 86.2917 591.286 85.8762 591.593 85.3408C591.905 84.8054 592.061 84.1724 592.061 83.4418L592.797 83.5506H588.38V80.8233H595.55V82.9817C595.55 84.4875 595.232 85.7814 594.596 86.8634C593.96 87.9397 593.085 88.7707 591.969 89.3563C590.854 89.9363 589.576 90.2264 588.137 90.2264C586.531 90.2264 585.12 89.8722 583.904 89.1639C582.688 88.45 581.74 87.4378 581.059 86.1272C580.385 84.811 580.047 83.2494 580.047 81.4424C580.047 80.0537 580.248 78.8156 580.649 77.7281C581.057 76.6349 581.626 75.7091 582.356 74.9507C583.087 74.1922 583.937 73.6149 584.908 73.219C585.878 72.823 586.93 72.625 588.062 72.625C589.033 72.625 589.936 72.7672 590.773 73.0517C591.609 73.3305 592.351 73.7265 592.998 74.2396C593.651 74.7527 594.183 75.3634 594.596 76.0717C595.009 76.7744 595.274 77.5496 595.391 78.3973H591.71Z" fill="#DBA63D"/>
<path opacity="0.8" d="M574.999 72.8591V89.992H571.87L564.416 79.2087H564.29V89.992H560.668V72.8591H563.847L571.243 83.6341H571.393V72.8591H574.999Z" fill="#DBA63D"/>
<path opacity="0.8" d="M555.331 72.8591V89.992H551.709V72.8591H555.331Z" fill="#DBA63D"/>
<path opacity="0.8" d="M533.892 89.992V72.8591H540.652C541.946 72.8591 543.05 73.0906 543.965 73.5535C544.885 74.0108 545.585 74.6605 546.065 75.5027C546.55 76.3392 546.793 77.3236 546.793 78.4558C546.793 79.5935 546.547 80.5723 546.056 81.3921C545.565 82.2064 544.854 82.831 543.923 83.266C542.997 83.701 541.876 83.9185 540.56 83.9185H536.033V81.0073H539.974C540.666 81.0073 541.24 80.9125 541.697 80.7228C542.155 80.5332 542.495 80.2488 542.718 79.8696C542.947 79.4903 543.061 79.019 543.061 78.4558C543.061 77.8869 542.947 77.4073 542.718 77.0169C542.495 76.6265 542.152 76.3309 541.689 76.1301C541.232 75.9237 540.654 75.8206 539.957 75.8206H537.514V89.992H533.892ZM543.145 82.1952L547.403 89.992H543.404L539.238 82.1952H543.145Z" fill="#DBA63D"/>
<path opacity="0.8" d="M517.11 89.992V72.8591H528.655V75.8457H520.732V79.9281H528.061V82.9146H520.732V87.0055H528.688V89.992H517.11Z" fill="#DBA63D"/>
<path opacity="0.8" d="M500.328 89.992V72.8591H511.873V75.8457H503.951V79.9281H511.279V82.9146H503.951V87.0055H511.906V89.992H500.328Z" fill="#DBA63D"/>
<path opacity="0.8" d="M494.979 72.8591V89.992H491.85L484.396 79.2087H484.27V89.992H480.648V72.8591H483.827L491.223 83.6341H491.373V72.8591H494.979Z" fill="#DBA63D"/>
<path opacity="0.8" d="M475.311 72.8591V89.992H471.689V72.8591H475.311Z" fill="#DBA63D"/>
<path opacity="0.8" d="M462.771 78.3973C462.654 77.9902 462.49 77.6305 462.278 77.3181C462.066 77.0002 461.806 76.7325 461.5 76.515C461.198 76.292 460.853 76.1218 460.462 76.0047C460.077 75.8876 459.651 75.829 459.182 75.829C458.307 75.829 457.537 76.0466 456.873 76.4816C456.215 76.9166 455.702 77.5496 455.334 78.3806C454.966 79.206 454.782 80.2154 454.782 81.4089C454.782 82.6024 454.963 83.6175 455.325 84.454C455.688 85.2906 456.201 85.9292 456.865 86.3698C457.528 86.8048 458.312 87.0223 459.216 87.0223C460.036 87.0223 460.736 86.8773 461.316 86.5873C461.901 86.2917 462.347 85.8762 462.654 85.3408C462.967 84.8054 463.123 84.1724 463.123 83.4418L463.859 83.5506H459.442V80.8233H466.612V82.9817C466.612 84.4875 466.294 85.7814 465.658 86.8634C465.022 87.9397 464.146 88.7707 463.031 89.3563C461.915 89.9363 460.638 90.2264 459.199 90.2264C457.593 90.2264 456.181 89.8722 454.966 89.1639C453.75 88.45 452.801 87.4378 452.121 86.1272C451.446 84.811 451.109 83.2494 451.109 81.4424C451.109 80.0537 451.309 78.8156 451.711 77.7281C452.118 76.6349 452.687 75.7091 453.418 74.9507C454.148 74.1922 454.999 73.6149 455.97 73.219C456.94 72.823 457.991 72.625 459.124 72.625C460.094 72.625 460.998 72.7672 461.834 73.0517C462.671 73.3305 463.413 73.7265 464.06 74.2396C464.712 74.7527 465.245 75.3634 465.658 76.0717C466.071 76.7744 466.335 77.5496 466.453 78.3973H462.771Z" fill="#DBA63D"/>
<path opacity="0.8" d="M446.061 72.8591V89.992H442.932L435.477 79.2087H435.352V89.992H431.729V72.8591H434.909L442.304 83.6341H442.455V72.8591H446.061Z" fill="#DBA63D"/>
<path opacity="0.8" d="M414.948 89.992V72.8591H426.492V75.8457H418.57V79.9281H425.898V82.9146H418.57V87.0055H426.526V89.992H414.948Z" fill="#DBA63D"/>
<path opacity="0.8" d="M394.095 90.243C392.913 90.243 391.892 90.0311 391.033 89.6072C390.174 89.1834 389.513 88.6089 389.05 87.8839C388.593 87.1533 388.364 86.339 388.364 85.4411C388.364 84.7719 388.498 84.1779 388.766 83.6592C389.033 83.1406 389.407 82.6637 389.887 82.2287C390.366 81.7881 390.924 81.3503 391.56 80.9153L394.881 78.7319C395.311 78.4586 395.626 78.1714 395.827 77.8702C396.028 77.5635 396.128 77.2316 396.128 76.8747C396.128 76.5345 395.991 76.2194 395.718 75.9294C395.445 75.6394 395.057 75.4972 394.555 75.5027C394.22 75.5027 393.93 75.578 393.685 75.7286C393.44 75.8736 393.247 76.066 393.108 76.3058C392.974 76.5401 392.907 76.8022 392.907 77.0922C392.907 77.4491 393.007 77.8116 393.208 78.1797C393.409 78.5478 393.677 78.9382 394.011 79.3509C394.346 79.7581 394.711 80.1986 395.107 80.6727L403.231 89.992H399.516L392.74 82.4462C392.293 81.9387 391.847 81.4089 391.401 80.8567C390.96 80.299 390.592 79.7079 390.297 79.0832C390.001 78.453 389.853 77.7698 389.853 77.0336C389.853 76.2026 390.046 75.4553 390.431 74.7916C390.821 74.128 391.368 73.6037 392.07 73.2189C392.773 72.8285 393.593 72.6333 394.53 72.6333C395.445 72.6333 396.234 72.8201 396.898 73.1938C397.567 73.5619 398.08 74.0527 398.437 74.6662C398.8 75.2741 398.981 75.9433 398.981 76.6739C398.981 77.4826 398.78 78.216 398.379 78.8741C397.983 79.5266 397.425 80.1122 396.705 80.6309L393.208 83.1489C392.734 83.4947 392.383 83.8489 392.154 84.2114C391.931 84.5683 391.819 84.9113 391.819 85.2403C391.819 85.6475 391.92 86.0128 392.121 86.3362C392.321 86.6597 392.606 86.9163 392.974 87.1059C393.342 87.2899 393.774 87.382 394.271 87.382C394.873 87.382 395.467 87.2453 396.053 86.972C396.644 86.6932 397.179 86.3 397.659 85.7925C398.144 85.2794 398.532 84.6715 398.822 83.9688C399.112 83.2661 399.257 82.488 399.257 81.6348H402.21C402.21 82.6832 402.096 83.6286 401.867 84.4707C401.639 85.3073 401.321 86.0379 400.914 86.6625C400.506 87.2816 400.041 87.7891 399.516 88.1851C399.349 88.291 399.187 88.3914 399.031 88.4862C398.875 88.581 398.713 88.6814 398.546 88.7874C397.91 89.3005 397.199 89.6714 396.412 89.9C395.632 90.1287 394.859 90.243 394.095 90.243Z" fill="#DBA63D"/>
<path opacity="0.8" d="M364.317 89.992V72.8591H375.862V75.8457H367.94V79.9281H375.268V82.9146H367.94V87.0055H375.896V89.992H364.317Z" fill="#DBA63D"/>
<path opacity="0.8" d="M346.501 89.992V72.8591H353.261C354.555 72.8591 355.659 73.0906 356.574 73.5535C357.494 74.0108 358.194 74.6605 358.674 75.5027C359.159 76.3392 359.401 77.3236 359.401 78.4558C359.401 79.5935 359.156 80.5723 358.665 81.3921C358.174 82.2064 357.463 82.831 356.532 83.266C355.606 83.701 354.485 83.9185 353.168 83.9185H348.642V81.0073H352.583C353.274 81.0073 353.849 80.9125 354.306 80.7228C354.764 80.5332 355.104 80.2488 355.327 79.8696C355.556 79.4903 355.67 79.019 355.67 78.4558C355.67 77.8869 355.556 77.4073 355.327 77.0169C355.104 76.6265 354.761 76.3309 354.298 76.1301C353.841 75.9237 353.263 75.8206 352.566 75.8206H350.123V89.992H346.501ZM355.754 82.1952L360.012 89.992H356.013L351.847 82.1952H355.754Z" fill="#DBA63D"/>
<path opacity="0.8" d="M337.541 72.8591H341.164V83.9855C341.164 85.2347 340.866 86.3278 340.269 87.2648C339.678 88.2017 338.849 88.9323 337.784 89.4566C336.719 89.9753 335.478 90.2346 334.061 90.2346C332.639 90.2346 331.395 89.9753 330.33 89.4566C329.264 88.9323 328.436 88.2017 327.845 87.2648C327.254 86.3278 326.958 85.2347 326.958 83.9855V72.8591H330.581V83.6759C330.581 84.3284 330.723 84.9085 331.007 85.416C331.297 85.9235 331.704 86.3223 332.229 86.6123C332.753 86.9023 333.364 87.0473 334.061 87.0473C334.764 87.0473 335.375 86.9023 335.893 86.6123C336.418 86.3223 336.822 85.9235 337.106 85.416C337.396 84.9085 337.541 84.3284 337.541 83.6759V72.8591Z" fill="#DBA63D"/>
<path opacity="0.8" d="M308.212 75.8457V72.8591H322.285V75.8457H317.039V89.992H313.458V75.8457H308.212Z" fill="#DBA63D"/>
<path opacity="0.8" d="M303.911 78.8574H300.247C300.18 78.3834 300.043 77.9623 299.837 77.5942C299.63 77.2205 299.365 76.9026 299.042 76.6405C298.718 76.3784 298.345 76.1776 297.921 76.0382C297.503 75.8988 297.048 75.829 296.557 75.829C295.67 75.829 294.898 76.0493 294.24 76.4899C293.582 76.9249 293.071 77.5607 292.709 78.3973C292.346 79.2283 292.165 80.2378 292.165 81.4257C292.165 82.6471 292.346 83.6732 292.709 84.5042C293.077 85.3352 293.59 85.9627 294.248 86.3865C294.906 86.8104 295.668 87.0223 296.532 87.0223C297.017 87.0223 297.466 86.9582 297.879 86.8299C298.297 86.7016 298.668 86.5148 298.992 86.2694C299.315 86.0184 299.583 85.7145 299.795 85.3575C300.012 85.0006 300.163 84.5935 300.247 84.1361L303.911 84.1529C303.816 84.9393 303.579 85.6977 303.2 86.4283C302.826 87.1534 302.322 87.8031 301.686 88.3775C301.055 88.9464 300.302 89.3981 299.427 89.7328C298.557 90.0618 297.572 90.2264 296.474 90.2264C294.945 90.2264 293.579 89.8806 292.374 89.189C291.175 88.4974 290.227 87.4964 289.529 86.1857C288.838 84.8751 288.492 83.2884 288.492 81.4257C288.492 79.5573 288.843 77.9679 289.546 76.6572C290.249 75.3466 291.203 74.3483 292.407 73.6623C293.612 72.9708 294.968 72.625 296.474 72.625C297.466 72.625 298.387 72.7644 299.234 73.0433C300.088 73.3221 300.844 73.7293 301.502 74.2647C302.16 74.7945 302.695 75.4442 303.108 76.2139C303.526 76.9835 303.794 77.8647 303.911 78.8574Z" fill="#DBA63D"/>
<path opacity="0.8" d="M272.012 89.992V72.8591H283.556V75.8457H275.634V79.9281H282.962V82.9146H275.634V87.0055H283.59V89.992H272.012Z" fill="#DBA63D"/>
<path opacity="0.8" d="M253.266 75.8457V72.8591H267.338V75.8457H262.092V89.992H258.512V75.8457H253.266Z" fill="#DBA63D"/>
<path opacity="0.8" d="M248.582 72.8591V89.992H244.959V72.8591H248.582Z" fill="#DBA63D"/>
<path opacity="0.8" d="M225.026 89.992V72.8591H228.648V79.9281H236.002V72.8591H239.617V89.992H236.002V82.9146H228.648V89.992H225.026Z" fill="#DBA63D"/>
<path opacity="0.8" d="M220.072 78.8574H216.408C216.341 78.3834 216.204 77.9623 215.998 77.5942C215.791 77.2205 215.526 76.9026 215.203 76.6405C214.879 76.3784 214.506 76.1776 214.082 76.0382C213.663 75.8988 213.209 75.829 212.718 75.829C211.831 75.829 211.059 76.0493 210.401 76.4899C209.742 76.9249 209.232 77.5607 208.869 78.3973C208.507 79.2283 208.326 80.2378 208.326 81.4257C208.326 82.6471 208.507 83.6732 208.869 84.5042C209.238 85.3352 209.751 85.9627 210.409 86.3865C211.067 86.8104 211.828 87.0223 212.693 87.0223C213.178 87.0223 213.627 86.9582 214.04 86.8299C214.458 86.7016 214.829 86.5148 215.153 86.2694C215.476 86.0184 215.744 85.7145 215.956 85.3575C216.173 85.0006 216.324 84.5935 216.408 84.1361L220.072 84.1529C219.977 84.9393 219.74 85.6977 219.361 86.4283C218.987 87.1534 218.482 87.8031 217.847 88.3775C217.216 88.9464 216.463 89.3981 215.588 89.7328C214.718 90.0618 213.733 90.2264 212.634 90.2264C211.106 90.2264 209.74 89.8806 208.535 89.189C207.336 88.4974 206.387 87.4964 205.69 86.1857C204.999 84.8751 204.653 83.2884 204.653 81.4257C204.653 79.5573 205.004 77.9679 205.707 76.6572C206.41 75.3466 207.364 74.3483 208.568 73.6623C209.773 72.9708 211.128 72.625 212.634 72.625C213.627 72.625 214.547 72.7644 215.395 73.0433C216.249 73.3221 217.004 73.7293 217.663 74.2647C218.321 74.7945 218.856 75.4442 219.269 76.2139C219.687 76.9835 219.955 77.8647 220.072 78.8574Z" fill="#DBA63D"/>
<path opacity="0.8" d="M187.137 89.992V72.8591H193.897C195.191 72.8591 196.295 73.0906 197.21 73.5535C198.13 74.0108 198.83 74.6605 199.31 75.5027C199.795 76.3392 200.038 77.3236 200.038 78.4558C200.038 79.5935 199.793 80.5723 199.302 81.3921C198.811 82.2064 198.1 82.831 197.168 83.266C196.242 83.701 195.121 83.9185 193.805 83.9185H189.279V81.0073H193.219C193.911 81.0073 194.485 80.9125 194.943 80.7228C195.4 80.5332 195.74 80.2488 195.964 79.8696C196.192 79.4903 196.307 79.019 196.307 78.4558C196.307 77.8869 196.192 77.4073 195.964 77.0169C195.74 76.6265 195.397 76.3309 194.934 76.1301C194.477 75.9237 193.9 75.8206 193.203 75.8206H190.76V89.992H187.137ZM196.39 82.1952L200.649 89.992H196.65L192.483 82.1952H196.39Z" fill="#DBA63D"/>
<path opacity="0.8" d="M170.111 89.992H166.229L172.144 72.8591H176.812L182.719 89.992H178.837L174.545 76.7743H174.411L170.111 89.992ZM169.868 83.2576H179.038V86.0852H169.868V83.2576Z" fill="#DBA63D"/>
<path opacity="0.8" d="M597.517 47.026H591.85C591.82 46.6765 591.697 46.3754 591.482 46.1225C591.266 45.8697 590.987 45.6764 590.645 45.5425C590.31 45.4012 589.939 45.3306 589.53 45.3306C589.002 45.3306 588.548 45.4272 588.169 45.6206C587.789 45.8139 587.604 46.0891 587.611 46.446C587.604 46.6988 587.711 46.9331 587.934 47.1487C588.165 47.3644 588.607 47.5317 589.262 47.6507L592.742 48.2753C594.497 48.595 595.803 49.1342 596.658 49.8927C597.52 50.6437 597.955 51.6513 597.963 52.9154C597.955 54.135 597.591 55.1946 596.87 56.0944C596.156 56.9867 595.178 57.6783 593.936 58.1691C592.701 58.6524 591.292 58.8941 589.708 58.8941C587.09 58.8941 585.042 58.3587 583.562 57.2879C582.089 56.2171 581.267 54.8042 581.096 53.0493H587.209C587.291 53.5921 587.559 54.0123 588.013 54.3097C588.474 54.5997 589.054 54.7447 589.753 54.7447C590.318 54.7447 590.783 54.6481 591.147 54.4547C591.519 54.2614 591.709 53.9862 591.716 53.6293C591.709 53.3021 591.545 53.0419 591.225 52.8485C590.913 52.6552 590.422 52.499 589.753 52.38L586.719 51.8446C584.971 51.5398 583.662 50.9597 582.792 50.1046C581.922 49.2494 581.49 48.1489 581.498 46.8029C581.49 45.6132 581.803 44.6056 582.435 43.7801C583.075 42.9473 583.986 42.3152 585.168 41.8839C586.358 41.4452 587.767 41.2258 589.396 41.2258C591.872 41.2258 593.824 41.7389 595.252 42.7651C596.688 43.7913 597.442 45.2116 597.517 47.026Z" fill="#EDF0FF"/>
<path opacity="0.8" d="M570.954 58.8941C569.124 58.8941 567.548 58.5446 566.224 57.8456C564.907 57.1392 563.892 56.1279 563.178 54.8117C562.472 53.488 562.119 51.9041 562.119 50.06C562.119 48.2902 562.476 46.7434 563.19 45.4198C563.904 44.0962 564.911 43.0663 566.213 42.3301C567.514 41.5939 569.05 41.2258 570.82 41.2258C572.114 41.2258 573.285 41.4266 574.334 41.8282C575.382 42.2297 576.278 42.8134 577.022 43.5794C577.766 44.3379 578.338 45.2599 578.74 46.3456C579.141 47.4313 579.342 48.6545 579.342 50.0153V51.4431H564.037V48.0522H573.675C573.668 47.5614 573.542 47.1301 573.296 46.7583C573.058 46.3791 572.735 46.0853 572.326 45.8771C571.924 45.6615 571.467 45.5537 570.954 45.5537C570.455 45.5537 569.998 45.6615 569.581 45.8771C569.165 46.0853 568.83 46.3754 568.578 46.7472C568.332 47.119 568.202 47.554 568.187 48.0522V51.7108C568.187 52.2611 568.302 52.7518 568.533 53.1831C568.763 53.6144 569.094 53.9528 569.526 54.1982C569.957 54.4436 570.478 54.5663 571.087 54.5663C571.511 54.5663 571.898 54.5068 572.248 54.3878C572.605 54.2688 572.909 54.0978 573.162 53.8747C573.415 53.6442 573.601 53.369 573.72 53.0493H579.342C579.149 54.2391 578.691 55.2727 577.97 56.1502C577.249 57.0202 576.293 57.6969 575.103 58.1802C573.921 58.6561 572.538 58.8941 570.954 58.8941Z" fill="#EDF0FF"/>
<path opacity="0.8" d="M551.948 58.8941C550.089 58.8941 548.497 58.526 547.174 57.7898C545.85 57.0462 544.835 56.0126 544.128 54.689C543.422 53.3579 543.069 51.8149 543.069 50.06C543.069 48.305 543.422 46.7658 544.128 45.4421C544.835 44.1111 545.85 43.0774 547.174 42.3412C548.497 41.5976 550.089 41.2258 551.948 41.2258C553.629 41.2258 555.083 41.5307 556.31 42.1405C557.544 42.7428 558.5 43.598 559.177 44.7059C559.853 45.8065 560.195 47.1004 560.203 48.5876H554.491C554.41 47.6878 554.149 47.0037 553.711 46.5352C553.279 46.0593 552.721 45.8214 552.037 45.8214C551.502 45.8214 551.033 45.9775 550.632 46.2898C550.23 46.5947 549.918 47.0595 549.695 47.6841C549.472 48.3013 549.36 49.0784 549.36 50.0153C549.36 50.9523 549.472 51.7331 549.695 52.3577C549.918 52.9749 550.23 53.4397 550.632 53.752C551.033 54.0569 551.502 54.2093 552.037 54.2093C552.491 54.2093 552.892 54.1052 553.242 53.897C553.592 53.6814 553.874 53.369 554.09 52.9601C554.313 52.5436 554.447 52.038 554.491 51.4431H560.203C560.18 52.9526 559.835 54.2688 559.165 55.3917C558.496 56.5071 557.548 57.3697 556.321 57.9795C555.101 58.5892 553.644 58.8941 551.948 58.8941Z" fill="#EDF0FF"/>
<path opacity="0.8" d="M534.398 58.5817V41.4489H540.555V58.5817H534.398ZM537.477 39.6642C536.644 39.6642 535.93 39.3891 535.335 38.8388C534.74 38.2885 534.443 37.6267 534.443 36.8533C534.443 36.08 534.74 35.4182 535.335 34.8679C535.93 34.3176 536.644 34.0425 537.477 34.0425C538.317 34.0425 539.031 34.3176 539.618 34.8679C540.213 35.4182 540.511 36.08 540.511 36.8533C540.511 37.6267 540.213 38.2885 539.618 38.8388C539.031 39.3891 538.317 39.6642 537.477 39.6642Z" fill="#EDF0FF"/>
<path opacity="0.8" d="M532.647 41.449L526.891 58.5818H519.751L513.995 41.449H520.465L523.232 52.7817H523.41L526.177 41.449H532.647Z" fill="#EDF0FF"/>
<path opacity="0.8" d="M501.237 58.5818V41.4489H507.215V44.7059H507.394C507.706 43.5013 508.201 42.6201 508.877 42.0624C509.562 41.5047 510.361 41.2258 511.276 41.2258C511.543 41.2258 511.807 41.2481 512.068 41.2928C512.335 41.3299 512.592 41.3857 512.837 41.4601V46.7137C512.532 46.6096 512.157 46.5315 511.711 46.4795C511.264 46.4274 510.881 46.4014 510.562 46.4014C509.959 46.4014 509.417 46.539 508.933 46.8141C508.457 47.0818 508.082 47.461 507.807 47.9518C507.531 48.4352 507.394 49.004 507.394 49.6584V58.5818H501.237Z" fill="#EDF0FF"/>
<path opacity="0.8" d="M490.335 58.8941C488.506 58.8941 486.929 58.5446 485.606 57.8456C484.289 57.1392 483.274 56.1279 482.56 54.8117C481.854 53.488 481.501 51.9041 481.501 50.06C481.501 48.2902 481.858 46.7434 482.571 45.4198C483.285 44.0962 484.293 43.0663 485.595 42.3301C486.896 41.5939 488.432 41.2258 490.202 41.2258C491.496 41.2258 492.667 41.4266 493.715 41.8282C494.764 42.2297 495.66 42.8134 496.404 43.5794C497.148 44.3379 497.72 45.2599 498.122 46.3456C498.523 47.4313 498.724 48.6545 498.724 50.0153V51.4431H483.419V48.0522H493.057C493.05 47.5614 492.923 47.1301 492.678 46.7583C492.44 46.3791 492.117 46.0853 491.708 45.8771C491.306 45.6615 490.849 45.5537 490.335 45.5537C489.837 45.5537 489.38 45.6615 488.963 45.8771C488.547 46.0853 488.212 46.3754 487.959 46.7472C487.714 47.119 487.584 47.554 487.569 48.0522V51.7108C487.569 52.2611 487.684 52.7518 487.915 53.1831C488.145 53.6144 488.476 53.9528 488.908 54.1982C489.339 54.4436 489.86 54.5663 490.469 54.5663C490.893 54.5663 491.28 54.5068 491.629 54.3878C491.986 54.2688 492.291 54.0978 492.544 53.8747C492.797 53.6442 492.983 53.369 493.102 53.0493H498.724C498.531 54.2391 498.073 55.2727 497.352 56.1502C496.631 57.0202 495.675 57.6969 494.485 58.1802C493.303 58.6561 491.92 58.8941 490.335 58.8941Z" fill="#EDF0FF"/>
<path opacity="0.8" d="M473.43 42.8768C473.37 42.1332 473.091 41.5532 472.593 41.1367C472.102 40.7203 471.355 40.5121 470.351 40.5121C469.711 40.5121 469.187 40.5902 468.778 40.7463C468.377 40.8951 468.079 41.0996 467.886 41.3598C467.692 41.6201 467.592 41.9175 467.585 42.2522C467.57 42.5273 467.618 42.7764 467.73 42.9995C467.849 43.2151 468.034 43.4122 468.287 43.5907C468.54 43.7617 468.864 43.9179 469.258 44.0591C469.652 44.2004 470.12 44.3268 470.663 44.4384L472.537 44.8399C473.802 45.1076 474.884 45.4609 475.784 45.8996C476.683 46.3383 477.42 46.8551 477.992 47.45C478.565 48.0375 478.985 48.6993 479.253 49.4355C479.528 50.1716 479.669 50.9748 479.677 51.8448C479.669 53.3469 479.294 54.6185 478.55 55.6595C477.806 56.7006 476.743 57.4925 475.36 58.0354C473.984 58.5782 472.329 58.8496 470.396 58.8496C468.41 58.8496 466.677 58.5559 465.197 57.9684C463.725 57.381 462.58 56.4775 461.762 55.258C460.951 54.031 460.542 52.462 460.535 50.5509H466.424C466.462 51.2499 466.636 51.8373 466.949 52.3133C467.261 52.7892 467.7 53.1498 468.265 53.3952C468.838 53.6406 469.518 53.7633 470.306 53.7633C470.968 53.7633 471.522 53.6815 471.969 53.5179C472.415 53.3543 472.753 53.1275 472.984 52.8375C473.214 52.5475 473.333 52.2166 473.341 51.8448C473.333 51.4953 473.218 51.1904 472.995 50.9301C472.779 50.6624 472.422 50.4245 471.924 50.2163C471.426 50.0006 470.753 49.7998 469.905 49.6139L467.629 49.1232C465.606 48.6844 464.011 47.952 462.844 46.9258C461.683 45.8922 461.107 44.483 461.115 42.6983C461.107 41.2483 461.494 39.9804 462.275 38.8947C463.063 37.8016 464.152 36.9502 465.543 36.3404C466.941 35.7307 468.544 35.4258 470.351 35.4258C472.195 35.4258 473.791 35.7344 475.137 36.3516C476.483 36.9688 477.52 37.8388 478.249 38.9617C478.985 40.0771 479.357 41.3821 479.364 42.8768H473.43Z" fill="#EDF0FF"/>
<path opacity="0.8" d="M440.405 58.9386C438.769 58.9386 437.36 58.6485 436.177 58.0685C434.995 57.4885 434.088 56.7114 433.455 55.7373C432.823 54.7632 432.507 53.6886 432.507 52.5137C432.507 51.6586 432.671 50.9038 432.998 50.2494C433.325 49.5876 433.783 48.9816 434.37 48.4313C434.958 47.881 435.646 47.3382 436.434 46.8028L441.61 43.5904C442.13 43.2632 442.484 42.9248 442.67 42.5753C442.855 42.2184 442.948 41.9024 442.948 41.6272C442.948 41.2628 442.815 40.9394 442.547 40.6568C442.279 40.3742 441.863 40.2367 441.297 40.2441C440.948 40.2441 440.647 40.311 440.394 40.4449C440.141 40.5713 439.944 40.7498 439.803 40.9803C439.669 41.2108 439.602 41.4859 439.602 41.8057C439.602 42.2444 439.728 42.6943 439.981 43.1553C440.234 43.6089 440.58 44.0997 441.019 44.6277C441.457 45.1557 441.952 45.7468 442.502 46.4012L453.568 58.5816H447.41L438.129 48.7659C437.676 48.2826 437.174 47.6914 436.623 46.9924C436.073 46.286 435.597 45.4903 435.196 44.6054C434.801 43.7205 434.604 42.7575 434.604 41.7165C434.604 40.5564 434.883 39.4968 435.441 38.5375C435.999 37.5782 436.78 36.8123 437.784 36.2397C438.788 35.6672 439.959 35.3809 441.297 35.3809C442.577 35.3809 443.677 35.6448 444.599 36.1728C445.529 36.7008 446.243 37.4035 446.741 38.281C447.247 39.1584 447.5 40.1251 447.5 41.181C447.5 42.2444 447.236 43.2371 446.708 44.1592C446.187 45.0813 445.44 45.8881 444.466 46.5797L439.736 49.9259C439.371 50.1788 439.055 50.4688 438.788 50.796C438.527 51.1232 438.397 51.547 438.397 52.0676C438.397 52.4989 438.498 52.8669 438.698 53.1718C438.899 53.4767 439.182 53.7109 439.546 53.8745C439.918 54.0381 440.353 54.1199 440.851 54.1199C441.61 54.1199 442.368 53.9377 443.127 53.5734C443.893 53.2016 444.592 52.6848 445.224 52.0229C445.856 51.3537 446.362 50.5655 446.741 49.6583C447.128 48.7436 447.321 47.7472 447.321 46.6689H452.185C452.185 47.9926 452.047 49.2679 451.772 50.4948C451.497 51.7218 451.055 52.8446 450.445 53.8634C449.835 54.8821 449.032 55.741 448.035 56.44C447.723 56.5962 447.418 56.7449 447.12 56.8862C446.823 57.0275 446.518 57.1762 446.206 57.3323C445.291 57.9198 444.335 58.3362 443.339 58.5816C442.342 58.8196 441.364 58.9386 440.405 58.9386Z" fill="#EDF0FF"/>
<path opacity="0.8" d="M423.979 47.026H418.312C418.283 46.6765 418.16 46.3754 417.944 46.1225C417.729 45.8697 417.45 45.6764 417.108 45.5425C416.773 45.4012 416.401 45.3306 415.992 45.3306C415.464 45.3306 415.01 45.4272 414.631 45.6206C414.252 45.8139 414.066 46.0891 414.073 46.446C414.066 46.6988 414.174 46.9331 414.397 47.1487C414.627 47.3644 415.07 47.5317 415.724 47.6507L419.205 48.2753C420.96 48.595 422.265 49.1342 423.12 49.8927C423.983 50.6437 424.418 51.6513 424.425 52.9154C424.418 54.135 424.054 55.1946 423.332 56.0944C422.618 56.9867 421.64 57.6783 420.398 58.1691C419.164 58.6524 417.755 58.8941 416.171 58.8941C413.553 58.8941 411.504 58.3587 410.024 57.2879C408.552 56.2171 407.73 54.8042 407.559 53.0493H413.672C413.754 53.5921 414.021 54.0123 414.475 54.3097C414.936 54.5997 415.516 54.7447 416.215 54.7447C416.78 54.7447 417.245 54.6481 417.61 54.4547C417.981 54.2614 418.171 53.9862 418.178 53.6293C418.171 53.3021 418.007 53.0419 417.688 52.8485C417.375 52.6552 416.884 52.499 416.215 52.38L413.181 51.8446C411.433 51.5398 410.124 50.9597 409.254 50.1046C408.384 49.2494 407.953 48.1489 407.96 46.8029C407.953 45.6132 408.265 44.6056 408.897 43.7801C409.537 42.9473 410.448 42.3152 411.63 41.8839C412.82 41.4452 414.23 41.2258 415.858 41.2258C418.335 41.2258 420.287 41.7389 421.715 42.7651C423.15 43.7913 423.905 45.2116 423.979 47.026Z" fill="#EDF0FF"/>
<path opacity="0.8" d="M394.167 48.9445V58.5818H388.009V41.4489H393.855V44.7059H394.033C394.405 43.6203 395.059 42.7688 395.997 42.1516C396.941 41.5344 398.042 41.2258 399.298 41.2258C400.511 41.2258 401.563 41.5047 402.455 42.0624C403.355 42.6127 404.051 43.3712 404.541 44.3379C405.04 45.3046 405.285 46.4088 405.278 47.6507V58.5818H399.12V48.9445C399.127 48.0968 398.912 47.4313 398.473 46.9479C398.042 46.4646 397.439 46.2229 396.666 46.2229C396.16 46.2229 395.718 46.3345 395.338 46.5575C394.967 46.7732 394.68 47.0855 394.479 47.4945C394.279 47.896 394.175 48.3794 394.167 48.9445Z" fill="#EDF0FF"/>
<path opacity="0.8" d="M376.631 58.8941C374.772 58.8941 373.181 58.526 371.857 57.7898C370.533 57.0462 369.518 56.0126 368.811 54.689C368.105 53.3579 367.752 51.8149 367.752 50.06C367.752 48.305 368.105 46.7658 368.811 45.4421C369.518 44.1111 370.533 43.0774 371.857 42.3412C373.181 41.5976 374.772 41.2258 376.631 41.2258C378.49 41.2258 380.082 41.5976 381.406 42.3412C382.729 43.0774 383.744 44.1111 384.451 45.4421C385.157 46.7658 385.511 48.305 385.511 50.06C385.511 51.8149 385.157 53.3579 384.451 54.689C383.744 56.0126 382.729 57.0462 381.406 57.7898C380.082 58.526 378.49 58.8941 376.631 58.8941ZM376.676 54.3432C377.196 54.3432 377.646 54.1684 378.026 53.8189C378.405 53.4694 378.699 52.9712 378.907 52.3243C379.115 51.6773 379.219 50.9077 379.219 50.0153C379.219 49.1156 379.115 48.3459 378.907 47.7064C378.699 47.0595 378.405 46.5613 378.026 46.2118C377.646 45.8623 377.196 45.6875 376.676 45.6875C376.125 45.6875 375.653 45.8623 375.259 46.2118C374.865 46.5613 374.564 47.0595 374.356 47.7064C374.147 48.3459 374.043 49.1156 374.043 50.0153C374.043 50.9077 374.147 51.6773 374.356 52.3243C374.564 52.9712 374.865 53.4694 375.259 53.8189C375.653 54.1684 376.125 54.3432 376.676 54.3432Z" fill="#EDF0FF"/>
<path opacity="0.8" d="M359.081 58.5817V41.4489H365.239V58.5817H359.081ZM362.16 39.6642C361.327 39.6642 360.613 39.3891 360.018 38.8388C359.423 38.2885 359.126 37.6267 359.126 36.8533C359.126 36.08 359.423 35.4182 360.018 34.8679C360.613 34.3176 361.327 34.0425 362.16 34.0425C363 34.0425 363.714 34.3176 364.302 34.8679C364.896 35.4182 365.194 36.08 365.194 36.8533C365.194 37.6267 364.896 38.2885 364.302 38.8388C363.714 39.3891 363 39.6642 362.16 39.6642Z" fill="#EDF0FF"/>
<path opacity="0.8" d="M356.568 41.4487V45.9104H345.28V41.4487H356.568ZM347.466 37.344H353.623V53.0714C353.623 53.3094 353.664 53.5102 353.746 53.6738C353.828 53.8299 353.954 53.9489 354.125 54.0307C354.296 54.1051 354.515 54.1422 354.783 54.1422C354.969 54.1422 355.185 54.1199 355.43 54.0753C355.683 54.0307 355.869 53.9935 355.988 53.9638L356.88 58.2916C356.605 58.3734 356.211 58.4738 355.698 58.5928C355.192 58.7117 354.59 58.7898 353.891 58.827C352.478 58.9014 351.292 58.7564 350.333 58.392C349.373 58.0202 348.652 57.4364 348.169 56.6408C347.685 55.8451 347.451 54.8487 347.466 53.6514V37.344Z" fill="#EDF0FF"/>
<path opacity="0.8" d="M337.061 51.0862V41.449H343.219V58.5818H337.374V55.3248H337.195C336.823 56.4179 336.172 57.2731 335.243 57.8903C334.313 58.5 333.209 58.8049 331.93 58.8049C330.733 58.8049 329.684 58.5298 328.784 57.9795C327.892 57.4292 327.196 56.6708 326.698 55.7041C326.207 54.7374 325.958 53.6294 325.951 52.3801V41.449H332.108V51.0862C332.116 51.9339 332.331 52.5995 332.755 53.0828C333.187 53.5662 333.789 53.8078 334.562 53.8078C335.076 53.8078 335.518 53.7 335.89 53.4844C336.269 53.2613 336.559 52.949 336.76 52.5474C336.968 52.1384 337.069 51.6514 337.061 51.0862Z" fill="#EDF0FF"/>
<path opacity="0.8" d="M322.813 35.738V58.5819H316.656V35.738H322.813Z" fill="#EDF0FF"/>
<path opacity="0.8" d="M305.277 58.8941C303.418 58.8941 301.827 58.526 300.503 57.7898C299.179 57.0462 298.164 56.0126 297.458 54.689C296.751 53.3579 296.398 51.8149 296.398 50.06C296.398 48.305 296.751 46.7658 297.458 45.4421C298.164 44.1111 299.179 43.0774 300.503 42.3412C301.827 41.5976 303.418 41.2258 305.277 41.2258C307.137 41.2258 308.728 41.5976 310.052 42.3412C311.376 43.0774 312.391 44.1111 313.097 45.4421C313.804 46.7658 314.157 48.305 314.157 50.06C314.157 51.8149 313.804 53.3579 313.097 54.689C312.391 56.0126 311.376 57.0462 310.052 57.7898C308.728 58.526 307.137 58.8941 305.277 58.8941ZM305.322 54.3432C305.843 54.3432 306.293 54.1684 306.672 53.8189C307.051 53.4694 307.345 52.9712 307.553 52.3243C307.761 51.6773 307.865 50.9077 307.865 50.0153C307.865 49.1156 307.761 48.3459 307.553 47.7064C307.345 47.0595 307.051 46.5613 306.672 46.2118C306.293 45.8623 305.843 45.6875 305.322 45.6875C304.772 45.6875 304.299 45.8623 303.905 46.2118C303.511 46.5613 303.21 47.0595 303.002 47.7064C302.794 48.3459 302.689 49.1156 302.689 50.0153C302.689 50.9077 302.794 51.6773 303.002 52.3243C303.21 52.9712 303.511 53.4694 303.905 53.8189C304.299 54.1684 304.772 54.3432 305.322 54.3432Z" fill="#EDF0FF"/>
<path opacity="0.8" d="M288.327 42.8768C288.268 42.1332 287.989 41.5532 287.491 41.1367C287 40.7203 286.252 40.5121 285.248 40.5121C284.609 40.5121 284.085 40.5902 283.676 40.7463C283.274 40.8951 282.976 41.0996 282.783 41.3598C282.59 41.6201 282.489 41.9175 282.482 42.2522C282.467 42.5273 282.515 42.7764 282.627 42.9995C282.746 43.2151 282.932 43.4122 283.185 43.5907C283.438 43.7617 283.761 43.9179 284.155 44.0591C284.549 44.2004 285.018 44.3268 285.561 44.4384L287.435 44.8399C288.699 45.1076 289.781 45.4609 290.681 45.8996C291.581 46.3383 292.317 46.8551 292.89 47.45C293.462 48.0375 293.882 48.6993 294.15 49.4355C294.425 50.1716 294.567 50.9748 294.574 51.8448C294.567 53.3469 294.191 54.6185 293.447 55.6595C292.704 56.7006 291.64 57.4925 290.257 58.0354C288.881 58.5782 287.227 58.8496 285.293 58.8496C283.307 58.8496 281.575 58.5559 280.095 57.9684C278.622 57.381 277.477 56.4775 276.659 55.258C275.848 54.031 275.439 52.462 275.432 50.5509H281.322C281.359 51.2499 281.534 51.8373 281.846 52.3133C282.158 52.7892 282.597 53.1498 283.162 53.3952C283.735 53.6406 284.415 53.7633 285.204 53.7633C285.866 53.7633 286.42 53.6815 286.866 53.5179C287.312 53.3543 287.65 53.1275 287.881 52.8375C288.112 52.5475 288.231 52.2166 288.238 51.8448C288.231 51.4953 288.115 51.1904 287.892 50.9301C287.676 50.6624 287.32 50.4245 286.821 50.2163C286.323 50.0006 285.65 49.7998 284.802 49.6139L282.527 49.1232C280.504 48.6844 278.909 47.952 277.741 46.9258C276.581 45.8922 276.005 44.483 276.012 42.6983C276.005 41.2483 276.391 39.9804 277.172 38.8947C277.96 37.8016 279.05 36.9502 280.441 36.3404C281.839 35.7307 283.441 35.4258 285.248 35.4258C287.093 35.4258 288.688 35.7344 290.034 36.3516C291.38 36.9688 292.417 37.8388 293.146 38.9617C293.882 40.0771 294.254 41.3821 294.262 42.8768H288.327Z" fill="#EDF0FF"/>
<path opacity="0.8" d="M266.705 35.738V58.5819H260.548V35.738H266.705Z" fill="#EDF0FF"/>
<path opacity="0.8" d="M246.763 58.8495C245.67 58.8495 244.703 58.671 243.863 58.3141C243.03 57.9497 242.375 57.3994 241.9 56.6633C241.424 55.9271 241.186 54.9901 241.186 53.8524C241.186 52.9154 241.345 52.1161 241.665 51.4542C241.985 50.785 242.431 50.2384 243.004 49.8146C243.577 49.3907 244.242 49.0672 245.001 48.8442C245.767 48.6211 246.592 48.4761 247.477 48.4091C248.436 48.3348 249.206 48.2455 249.786 48.1414C250.374 48.0299 250.798 47.8775 251.058 47.6841C251.318 47.4833 251.448 47.2194 251.448 46.8922V46.8476C251.448 46.4014 251.277 46.0593 250.935 45.8214C250.593 45.5834 250.154 45.4644 249.619 45.4644C249.031 45.4644 248.552 45.5946 248.18 45.8548C247.815 46.1077 247.596 46.4981 247.522 47.026H241.855C241.929 45.985 242.26 45.0257 242.848 44.1482C243.443 43.2633 244.309 42.5569 245.447 42.0289C246.585 41.4935 248.005 41.2258 249.708 41.2258C250.935 41.2258 252.036 41.3708 253.01 41.6608C253.984 41.9434 254.813 42.3412 255.498 42.8543C256.182 43.36 256.702 43.9549 257.059 44.639C257.424 45.3157 257.606 46.0519 257.606 46.8476V58.5818H251.85V56.1725H251.716C251.374 56.812 250.958 57.3288 250.467 57.7229C249.983 58.117 249.429 58.4033 248.805 58.5818C248.187 58.7602 247.507 58.8495 246.763 58.8495ZM248.771 54.9678C249.24 54.9678 249.678 54.8711 250.087 54.6778C250.504 54.4845 250.842 54.2056 251.103 53.8412C251.363 53.4769 251.493 53.0344 251.493 52.5139V51.0861C251.329 51.1531 251.155 51.2163 250.969 51.2758C250.79 51.3353 250.597 51.391 250.389 51.4431C250.188 51.4951 249.972 51.5435 249.742 51.5881C249.518 51.6327 249.284 51.6736 249.039 51.7108C248.563 51.7851 248.172 51.9078 247.868 52.0789C247.57 52.2425 247.347 52.447 247.198 52.6924C247.057 52.9303 246.986 53.198 246.986 53.4955C246.986 53.9714 247.154 54.3357 247.488 54.5886C247.823 54.8414 248.251 54.9678 248.771 54.9678Z" fill="#EDF0FF"/>
<path opacity="0.8" d="M239.475 41.4487V45.9104H228.187V41.4487H239.475ZM230.373 37.344H236.53V53.0714C236.53 53.3094 236.571 53.5102 236.653 53.6738C236.735 53.8299 236.861 53.9489 237.032 54.0307C237.203 54.1051 237.423 54.1422 237.69 54.1422C237.876 54.1422 238.092 54.1199 238.337 54.0753C238.59 54.0307 238.776 53.9935 238.895 53.9638L239.787 58.2916C239.512 58.3734 239.118 58.4738 238.605 58.5928C238.099 58.7117 237.497 58.7898 236.798 58.827C235.385 58.9014 234.199 58.7564 233.24 58.392C232.281 58.0202 231.559 57.4364 231.076 56.6408C230.593 55.8451 230.358 54.8487 230.373 53.6514V37.344Z" fill="#EDF0FF"/>
<path opacity="0.8" d="M219.963 58.5817V41.4489H226.12V58.5817H219.963ZM223.042 39.6642C222.209 39.6642 221.495 39.3891 220.9 38.8388C220.305 38.2885 220.008 37.6267 220.008 36.8533C220.008 36.08 220.305 35.4182 220.9 34.8679C221.495 34.3176 222.209 34.0425 223.042 34.0425C223.882 34.0425 224.596 34.3176 225.183 34.8679C225.778 35.4182 226.075 36.08 226.075 36.8533C226.075 37.6267 225.778 38.2885 225.183 38.8388C224.596 39.3891 223.882 39.6642 223.042 39.6642Z" fill="#EDF0FF"/>
<path opacity="0.8" d="M207.818 65.3635C206.1 65.3635 204.627 65.1181 203.4 64.6274C202.181 64.144 201.233 63.4748 200.556 62.6196C199.887 61.7719 199.511 60.7978 199.429 59.6972H205.364C205.423 60.0616 205.572 60.3553 205.81 60.5784C206.048 60.8015 206.353 60.9613 206.725 61.058C207.104 61.1621 207.528 61.2142 207.996 61.2142C208.792 61.2142 209.45 61.0208 209.971 60.6342C210.499 60.2475 210.763 59.5485 210.763 58.5372V55.6371H210.584C210.361 56.2171 210.019 56.7116 209.558 57.1206C209.097 57.5221 208.543 57.8307 207.896 58.0464C207.249 58.2546 206.539 58.3587 205.765 58.3587C204.546 58.3587 203.423 58.0761 202.396 57.511C201.378 56.9458 200.56 56.0498 199.942 54.8228C199.332 53.5958 199.028 51.9934 199.028 50.0153C199.028 47.9481 199.347 46.2675 199.987 44.9736C200.634 43.6798 201.467 42.7316 202.486 42.1293C203.512 41.527 204.59 41.2258 205.721 41.2258C206.568 41.2258 207.312 41.3746 207.952 41.672C208.591 41.962 209.127 42.3524 209.558 42.8432C209.989 43.3265 210.317 43.8582 210.54 44.4382H210.674V41.4489H216.831V58.5372C216.831 59.9872 216.456 61.2179 215.705 62.2292C214.961 63.248 213.912 64.025 212.559 64.5604C211.205 65.0958 209.625 65.3635 207.818 65.3635ZM208.041 53.9862C208.606 53.9862 209.09 53.8301 209.491 53.5178C209.9 53.198 210.212 52.7444 210.428 52.157C210.651 51.5621 210.763 50.8482 210.763 50.0153C210.763 49.1676 210.651 48.4426 210.428 47.8403C210.212 47.2305 209.9 46.7658 209.491 46.446C209.09 46.1188 208.606 45.9552 208.041 45.9552C207.476 45.9552 206.992 46.1188 206.591 46.446C206.197 46.7658 205.892 47.2305 205.676 47.8403C205.468 48.4426 205.364 49.1676 205.364 50.0153C205.364 50.8631 205.468 51.5844 205.676 52.1793C205.892 52.7667 206.197 53.2166 206.591 53.5289C206.992 53.8338 207.476 53.9862 208.041 53.9862Z" fill="#EDF0FF"/>
<path opacity="0.8" d="M190.268 58.5817V41.4489H196.425V58.5817H190.268ZM193.347 39.6642C192.514 39.6642 191.8 39.3891 191.205 38.8388C190.61 38.2885 190.313 37.6267 190.313 36.8533C190.313 36.08 190.61 35.4182 191.205 34.8679C191.8 34.3176 192.514 34.0425 193.347 34.0425C194.187 34.0425 194.901 34.3176 195.488 34.8679C196.083 35.4182 196.381 36.08 196.381 36.8533C196.381 37.6267 196.083 38.2885 195.488 38.8388C194.901 39.3891 194.187 39.6642 193.347 39.6642Z" fill="#EDF0FF"/>
<path opacity="0.8" d="M175.931 58.5819H167.141V35.738H175.842C178.192 35.738 180.222 36.1954 181.932 37.11C183.65 38.0172 184.974 39.326 185.904 41.0363C186.841 42.7392 187.309 44.7804 187.309 47.1599C187.309 49.5395 186.844 51.5845 185.915 53.2948C184.985 54.9976 183.669 56.3064 181.966 57.221C180.263 58.1283 178.251 58.5819 175.931 58.5819ZM173.343 53.3171H175.708C176.838 53.3171 177.801 53.1349 178.597 52.7705C179.4 52.4061 180.01 51.7778 180.426 50.8855C180.85 49.9931 181.062 48.7513 181.062 47.1599C181.062 45.5686 180.847 44.3268 180.415 43.4344C179.991 42.5421 179.367 41.9138 178.541 41.5494C177.723 41.185 176.719 41.0028 175.529 41.0028H173.343V53.3171Z" fill="#EDF0FF"/>
</svg>
