<svg width="44" height="44" viewBox="0 0 44 44" fill="none" xmlns="http://www.w3.org/2000/svg">
<g filter="url(#filter0_d_8_2627)">
<path fill-rule="evenodd" clip-rule="evenodd" d="M10.8965 9.00522C10.8965 10.7082 12.284 12.0888 13.9957 12.0888C15.7073 12.0888 17.0948 10.7082 17.0948 9.00522C17.0948 7.3022 15.7073 5.92163 13.9957 5.92163C12.284 5.92163 10.8965 7.3022 10.8965 9.00522ZM19.1609 9.00522C19.1609 10.7082 20.5485 12.0888 22.2601 12.0888C23.9718 12.0888 25.3593 10.7082 25.3593 9.00522C25.3593 7.3022 23.9718 5.92163 22.2601 5.92163C20.5485 5.92163 19.1609 7.3022 19.1609 9.00522ZM27.4254 9.00522C27.4254 10.7082 28.813 12.0888 30.5246 12.0888C32.2362 12.0888 33.6238 10.7082 33.6238 9.00522C33.6238 7.3022 32.2362 5.92163 30.5246 5.92163C28.813 5.92163 27.4254 7.3022 27.4254 9.00522ZM30.5246 11.0609C31.6657 11.0609 32.5907 10.1406 32.5907 9.00522C32.5907 7.86987 31.6657 6.94949 30.5246 6.94949C29.3835 6.94949 28.4585 7.86987 28.4585 9.00522C28.4585 10.1406 29.3835 11.0609 30.5246 11.0609ZM27.4254 17.2281C27.4254 18.9311 28.813 20.3117 30.5246 20.3117C32.2362 20.3117 33.6238 18.9311 33.6238 17.2281C33.6238 15.5251 32.2362 14.1445 30.5246 14.1445C28.813 14.1445 27.4254 15.5251 27.4254 17.2281ZM32.5907 17.2281C32.5907 18.3635 31.6657 19.2838 30.5246 19.2838C29.3835 19.2838 28.4585 18.3635 28.4585 17.2281C28.4585 16.0928 29.3835 15.1724 30.5246 15.1724C31.6657 15.1724 32.5907 16.0928 32.5907 17.2281ZM30.5246 27.5067C31.6657 27.5067 32.5907 26.5864 32.5907 25.451C32.5907 24.3157 31.6657 23.3953 30.5246 23.3953C29.3835 23.3953 28.4585 24.3157 28.4585 25.451C28.4585 26.5864 29.3835 27.5067 30.5246 27.5067ZM27.4254 25.451C27.4254 27.154 28.813 28.5346 30.5246 28.5346C32.2362 28.5346 33.6238 27.154 33.6238 25.451C33.6238 23.748 32.2362 22.3674 30.5246 22.3674C28.813 22.3674 27.4254 23.748 27.4254 25.451ZM22.2601 11.0609C23.4012 11.0609 24.3262 10.1406 24.3262 9.00522C24.3262 7.86987 23.4012 6.94949 22.2601 6.94949C21.119 6.94949 20.194 7.86987 20.194 9.00522C20.194 10.1406 21.119 11.0609 22.2601 11.0609ZM22.2601 19.2838C23.4012 19.2838 24.3262 18.3635 24.3262 17.2281C24.3262 16.0928 23.4012 15.1724 22.2601 15.1724C21.119 15.1724 20.194 16.0928 20.194 17.2281C20.194 18.3635 21.119 19.2838 22.2601 19.2838ZM19.1609 17.2281C19.1609 18.9311 20.5485 20.3117 22.2601 20.3117C23.9718 20.3117 25.3593 18.9311 25.3593 17.2281C25.3593 15.5251 23.9718 14.1445 22.2601 14.1445C20.5485 14.1445 19.1609 15.5251 19.1609 17.2281ZM22.2601 27.5067C23.4012 27.5067 24.3262 26.5864 24.3262 25.451C24.3262 24.3157 23.4012 23.3953 22.2601 23.3953C21.119 23.3953 20.194 24.3157 20.194 25.451C20.194 26.5864 21.119 27.5067 22.2601 27.5067ZM19.1609 25.451C19.1609 27.154 20.5485 28.5346 22.2601 28.5346C23.9718 28.5346 25.3593 27.154 25.3593 25.451C25.3593 23.748 23.9718 22.3674 22.2601 22.3674C20.5485 22.3674 19.1609 23.748 19.1609 25.451ZM13.9957 11.0609C15.1367 11.0609 16.0618 10.1406 16.0618 9.00522C16.0618 7.86987 15.1367 6.94949 13.9957 6.94949C12.8546 6.94949 11.9295 7.86987 11.9295 9.00522C11.9295 10.1406 12.8546 11.0609 13.9957 11.0609ZM13.9957 19.2838C15.1367 19.2838 16.0618 18.3635 16.0618 17.2281C16.0618 16.0928 15.1367 15.1724 13.9957 15.1724C12.8546 15.1724 11.9295 16.0928 11.9295 17.2281C11.9295 18.3635 12.8546 19.2838 13.9957 19.2838ZM10.8965 17.2281C10.8965 18.9311 12.284 20.3117 13.9957 20.3117C15.7073 20.3117 17.0948 18.9311 17.0948 17.2281C17.0948 15.5251 15.7073 14.1445 13.9957 14.1445C12.284 14.1445 10.8965 15.5251 10.8965 17.2281ZM13.9957 27.5067C15.1367 27.5067 16.0618 26.5864 16.0618 25.451C16.0618 24.3157 15.1367 23.3953 13.9957 23.3953C12.8546 23.3953 11.9295 24.3157 11.9295 25.451C11.9295 26.5864 12.8546 27.5067 13.9957 27.5067ZM10.8965 25.451C10.8965 27.154 12.284 28.5346 13.9957 28.5346C15.7073 28.5346 17.0948 27.154 17.0948 25.451C17.0948 23.748 15.7073 22.3674 13.9957 22.3674C12.284 22.3674 10.8965 23.748 10.8965 25.451Z" fill="#95004D"/>
<mask id="mask0_8_2627" style="mask-type:luminance" maskUnits="userSpaceOnUse" x="10" y="5" width="24" height="24">
<path fill-rule="evenodd" clip-rule="evenodd" d="M10.8965 9.00522C10.8965 10.7082 12.284 12.0888 13.9957 12.0888C15.7073 12.0888 17.0948 10.7082 17.0948 9.00522C17.0948 7.3022 15.7073 5.92163 13.9957 5.92163C12.284 5.92163 10.8965 7.3022 10.8965 9.00522ZM19.1609 9.00522C19.1609 10.7082 20.5485 12.0888 22.2601 12.0888C23.9718 12.0888 25.3593 10.7082 25.3593 9.00522C25.3593 7.3022 23.9718 5.92163 22.2601 5.92163C20.5485 5.92163 19.1609 7.3022 19.1609 9.00522ZM27.4254 9.00522C27.4254 10.7082 28.813 12.0888 30.5246 12.0888C32.2362 12.0888 33.6238 10.7082 33.6238 9.00522C33.6238 7.3022 32.2362 5.92163 30.5246 5.92163C28.813 5.92163 27.4254 7.3022 27.4254 9.00522ZM30.5246 11.0609C31.6657 11.0609 32.5907 10.1406 32.5907 9.00522C32.5907 7.86987 31.6657 6.94949 30.5246 6.94949C29.3835 6.94949 28.4585 7.86987 28.4585 9.00522C28.4585 10.1406 29.3835 11.0609 30.5246 11.0609ZM27.4254 17.2281C27.4254 18.9311 28.813 20.3117 30.5246 20.3117C32.2362 20.3117 33.6238 18.9311 33.6238 17.2281C33.6238 15.5251 32.2362 14.1445 30.5246 14.1445C28.813 14.1445 27.4254 15.5251 27.4254 17.2281ZM32.5907 17.2281C32.5907 18.3635 31.6657 19.2838 30.5246 19.2838C29.3835 19.2838 28.4585 18.3635 28.4585 17.2281C28.4585 16.0928 29.3835 15.1724 30.5246 15.1724C31.6657 15.1724 32.5907 16.0928 32.5907 17.2281ZM30.5246 27.5067C31.6657 27.5067 32.5907 26.5864 32.5907 25.451C32.5907 24.3157 31.6657 23.3953 30.5246 23.3953C29.3835 23.3953 28.4585 24.3157 28.4585 25.451C28.4585 26.5864 29.3835 27.5067 30.5246 27.5067ZM27.4254 25.451C27.4254 27.154 28.813 28.5346 30.5246 28.5346C32.2362 28.5346 33.6238 27.154 33.6238 25.451C33.6238 23.748 32.2362 22.3674 30.5246 22.3674C28.813 22.3674 27.4254 23.748 27.4254 25.451ZM22.2601 11.0609C23.4012 11.0609 24.3262 10.1406 24.3262 9.00522C24.3262 7.86987 23.4012 6.94949 22.2601 6.94949C21.119 6.94949 20.194 7.86987 20.194 9.00522C20.194 10.1406 21.119 11.0609 22.2601 11.0609ZM22.2601 19.2838C23.4012 19.2838 24.3262 18.3635 24.3262 17.2281C24.3262 16.0928 23.4012 15.1724 22.2601 15.1724C21.119 15.1724 20.194 16.0928 20.194 17.2281C20.194 18.3635 21.119 19.2838 22.2601 19.2838ZM19.1609 17.2281C19.1609 18.9311 20.5485 20.3117 22.2601 20.3117C23.9718 20.3117 25.3593 18.9311 25.3593 17.2281C25.3593 15.5251 23.9718 14.1445 22.2601 14.1445C20.5485 14.1445 19.1609 15.5251 19.1609 17.2281ZM22.2601 27.5067C23.4012 27.5067 24.3262 26.5864 24.3262 25.451C24.3262 24.3157 23.4012 23.3953 22.2601 23.3953C21.119 23.3953 20.194 24.3157 20.194 25.451C20.194 26.5864 21.119 27.5067 22.2601 27.5067ZM19.1609 25.451C19.1609 27.154 20.5485 28.5346 22.2601 28.5346C23.9718 28.5346 25.3593 27.154 25.3593 25.451C25.3593 23.748 23.9718 22.3674 22.2601 22.3674C20.5485 22.3674 19.1609 23.748 19.1609 25.451ZM13.9957 11.0609C15.1367 11.0609 16.0618 10.1406 16.0618 9.00522C16.0618 7.86987 15.1367 6.94949 13.9957 6.94949C12.8546 6.94949 11.9295 7.86987 11.9295 9.00522C11.9295 10.1406 12.8546 11.0609 13.9957 11.0609ZM13.9957 19.2838C15.1367 19.2838 16.0618 18.3635 16.0618 17.2281C16.0618 16.0928 15.1367 15.1724 13.9957 15.1724C12.8546 15.1724 11.9295 16.0928 11.9295 17.2281C11.9295 18.3635 12.8546 19.2838 13.9957 19.2838ZM10.8965 17.2281C10.8965 18.9311 12.284 20.3117 13.9957 20.3117C15.7073 20.3117 17.0948 18.9311 17.0948 17.2281C17.0948 15.5251 15.7073 14.1445 13.9957 14.1445C12.284 14.1445 10.8965 15.5251 10.8965 17.2281ZM13.9957 27.5067C15.1367 27.5067 16.0618 26.5864 16.0618 25.451C16.0618 24.3157 15.1367 23.3953 13.9957 23.3953C12.8546 23.3953 11.9295 24.3157 11.9295 25.451C11.9295 26.5864 12.8546 27.5067 13.9957 27.5067ZM10.8965 25.451C10.8965 27.154 12.284 28.5346 13.9957 28.5346C15.7073 28.5346 17.0948 27.154 17.0948 25.451C17.0948 23.748 15.7073 22.3674 13.9957 22.3674C12.284 22.3674 10.8965 23.748 10.8965 25.451Z" fill="white"/>
</mask>
<g mask="url(#mask0_8_2627)">
<rect x="-37.7412" y="2.71716" width="74.9385" height="29.4757" fill="#F0FCFF"/>
</g>
<path fill-rule="evenodd" clip-rule="evenodd" d="M30.5241 19.2838C31.6652 19.2838 32.5902 18.3634 32.5902 17.2281C32.5902 16.0927 31.6652 15.1724 30.5241 15.1724C29.383 15.1724 28.458 16.0927 28.458 17.2281C28.458 18.3634 29.383 19.2838 30.5241 19.2838Z" fill="white" fill-opacity="0.4"/>
<path fill-rule="evenodd" clip-rule="evenodd" d="M30.5241 11.0609C31.6652 11.0609 32.5902 10.1405 32.5902 9.00519C32.5902 7.86984 31.6652 6.94946 30.5241 6.94946C29.383 6.94946 28.458 7.86984 28.458 9.00519C28.458 10.1405 29.383 11.0609 30.5241 11.0609Z" fill="white" fill-opacity="0.4"/>
<path fill-rule="evenodd" clip-rule="evenodd" d="M30.5241 27.5067C31.6652 27.5067 32.5902 26.5863 32.5902 25.451C32.5902 24.3156 31.6652 23.3953 30.5241 23.3953C29.383 23.3953 28.458 24.3156 28.458 25.451C28.458 26.5863 29.383 27.5067 30.5241 27.5067Z" fill="white" fill-opacity="0.4"/>
<path fill-rule="evenodd" clip-rule="evenodd" d="M22.2605 11.0609C23.4015 11.0609 24.3266 10.1405 24.3266 9.00519C24.3266 7.86984 23.4015 6.94946 22.2605 6.94946C21.1194 6.94946 20.1943 7.86984 20.1943 9.00519C20.1943 10.1405 21.1194 11.0609 22.2605 11.0609Z" fill="white" fill-opacity="0.4"/>
<path fill-rule="evenodd" clip-rule="evenodd" d="M22.2605 19.2838C23.4015 19.2838 24.3266 18.3634 24.3266 17.2281C24.3266 16.0927 23.4015 15.1724 22.2605 15.1724C21.1194 15.1724 20.1943 16.0927 20.1943 17.2281C20.1943 18.3634 21.1194 19.2838 22.2605 19.2838Z" fill="white" fill-opacity="0.4"/>
<path fill-rule="evenodd" clip-rule="evenodd" d="M22.2605 27.5067C23.4015 27.5067 24.3266 26.5863 24.3266 25.451C24.3266 24.3156 23.4015 23.3953 22.2605 23.3953C21.1194 23.3953 20.1943 24.3156 20.1943 25.451C20.1943 26.5863 21.1194 27.5067 22.2605 27.5067Z" fill="white" fill-opacity="0.4"/>
<path fill-rule="evenodd" clip-rule="evenodd" d="M13.9958 11.0609C15.1369 11.0609 16.0619 10.1405 16.0619 9.00519C16.0619 7.86984 15.1369 6.94946 13.9958 6.94946C12.8547 6.94946 11.9297 7.86984 11.9297 9.00519C11.9297 10.1405 12.8547 11.0609 13.9958 11.0609Z" fill="white" fill-opacity="0.4"/>
<path fill-rule="evenodd" clip-rule="evenodd" d="M13.9958 19.2838C15.1369 19.2838 16.0619 18.3634 16.0619 17.2281C16.0619 16.0927 15.1369 15.1724 13.9958 15.1724C12.8547 15.1724 11.9297 16.0927 11.9297 17.2281C11.9297 18.3634 12.8547 19.2838 13.9958 19.2838Z" fill="white" fill-opacity="0.4"/>
<path fill-rule="evenodd" clip-rule="evenodd" d="M13.9958 27.5067C15.1369 27.5067 16.0619 26.5863 16.0619 25.451C16.0619 24.3156 15.1369 23.3953 13.9958 23.3953C12.8547 23.3953 11.9297 24.3156 11.9297 25.451C11.9297 26.5863 12.8547 27.5067 13.9958 27.5067Z" fill="white" fill-opacity="0.4"/>
</g>
<defs>
<filter id="filter0_d_8_2627" x="0.896484" y="0.921631" width="42.7275" height="42.6129" filterUnits="userSpaceOnUse" color-interpolation-filters="sRGB">
<feFlood flood-opacity="0" result="BackgroundImageFix"/>
<feColorMatrix in="SourceAlpha" type="matrix" values="0 0 0 0 0 0 0 0 0 0 0 0 0 0 0 0 0 0 127 0" result="hardAlpha"/>
<feOffset dy="5"/>
<feGaussianBlur stdDeviation="5"/>
<feColorMatrix type="matrix" values="0 0 0 0 0 0 0 0 0 0 0 0 0 0 0 0 0 0 0.1 0"/>
<feBlend mode="normal" in2="BackgroundImageFix" result="effect1_dropShadow_8_2627"/>
<feBlend mode="normal" in="SourceGraphic" in2="effect1_dropShadow_8_2627" result="shape"/>
</filter>
</defs>
</svg>
