<svg width="35" height="35" viewBox="0 0 35 35" fill="none" xmlns="http://www.w3.org/2000/svg">
<circle cx="17.4001" cy="17.4" r="16.8" fill="#1BA2DA"/>
<path fill-rule="evenodd" clip-rule="evenodd" d="M0 17.4C0 27.0098 7.79025 34.8 17.4 34.8C27.0098 34.8 34.8 27.0098 34.8 17.4C34.8 7.79025 27.0098 0 17.4 0C7.79025 0 0 7.79025 0 17.4ZM33.6 17.4C33.6 26.347 26.347 33.6 17.4 33.6C8.45299 33.6 1.2 26.347 1.2 17.4C1.2 8.45299 8.45299 1.2 17.4 1.2C26.347 1.2 33.6 8.45299 33.6 17.4Z" fill="#D4D4D4"/>
<rect x="13" y="17" width="10" height="2" fill="white"/>
</svg>
