<svg width="22" height="5" viewBox="0 0 22 5" fill="none" xmlns="http://www.w3.org/2000/svg">
<path fill-rule="evenodd" clip-rule="evenodd" d="M2.35861 0.504883C1.13095 0.504883 0.135742 1.51224 0.135742 2.75488C0.135742 3.99752 1.13095 5.00488 2.35861 5.00488C3.58626 5.00488 4.58147 3.99752 4.58147 2.75488C4.58147 1.51224 3.58626 0.504883 2.35861 0.504883ZM11.223 0.504883C9.99535 0.504883 9.00014 1.51224 9.00014 2.75488C9.00014 3.99752 9.99535 5.00488 11.223 5.00488C12.4507 5.00488 13.4459 3.99752 13.4459 2.75488C13.4459 1.51224 12.4507 0.504883 11.223 0.504883ZM17.0001 2.75488C17.0001 1.51224 17.9954 0.504883 19.223 0.504883C20.4507 0.504883 21.4459 1.51224 21.4459 2.75488C21.4459 3.99752 20.4507 5.00488 19.223 5.00488C17.9954 5.00488 17.0001 3.99752 17.0001 2.75488Z" fill="#95004D"/>
<mask id="mask0_0_394" style="mask-type:luminance" maskUnits="userSpaceOnUse" x="0" y="0" width="22" height="6">
<path fill-rule="evenodd" clip-rule="evenodd" d="M2.35861 0.504883C1.13095 0.504883 0.135742 1.51224 0.135742 2.75488C0.135742 3.99752 1.13095 5.00488 2.35861 5.00488C3.58626 5.00488 4.58147 3.99752 4.58147 2.75488C4.58147 1.51224 3.58626 0.504883 2.35861 0.504883ZM11.223 0.504883C9.99535 0.504883 9.00014 1.51224 9.00014 2.75488C9.00014 3.99752 9.99535 5.00488 11.223 5.00488C12.4507 5.00488 13.4459 3.99752 13.4459 2.75488C13.4459 1.51224 12.4507 0.504883 11.223 0.504883ZM17.0001 2.75488C17.0001 1.51224 17.9954 0.504883 19.223 0.504883C20.4507 0.504883 21.4459 1.51224 21.4459 2.75488C21.4459 3.99752 20.4507 5.00488 19.223 5.00488C17.9954 5.00488 17.0001 3.99752 17.0001 2.75488Z" fill="white"/>
</mask>
<g mask="url(#mask0_0_394)">
<path fill-rule="evenodd" clip-rule="evenodd" d="M-0.861328 15.1171L-0.861328 -9.15218H23.1152V15.1171L-0.861328 15.1171Z" fill="#9B9B9B"/>
</g>
</svg>
