<svg width="36" height="36" viewBox="0 0 36 36" fill="none" xmlns="http://www.w3.org/2000/svg">
<circle cx="17.9997" cy="18" r="16.8" fill="#1BA2DA"/>
<path fill-rule="evenodd" clip-rule="evenodd" d="M0.599609 18C0.599609 27.6097 8.38985 35.4 17.9996 35.4C27.6094 35.4 35.3996 27.6097 35.3996 18C35.3996 8.39022 27.6094 0.599976 17.9996 0.599976C8.38985 0.599976 0.599609 8.39022 0.599609 18ZM34.1996 18C34.1996 26.947 26.9466 34.2 17.9996 34.2C9.0526 34.2 1.79961 26.947 1.79961 18C1.79961 9.05296 9.0526 1.79998 17.9996 1.79998C26.9466 1.79998 34.1996 9.05296 34.1996 18Z" fill="#D4D4D4"/>
<path fill-rule="evenodd" clip-rule="evenodd" d="M19.5996 17.6H23.5996V19.6091H19.5996L19.5996 23.6H17.5996V19.6091L13.5996 19.6V17.6H17.5996V13.6H19.5996V17.6Z" fill="white"/>
</svg>
