<svg width="42" height="39" viewBox="0 0 42 39" fill="none" xmlns="http://www.w3.org/2000/svg">
<g filter="url(#filter0_d_8_2922)">
<path opacity="0.600432" fill-rule="evenodd" clip-rule="evenodd" d="M21.127 4.05518L10.3006 13.6915L8.25879 15.5095L9.02313 16.2686L10.3006 15.1315V26.5398H18.9617V17.9743H23.2923V26.5398H31.9534V15.1315L33.2309 16.2686L33.9953 15.5095L31.9534 13.6915L21.127 4.05518Z" fill="white"/>
<mask id="mask0_8_2922" style="mask-type:luminance" maskUnits="userSpaceOnUse" x="8" y="4" width="26" height="23">
<path fill-rule="evenodd" clip-rule="evenodd" d="M21.127 4.05518L10.3006 13.6915L8.25879 15.5095L9.02313 16.2686L10.3006 15.1315V26.5398H18.9617V17.9743H23.2923V26.5398H31.9534V15.1315L33.2309 16.2686L33.9953 15.5095L31.9534 13.6915L21.127 4.05518Z" fill="white"/>
</mask>
<g mask="url(#mask0_8_2922)">
</g>
</g>
<g filter="url(#filter1_d_8_2922)">
<path fill-rule="evenodd" clip-rule="evenodd" d="M21.127 4.05518L10.3006 13.6915L8.25879 15.5095L9.02313 16.2686L10.3006 15.1315V26.5398H18.9617V17.9743H23.2923V26.5398H31.9534V15.1315L33.2309 16.2686L33.9953 15.5095L31.9534 13.6915L21.127 4.05518ZM11.3833 14.1679L21.127 5.49527L30.8708 14.1679V25.4691H24.3749V17.9743V16.9036H23.2923H18.9617H17.8791V17.9743V25.4691H11.3833V14.1679Z" fill="#E8F5FF"/>
<mask id="mask1_8_2922" style="mask-type:luminance" maskUnits="userSpaceOnUse" x="8" y="4" width="26" height="23">
<path fill-rule="evenodd" clip-rule="evenodd" d="M21.127 4.05518L10.3006 13.6915L8.25879 15.5095L9.02313 16.2686L10.3006 15.1315V26.5398H18.9617V17.9743H23.2923V26.5398H31.9534V15.1315L33.2309 16.2686L33.9953 15.5095L31.9534 13.6915L21.127 4.05518ZM11.3833 14.1679L21.127 5.49527L30.8708 14.1679V25.4691H24.3749V17.9743V16.9036H23.2923H18.9617H17.8791V17.9743V25.4691H11.3833V14.1679Z" fill="white"/>
</mask>
<g mask="url(#mask1_8_2922)">
<path fill-rule="evenodd" clip-rule="evenodd" d="M8.25879 2.9845H33.9953V28.6813H8.25879V2.9845Z" fill="white"/>
</g>
</g>
<defs>
<filter id="filter0_d_8_2922" x="0.258789" y="0.0551758" width="41.7363" height="38.4846" filterUnits="userSpaceOnUse" color-interpolation-filters="sRGB">
<feFlood flood-opacity="0" result="BackgroundImageFix"/>
<feColorMatrix in="SourceAlpha" type="matrix" values="0 0 0 0 0 0 0 0 0 0 0 0 0 0 0 0 0 0 127 0" result="hardAlpha"/>
<feOffset dy="4"/>
<feGaussianBlur stdDeviation="4"/>
<feColorMatrix type="matrix" values="0 0 0 0 0 0 0 0 0 0 0 0 0 0 0 0 0 0 0.1 0"/>
<feBlend mode="normal" in2="BackgroundImageFix" result="effect1_dropShadow_8_2922"/>
<feBlend mode="normal" in="SourceGraphic" in2="effect1_dropShadow_8_2922" result="shape"/>
</filter>
<filter id="filter1_d_8_2922" x="0.258789" y="0.0551758" width="41.7363" height="38.4846" filterUnits="userSpaceOnUse" color-interpolation-filters="sRGB">
<feFlood flood-opacity="0" result="BackgroundImageFix"/>
<feColorMatrix in="SourceAlpha" type="matrix" values="0 0 0 0 0 0 0 0 0 0 0 0 0 0 0 0 0 0 127 0" result="hardAlpha"/>
<feOffset dy="4"/>
<feGaussianBlur stdDeviation="4"/>
<feColorMatrix type="matrix" values="0 0 0 0 0 0 0 0 0 0 0 0 0 0 0 0 0 0 0.1 0"/>
<feBlend mode="normal" in2="BackgroundImageFix" result="effect1_dropShadow_8_2922"/>
<feBlend mode="normal" in="SourceGraphic" in2="effect1_dropShadow_8_2922" result="shape"/>
</filter>
</defs>
</svg>
