<svg  viewBox="0 0 88 89" fill="none" xmlns="http://www.w3.org/2000/svg">
  <path d="M72.81 13.5099H68.81C68.4122 13.5099 68.0306 13.6679 67.7493 13.9492C67.468 14.2305 67.31 14.6121 67.31 15.0099C67.31 15.4077 67.468 15.7893 67.7493 16.0706C68.0306 16.3519 68.4122 16.5099 68.81 16.5099H71.32V18.9999C71.32 19.3977 71.478 19.7793 71.7593 20.0606C72.0406 20.3419 72.4222 20.4999 72.82 20.4999C73.2178 20.4999 73.5994 20.3419 73.8807 20.0606C74.162 19.7793 74.32 19.3977 74.32 18.9999V14.9999C74.32 14.8025 74.2808 14.6071 74.2047 14.425C74.1286 14.243 74.017 14.0778 73.8765 13.9392C73.7361 13.8006 73.5694 13.6912 73.3863 13.6175C73.2033 13.5438 73.0073 13.5073 72.81 13.5099Z" fill="currentColor" />
  <path d="M67.92 59L64.17 52.51C64.0375 52.2825 63.8478 52.0936 63.6198 51.9621C63.3918 51.8305 63.1333 51.7608 62.87 51.76H55.37C55.1083 51.7616 54.8515 51.8316 54.6251 51.9632C54.3988 52.0948 54.2109 52.2833 54.08 52.51L50.33 59C50.1973 59.2258 50.1273 59.483 50.1273 59.745C50.1273 60.007 50.1973 60.2642 50.33 60.49L54.08 66.99C54.2109 67.2167 54.3988 67.4052 54.6251 67.5368C54.8515 67.6684 55.1083 67.7384 55.37 67.74H62.87C63.1333 67.7392 63.3918 67.6695 63.6198 67.538C63.8478 67.4064 64.0375 67.2175 64.17 66.99L67.92 60.49C68.0479 60.2625 68.1151 60.006 68.1151 59.745C68.1151 59.484 68.0479 59.2275 67.92 59ZM62 64.7H56.23L53.35 59.7L56.23 54.7H62L64.89 59.7L62 64.7Z" fill="currentColor" />
  <path d="M59.12 38.88C60.8367 38.88 62.5149 38.371 63.9424 37.4172C65.3698 36.4634 66.4823 35.1078 67.1393 33.5217C67.7962 31.9357 67.9681 30.1904 67.6332 28.5066C67.2983 26.8229 66.4716 25.2763 65.2577 24.0623C64.0438 22.8484 62.4971 22.0217 60.8134 21.6868C59.1296 21.3519 57.3844 21.5238 55.7983 22.1807C54.2123 22.8377 52.8566 23.9503 51.9028 25.3777C50.9491 26.8051 50.44 28.4833 50.44 30.2C50.44 31.3399 50.6645 32.4686 51.1007 33.5217C51.5369 34.5748 52.1763 35.5317 52.9823 36.3377C54.6101 37.9655 56.8179 38.88 59.12 38.88ZM59.12 24.5C60.2478 24.498 61.3508 24.8307 62.2895 25.4558C63.2281 26.0809 63.9603 26.9704 64.3932 28.0118C64.8262 29.0532 64.9405 30.1995 64.7217 31.3059C64.5029 32.4122 63.9608 33.4288 63.1641 34.227C62.3673 35.0251 61.3517 35.569 60.2457 35.7898C59.1397 36.0105 57.9931 35.8982 56.951 35.4671C55.9089 35.036 55.0181 34.3054 54.3913 33.3678C53.7646 32.4302 53.43 31.3278 53.43 30.2C53.4326 28.6908 54.0326 27.2441 55.0989 26.176C56.1651 25.1079 57.6108 24.5053 59.12 24.5Z" fill="currentColor" />
  <path d="M72.81 24.9999C72.4139 25.0025 72.035 25.1617 71.7558 25.4428C71.4767 25.7238 71.32 26.1038 71.32 26.4999V33.9599C71.32 34.3577 71.478 34.7392 71.7593 35.0206C72.0407 35.3019 72.4222 35.4599 72.82 35.4599C73.2178 35.4599 73.5994 35.3019 73.8807 35.0206C74.162 34.7392 74.32 34.3577 74.32 33.9599V26.4699C74.3174 26.2742 74.2763 26.081 74.199 25.9012C74.1217 25.7214 74.0097 25.5586 73.8695 25.4221C73.7293 25.2856 73.5635 25.1781 73.3818 25.1056C73.2 25.0332 73.0057 24.9972 72.81 24.9999Z" fill="currentColor" />
  <path d="M72.81 39.91C72.4148 39.91 72.0358 40.067 71.7564 40.3464C71.477 40.6258 71.32 41.0048 71.32 41.4V43.91H68.81C68.4122 43.91 68.0306 44.068 67.7493 44.3493C67.468 44.6306 67.31 45.0121 67.31 45.41C67.31 45.8078 67.468 46.1893 67.7493 46.4706C68.0306 46.7519 68.4122 46.91 68.81 46.91H71.32V49.4C71.32 49.7978 71.478 50.1793 71.7593 50.4606C72.0406 50.7419 72.4222 50.9 72.82 50.9C73.2178 50.9 73.5994 50.7419 73.8807 50.4606C74.162 50.1793 74.32 49.7978 74.32 49.4V41.4C74.3214 41.2022 74.2831 41.0062 74.2075 40.8235C74.1318 40.6408 74.0203 40.4751 73.8796 40.3362C73.7388 40.1973 73.5716 40.088 73.3879 40.0148C73.2042 39.9416 73.0077 39.906 72.81 39.91Z" fill="currentColor" />
  <path d="M55 43.9099C54.803 43.9099 54.608 43.9487 54.426 44.0241C54.244 44.0995 54.0786 44.21 53.9393 44.3493C53.8001 44.4885 53.6896 44.6539 53.6142 44.8359C53.5388 45.0179 53.5 45.2129 53.5 45.4099C53.5 45.6069 53.5388 45.8019 53.6142 45.9839C53.6896 46.1659 53.8001 46.3313 53.9393 46.4706C54.0786 46.6099 54.244 46.7203 54.426 46.7957C54.608 46.8711 54.803 46.9099 55 46.9099H61.9C62.2978 46.9099 62.6794 46.7519 62.9607 46.4706C63.242 46.1893 63.4 45.8077 63.4 45.4099C63.4 45.0121 63.242 44.6306 62.9607 44.3493C62.6794 44.0679 62.2978 43.9099 61.9 43.9099H55Z" fill="currentColor" />
  <path d="M72.81 54.7699C72.4139 54.7726 72.035 54.9318 71.7558 55.2128C71.4767 55.4938 71.32 55.8738 71.32 56.2699V63.1299C71.32 63.5277 71.478 63.9093 71.7593 64.1906C72.0407 64.4719 72.4222 64.6299 72.82 64.6299C73.2178 64.6299 73.5994 64.4719 73.8807 64.1906C74.162 63.9093 74.32 63.5277 74.32 63.1299V56.2699C74.3214 56.0717 74.2831 55.8752 74.2076 55.692C74.1321 55.5087 74.0207 55.3424 73.8801 55.2027C73.7395 55.063 73.5724 54.9528 73.3887 54.8785C73.2049 54.8041 73.0082 54.7672 72.81 54.7699Z" fill="currentColor" />
  <path d="M72.81 68.51C72.4148 68.51 72.0358 68.667 71.7564 68.9464C71.477 69.2258 71.32 69.6048 71.32 70V72.51H68.81C68.4122 72.51 68.0306 72.668 67.7493 72.9493C67.468 73.2307 67.31 73.6122 67.31 74.01C67.31 74.4078 67.468 74.7894 67.7493 75.0707C68.0306 75.352 68.4122 75.51 68.81 75.51H72.81C73.0074 75.51 73.2028 75.4708 73.3849 75.3947C73.5669 75.3186 73.7321 75.207 73.8707 75.0666C74.0093 74.9261 74.1187 74.7594 74.1924 74.5763C74.2661 74.3933 74.3027 74.1974 74.3 74V70C74.3 69.6048 74.143 69.2258 73.8636 68.9464C73.5842 68.667 73.2052 68.51 72.81 68.51Z" fill="currentColor" />
  <path d="M61.9 72.51H55C54.6022 72.51 54.2206 72.668 53.9393 72.9493C53.658 73.2307 53.5 73.6122 53.5 74.01C53.5 74.4078 53.658 74.7894 53.9393 75.0707C54.2206 75.352 54.6022 75.51 55 75.51H61.9C62.2978 75.51 62.6794 75.352 62.9607 75.0707C63.242 74.7894 63.4 74.4078 63.4 74.01C63.4 73.6122 63.242 73.2307 62.9607 72.9493C62.6794 72.668 62.2978 72.51 61.9 72.51Z" fill="currentColor" />
  <path d="M38.08 32.07L33.01 24.07C32.6492 23.5001 32.15 23.0307 31.5591 22.7055C30.9681 22.3803 30.3045 22.2099 29.63 22.21C28.9555 22.2099 28.2919 22.3803 27.701 22.7055C27.11 23.0307 26.6109 23.5001 26.25 24.07L21.17 32.07C20.7869 32.6749 20.5733 33.3717 20.5513 34.0874C20.5294 34.8031 20.7 35.5116 21.0453 36.139C21.3906 36.7663 21.898 37.2894 22.5145 37.6537C23.131 38.0179 23.834 38.2101 24.55 38.21H34.7C35.4162 38.2083 36.1188 38.0145 36.7345 37.6486C37.3501 37.2827 37.8563 36.7582 38.2 36.13C38.5527 35.5068 38.728 34.7989 38.7069 34.0832C38.6857 33.3675 38.4689 32.6712 38.08 32.07ZM35.59 34.7C35.5029 34.8593 35.374 34.9919 35.2172 35.0835C35.0604 35.1751 34.8816 35.2223 34.7 35.22H24.55C24.3684 35.2223 24.1897 35.1751 24.0329 35.0835C23.8761 34.9919 23.7472 34.8593 23.66 34.7C23.5723 34.5479 23.5261 34.3755 23.5261 34.2C23.5261 34.0244 23.5723 33.852 23.66 33.7L28.73 25.7C28.8192 25.553 28.9447 25.4315 29.0944 25.3472C29.2442 25.2629 29.4132 25.2186 29.585 25.2186C29.7569 25.2186 29.9259 25.2629 30.0756 25.3472C30.2254 25.4315 30.3509 25.553 30.44 25.7L35.52 33.7C35.6187 33.8457 35.6771 34.015 35.6894 34.1906C35.7017 34.3661 35.6674 34.5419 35.59 34.7Z" fill="currentColor" />
  <path d="M36 51.8899H23.3C23.1043 51.8899 22.9106 51.9284 22.7298 52.0033C22.549 52.0782 22.3848 52.1879 22.2464 52.3263C22.108 52.4647 21.9983 52.6289 21.9234 52.8097C21.8485 52.9905 21.81 53.1842 21.81 53.3799V65.9999C21.81 66.3951 21.967 66.7741 22.2464 67.0535C22.5258 67.3329 22.9048 67.4899 23.3 67.4899H36C36.3864 67.4769 36.7527 67.3142 37.0214 67.0362C37.2901 66.7582 37.4402 66.3866 37.44 65.9999V53.3799C37.4402 52.9932 37.2901 52.6216 37.0214 52.3436C36.7527 52.0656 36.3864 51.9029 36 51.8899ZM34.46 64.5299H24.8V54.8699H34.46V64.5299Z" fill="currentColor" />
  <path d="M15.19 20.49C15.5852 20.49 15.9642 20.333 16.2436 20.0536C16.523 19.7741 16.68 19.3952 16.68 19V16.49H19.19C19.5879 16.49 19.9694 16.332 20.2507 16.0507C20.532 15.7693 20.69 15.3878 20.69 14.99C20.69 14.5922 20.532 14.2106 20.2507 13.9293C19.9694 13.648 19.5879 13.49 19.19 13.49H15.19C14.9927 13.49 14.7973 13.5292 14.6152 13.6053C14.4331 13.6814 14.2679 13.793 14.1293 13.9334C13.9907 14.0739 13.8813 14.2406 13.8077 14.4236C13.734 14.6067 13.6974 14.8026 13.7 15V19C13.7 19.3952 13.857 19.7741 14.1364 20.0536C14.4159 20.333 14.7949 20.49 15.19 20.49Z" fill="currentColor" />
  <path d="M26.15 16.49H33.15C33.5479 16.49 33.9294 16.332 34.2107 16.0507C34.492 15.7693 34.65 15.3878 34.65 14.99C34.65 14.5922 34.492 14.2106 34.2107 13.9293C33.9294 13.648 33.5479 13.49 33.15 13.49H26.15C25.7522 13.49 25.3707 13.648 25.0894 13.9293C24.8081 14.2106 24.65 14.5922 24.65 14.99C24.65 15.3878 24.8081 15.7693 25.0894 16.0507C25.3707 16.332 25.7522 16.49 26.15 16.49Z" fill="currentColor" />
  <path d="M15.19 35.42C15.5852 35.42 15.9642 35.263 16.2436 34.9836C16.523 34.7041 16.68 34.3251 16.68 33.93V26.47C16.68 26.0721 16.522 25.6906 16.2407 25.4093C15.9594 25.128 15.5779 24.97 15.18 24.97C14.7822 24.97 14.4007 25.128 14.1194 25.4093C13.8381 25.6906 13.68 26.0721 13.68 26.47V33.93C13.6787 34.1277 13.7169 34.3237 13.7926 34.5064C13.8682 34.6892 13.9797 34.8548 14.1205 34.9937C14.2612 35.1326 14.4284 35.2419 14.6121 35.3151C14.7958 35.3883 14.9923 35.424 15.19 35.42Z" fill="currentColor" />
  <path d="M48.06 13.51H40.06C39.6622 13.51 39.2806 13.668 38.9993 13.9493C38.718 14.2306 38.56 14.6122 38.56 15.01C38.56 15.4078 38.718 15.7893 38.9993 16.0707C39.2806 16.352 39.6622 16.51 40.06 16.51H42.57V19C42.57 19.3978 42.728 19.7793 43.0093 20.0606C43.2906 20.342 43.6722 20.5 44.07 20.5C44.4678 20.5 44.8494 20.342 45.1307 20.0606C45.412 19.7793 45.57 19.3978 45.57 19V16.49H48.07C48.4678 16.49 48.8494 16.332 49.1307 16.0507C49.412 15.7693 49.57 15.3878 49.57 14.99C49.57 14.5922 49.412 14.2106 49.1307 13.9293C48.8494 13.648 48.4678 13.49 48.07 13.49L48.06 13.51Z" fill="currentColor" />
  <path d="M55 16.49H61.9C62.2978 16.49 62.6794 16.332 62.9607 16.0507C63.242 15.7693 63.4 15.3878 63.4 14.99C63.4 14.5922 63.242 14.2106 62.9607 13.9293C62.6794 13.648 62.2978 13.49 61.9 13.49H55C54.6022 13.49 54.2206 13.648 53.9393 13.9293C53.658 14.2106 53.5 14.5922 53.5 14.99C53.5 15.3878 53.658 15.7693 53.9393 16.0507C54.2206 16.332 54.6022 16.49 55 16.49Z" fill="currentColor" />
  <path d="M19.19 43.9099H16.68V41.3999C16.68 41.0021 16.522 40.6205 16.2407 40.3392C15.9593 40.0579 15.5778 39.8999 15.18 39.8999C14.7822 39.8999 14.4006 40.0579 14.1193 40.3392C13.838 40.6205 13.68 41.0021 13.68 41.3999V49.3999C13.68 49.7977 13.838 50.1793 14.1193 50.4606C14.4006 50.7419 14.7822 50.8999 15.18 50.8999C15.5778 50.8999 15.9593 50.7419 16.2407 50.4606C16.522 50.1793 16.68 49.7977 16.68 49.3999V46.8899H19.19C19.5878 46.8899 19.9693 46.7319 20.2507 46.4506C20.532 46.1693 20.69 45.7877 20.69 45.3899C20.69 44.9921 20.532 44.6105 20.2507 44.3292C19.9693 44.0479 19.5878 43.8899 19.19 43.8899V43.9099Z" fill="currentColor" />
  <path d="M33.11 46.8899C33.5078 46.8899 33.8893 46.7319 34.1706 46.4506C34.452 46.1692 34.61 45.7877 34.61 45.3899C34.61 44.9921 34.452 44.6105 34.1706 44.3292C33.8893 44.0479 33.5078 43.8899 33.11 43.8899H26.11C25.7122 43.8899 25.3306 44.0479 25.0493 44.3292C24.768 44.6105 24.61 44.9921 24.61 45.3899C24.61 45.7877 24.768 46.1692 25.0493 46.4506C25.3306 46.7319 25.7122 46.8899 26.11 46.8899H33.11Z" fill="currentColor" />
  <path d="M33.11 72.51H26.11C25.7122 72.51 25.3306 72.668 25.0493 72.9493C24.768 73.2307 24.61 73.6122 24.61 74.01C24.61 74.4078 24.768 74.7894 25.0493 75.0707C25.3306 75.352 25.7122 75.51 26.11 75.51H33.11C33.5078 75.51 33.8893 75.352 34.1706 75.0707C34.452 74.7894 34.61 74.4078 34.61 74.01C34.61 73.6122 34.452 73.2307 34.1706 72.9493C33.8893 72.668 33.5078 72.51 33.11 72.51Z" fill="currentColor" />
  <path d="M19.19 72.51H16.68V70C16.68 69.6022 16.522 69.2206 16.2407 68.9393C15.9593 68.658 15.5778 68.5 15.18 68.5C14.7822 68.5 14.4006 68.658 14.1193 68.9393C13.838 69.2206 13.68 69.6022 13.68 70V74C13.68 74.3952 13.837 74.7742 14.1164 75.0536C14.3958 75.333 14.7748 75.49 15.17 75.49H19.17C19.5678 75.49 19.9493 75.332 20.2307 75.0507C20.512 74.7694 20.67 74.3878 20.67 73.99C20.67 73.5922 20.512 73.2106 20.2307 72.9293C19.9493 72.648 19.5678 72.49 19.17 72.49L19.19 72.51Z" fill="currentColor" />
  <path d="M15.19 64.62C15.5852 64.62 15.9642 64.463 16.2436 64.1836C16.523 63.9042 16.68 63.5252 16.68 63.13V56.27C16.68 55.8722 16.522 55.4907 16.2407 55.2094C15.9594 54.9281 15.5779 54.77 15.18 54.77C14.7822 54.77 14.4007 54.9281 14.1194 55.2094C13.8381 55.4907 13.68 55.8722 13.68 56.27V63.13C13.6787 63.3278 13.7169 63.5238 13.7926 63.7065C13.8682 63.8892 13.9797 64.0549 14.1205 64.1938C14.2612 64.3327 14.4284 64.442 14.6121 64.5152C14.7958 64.5884 14.9923 64.624 15.19 64.62Z" fill="currentColor" />
  <path d="M44.06 35.42C44.2565 35.4213 44.4513 35.3837 44.6333 35.3094C44.8152 35.2351 44.9806 35.1256 45.1201 34.9871C45.2595 34.8486 45.3701 34.6839 45.4456 34.5025C45.5211 34.3211 45.56 34.1265 45.56 33.93V26.47C45.56 26.0721 45.402 25.6906 45.1207 25.4093C44.8394 25.128 44.4578 24.97 44.06 24.97C43.6622 24.97 43.2806 25.128 42.9993 25.4093C42.718 25.6906 42.56 26.0721 42.56 26.47V33.93C42.56 34.1265 42.5989 34.3211 42.6744 34.5025C42.7499 34.6839 42.8605 34.8486 42.9999 34.9871C43.1394 35.1256 43.3048 35.2351 43.4867 35.3094C43.6687 35.3837 43.8635 35.4213 44.06 35.42Z" fill="currentColor" />
  <path d="M48.06 43.9099H45.56V41.3999C45.56 41.0021 45.402 40.6205 45.1207 40.3392C44.8394 40.0579 44.4578 39.8999 44.06 39.8999C43.6622 39.8999 43.2806 40.0579 42.9993 40.3392C42.718 40.6205 42.56 41.0021 42.56 41.3999V43.9099H40.06C39.863 43.9099 39.668 43.9487 39.486 44.0241C39.304 44.0995 39.1386 44.21 38.9993 44.3492C38.86 44.4885 38.7496 44.6539 38.6742 44.8359C38.5988 45.0179 38.56 45.2129 38.56 45.4099C38.56 45.6069 38.5988 45.8019 38.6742 45.9839C38.7496 46.1659 38.86 46.3313 38.9993 46.4706C39.1386 46.6098 39.304 46.7203 39.486 46.7957C39.668 46.8711 39.863 46.9099 40.06 46.9099H42.57V49.3999C42.57 49.7977 42.728 50.1793 43.0093 50.4606C43.2906 50.7419 43.6722 50.8999 44.07 50.8999C44.4678 50.8999 44.8494 50.7419 45.1307 50.4606C45.412 50.1793 45.57 49.7977 45.57 49.3999V46.8899H48.07C48.4678 46.8899 48.8494 46.7319 49.1307 46.4506C49.412 46.1693 49.57 45.7877 49.57 45.3899C49.57 44.9921 49.412 44.6105 49.1307 44.3292C48.8494 44.0479 48.4678 43.8899 48.07 43.8899L48.06 43.9099Z" fill="currentColor" />
  <path d="M48.06 72.51H45.56V70C45.56 69.6022 45.402 69.2206 45.1207 68.9393C44.8394 68.658 44.4578 68.5 44.06 68.5C43.6622 68.5 43.2806 68.658 42.9993 68.9393C42.718 69.2206 42.56 69.6022 42.56 70V72.51H40.06C39.6622 72.51 39.2806 72.668 38.9993 72.9493C38.718 73.2306 38.56 73.6122 38.56 74.01C38.56 74.4078 38.718 74.7894 38.9993 75.0707C39.2806 75.352 39.6622 75.51 40.06 75.51H48.06C48.4578 75.51 48.8394 75.352 49.1207 75.0707C49.402 74.7894 49.56 74.4078 49.56 74.01C49.56 73.6122 49.402 73.2306 49.1207 72.9493C48.8394 72.668 48.4578 72.51 48.06 72.51Z" fill="currentColor" />
  <path d="M44.06 64.62C44.2565 64.6213 44.4513 64.5838 44.6333 64.5095C44.8152 64.4352 44.9806 64.3257 45.1201 64.1872C45.2595 64.0487 45.3701 63.884 45.4456 63.7025C45.5211 63.5211 45.56 63.3265 45.56 63.13V56.27C45.56 55.8722 45.402 55.4907 45.1207 55.2094C44.8394 54.9281 44.4578 54.77 44.06 54.77C43.6622 54.77 43.2806 54.9281 42.9993 55.2094C42.718 55.4907 42.56 55.8722 42.56 56.27V63.13C42.56 63.3265 42.5989 63.5211 42.6744 63.7025C42.7499 63.884 42.8605 64.0487 42.9999 64.1872C43.1394 64.3257 43.3048 64.4352 43.4867 64.5095C43.6687 64.5838 43.8635 64.6213 44.06 64.62Z" fill="currentColor" />
</svg>
