<svg  viewBox="0 0 88 89" fill="none" xmlns="http://www.w3.org/2000/svg">
  <path d="M19.25 13.51H15.25C14.8548 13.51 14.4758 13.667 14.1964 13.9464C13.917 14.2258 13.76 14.6048 13.76 15V19C13.76 19.3978 13.918 19.7793 14.1993 20.0606C14.4807 20.342 14.8622 20.5 15.26 20.5C15.6578 20.5 16.0394 20.342 16.3207 20.0606C16.602 19.7793 16.76 19.3978 16.76 19V16.49H19.27C19.6678 16.49 20.0494 16.332 20.3307 16.0507C20.612 15.7693 20.77 15.3878 20.77 14.99C20.77 14.5922 20.612 14.2106 20.3307 13.9293C20.0494 13.648 19.6678 13.49 19.27 13.49L19.25 13.51Z" fill="currentColor" />
  <path d="M40.46 16.49H47.54C47.9378 16.49 48.3193 16.332 48.6006 16.0507C48.8819 15.7693 49.04 15.3878 49.04 14.99C49.04 14.5922 48.8819 14.2106 48.6006 13.9293C48.3193 13.648 47.9378 13.49 47.54 13.49H40.46C40.0621 13.49 39.6806 13.648 39.3993 13.9293C39.118 14.2106 38.96 14.5922 38.96 14.99C38.96 15.3878 39.118 15.7693 39.3993 16.0507C39.6806 16.332 40.0621 16.49 40.46 16.49Z" fill="currentColor" />
  <path d="M26.3199 16.49H33.3899C33.7878 16.49 34.1693 16.332 34.4506 16.0507C34.7319 15.7693 34.8899 15.3878 34.8899 14.99C34.8899 14.5922 34.7319 14.2106 34.4506 13.9293C34.1693 13.648 33.7878 13.49 33.3899 13.49H26.3199C25.9221 13.49 25.5406 13.648 25.2593 13.9293C24.978 14.2106 24.8199 14.5922 24.8199 14.99C24.8199 15.3878 24.978 15.7693 25.2593 16.0507C25.5406 16.332 25.9221 16.49 26.3199 16.49Z" fill="currentColor" />
  <path d="M61.68 13.51H54.61C54.2122 13.51 53.8306 13.668 53.5493 13.9493C53.268 14.2307 53.11 14.6122 53.11 15.01C53.11 15.4078 53.268 15.7894 53.5493 16.0707C53.8306 16.352 54.2122 16.51 54.61 16.51H61.68C61.877 16.51 62.072 16.4712 62.254 16.3958C62.436 16.3204 62.6014 16.21 62.7406 16.0707C62.8799 15.9314 62.9904 15.766 63.0658 15.584C63.1412 15.402 63.18 15.207 63.18 15.01C63.18 14.813 63.1412 14.618 63.0658 14.436C62.9904 14.254 62.8799 14.0886 62.7406 13.9493C62.6014 13.8101 62.436 13.6996 62.254 13.6242C62.072 13.5488 61.877 13.51 61.68 13.51Z" fill="currentColor" />
  <path d="M72.75 13.5099H68.75C68.3522 13.5099 67.9706 13.6679 67.6893 13.9492C67.408 14.2305 67.25 14.6121 67.25 15.0099C67.25 15.4077 67.408 15.7893 67.6893 16.0706C67.9706 16.3519 68.3522 16.5099 68.75 16.5099H71.26V18.9999C71.26 19.3977 71.418 19.7793 71.6993 20.0606C71.9806 20.3419 72.3622 20.4999 72.76 20.4999C73.1578 20.4999 73.5394 20.3419 73.8207 20.0606C74.102 19.7793 74.26 19.3977 74.26 18.9999V14.9999C74.26 14.8025 74.2208 14.6071 74.1447 14.425C74.0686 14.243 73.957 14.0778 73.8165 13.9392C73.6761 13.8006 73.5094 13.6912 73.3263 13.6175C73.1432 13.5438 72.9473 13.5073 72.75 13.5099Z" fill="currentColor" />
  <path d="M72.75 24.7901C72.3539 24.7927 71.975 24.9519 71.6958 25.2329C71.4167 25.514 71.26 25.894 71.26 26.2901V33.5701C71.26 33.9679 71.418 34.3494 71.6993 34.6307C71.9807 34.912 72.3622 35.0701 72.76 35.0701C73.1578 35.0701 73.5394 34.912 73.8207 34.6307C74.102 34.3494 74.26 33.9679 74.26 33.5701V26.2901C74.26 26.0922 74.2209 25.8964 74.1449 25.7137C74.0689 25.5311 73.9575 25.3653 73.8171 25.2259C73.6768 25.0864 73.5102 24.9762 73.3271 24.9014C73.144 24.8266 72.9478 24.7888 72.75 24.7901Z" fill="currentColor" />
  <path d="M72.75 39.3599C72.3539 39.3625 71.975 39.5217 71.6958 39.8028C71.4167 40.0838 71.26 40.4638 71.26 40.8599V48.1399C71.26 48.5377 71.418 48.9193 71.6993 49.2006C71.9807 49.4819 72.3622 49.6399 72.76 49.6399C73.1578 49.6399 73.5394 49.4819 73.8207 49.2006C74.102 48.9193 74.26 48.5377 74.26 48.1399V40.8599C74.26 40.6621 74.2209 40.4662 74.1449 40.2836C74.0689 40.1009 73.9575 39.9351 73.8171 39.7957C73.6768 39.6563 73.5102 39.546 73.3271 39.4712C73.144 39.3964 72.9478 39.3586 72.75 39.3599Z" fill="currentColor" />
  <path d="M72.75 53.9401C72.5543 53.9401 72.3606 53.9786 72.1798 54.0535C71.999 54.1284 71.8348 54.2381 71.6964 54.3765C71.5581 54.5148 71.4483 54.6791 71.3734 54.8599C71.2985 55.0407 71.26 55.2344 71.26 55.4301V62.7101C71.26 63.1079 71.418 63.4894 71.6993 63.7707C71.9807 64.052 72.3622 64.2101 72.76 64.2101C73.1578 64.2101 73.5394 64.052 73.8207 63.7707C74.102 63.4894 74.26 63.1079 74.26 62.7101V55.4301C74.26 55.2327 74.2208 55.0373 74.1447 54.8552C74.0686 54.6731 73.957 54.508 73.8166 54.3694C73.6761 54.2307 73.5094 54.1214 73.3263 54.0477C73.1433 53.974 72.9474 53.9374 72.75 53.9401Z" fill="currentColor" />
  <path d="M72.75 68.51C72.3548 68.51 71.9758 68.667 71.6964 68.9464C71.417 69.2258 71.26 69.6048 71.26 70V72.51H68.75C68.3522 72.51 67.9706 72.668 67.6893 72.9493C67.408 73.2307 67.25 73.6122 67.25 74.01C67.25 74.4078 67.408 74.7894 67.6893 75.0707C67.9706 75.352 68.3522 75.51 68.75 75.51H72.75C72.9474 75.51 73.1428 75.4708 73.3249 75.3947C73.507 75.3186 73.6721 75.207 73.8107 75.0666C73.9493 74.9261 74.0587 74.7594 74.1324 74.5763C74.2061 74.3933 74.2426 74.1974 74.24 74V70C74.24 69.6048 74.083 69.2258 73.8036 68.9464C73.5242 68.667 73.1452 68.51 72.75 68.51Z" fill="currentColor" />
  <path d="M61.68 72.51H54.61C54.2122 72.51 53.8306 72.668 53.5493 72.9493C53.268 73.2307 53.11 73.6122 53.11 74.01C53.11 74.4078 53.268 74.7894 53.5493 75.0707C53.8306 75.352 54.2122 75.51 54.61 75.51H61.68C62.0778 75.51 62.4593 75.352 62.7406 75.0707C63.022 74.7894 63.18 74.4078 63.18 74.01C63.18 73.6122 63.022 73.2307 62.7406 72.9493C62.4593 72.668 62.0778 72.51 61.68 72.51Z" fill="currentColor" />
  <path d="M33.3899 72.51H26.3199C25.9221 72.51 25.5406 72.668 25.2593 72.9493C24.978 73.2307 24.8199 73.6122 24.8199 74.01C24.8199 74.4078 24.978 74.7894 25.2593 75.0707C25.5406 75.352 25.9221 75.51 26.3199 75.51H33.3899C33.7878 75.51 34.1693 75.352 34.4506 75.0707C34.7319 74.7894 34.8899 74.4078 34.8899 74.01C34.8899 73.6122 34.7319 73.2307 34.4506 72.9493C34.1693 72.668 33.7878 72.51 33.3899 72.51Z" fill="currentColor" />
  <path d="M47.54 72.51H40.46C40.0621 72.51 39.6806 72.668 39.3993 72.9493C39.118 73.2307 38.96 73.6122 38.96 74.01C38.96 74.4078 39.118 74.7894 39.3993 75.0707C39.6806 75.352 40.0621 75.51 40.46 75.51H47.54C47.9378 75.51 48.3193 75.352 48.6006 75.0707C48.8819 74.7894 49.04 74.4078 49.04 74.01C49.04 73.6122 48.8819 73.2307 48.6006 72.9493C48.3193 72.668 47.9378 72.51 47.54 72.51Z" fill="currentColor" />
  <path d="M19.25 72.51H16.74V70C16.74 69.6022 16.582 69.2206 16.3007 68.9393C16.0193 68.658 15.6378 68.5 15.24 68.5C14.8422 68.5 14.4606 68.658 14.1793 68.9393C13.898 69.2206 13.74 69.6022 13.74 70V74C13.74 74.3952 13.897 74.7742 14.1764 75.0536C14.4558 75.333 14.8348 75.49 15.23 75.49H19.23C19.6278 75.49 20.0093 75.332 20.2907 75.0507C20.572 74.7694 20.73 74.3878 20.73 73.99C20.73 73.5922 20.572 73.2106 20.2907 72.9293C20.0093 72.648 19.6278 72.49 19.23 72.49L19.25 72.51Z" fill="currentColor" />
  <path d="M15.25 49.6401C15.6461 49.6375 16.025 49.4783 16.3042 49.1972C16.5833 48.9162 16.74 48.5362 16.74 48.1401V40.8601C16.74 40.4623 16.582 40.0808 16.3007 39.7994C16.0193 39.5181 15.6378 39.3601 15.24 39.3601C14.8422 39.3601 14.4606 39.5181 14.1793 39.7994C13.898 40.0808 13.74 40.4623 13.74 40.8601V48.1401C13.74 48.3379 13.7791 48.5338 13.8551 48.7164C13.9311 48.8991 14.0425 49.0649 14.1829 49.2043C14.3232 49.3437 14.4897 49.454 14.6729 49.5288C14.856 49.6036 15.0522 49.6414 15.25 49.6401Z" fill="currentColor" />
  <path d="M15.25 35.06C15.6452 35.06 16.0242 34.9031 16.3036 34.6236C16.583 34.3442 16.74 33.9652 16.74 33.57V26.29C16.74 25.8922 16.582 25.5107 16.3007 25.2294C16.0193 24.9481 15.6378 24.79 15.24 24.79C14.8422 24.79 14.4606 24.9481 14.1793 25.2294C13.898 25.5107 13.74 25.8922 13.74 26.29V33.57C13.74 33.7674 13.7792 33.9628 13.8553 34.1449C13.9314 34.327 14.043 34.4921 14.1834 34.6308C14.3239 34.7694 14.4906 34.8787 14.6736 34.9524C14.8567 35.0261 15.0526 35.0627 15.25 35.06Z" fill="currentColor" />
  <path d="M15.25 64.2099C15.6461 64.2073 16.025 64.0481 16.3042 63.7671C16.5833 63.4861 16.74 63.106 16.74 62.7099V55.4299C16.74 55.0321 16.582 54.6506 16.3007 54.3693C16.0193 54.088 15.6378 53.9299 15.24 53.9299C14.8422 53.9299 14.4606 54.088 14.1793 54.3693C13.898 54.6506 13.74 55.0321 13.74 55.4299V62.7099C13.74 62.9078 13.7791 63.1036 13.8551 63.2863C13.9311 63.4689 14.0425 63.6347 14.1829 63.7741C14.3232 63.9136 14.4897 64.0238 14.6729 64.0986C14.856 64.1734 15.0522 64.2112 15.25 64.2099Z" fill="currentColor" />
  <path d="M28.18 55.5299C28.7316 56.5478 29.5498 57.3964 30.5469 57.9848C31.544 58.5732 32.6823 58.8792 33.84 58.8699H53.9C55.0495 58.8652 56.1769 58.5538 57.1659 57.968C58.1549 57.3821 58.9697 56.5429 59.5261 55.537C60.0826 54.5312 60.3605 53.3951 60.3313 52.2459C60.3021 51.0968 59.9668 49.9763 59.36 49L49.36 33.1399C48.7771 32.2209 47.9713 31.4641 47.0177 30.9397C46.064 30.4153 44.9934 30.1404 43.905 30.1404C42.8167 30.1404 41.746 30.4153 40.7924 30.9397C39.8387 31.4641 39.033 32.2209 38.45 33.1399L28.38 49C27.7613 49.9693 27.416 51.0879 27.3808 52.2374C27.3456 53.3869 27.6217 54.5245 28.18 55.5299ZM30.9 50.5299L40.9 34.6699C41.2132 34.1764 41.646 33.7699 42.1582 33.4883C42.6704 33.2067 43.2455 33.059 43.83 33.059C44.4146 33.059 44.9896 33.2067 45.5019 33.4883C46.0141 33.7699 46.4469 34.1764 46.76 34.6699L56.76 50.5299C57.091 51.0552 57.2751 51.6597 57.2929 52.2803C57.3107 52.9009 57.1617 53.5149 56.8614 54.0583C56.5611 54.6018 56.1205 55.0546 55.5856 55.3698C55.0506 55.6849 54.4409 55.8507 53.82 55.8499H33.84C33.2192 55.8507 32.6095 55.6849 32.0745 55.3698C31.5396 55.0546 31.099 54.6018 30.7987 54.0583C30.4983 53.5149 30.3493 52.9009 30.3672 52.2803C30.385 51.6597 30.569 51.0552 30.9 50.5299Z" fill="currentColor" />
</svg>
