<svg  viewBox="0 0 88 89" fill="none" xmlns="http://www.w3.org/2000/svg">
  <path d="M24.51 38.1801H34.65C35.3698 38.1794 36.076 37.9846 36.6942 37.6161C37.3125 37.2476 37.8199 36.7191 38.1629 36.0863C38.5059 35.4536 38.6718 34.74 38.6431 34.0208C38.6145 33.3017 38.3923 32.6035 38 32.0001L33 24.0001C32.6393 23.4301 32.1402 22.9605 31.5492 22.6351C30.9583 22.3098 30.2946 22.1392 29.62 22.1392C28.9454 22.1392 28.2818 22.3098 27.6908 22.6351C27.0999 22.9605 26.6008 23.4301 26.24 24.0001L21.17 32.0001C20.7869 32.6051 20.5733 33.3018 20.5513 34.0175C20.5294 34.7333 20.7 35.4418 21.0453 36.0691C21.3906 36.6964 21.898 37.2195 22.5145 37.5838C23.131 37.9481 23.834 38.1402 24.55 38.1401L24.51 38.1801ZM23.65 33.6401L28.72 25.6401C28.8086 25.4909 28.9344 25.3673 29.0852 25.2814C29.236 25.1955 29.4065 25.1504 29.58 25.1504C29.7535 25.1504 29.9241 25.1955 30.0749 25.2814C30.2256 25.3673 30.3515 25.4909 30.44 25.6401L35.51 33.6401C35.5978 33.7921 35.644 33.9646 35.644 34.1401C35.644 34.3156 35.5978 34.4881 35.51 34.6401C35.4242 34.8013 35.2959 34.9359 35.139 35.0293C34.9821 35.1227 34.8026 35.1714 34.62 35.1701H24.51C24.3258 35.176 24.1436 35.1308 23.9834 35.0396C23.8233 34.9485 23.6914 34.8148 23.6024 34.6534C23.5135 34.492 23.4708 34.3091 23.4792 34.125C23.4876 33.9409 23.5467 33.7627 23.65 33.6101V33.6401Z" fill="currentColor" />
  <path d="M49.13 38.1801C49.175 38.2446 49.2348 38.2974 49.3044 38.334C49.374 38.3705 49.4514 38.3898 49.53 38.3901H50.65C50.7502 38.3902 50.8481 38.3596 50.9303 38.3024C51.0126 38.2451 51.0753 38.1641 51.11 38.0701L52.18 35.0701H56.08L57.08 38.0701C57.1104 38.1676 57.1718 38.2526 57.2548 38.3121C57.3378 38.3717 57.4379 38.4026 57.54 38.4001H58.77C58.8473 38.3999 58.9233 38.3806 58.9913 38.3439C59.0594 38.3073 59.1173 38.2545 59.16 38.1901C59.2064 38.1278 59.2362 38.0548 59.2467 37.9778C59.2571 37.9009 59.248 37.8226 59.22 37.7501L55.49 27.4501C55.4247 27.2718 55.3063 27.1177 55.1507 27.0086C54.9952 26.8996 54.81 26.8408 54.62 26.8401H53.82C53.6309 26.8386 53.446 26.8954 53.2903 27.0027C53.1346 27.1101 53.0158 27.2628 52.95 27.4401L49.07 37.7401C49.0447 37.813 49.0369 37.8908 49.0473 37.9673C49.0578 38.0438 49.0861 38.1167 49.13 38.1801ZM52.82 33.3001L54.15 29.6701L55.4 33.3001H52.82Z" fill="currentColor" />
  <path d="M65.1299 33.0001L62.9999 33.2301C62.2656 33.2946 61.5682 33.5806 60.9999 34.0501C60.7278 34.3037 60.5156 34.6148 60.3789 34.9608C60.2423 35.3068 60.1845 35.679 60.2099 36.0501C60.2105 36.3958 60.2807 36.7377 60.4164 37.0556C60.5522 37.3735 60.7506 37.6607 60.9999 37.9001C61.5426 38.4036 62.2599 38.6761 62.9999 38.6601C63.6321 38.6626 64.2558 38.5152 64.8199 38.2301C65.1369 38.0712 65.4326 37.873 65.6999 37.6401C65.7387 37.7404 65.7856 37.8374 65.8399 37.9301C65.9755 38.1371 66.1636 38.3045 66.3849 38.4151C66.6063 38.5258 66.853 38.5758 67.0999 38.5601C67.263 38.573 67.4269 38.573 67.5899 38.5601C67.7668 38.5371 67.9409 38.4969 68.1099 38.4401L68.3299 38.3801V36.7801L67.9699 36.8401H67.7599H67.5899C67.5099 36.8401 67.4699 36.8401 67.4699 36.8401C67.4576 36.7875 67.4576 36.7327 67.4699 36.6801V32.0801C67.4944 31.6993 67.4142 31.319 67.2379 30.9806C67.0616 30.6421 66.796 30.3584 66.4699 30.1601C65.7144 29.749 64.8586 29.5584 63.9999 29.6101C63.1924 29.5993 62.3983 29.8178 61.7099 30.2401C61.4549 30.3981 61.2348 30.6064 61.0628 30.8522C60.8909 31.0981 60.7708 31.3764 60.7099 31.6701L60.6199 32.0501H62.6199L62.6999 31.9301C62.7349 31.8864 62.7589 31.835 62.7699 31.7801C62.9307 31.6223 63.1243 31.502 63.3369 31.4276C63.5495 31.3533 63.7759 31.3268 63.9999 31.3501C64.4291 31.3246 64.8572 31.4144 65.2399 31.6101C65.3596 31.6929 65.455 31.8059 65.5165 31.9377C65.578 32.0695 65.6034 32.2153 65.5899 32.3601C65.5982 32.4897 65.5777 32.6194 65.5299 32.7401C65.4799 32.8201 65.3999 32.9301 65.1299 33.0001ZM63.6699 34.8801L64.4799 34.7801C64.7507 34.75 65.0184 34.6964 65.2799 34.6201L65.5399 34.5401V35.0001C65.544 35.3564 65.4439 35.706 65.2521 36.0062C65.0602 36.3064 64.7849 36.5441 64.4599 36.6901C64.1662 36.8585 63.8335 36.9471 63.4949 36.9471C63.1564 36.9471 62.8237 36.8585 62.5299 36.6901C62.4275 36.61 62.3458 36.5064 62.2918 36.388C62.2379 36.2696 62.2132 36.14 62.2199 36.0101C62.2075 35.8381 62.2453 35.6662 62.3288 35.5153C62.4122 35.3644 62.5377 35.241 62.6899 35.1601C62.9962 34.9988 63.3275 34.8906 63.6699 34.8401V34.8801Z" fill="currentColor" />
  <path d="M66.3101 44.3601H52.3101C51.9122 44.3601 51.5307 44.5181 51.2494 44.7994C50.9681 45.0808 50.8101 45.4623 50.8101 45.8601C50.8101 46.2579 50.9681 46.6395 51.2494 46.9208C51.5307 47.2021 51.9122 47.3601 52.3101 47.3601H66.3101C66.7079 47.3601 67.0894 47.2021 67.3707 46.9208C67.652 46.6395 67.8101 46.2579 67.8101 45.8601C67.8101 45.4623 67.652 45.0808 67.3707 44.7994C67.0894 44.5181 66.7079 44.3601 66.3101 44.3601Z" fill="currentColor" />
  <path d="M66.3101 52.3601H52.3101C51.9122 52.3601 51.5307 52.5181 51.2494 52.7994C50.9681 53.0808 50.8101 53.4623 50.8101 53.8601C50.8101 54.2579 50.9681 54.6395 51.2494 54.9208C51.5307 55.2021 51.9122 55.3601 52.3101 55.3601H66.3101C66.7079 55.3601 67.0894 55.2021 67.3707 54.9208C67.652 54.6395 67.8101 54.2579 67.8101 53.8601C67.8101 53.4623 67.652 53.0808 67.3707 52.7994C67.0894 52.5181 66.7079 52.3601 66.3101 52.3601Z" fill="currentColor" />
  <path d="M66.3101 60.3601H52.3101C51.9122 60.3601 51.5307 60.5181 51.2494 60.7994C50.9681 61.0808 50.8101 61.4623 50.8101 61.8601C50.8101 62.2579 50.9681 62.6395 51.2494 62.9208C51.5307 63.2021 51.9122 63.3601 52.3101 63.3601H66.3101C66.7079 63.3601 67.0894 63.2021 67.3707 62.9208C67.652 62.6395 67.8101 62.2579 67.8101 61.8601C67.8101 61.4623 67.652 61.0808 67.3707 60.7994C67.0894 60.5181 66.7079 60.3601 66.3101 60.3601Z" fill="currentColor" />
  <path d="M29.58 50.3501C27.862 50.3501 26.1826 50.8599 24.7545 51.8151C23.3265 52.7702 22.2139 54.1276 21.5579 55.7154C20.9018 57.3032 20.7317 59.05 21.069 60.7345C21.4064 62.4191 22.2361 63.9657 23.453 65.1784C24.6699 66.3911 26.2193 67.2154 27.9051 67.547C29.5908 67.8785 31.337 67.7023 32.9225 67.0407C34.508 66.3792 35.8616 65.262 36.8117 63.8306C37.7619 62.3992 38.2659 60.7181 38.26 59.0001C38.252 56.7032 37.334 54.5031 35.7071 52.8818C34.0801 51.2605 31.8769 50.3501 29.58 50.3501ZM29.58 64.7301C28.0682 64.7301 26.6184 64.1296 25.5495 63.0606C24.4805 61.9917 23.88 60.5418 23.88 59.0301C23.88 57.5184 24.4805 56.0685 25.5495 54.9996C26.6184 53.9306 28.0682 53.3301 29.58 53.3301C30.8168 53.3285 32.0194 53.7364 33 54.4901L29.18 59.0701L28.34 58.2301C28.2014 58.0916 28.037 57.9817 27.8559 57.9067C27.6749 57.8317 27.4809 57.7931 27.285 57.7931C27.089 57.7931 26.895 57.8317 26.714 57.9067C26.533 57.9817 26.3685 58.0916 26.23 58.2301C26.0914 58.3686 25.9815 58.5331 25.9066 58.7141C25.8316 58.8952 25.793 59.0892 25.793 59.2851C25.793 59.481 25.8316 59.675 25.9066 59.8561C25.9815 60.0371 26.0914 60.2016 26.23 60.3401L28.23 62.3401C28.3681 62.4773 28.532 62.5859 28.7121 62.6597C28.8923 62.7335 29.0853 62.771 29.28 62.7701H29.35C29.5568 62.7611 29.7596 62.7093 29.9454 62.6181C30.1313 62.5269 30.2963 62.3982 30.43 62.2401L34.86 56.9101C35.1332 57.5732 35.2758 58.2829 35.28 59.0001C35.2826 59.7508 35.1372 60.4946 34.852 61.1891C34.5669 61.8835 34.1476 62.5149 33.6182 63.0471C33.0887 63.5793 32.4596 64.0019 31.7667 64.2907C31.0737 64.5795 30.3307 64.7288 29.58 64.7301Z" fill="currentColor" />
  <path d="M72.8099 13.51H15.19C14.7948 13.51 14.4158 13.667 14.1364 13.9464C13.8569 14.2258 13.7 14.6048 13.7 15V74C13.7 74.3952 13.8569 74.7742 14.1364 75.0536C14.4158 75.333 14.7948 75.49 15.19 75.49H72.8099C73.2051 75.49 73.5841 75.333 73.8635 75.0536C74.143 74.7742 74.3 74.3952 74.3 74V15C74.3 14.6048 74.143 14.2258 73.8635 13.9464C73.5841 13.667 73.2051 13.51 72.8099 13.51ZM42.81 16.51V43.2H16.68V16.49L42.81 16.51ZM16.68 46.18H42.82V72.51H16.68V46.18ZM71.32 72.51H45.7999V16.51H71.32V72.51Z" fill="currentColor" />
</svg>
