<svg  viewBox="0 0 88 89" fill="none" xmlns="http://www.w3.org/2000/svg">
  <path d="M58 64.3201C57.9974 63.924 57.8382 63.545 57.5571 63.2659C57.2761 62.9867 56.8961 62.8301 56.5 62.8301H24.5C24.1022 62.8301 23.7206 62.9881 23.4393 63.2694C23.158 63.5507 23 63.9323 23 64.3301C23 64.7279 23.158 65.1094 23.4393 65.3907C23.7206 65.672 24.1022 65.8301 24.5 65.8301H56.5C56.6978 65.8301 56.8937 65.7909 57.0763 65.7149C57.259 65.6389 57.4248 65.5276 57.5642 65.3872C57.7036 65.2469 57.8139 65.0803 57.8887 64.8972C57.9635 64.714 58.0013 64.5179 58 64.3201Z" fill="currentColor" />
  <path d="M24.46 53.3701C24.0621 53.3701 23.6806 53.5282 23.3993 53.8095C23.118 54.0908 22.96 54.4723 22.96 54.8701C22.96 55.2679 23.118 55.6495 23.3993 55.9308C23.6806 56.2121 24.0621 56.3701 24.46 56.3701H33.46C33.8578 56.3701 34.2393 56.2121 34.5206 55.9308C34.8019 55.6495 34.96 55.2679 34.96 54.8701C34.96 54.4723 34.8019 54.0908 34.5206 53.8095C34.2393 53.5282 33.8578 53.3701 33.46 53.3701H24.46Z" fill="currentColor" />
  <path d="M40.58 56.3501H62.46C62.6569 56.3501 62.852 56.3113 63.034 56.2359C63.216 56.1605 63.3813 56.05 63.5206 55.9108C63.6599 55.7715 63.7704 55.6061 63.8458 55.4241C63.9212 55.2421 63.96 55.0471 63.96 54.8501C63.96 54.6531 63.9212 54.4581 63.8458 54.2761C63.7704 54.0941 63.6599 53.9287 63.5206 53.7894C63.3813 53.6502 63.216 53.5397 63.034 53.4643C62.852 53.3889 62.6569 53.3501 62.46 53.3501H40.58C40.383 53.3501 40.1879 53.3889 40.0059 53.4643C39.8239 53.5397 39.6586 53.6502 39.5193 53.7894C39.38 53.9287 39.2695 54.0941 39.1941 54.2761C39.1188 54.4581 39.08 54.6531 39.08 54.8501C39.08 55.0471 39.1188 55.2421 39.1941 55.4241C39.2695 55.6061 39.38 55.7715 39.5193 55.9108C39.6586 56.05 39.8239 56.1605 40.0059 56.2359C40.1879 56.3113 40.383 56.3501 40.58 56.3501Z" fill="currentColor" />
  <path d="M50.45 45.3999C50.4501 45.0116 50.2986 44.6385 50.0278 44.3602C49.7569 44.0819 49.3882 43.9203 49 43.9099H24.46C24.0621 43.9099 23.6806 44.0679 23.3993 44.3493C23.118 44.6306 22.96 45.0121 22.96 45.4099C22.96 45.8077 23.118 46.1893 23.3993 46.4706C23.6806 46.7519 24.0621 46.9099 24.46 46.9099H49C49.3916 46.8994 49.7634 46.7351 50.0348 46.4525C50.3062 46.1698 50.4554 45.7917 50.45 45.3999Z" fill="currentColor" />
  <path d="M62.46 43.9099H55C54.6022 43.9099 54.2206 44.0679 53.9393 44.3493C53.658 44.6306 53.5 45.0121 53.5 45.4099C53.5 45.8077 53.658 46.1893 53.9393 46.4706C54.2206 46.7519 54.6022 46.9099 55 46.9099H62.5C62.697 46.9099 62.892 46.8711 63.074 46.7957C63.256 46.7203 63.4214 46.6099 63.5607 46.4706C63.6999 46.3313 63.8104 46.1659 63.8858 45.9839C63.9612 45.8019 64 45.6069 64 45.4099C64 45.2129 63.9612 45.0179 63.8858 44.8359C63.8104 44.6539 63.6999 44.4885 63.5607 44.3493C63.4214 44.21 63.256 44.0995 63.074 44.0241C62.892 43.9487 62.697 43.9099 62.5 43.9099H62.46Z" fill="currentColor" />
  <path d="M62.39 34.45H24.46C24.263 34.45 24.0679 34.4888 23.8859 34.5641C23.7039 34.6395 23.5386 34.75 23.3993 34.8893C23.26 35.0286 23.1495 35.1939 23.0741 35.3759C22.9988 35.5579 22.96 35.753 22.96 35.95C22.96 36.1469 22.9988 36.342 23.0741 36.524C23.1495 36.706 23.26 36.8713 23.3993 37.0106C23.5386 37.1499 23.7039 37.2604 23.8859 37.3358C24.0679 37.4112 24.263 37.45 24.46 37.45H62.39C62.5869 37.45 62.782 37.4112 62.964 37.3358C63.146 37.2604 63.3113 37.1499 63.4506 37.0106C63.5899 36.8713 63.7004 36.706 63.7758 36.524C63.8512 36.342 63.89 36.1469 63.89 35.95C63.89 35.753 63.8512 35.5579 63.7758 35.3759C63.7004 35.1939 63.5899 35.0286 63.4506 34.8893C63.3113 34.75 63.146 34.6395 62.964 34.5641C62.782 34.4888 62.5869 34.45 62.39 34.45Z" fill="currentColor" />
  <path d="M64.78 61.6599L61.26 59.4399C61.092 59.3355 60.9049 59.2653 60.7097 59.2331C60.5144 59.201 60.3148 59.2076 60.1221 59.2527C59.9294 59.2977 59.7475 59.3803 59.5867 59.4956C59.4259 59.611 59.2894 59.7568 59.185 59.9249C59.0806 60.093 59.0104 60.28 58.9782 60.4753C58.9461 60.6705 58.9528 60.8702 58.9978 61.0629C59.0428 61.2556 59.1254 61.4375 59.2407 61.5983C59.3561 61.759 59.502 61.8955 59.67 61.9999L63.18 64.2299C63.2054 64.2404 63.2268 64.2586 63.2411 64.2819C63.2555 64.3053 63.2621 64.3326 63.26 64.3599C63.2593 64.3881 63.2517 64.4156 63.2377 64.44C63.2237 64.4644 63.2039 64.485 63.18 64.4999L59.67 66.7199C59.3966 66.8925 59.1867 67.1494 59.0721 67.4518C58.9575 67.7542 58.9443 68.0856 59.0346 68.3961C59.125 68.7066 59.3139 68.9793 59.5728 69.173C59.8317 69.3667 60.1467 69.471 60.47 69.4699C60.7503 69.4729 61.0252 69.3929 61.26 69.2399L64.78 66.9999C65.2282 66.7157 65.5973 66.3228 65.853 65.8578C66.1087 65.3927 66.2428 64.8706 66.2428 64.3399C66.2428 63.8092 66.1087 63.2871 65.853 62.8221C65.5973 62.3571 65.2282 61.9642 64.78 61.6799V61.6599Z" fill="currentColor" />
  <path d="M29.7599 26.48C29.756 26.6782 29.7915 26.8752 29.8646 27.0594C29.9377 27.2437 30.0468 27.4115 30.1856 27.553C30.3244 27.6946 30.49 27.807 30.6727 27.8838C30.8555 27.9605 31.0517 28 31.2499 28H52.5399C52.9378 28 53.3193 27.842 53.6006 27.5607C53.8819 27.2794 54.0399 26.8978 54.0399 26.5C54.0399 26.1022 53.8819 25.7206 53.6006 25.4393C53.3193 25.158 52.9378 25 52.5399 25H31.2499C30.8565 25 30.479 25.1556 30.1999 25.4329C29.9207 25.7101 29.7626 26.0866 29.7599 26.48Z" fill="currentColor" />
  <path d="M26.74 31.36C26.9776 31.5069 27.2507 31.5864 27.53 31.59C27.7834 31.5893 28.0326 31.5248 28.2545 31.4025C28.4765 31.2801 28.6641 31.1039 28.8 30.89C28.9047 30.7248 28.9756 30.5405 29.0086 30.3478C29.0417 30.155 29.0362 29.9576 28.9925 29.767C28.9488 29.5764 28.8677 29.3963 28.754 29.2372C28.6403 29.0781 28.4962 28.9431 28.33 28.84L24.82 26.61C24.7947 26.5996 24.7733 26.5814 24.7589 26.558C24.7445 26.5347 24.7379 26.5074 24.74 26.48C24.7386 26.4515 24.7454 26.4232 24.7596 26.3984C24.7738 26.3736 24.7947 26.3533 24.82 26.34L28.33 24.12C28.4986 24.0171 28.645 23.8817 28.7607 23.7216C28.8765 23.5616 28.9592 23.3802 29.0042 23.1879C29.0492 22.9955 29.0556 22.7962 29.0228 22.6014C28.9901 22.4067 28.9189 22.2203 28.8136 22.0533C28.7082 21.8863 28.5706 21.7419 28.4089 21.6285C28.2472 21.5151 28.0646 21.435 27.8716 21.3928C27.6787 21.3506 27.4793 21.3472 27.285 21.3828C27.0907 21.4184 26.9055 21.4922 26.74 21.6L23.22 23.82C22.7718 24.1031 22.4025 24.495 22.1466 24.9592C21.8907 25.4234 21.7565 25.9449 21.7565 26.475C21.7565 27.0051 21.8907 27.5266 22.1466 27.9909C22.4025 28.4551 22.7718 28.847 23.22 29.13L26.74 31.36Z" fill="currentColor" />
  <path d="M61 22.65L57 28.65C56.7829 28.9807 56.7052 29.3838 56.7839 29.7714C56.8625 30.1591 57.0912 30.5001 57.42 30.72C57.5833 30.8288 57.7666 30.9042 57.9591 30.942C58.1517 30.9798 58.3499 30.9792 58.5423 30.9401C58.7346 30.9011 58.9173 30.8245 59.08 30.7146C59.2426 30.6048 59.382 30.4638 59.49 30.3L63.49 24.3C63.7088 23.9698 63.7874 23.5662 63.7087 23.178C63.6299 22.7898 63.4002 22.4488 63.07 22.23C62.7398 22.0112 62.3362 21.9325 61.948 22.0113C61.5598 22.09 61.2188 22.3198 61 22.65Z" fill="currentColor" />
  <path d="M19.1901 72.51H16.6801V70C16.6801 69.6022 16.522 69.2206 16.2407 68.9393C15.9594 68.658 15.5779 68.5 15.1801 68.5C14.7822 68.5 14.4007 68.658 14.1194 68.9393C13.8381 69.2206 13.6801 69.6022 13.6801 70V74C13.6801 74.3952 13.837 74.7742 14.1165 75.0536C14.3959 75.333 14.7749 75.49 15.1701 75.49H19.1701C19.5679 75.49 19.9494 75.332 20.2307 75.0507C20.512 74.7694 20.6701 74.3878 20.6701 73.99C20.6701 73.5922 20.512 73.2106 20.2307 72.9293C19.9494 72.648 19.5679 72.49 19.1701 72.49L19.1901 72.51Z" fill="currentColor" />
  <path d="M61.72 72.51H54.63C54.2322 72.51 53.8506 72.668 53.5693 72.9493C53.288 73.2307 53.13 73.6122 53.13 74.01C53.13 74.4078 53.288 74.7894 53.5693 75.0707C53.8506 75.352 54.2322 75.51 54.63 75.51H61.72C62.1178 75.51 62.4994 75.352 62.7807 75.0707C63.062 74.7894 63.22 74.4078 63.22 74.01C63.22 73.6122 63.062 73.2307 62.7807 72.9493C62.4994 72.668 62.1178 72.51 61.72 72.51Z" fill="currentColor" />
  <path d="M47.54 72.51H40.46C40.0621 72.51 39.6806 72.668 39.3993 72.9493C39.118 73.2307 38.96 73.6122 38.96 74.01C38.96 74.4078 39.118 74.7894 39.3993 75.0707C39.6806 75.352 40.0621 75.51 40.46 75.51H47.54C47.9378 75.51 48.3193 75.352 48.6006 75.0707C48.8819 74.7894 49.04 74.4078 49.04 74.01C49.04 73.6122 48.8819 73.2307 48.6006 72.9493C48.3193 72.668 47.9378 72.51 47.54 72.51Z" fill="currentColor" />
  <path d="M33.37 72.51H26.28C25.8822 72.51 25.5007 72.668 25.2194 72.9493C24.9381 73.2307 24.78 73.6122 24.78 74.01C24.78 74.4078 24.9381 74.7894 25.2194 75.0707C25.5007 75.352 25.8822 75.51 26.28 75.51H33.37C33.7679 75.51 34.1494 75.352 34.4307 75.0707C34.712 74.7894 34.87 74.4078 34.87 74.01C34.87 73.6122 34.712 73.2307 34.4307 72.9493C34.1494 72.668 33.7679 72.51 33.37 72.51Z" fill="currentColor" />
  <path d="M72.8101 68.51C72.4149 68.51 72.0359 68.667 71.7565 68.9464C71.477 69.2258 71.3201 69.6048 71.3201 70V72.51H68.8101C68.4122 72.51 68.0307 72.668 67.7494 72.9493C67.4681 73.2307 67.3101 73.6122 67.3101 74.01C67.3101 74.4078 67.4681 74.7894 67.7494 75.0707C68.0307 75.352 68.4122 75.51 68.8101 75.51H72.8101C73.0074 75.51 73.2028 75.4708 73.3849 75.3947C73.567 75.3186 73.7322 75.207 73.8708 75.0666C74.0094 74.9261 74.1187 74.7594 74.1924 74.5763C74.2661 74.3933 74.3027 74.1974 74.3001 74V70C74.3001 69.6048 74.1431 69.2258 73.8636 68.9464C73.5842 68.667 73.2052 68.51 72.8101 68.51Z" fill="currentColor" />
  <path d="M72.8099 53.94C72.6143 53.94 72.4205 53.9785 72.2397 54.0534C72.059 54.1283 71.8947 54.2381 71.7564 54.3764C71.618 54.5148 71.5082 54.679 71.4334 54.8598C71.3585 55.0406 71.3199 55.2343 71.3199 55.43V62.71C71.3199 63.1078 71.478 63.4894 71.7593 63.7707C72.0406 64.052 72.4221 64.21 72.8199 64.21C73.2178 64.21 73.5993 64.052 73.8806 63.7707C74.1619 63.4894 74.3199 63.1078 74.3199 62.71V55.43C74.3213 55.2323 74.2831 55.0362 74.2074 54.8535C74.1318 54.6708 74.0203 54.5051 73.8795 54.3662C73.7387 54.2273 73.5716 54.1181 73.3879 54.0448C73.2042 53.9716 73.0077 53.936 72.8099 53.94Z" fill="currentColor" />
  <path d="M72.8099 39.36C72.4139 39.3626 72.0349 39.5218 71.7557 39.8029C71.4766 40.0839 71.3199 40.4639 71.3199 40.86V48.14C71.3199 48.5378 71.478 48.9194 71.7593 49.2007C72.0406 49.482 72.4221 49.64 72.8199 49.64C73.2178 49.64 73.5993 49.482 73.8806 49.2007C74.1619 48.9194 74.3199 48.5378 74.3199 48.14V40.86C74.3213 40.6618 74.2831 40.4653 74.2076 40.2821C74.132 40.0988 74.0207 39.9325 73.8801 39.7928C73.7394 39.6531 73.5724 39.5429 73.3886 39.4685C73.2049 39.3942 73.0081 39.3573 72.8099 39.36Z" fill="currentColor" />
  <path d="M72.8099 24.7899C72.4139 24.7926 72.0349 24.9518 71.7557 25.2328C71.4766 25.5138 71.3199 25.8938 71.3199 26.2899V33.5699C71.3199 33.9678 71.478 34.3493 71.7593 34.6306C72.0406 34.9119 72.4221 35.0699 72.8199 35.0699C73.2178 35.0699 73.5993 34.9119 73.8806 34.6306C74.1619 34.3493 74.3199 33.9678 74.3199 33.5699V26.2899C74.3213 26.0917 74.2831 25.8952 74.2076 25.712C74.132 25.5287 74.0207 25.3624 73.8801 25.2227C73.7394 25.083 73.5724 24.9728 73.3886 24.8985C73.2049 24.8242 73.0081 24.7873 72.8099 24.7899Z" fill="currentColor" />
  <path d="M72.8101 13.5099H68.8101C68.4122 13.5099 68.0307 13.6679 67.7494 13.9492C67.4681 14.2305 67.3101 14.6121 67.3101 15.0099C67.3101 15.4077 67.4681 15.7893 67.7494 16.0706C68.0307 16.3519 68.4122 16.5099 68.8101 16.5099H71.3201V18.9999C71.3201 19.3977 71.4781 19.7793 71.7594 20.0606C72.0407 20.3419 72.4222 20.4999 72.8201 20.4999C73.2179 20.4999 73.5994 20.3419 73.8807 20.0606C74.162 19.7793 74.3201 19.3977 74.3201 18.9999V14.9999C74.3201 14.8025 74.2809 14.6071 74.2048 14.425C74.1286 14.243 74.0171 14.0778 73.8766 13.9392C73.7361 13.8006 73.5695 13.6912 73.3864 13.6175C73.2033 13.5438 73.0074 13.5073 72.8101 13.5099Z" fill="currentColor" />
  <path d="M26.28 16.49H33.37C33.7679 16.49 34.1494 16.332 34.4307 16.0507C34.712 15.7693 34.87 15.3878 34.87 14.99C34.87 14.5922 34.712 14.2106 34.4307 13.9293C34.1494 13.648 33.7679 13.49 33.37 13.49H26.28C25.8822 13.49 25.5007 13.648 25.2194 13.9293C24.9381 14.2106 24.78 14.5922 24.78 14.99C24.78 15.3878 24.9381 15.7693 25.2194 16.0507C25.5007 16.332 25.8822 16.49 26.28 16.49Z" fill="currentColor" />
  <path d="M54.63 16.49H61.72C62.1178 16.49 62.4994 16.332 62.7807 16.0507C63.062 15.7693 63.22 15.3878 63.22 14.99C63.22 14.5922 63.062 14.2106 62.7807 13.9293C62.4994 13.648 62.1178 13.49 61.72 13.49H54.63C54.2322 13.49 53.8506 13.648 53.5693 13.9293C53.288 14.2106 53.13 14.5922 53.13 14.99C53.13 15.3878 53.288 15.7693 53.5693 16.0507C53.8506 16.332 54.2322 16.49 54.63 16.49Z" fill="currentColor" />
  <path d="M40.46 16.49H47.54C47.9378 16.49 48.3193 16.332 48.6006 16.0507C48.8819 15.7693 49.04 15.3878 49.04 14.99C49.04 14.5922 48.8819 14.2106 48.6006 13.9293C48.3193 13.648 47.9378 13.49 47.54 13.49H40.46C40.0621 13.49 39.6806 13.648 39.3993 13.9293C39.118 14.2106 38.96 14.5922 38.96 14.99C38.96 15.3878 39.118 15.7693 39.3993 16.0507C39.6806 16.332 40.0621 16.49 40.46 16.49Z" fill="currentColor" />
  <path d="M19.19 13.51H15.19C14.7948 13.51 14.4158 13.667 14.1364 13.9464C13.8569 14.2258 13.7 14.6048 13.7 15V19C13.7 19.3978 13.858 19.7793 14.1393 20.0606C14.4206 20.342 14.8021 20.5 15.2 20.5C15.5978 20.5 15.9793 20.342 16.2606 20.0606C16.5419 19.7793 16.7 19.3978 16.7 19V16.49H19.21C19.6078 16.49 19.9893 16.332 20.2706 16.0507C20.5519 15.7693 20.71 15.3878 20.71 14.99C20.71 14.5922 20.5519 14.2106 20.2706 13.9293C19.9893 13.648 19.6078 13.49 19.21 13.49L19.19 13.51Z" fill="currentColor" />
  <path d="M15.19 64.2099C15.5861 64.2073 15.965 64.0481 16.2442 63.7671C16.5233 63.4861 16.68 63.106 16.68 62.7099V55.4299C16.68 55.0321 16.5219 54.6506 16.2406 54.3693C15.9593 54.088 15.5778 53.9299 15.18 53.9299C14.7821 53.9299 14.4006 54.088 14.1193 54.3693C13.838 54.6506 13.68 55.0321 13.68 55.4299V62.7099C13.6786 62.9081 13.7168 63.1046 13.7924 63.2879C13.8679 63.4711 13.9792 63.6375 14.1198 63.7771C14.2605 63.9168 14.4275 64.0271 14.6113 64.1014C14.795 64.1757 14.9918 64.2126 15.19 64.2099Z" fill="currentColor" />
  <path d="M15.19 49.6401C15.5861 49.6375 15.965 49.4783 16.2442 49.1972C16.5233 48.9162 16.68 48.5362 16.68 48.1401V40.8601C16.68 40.4623 16.5219 40.0808 16.2406 39.7994C15.9593 39.5181 15.5778 39.3601 15.18 39.3601C14.7821 39.3601 14.4006 39.5181 14.1193 39.7994C13.838 40.0808 13.68 40.4623 13.68 40.8601V48.1401C13.6786 48.3383 13.7168 48.5348 13.7924 48.718C13.8679 48.9013 13.9792 49.0676 14.1198 49.2073C14.2605 49.347 14.4275 49.4572 14.6113 49.5316C14.795 49.6059 14.9918 49.6428 15.19 49.6401Z" fill="currentColor" />
  <path d="M15.19 35.06C15.5851 35.06 15.9641 34.9031 16.2436 34.6236C16.523 34.3442 16.68 33.9652 16.68 33.57V26.29C16.68 25.8922 16.5219 25.5107 16.2406 25.2294C15.9593 24.9481 15.5778 24.79 15.18 24.79C14.7821 24.79 14.4006 24.9481 14.1193 25.2294C13.838 25.5107 13.68 25.8922 13.68 26.29V33.57C13.6786 33.7678 13.7169 33.9638 13.7925 34.1465C13.8682 34.3292 13.9797 34.4949 14.1204 34.6338C14.2612 34.7727 14.4283 34.882 14.612 34.9552C14.7957 35.0284 14.9923 35.0641 15.19 35.06Z" fill="currentColor" />
</svg>
