<svg viewBox="0 0 88 89" xmlns="http://www.w3.org/2000/svg"><g fill="currentColor"><path d="m32.85 33.28a7.87 7.87 0 1 0 -7.85-7.87 7.88 7.88 0 0 0 7.85 7.87zm0-12.76a4.89 4.89 0 1 1 -4.85 4.89 4.9 4.9 0 0 1 4.85-4.89z"/><path d="m72.23 45.35h-37.5a1.49 1.49 0 0 0 -1.49 1.49v13.16h-10.24v-12.71l.69.84a1.5 1.5 0 0 0 1.15.54 1.45 1.45 0 0 0 .95-.35 1.5 1.5 0 0 0 .2-2.1l-3.33-4a1.48 1.48 0 0 0 -1.08-.54 1.54 1.54 0 0 0 -1.13.44l-3.67 3.7a1.49 1.49 0 1 0 2.12 2.1l1.1-1.13v14.67a1.5 1.5 0 0 0 1.52 1.54h11.72v10.84a1.49 1.49 0 0 0 1.49 1.49h37.5a1.49 1.49 0 0 0 1.49-1.49v-27a1.49 1.49 0 0 0 -1.49-1.49zm-1.49 3v3h-34.52v-3zm-34.52 24v-18h34.52v18z"/><path d="m42.73 57.35a1.49 1.49 0 0 0 -1.49 1.49v8a1.49 1.49 0 0 0 3 0v-8a1.49 1.49 0 0 0 -1.51-1.49z"/><path d="m47.85 57.35a1.49 1.49 0 0 0 -1.49 1.49v8a1.5 1.5 0 0 0 3 0v-8a1.5 1.5 0 0 0 -1.51-1.49z"/><path d="m64.93 57.35h-12.08a1.49 1.49 0 0 0 -1.49 1.49v8a1.49 1.49 0 0 0 1.49 1.49h12.08a1.49 1.49 0 0 0 1.49-1.49v-8a1.49 1.49 0 0 0 -1.49-1.49zm-1.5 8h-9.08v-5h9.08z"/><path d="m32.85 37.15c9.16 0 16.51-8.61 18-10.5h11.5v10.68l-.69-.84a1.49 1.49 0 0 0 -2.3 1.91l3.33 4a1.48 1.48 0 0 0 1.08.54h.07a1.52 1.52 0 0 0 1.06-.44l3.66-3.7a1.49 1.49 0 1 0 -2.11-2.1l-1.11 1.12v-12.66a1.5 1.5 0 0 0 -1.5-1.49h-13a1.49 1.49 0 0 0 -.36 0c-2.09-2.53-9.07-10-17.64-10-10.06 0-17.94 10.41-18.27 10.85a1.47 1.47 0 0 0 0 1.78c.34.45 8.22 10.85 18.28 10.85zm0-20.5c7 0 13.11 6.37 15.16 8.76-2 2.39-8.15 8.76-15.16 8.76s-13.1-6.37-15.15-8.76c2.04-2.41 8.15-8.76 15.15-8.76z"/></g></svg>
