<svg viewBox="0 0 88 89" xmlns="http://www.w3.org/2000/svg"><g fill="currentColor"><path d="m72.75 13.51h-57.5a1.49 1.49 0 0 0 -1.49 1.49v59a1.49 1.49 0 0 0 1.49 1.49h57.5a1.49 1.49 0 0 0 1.49-1.49v-59a1.49 1.49 0 0 0 -1.49-1.49zm-1.49 3v5h-54.52v-5zm-54.52 56v-48h54.52v48z"/><path d="m23.25 27.51a1.49 1.49 0 0 0 -1.49 1.49v38a1.49 1.49 0 0 0 3 0v-38a1.49 1.49 0 0 0 -1.51-1.49z"/><path d="m29.85 42.49h18.26a1.49 1.49 0 0 0 1.49-1.49v-12a1.49 1.49 0 0 0 -1.49-1.49h-18.26a1.49 1.49 0 0 0 -1.49 1.49v12a1.49 1.49 0 0 0 1.49 1.49zm1.5-12h15.27v9h-15.27z"/><path d="m65.45 39.51h-11a1.49 1.49 0 1 0 0 3h11a1.49 1.49 0 0 0 0-3z"/><path d="m65.45 33.51h-11a1.49 1.49 0 1 0 0 3h11a1.49 1.49 0 0 0 0-3z"/><path d="m65.45 27.51h-11a1.49 1.49 0 1 0 0 3h11a1.49 1.49 0 0 0 0-3z"/><path d="m65.45 46.51h-35.6a1.49 1.49 0 0 0 0 3h35.6a1.49 1.49 0 0 0 0-3z"/><path d="m65.45 53h-35.6a1.49 1.49 0 0 0 0 3h35.6a1.49 1.49 0 0 0 0-3z"/><path d="m65.45 59.51h-35.6a1.49 1.49 0 0 0 0 3h35.6a1.49 1.49 0 0 0 0-3z"/><path d="m65.45 65.51h-35.6a1.49 1.49 0 0 0 0 3h35.6a1.49 1.49 0 0 0 0-3z"/></g></svg>
