<svg  viewBox="0 0 88 89" fill="none" xmlns="http://www.w3.org/2000/svg">
  <path d="M60.5 45.2599C59.4904 45.2596 58.4839 45.3737 57.5 45.5999L54.5 39.3499C56.3133 37.4163 57.5285 34.9994 57.9992 32.3906C58.4698 29.7818 58.1758 27.0926 57.1525 24.6472C56.1292 22.2018 54.4203 20.1047 52.232 18.6086C50.0436 17.1125 47.4692 16.2814 44.8192 16.2154C42.1691 16.1495 39.5566 16.8516 37.2966 18.237C35.0365 19.6224 33.2255 21.632 32.0819 24.0235C30.9383 26.415 30.5108 29.0863 30.8512 31.7152C31.1915 34.3442 32.2851 36.8185 34 38.8399L30.75 45.6599C29.6862 45.3991 28.5953 45.2649 27.5 45.2599C24.9183 45.2568 22.3879 45.981 20.1988 47.3497C18.0098 48.7184 16.2506 50.6762 15.123 52.9986C13.9953 55.321 13.5448 57.9142 13.8231 60.4809C14.1014 63.0476 15.0971 65.4839 16.6963 67.5107C18.2955 69.5376 20.4333 71.0728 22.8649 71.9406C25.2964 72.8083 27.9232 72.9734 30.4443 72.417C32.9653 71.8606 35.2786 70.6052 37.119 68.7946C38.9594 66.984 40.2525 64.6916 40.85 62.1799C40.9795 62.2201 41.1144 62.2403 41.25 62.2399H47.16C47.7732 64.7407 49.0773 67.0187 50.9234 68.8137C52.7695 70.6087 55.0831 71.8484 57.6001 72.3913C60.1171 72.9342 62.736 72.7584 65.1578 71.8839C67.5797 71.0094 69.7068 69.4716 71.2963 67.4459C72.8859 65.4202 73.8738 62.9884 74.1473 60.4281C74.4207 57.8678 73.9687 55.2822 72.8428 52.9665C71.717 50.6508 69.9626 48.6984 67.7801 47.3321C65.5976 45.9659 63.0749 45.2409 60.5 45.2399V45.2599ZM44.5 19.2599C46.629 19.2599 48.7101 19.8915 50.48 21.0747C52.2499 22.2579 53.629 23.9396 54.4428 25.9069C55.2566 27.8742 55.4686 30.0387 55.0518 32.1265C54.635 34.2143 53.6082 36.1315 52.1014 37.6355C50.5945 39.1395 48.6754 40.1627 46.5869 40.5756C44.4983 40.9885 42.3342 40.7726 40.3684 39.9551C38.4027 39.1377 36.7236 37.7554 35.5436 35.9833C34.3637 34.2112 33.736 32.1289 33.74 29.9999C33.7453 27.1478 34.8806 24.4141 36.8974 22.3973C38.9141 20.3806 41.6479 19.2452 44.5 19.2399V19.2599ZM27.5 69.7799C25.3727 69.7799 23.2932 69.1494 21.5241 67.9679C19.7551 66.7865 18.376 65.1072 17.561 63.1422C16.746 61.1773 16.5317 59.0148 16.9453 56.9281C17.3589 54.8414 18.3817 52.9241 19.8845 51.4185C21.3873 49.9129 23.3027 48.8866 25.3886 48.4691C27.4745 48.0517 29.6373 48.2619 31.6038 49.0733C33.5703 49.8846 35.2522 51.2606 36.4369 53.0275C37.6216 54.7943 38.256 56.8727 38.26 58.9999C38.2547 61.852 37.1194 64.5858 35.1026 66.6026C33.0859 68.6193 30.3521 69.7547 27.5 69.7599V69.7799ZM41.25 59.2799C41.25 59.1899 41.25 59.1099 41.25 59.0199C41.2481 56.4566 40.5286 53.9451 39.1731 51.7695C37.8176 49.594 35.8801 47.8413 33.58 46.7099L36.28 40.9999C38.5621 42.7157 41.3232 43.6757 44.1775 43.7456C47.0318 43.8155 49.8366 42.9919 52.2 41.3899L54.67 46.5799C52.3097 47.6873 50.3128 49.4428 48.9123 51.6419C47.5118 53.8409 46.7653 56.3928 46.76 58.9999C46.76 59.0899 46.76 59.1699 46.76 59.2599L41.25 59.2799ZM60.5 69.7599C58.3719 69.7599 56.2915 69.1289 54.5221 67.9466C52.7526 66.7642 51.3734 65.0837 50.559 63.1176C49.7446 61.1515 49.5316 58.988 49.9467 56.9008C50.3619 54.8135 51.3867 52.8963 52.8915 51.3915C54.3963 49.8867 56.3136 48.8619 58.4008 48.4467C60.4881 48.0315 62.6515 48.2446 64.6177 49.059C66.5838 49.8734 68.2643 51.2525 69.4466 53.022C70.6289 54.7915 71.26 56.8718 71.26 58.9999C71.2547 61.852 70.1194 64.5858 68.1026 66.6026C66.0859 68.6193 63.3521 69.7547 60.5 69.7599Z" fill="currentColor" />
  <path d="M58.18 54.3501C58.1251 54.2034 58.0267 54.077 57.8981 53.9876C57.7694 53.8983 57.6166 53.8503 57.46 53.8501H56.87C56.7145 53.8496 56.5626 53.8961 56.4341 53.9835C56.3055 54.071 56.2065 54.1953 56.15 54.3401L53.27 62.0001C53.2358 62.0612 53.2179 62.1301 53.2179 62.2001C53.2179 62.2701 53.2358 62.339 53.27 62.4001C53.308 62.4583 53.3599 62.5061 53.421 62.5392C53.4821 62.5724 53.5505 62.5899 53.62 62.5901H54.46C54.5501 62.5908 54.6382 62.5632 54.7117 62.5112C54.7853 62.4591 54.8406 62.3853 54.87 62.3001L55.65 60.1501H58.44L59.17 62.2901C59.1976 62.3772 59.2522 62.4532 59.3259 62.5071C59.3997 62.5611 59.4886 62.5901 59.58 62.5901H60.5C60.5707 62.589 60.6401 62.5711 60.7027 62.5381C60.7652 62.5051 60.8191 62.4578 60.86 62.4001C60.9151 62.3506 60.9568 62.288 60.9813 62.2181C61.0058 62.1481 61.0122 62.0732 61 62.0001L58.18 54.3501ZM57.93 58.6501H56.23L57.11 56.2501L57.93 58.6501Z" fill="currentColor" />
  <path d="M67.25 61.3001C67.2002 61.3062 67.1524 61.3233 67.11 61.3501C67.1046 61.3237 67.1046 61.2965 67.11 61.2701V57.8501C67.1275 57.5518 67.0631 57.2544 66.9239 56.9901C66.7846 56.7257 66.5758 56.5044 66.32 56.3501C65.755 56.0374 65.1153 55.8853 64.47 55.9101C63.8525 55.8973 63.2446 56.064 62.72 56.3901C62.5214 56.5113 62.3504 56.6726 62.2178 56.8638C62.0852 57.0549 61.994 57.2716 61.95 57.5001L61.86 57.8801H62.57C62.86 57.8801 63.21 57.8801 63.33 57.8801H63.47L63.55 57.7601C63.5778 57.7245 63.5982 57.6837 63.61 57.6401C63.7216 57.5393 63.8532 57.4631 63.9962 57.4166C64.1392 57.3701 64.2905 57.3542 64.44 57.3701C64.7455 57.3479 65.0509 57.4138 65.32 57.5601C65.3978 57.6116 65.4597 57.6839 65.4985 57.7687C65.5374 57.8535 65.5518 57.9475 65.54 58.0401C65.5551 58.1261 65.5551 58.2141 65.54 58.3001C65.54 58.3001 65.54 58.4001 65.31 58.4201L63.72 58.6201C63.1643 58.6714 62.6374 58.8912 62.21 59.2501C62.0017 59.4384 61.838 59.6707 61.7308 59.9301C61.6235 60.1896 61.5754 60.4697 61.59 60.7501C61.5857 61.0238 61.6376 61.2955 61.7425 61.5484C61.8474 61.8012 62.0031 62.0299 62.2 62.2201C62.6212 62.6158 63.1824 62.828 63.76 62.8101C64.2465 62.8152 64.727 62.702 65.16 62.4801C65.3671 62.3758 65.5617 62.2483 65.74 62.1001C65.74 62.1501 65.74 62.1901 65.81 62.2301C65.9175 62.3945 66.0668 62.5273 66.2425 62.6152C66.4181 62.703 66.614 62.7427 66.81 62.7301H67.19L67.58 62.6301L67.8 62.5701V61.2201L67.45 61.2801L67.25 61.3001ZM65.5 60.0001C65.5048 60.25 65.4364 60.4959 65.3031 60.7073C65.1698 60.9188 64.9776 61.0866 64.75 61.1901C64.5429 61.3085 64.3085 61.3708 64.07 61.3708C63.8315 61.3708 63.5971 61.3085 63.39 61.1901C63.3221 61.1374 63.2683 61.0688 63.2334 60.9903C63.1985 60.9117 63.1836 60.8258 63.19 60.7401C63.1816 60.6254 63.2063 60.5106 63.2613 60.4096C63.3163 60.3085 63.3991 60.2254 63.5 60.1701C63.7256 60.071 63.965 60.0069 64.21 59.9801L64.8 59.9001C65.0067 59.8794 65.2109 59.8392 65.41 59.7801H65.5V60.0001Z" fill="currentColor" />
  <path d="M32 53.1399C31.8707 52.9118 31.6831 52.7222 31.4564 52.5904C31.2298 52.4586 30.9722 52.3894 30.71 52.3899H24.49C24.2278 52.3894 23.9702 52.4586 23.7435 52.5904C23.5169 52.7222 23.3293 52.9118 23.2 53.1399L20.1 58.5099C19.9672 58.7357 19.8972 58.9929 19.8972 59.2549C19.8972 59.5169 19.9672 59.7741 20.1 59.9999L23.2 65.3699C23.3309 65.5966 23.5188 65.7851 23.7451 65.9167C23.9714 66.0483 24.2282 66.1183 24.49 66.1199H30.7C30.9635 66.1201 31.2223 66.0508 31.4505 65.9192C31.6787 65.7875 31.8683 65.5981 32 65.3699L35.09 59.9999C35.2179 59.7724 35.2851 59.5159 35.2851 59.2549C35.2851 58.9939 35.2179 58.7374 35.09 58.5099L32 53.1399ZM29.84 63.1399H25.35L23.11 59.2599L25.35 55.3899H29.83L32.07 59.2599L29.84 63.1399Z" fill="currentColor" />
  <path d="M40.74 34.7099C41.0742 34.9221 41.4789 34.9928 41.8653 34.9065C42.2516 34.8203 42.5878 34.5841 42.8 34.2499C43.0122 33.9157 43.0829 33.5109 42.9966 33.1246C42.9104 32.7383 42.6742 32.4021 42.34 32.1899L39 30.0699V29.9299L42.35 27.8099C42.5155 27.7048 42.6586 27.5682 42.7713 27.4078C42.884 27.2474 42.9639 27.0664 43.0066 26.8752C43.0494 26.6839 43.054 26.486 43.0202 26.293C42.9865 26.0999 42.9151 25.9154 42.81 25.7499C42.7049 25.5844 42.5683 25.4413 42.4079 25.3286C42.2476 25.2159 42.0666 25.136 41.8753 25.0932C41.684 25.0505 41.4862 25.0459 41.2931 25.0797C41.1 25.1134 40.9155 25.1848 40.75 25.2899L37.4 27.4099C36.9643 27.6872 36.6056 28.0699 36.3571 28.5226C36.1086 28.9753 35.9783 29.4834 35.9783 29.9999C35.9783 30.5163 36.1086 31.0244 36.3571 31.4772C36.6056 31.9299 36.9643 32.3126 37.4 32.5899L40.74 34.7099Z" fill="currentColor" />
  <path d="M46.66 32.1899C46.4943 32.2947 46.3509 32.4312 46.238 32.5916C46.1252 32.752 46.0451 32.933 46.0024 33.1244C45.9596 33.3158 45.9551 33.5137 45.989 33.7068C46.0229 33.9 46.0946 34.0845 46.2 34.2499C46.4135 34.5825 46.7497 34.8174 47.1354 34.9035C47.5212 34.9897 47.9253 34.9201 48.26 34.7099L51.61 32.5899C52.0457 32.3126 52.4044 31.9299 52.653 31.4772C52.9015 31.0244 53.0318 30.5163 53.0318 29.9999C53.0318 29.4834 52.9015 28.9753 52.653 28.5226C52.4044 28.0699 52.0457 27.6872 51.61 27.4099L48.26 25.2899C47.9259 25.0777 47.5211 25.007 47.1348 25.0933C46.7484 25.1795 46.4122 25.4157 46.2 25.7499C45.9879 26.0841 45.9171 26.4888 46.0034 26.8752C46.0897 27.2615 46.3259 27.5977 46.66 27.8099L50 29.9299L50.8 28.6699L50 30.0699L46.66 32.1899Z" fill="currentColor" />
</svg>
