<svg width="48" height="48" viewBox="0 0 48 48" fill="none" xmlns="http://www.w3.org/2000/svg">
<path fill-rule="evenodd" clip-rule="evenodd" d="M22.009 5.86366C22.7641 5.19217 23.7395 4.82123 24.75 4.82123C25.7605 4.82123 26.7359 5.19217 27.4911 5.86366L35.605 13.0762L36.1206 9.97423C36.165 9.70703 36.2616 9.4512 36.4049 9.22134C36.5482 8.99149 36.7353 8.7921 36.9557 8.63458C37.176 8.47705 37.4253 8.36447 37.6891 8.30326C37.953 8.24204 38.2263 8.2334 38.4935 8.27782C38.7607 8.32224 39.0165 8.41885 39.2464 8.56214C39.4762 8.70543 39.6756 8.89259 39.8331 9.11294C39.9907 9.33328 40.1032 9.5825 40.1645 9.84635C40.2257 10.1102 40.2343 10.3835 40.1899 10.6507L39.2494 16.3144L44.6841 21.1468C45.0721 21.5154 45.3016 22.0204 45.3242 22.5551C45.3468 23.0898 45.1607 23.6124 44.8051 24.0124C44.4495 24.4124 43.9524 24.6585 43.4187 24.6988C42.8851 24.7391 42.3566 24.5703 41.9451 24.2282L40.9881 23.3784L39.3649 39.5979C39.2631 40.6161 38.7864 41.5601 38.0276 42.2466C37.2687 42.9331 36.2817 43.313 35.2585 43.3125H14.2416C13.2186 43.3124 12.2322 42.9323 11.4738 42.2459C10.7153 41.5595 10.239 40.6158 10.1372 39.5979L8.51608 23.3784L7.55702 24.2282C7.14546 24.5703 6.61703 24.7391 6.08336 24.6988C5.54968 24.6585 5.05256 24.4124 4.697 24.0124C4.34143 23.6124 4.15528 23.0898 4.17786 22.5551C4.20045 22.0204 4.42999 21.5154 4.81802 21.1468L22.009 5.86366Z" fill="#01A2DE"/>
</svg>
