<svg width="36" height="33" viewBox="0 0 36 33" fill="none" xmlns="http://www.w3.org/2000/svg">
<path fill-rule="evenodd" clip-rule="evenodd" d="M7.98673 1.05878C7.82988 1.05878 7.67655 1.06683 7.52788 1.08213C5.8284 1.25749 4.51754 2.33818 4.10662 3.90191C3.67292 5.55243 3.69038 10.1133 13.0514 17.0115C22.2868 9.94111 22.2224 5.38064 21.7588 3.73836C21.3198 2.18244 19.9898 1.12626 18.2875 0.982317C16.6679 0.847591 14.5277 1.5817 13.363 4.05809C13.2846 4.22465 13.1193 4.3316 12.9374 4.3332H12.933C12.7527 4.3332 12.5875 4.22988 12.5067 4.0659C11.409 1.83794 9.53124 1.05878 7.98673 1.05878V1.05878ZM13.0663 18.0874C12.966 18.0874 12.8506 18.0561 12.7696 17.9971C2.65194 10.6353 2.69685 5.51353 3.1857 3.65317C3.70104 1.69141 5.32791 0.337697 7.43133 0.120611C9.17826 -0.0606421 11.4511 0.593443 12.9241 2.86553C14.3558 0.566584 16.6165 -0.129542 18.3667 0.0191364C20.4736 0.197501 22.1244 1.52079 22.6752 3.47266C23.1975 5.32354 23.3346 10.4437 13.3511 17.9917C13.2704 18.0525 13.1729 18.0863 13.0721 18.0874H13.0663Z" fill="url(#paint0_linear_0_743)"/>
<path fill-rule="evenodd" clip-rule="evenodd" d="M21.0037 6.54888L20.0869 6.28508C20.1884 5.92239 20.2484 5.57482 20.2653 5.25134L21.217 5.30279C21.1963 5.69799 21.1246 6.11729 21.0037 6.54888" fill="#029DDC"/>
<path fill-rule="evenodd" clip-rule="evenodd" d="M20.145 4.21996C19.8509 3.32021 18.9716 2.73908 17.9053 2.73908V1.77258C19.3897 1.77258 20.6239 2.61376 21.0496 3.9156L20.145 4.21996Z" fill="#029DDC"/>
<path fill-rule="evenodd" clip-rule="evenodd" d="M9.57422 29.941C8.31572 29.9018 7.12977 29.3468 6.23509 28.3784L0.560597 22.2359C-0.182806 21.4312 -0.187473 20.1167 0.550354 19.3057C1.21606 18.5735 2.29777 18.4768 3.06748 19.0798L8.67191 23.4109H10.3714V24.3774H8.51118C8.40694 24.3774 8.30524 24.3428 8.22239 24.2786L2.48717 19.8465C2.10256 19.5452 1.58412 19.5943 1.25073 19.961C0.851206 20.4001 0.853752 21.1393 1.2563 21.5752L6.9308 27.7177C7.65069 28.4971 8.60003 28.9435 9.60356 28.9749C11.6372 29.0382 15.5375 29.1222 18.8076 28.9745C19.4658 28.945 20.1052 28.7166 20.6568 28.314L23.3517 26.3475C23.4855 26.2501 23.6591 26.229 23.8117 26.293L26.4483 27.2695L26.0867 28.065L23.6933 27.2887L21.2134 29.0986C20.511 29.6113 19.6936 29.9022 18.8499 29.94C17.4922 30.0014 16.0285 30.0231 14.6336 30.0231C12.636 30.0231 10.7795 29.9785 9.57422 29.941Z" fill="url(#paint1_linear_0_743)"/>
<path fill-rule="evenodd" clip-rule="evenodd" d="M10.863 24.7036C10.0472 24.5542 9.76621 24.1241 9.67427 23.7897C9.33203 22.5443 11.2041 20.75 11.7863 20.2297C11.8733 20.1519 11.9852 20.1089 12.1013 20.1089H16.5496C18.6621 17.0313 23.5143 19.6556 23.9055 19.8746L28.1861 21.8722L27.7901 22.7514L23.4925 20.7458C23.4809 20.7404 23.469 20.7342 23.4578 20.7278C23.4115 20.7016 18.8066 18.1363 17.2189 20.8394C17.1327 20.9857 16.9773 21.0754 16.8093 21.0754H12.2842C11.3673 21.9299 10.4754 23.105 10.5924 23.5302C10.6294 23.6649 10.9126 23.7305 11.0324 23.7527C11.3642 23.796 14.9451 23.7713 17.1222 23.7448L17.1335 24.7113C16.3142 24.7212 14.3753 24.7425 12.8636 24.7425C11.8461 24.7425 11.0224 24.7329 10.863 24.7036Z" fill="#3279B6"/>
<path fill-rule="evenodd" clip-rule="evenodd" d="M29.6191 33C29.5603 33 29.5011 32.9889 29.4453 32.9668L24.6554 31.0637C24.4136 30.9677 24.2922 30.6928 24.3822 30.4459L28.0655 20.3595C28.11 20.2378 28.201 20.1394 28.3175 20.0863C28.4343 20.0334 28.5674 20.0301 28.6863 20.0773L33.4759 21.9804C33.7177 22.0764 33.8392 22.3511 33.7491 22.5981L33.5115 23.2484L35.9998 24.2371L35.6521 25.137L32.7286 23.9754C32.4868 23.8794 32.3654 23.6047 32.4554 23.3576L32.693 22.7074L28.7908 21.1568L25.4386 30.3367L29.3408 31.8872L31.3609 26.3549L32.2548 26.6904L30.0661 32.6845C30.0217 32.8063 29.9307 32.9047 29.8141 32.9578C29.7522 32.9859 29.6856 33 29.6191 33" fill="#029DDC"/>
<path fill-rule="evenodd" clip-rule="evenodd" d="M32.7898 32.9757L29.8662 31.8141L30.2138 30.9141L33.1374 32.0758L32.7898 32.9757Z" fill="#0BB8EF"/>
<defs>
<linearGradient id="paint0_linear_0_743" x1="8.54889" y1="2.5107" x2="-3.18335" y2="15.4266" gradientUnits="userSpaceOnUse">
<stop stop-color="#3279B6"/>
<stop offset="0.52502" stop-color="#654F8A"/>
<stop offset="1" stop-color="#A91955"/>
</linearGradient>
<linearGradient id="paint1_linear_0_743" x1="5.11282" y1="19.7741" x2="3.54978" y2="26.5504" gradientUnits="userSpaceOnUse">
<stop stop-color="#3279B6"/>
<stop offset="0.52502" stop-color="#654F8A"/>
<stop offset="1" stop-color="#A91955"/>
</linearGradient>
</defs>
</svg>
