<svg width="325" height="325" viewBox="0 0 325 325" fill="none" xmlns="http://www.w3.org/2000/svg">
<ellipse cx="127.06" cy="127.06" rx="127.06" ry="127.06" transform="matrix(1 0 0 -1 35.2676 289.559)" stroke="url(#paint0_angular_3708_30488)" stroke-width="34.1355" stroke-miterlimit="2.61313" stroke-linecap="round"/>
<circle cx="112.334" cy="45.7625" r="16.8167" transform="rotate(-23.255 112.334 45.7625)" fill="#96004D"/>
<circle cx="109.445" cy="47.2068" r="16.8167" transform="rotate(-23.255 109.445 47.2068)" fill="#96004D"/>
<ellipse cx="104.859" cy="49.4995" rx="16.8167" ry="16.8167" transform="rotate(-23.255 104.859 49.4995)" fill="#96004D"/>
<circle cx="116.027" cy="44.244" r="16.8167" transform="rotate(-21.4544 116.027 44.244)" fill="url(#paint1_radial_3708_30488)"/>
<circle cx="116.027" cy="44.244" r="16.8167" transform="rotate(-21.4544 116.027 44.244)" fill="#96004D"/>
<g style="mix-blend-mode:overlay" filter="url(#filter0_i_3708_30488)">
<ellipse cx="162.327" cy="162.5" rx="143.876" ry="143.877" fill="black" fill-opacity="0.01"/>
</g>
<g style="mix-blend-mode:screen" filter="url(#filter1_d_3708_30488)">
<ellipse cx="162.5" cy="162.5" rx="110.243" ry="110.243" fill="white" style="mix-blend-mode:multiply"/>
</g>
<g filter="url(#filter2_i_3708_30488)">
<ellipse cx="162.5" cy="162.5" rx="110.243" ry="110.243" fill="white"/>
</g>
<path d="M99.4543 164.188V167.465L76.4242 177.706V172.699L91.8079 165.826L76.4242 158.954V153.947L99.4543 164.188ZM231.503 149.294C231.503 150.811 231.313 152.214 230.934 153.504C230.593 154.793 230.081 155.912 229.398 156.86C228.753 157.77 227.938 158.491 226.952 159.022C225.965 159.553 224.846 159.819 223.595 159.819C222.381 159.819 221.281 159.553 220.295 159.022C219.347 158.491 218.531 157.77 217.849 156.86C217.166 155.912 216.635 154.793 216.256 153.504C215.914 152.214 215.744 150.811 215.744 149.294C215.744 147.776 215.914 146.373 216.256 145.083C216.635 143.756 217.147 142.618 217.792 141.67C218.475 140.722 219.29 139.982 220.238 139.451C221.224 138.92 222.343 138.655 223.595 138.655C224.846 138.655 225.965 138.92 226.952 139.451C227.938 139.982 228.753 140.722 229.398 141.67C230.081 142.618 230.593 143.756 230.934 145.083C231.313 146.373 231.503 147.776 231.503 149.294ZM226.724 149.237C226.724 147.454 226.458 145.975 225.927 144.799C225.396 143.623 224.619 143.035 223.595 143.035C222.609 143.035 221.85 143.623 221.319 144.799C220.788 145.975 220.523 147.454 220.523 149.237C220.523 150.943 220.788 152.404 221.319 153.617C221.85 154.831 222.609 155.438 223.595 155.438C224.619 155.438 225.396 154.831 225.927 153.617C226.458 152.404 226.724 150.943 226.724 149.237ZM250.334 169.775C250.334 171.292 250.145 172.695 249.765 173.985C249.424 175.274 248.912 176.393 248.229 177.341C247.547 178.252 246.712 178.972 245.726 179.503C244.778 180.034 243.678 180.3 242.426 180.3C241.213 180.3 240.113 180.034 239.126 179.503C238.14 178.972 237.306 178.252 236.623 177.341C235.941 176.393 235.41 175.274 235.03 173.985C234.689 172.695 234.518 171.292 234.518 169.775C234.518 168.258 234.689 166.854 235.03 165.565C235.41 164.237 235.941 163.099 236.623 162.151C237.306 161.203 238.121 160.463 239.07 159.932C240.056 159.401 241.175 159.136 242.426 159.136C243.678 159.136 244.778 159.401 245.726 159.932C246.712 160.463 247.547 161.203 248.229 162.151C248.912 163.099 249.424 164.237 249.765 165.565C250.145 166.854 250.334 168.258 250.334 169.775ZM245.498 169.718C245.498 167.935 245.233 166.456 244.702 165.28C244.209 164.105 243.45 163.517 242.426 163.517C241.402 163.517 240.625 164.105 240.094 165.28C239.601 166.456 239.354 167.935 239.354 169.718C239.354 171.425 239.601 172.885 240.094 174.099C240.625 175.312 241.402 175.919 242.426 175.919C243.45 175.919 244.209 175.312 244.702 174.099C245.233 172.885 245.498 171.425 245.498 169.718ZM226.496 180.869L222.969 179.617L239.525 137.687L243.052 138.939L226.496 180.869Z" fill="#96004D"/>
<path d="M126.146 172.6C122.581 172.6 119.47 171.918 116.816 170.552C114.161 169.187 111.923 167.366 110.102 165.091C108.357 162.739 107.03 159.97 106.12 156.784C105.285 153.598 104.868 150.185 104.868 146.544C104.868 141.917 105.551 137.858 106.916 134.369C108.282 130.804 110.14 127.845 112.492 125.494C114.919 123.066 117.726 121.246 120.912 120.032C124.174 118.818 127.663 118.211 131.38 118.211C135.097 118.211 138.548 118.856 141.734 120.146C144.996 121.359 147.803 123.18 150.154 125.607C152.506 127.959 154.327 130.917 155.616 134.483C156.982 137.972 157.664 141.992 157.664 146.544C157.664 151.474 157.019 155.912 155.73 159.857C154.44 163.801 152.809 167.594 150.837 171.235L135.476 200.478H114.654L130.47 171.918L130.356 171.804C129.977 172.032 129.332 172.221 128.422 172.373C127.587 172.525 126.829 172.6 126.146 172.6ZM122.391 146.771C122.391 150.716 123.15 153.902 124.667 156.329C126.26 158.681 128.422 159.857 131.152 159.857C133.732 159.857 135.856 158.643 137.524 156.215C139.269 153.788 140.141 150.64 140.141 146.771C140.141 142.903 139.307 139.793 137.638 137.441C135.969 135.014 133.845 133.8 131.266 133.8C128.611 133.8 126.449 135.014 124.78 137.441C123.187 139.793 122.391 142.903 122.391 146.771ZM211.605 173.738C211.605 178.517 210.922 182.689 209.557 186.255C208.267 189.744 206.447 192.702 204.095 195.13C201.819 197.481 199.126 199.264 196.016 200.478C192.906 201.616 189.606 202.185 186.117 202.185C179.973 202.185 174.625 200.478 170.073 197.064C165.522 193.651 162.526 188.492 161.084 181.589L176.673 176.697C177.28 179.352 178.304 181.627 179.745 183.524C181.262 185.42 183.234 186.368 185.662 186.368C188.469 186.368 190.555 185.231 191.92 182.955C193.361 180.603 194.082 177.721 194.082 174.307C194.082 170.135 192.906 167.063 190.555 165.091C188.279 163.118 185.51 162.132 182.248 162.132C179.897 162.132 177.166 162.512 174.056 163.27C171.022 163.953 168.404 164.749 166.205 165.66L167.911 119.918H208.76V135.734H183.159L182.59 149.616C183.5 149.237 184.524 148.933 185.662 148.706C186.876 148.478 187.9 148.364 188.734 148.364C192.375 148.364 195.599 148.971 198.406 150.185C201.288 151.399 203.678 153.105 205.574 155.305C207.546 157.505 209.026 160.16 210.012 163.27C211.074 166.38 211.605 169.87 211.605 173.738Z" fill="#96004D"/>
<defs>
<filter id="filter0_i_3708_30488" x="18.4507" y="9.14097" width="289.649" height="297.235" filterUnits="userSpaceOnUse" color-interpolation-filters="sRGB">
<feFlood flood-opacity="0" result="BackgroundImageFix"/>
<feBlend mode="normal" in="SourceGraphic" in2="BackgroundImageFix" result="shape"/>
<feColorMatrix in="SourceAlpha" type="matrix" values="0 0 0 0 0 0 0 0 0 0 0 0 0 0 0 0 0 0 127 0" result="hardAlpha"/>
<feMorphology radius="11.3785" operator="erode" in="SourceAlpha" result="effect1_innerShadow_3708_30488"/>
<feOffset dx="1.89641" dy="-9.48207"/>
<feGaussianBlur stdDeviation="7.58566"/>
<feComposite in2="hardAlpha" operator="arithmetic" k2="-1" k3="1"/>
<feColorMatrix type="matrix" values="0 0 0 0 0.0100407 0 0 0 0 0.0100407 0 0 0 0 0.0100407 0 0 0 0.632173 0"/>
<feBlend mode="normal" in2="shape" result="effect1_innerShadow_3708_30488"/>
</filter>
<filter id="filter1_d_3708_30488" x="21.9142" y="21.914" width="281.171" height="281.171" filterUnits="userSpaceOnUse" color-interpolation-filters="sRGB">
<feFlood flood-opacity="0" result="BackgroundImageFix"/>
<feColorMatrix in="SourceAlpha" type="matrix" values="0 0 0 0 0 0 0 0 0 0 0 0 0 0 0 0 0 0 127 0" result="hardAlpha"/>
<feMorphology radius="15.1713" operator="dilate" in="SourceAlpha" result="effect1_dropShadow_3708_30488"/>
<feOffset/>
<feGaussianBlur stdDeviation="7.58566"/>
<feColorMatrix type="matrix" values="0 0 0 0 0.105882 0 0 0 0 0.635294 0 0 0 0 0.854902 0 0 0 0.3013 0"/>
<feBlend mode="normal" in2="BackgroundImageFix" result="effect1_dropShadow_3708_30488"/>
<feBlend mode="normal" in="SourceGraphic" in2="effect1_dropShadow_3708_30488" result="shape"/>
</filter>
<filter id="filter2_i_3708_30488" x="52.2568" y="52.2566" width="220.486" height="224.279" filterUnits="userSpaceOnUse" color-interpolation-filters="sRGB">
<feFlood flood-opacity="0" result="BackgroundImageFix"/>
<feBlend mode="normal" in="SourceGraphic" in2="BackgroundImageFix" result="shape"/>
<feColorMatrix in="SourceAlpha" type="matrix" values="0 0 0 0 0 0 0 0 0 0 0 0 0 0 0 0 0 0 127 0" result="hardAlpha"/>
<feMorphology radius="1.89641" operator="dilate" in="SourceAlpha" result="effect1_innerShadow_3708_30488"/>
<feOffset dy="3.79283"/>
<feGaussianBlur stdDeviation="13.2749"/>
<feComposite in2="hardAlpha" operator="arithmetic" k2="-1" k3="1"/>
<feColorMatrix type="matrix" values="0 0 0 0 0.415686 0 0 0 0 0.556863 0 0 0 0 0.694118 0 0 0 0.64 0"/>
<feBlend mode="normal" in2="shape" result="effect1_innerShadow_3708_30488"/>
</filter>
<radialGradient id="paint0_angular_3708_30488" cx="0" cy="0" r="1" gradientUnits="userSpaceOnUse" gradientTransform="translate(127.06 127.06) scale(127.06 127.06)">
<stop offset="0.295888" stop-color="white"/>
<stop offset="0.295987" stop-color="white"/>
<stop offset="0.296087" stop-color="white"/>
<stop offset="0.305917" stop-color="white"/>
<stop offset="0.326042" stop-color="#3DB0DF"/>
<stop offset="0.33125" stop-color="#96004D"/>
<stop offset="0.659375" stop-color="#96004D"/>
</radialGradient>
<radialGradient id="paint1_radial_3708_30488" cx="0" cy="0" r="1" gradientUnits="userSpaceOnUse" gradientTransform="translate(126.191 42.7942) rotate(166.946) scale(18.1401)">
<stop stop-color="#96004D" stop-opacity="0.38"/>
<stop offset="1" stop-color="#96004D"/>
</radialGradient>
</defs>
</svg>
