<svg width="25" height="25" viewBox="0 0 25 25" fill="none" xmlns="http://www.w3.org/2000/svg">
<path fill-rule="evenodd" clip-rule="evenodd" d="M2.99477 22.774C2.98427 22.7807 2.97528 22.7882 2.96478 22.7927C2.97902 22.819 3.00076 22.7927 2.99477 22.774Z" fill="#00A3DF"/>
<path fill-rule="evenodd" clip-rule="evenodd" d="M9.20197 14.3069C9.20197 14.3069 9.20197 14.3076 9.20272 14.3076C9.20572 14.3024 9.20946 14.2979 9.21246 14.2926C9.20871 14.2979 9.20572 14.3001 9.20197 14.3069Z" fill="#00A3DF"/>
<path fill-rule="evenodd" clip-rule="evenodd" d="M6.42412 20.1157C6.42487 20.1157 6.42487 20.1149 6.42562 20.1142C6.42562 20.1142 6.42487 20.1142 6.42412 20.1134C6.42412 20.1149 6.42487 20.1149 6.42412 20.1157Z" fill="#00A3DF"/>
<path fill-rule="evenodd" clip-rule="evenodd" d="M9.45709 14.0237C9.36339 14.0792 9.27943 14.1849 9.21271 14.2928C9.30267 14.1511 9.38587 14.1646 9.45709 14.0237Z" fill="#00A3DF"/>
<path fill-rule="evenodd" clip-rule="evenodd" d="M2.99478 22.774C3.00077 22.7703 3.00677 22.7673 3.01277 22.7628L2.97454 22.7598C2.98728 22.7605 2.99328 22.7665 2.99478 22.774Z" fill="#00A3DF"/>
<path fill-rule="evenodd" clip-rule="evenodd" d="M22.5391 21.7476C22.5458 21.7574 22.5526 21.7671 22.5578 21.7776C22.5833 21.7634 22.5578 21.7409 22.5391 21.7476Z" fill="#00A3DF"/>
<mask id="mask0_661_601" style="mask-type:luminance" maskUnits="userSpaceOnUse" x="0" y="1" width="24" height="23">
<path fill-rule="evenodd" clip-rule="evenodd" d="M0.840637 1.07544H23.6668V23.9017H0.840637V1.07544Z" fill="white"/>
</mask>
<g mask="url(#mask0_661_601)">
<path fill-rule="evenodd" clip-rule="evenodd" d="M22.6178 22.0419C22.5294 21.9722 22.3397 21.9152 22.3382 21.7848C22.3727 21.7788 22.3914 21.7533 22.4244 21.7631C22.279 21.7061 22.3509 21.6416 22.3345 21.5704C22.4064 21.6049 22.4799 21.6619 22.5279 21.7293L22.5384 21.6154C22.7767 21.6079 22.4596 21.7331 22.7115 21.7758C22.68 21.8598 22.6538 21.9572 22.6178 22.0419ZM22.219 21.6206C22.1725 21.6176 22.1785 21.5831 22.174 21.5547C22.1973 21.5382 22.237 21.5577 22.2722 21.5637L22.219 21.6206ZM22.1156 21.6686C22.0496 21.6491 21.9829 21.6446 21.9371 21.5981C21.9731 21.5607 22.0226 21.5764 22.0556 21.5869C22.0556 21.5869 22.0226 21.5344 22.0091 21.4849C22.0511 21.4902 22.0991 21.5074 22.1635 21.5509C22.1718 21.5944 22.171 21.6589 22.1156 21.6686ZM20.9694 20.2158C20.9529 20.1851 20.9611 20.1656 20.9634 20.1431C20.9904 20.1963 21.0361 20.2316 21.0893 20.2578C21.0563 20.2645 21.0188 20.2593 20.9694 20.2158ZM20.713 19.308C20.71 19.2795 20.6943 19.251 20.6815 19.2233C20.716 19.2503 20.7535 19.2758 20.7775 19.3095C20.7557 19.3095 20.7415 19.296 20.713 19.308ZM19.7152 18.2465C19.7505 18.239 19.7887 18.2458 19.8277 18.263C19.8187 18.2728 19.8112 18.2818 19.8142 18.2975C19.776 18.2683 19.746 18.2578 19.7152 18.2465ZM19.8434 18.1468C19.8614 18.1626 19.8637 18.1723 19.8697 18.1828C19.8532 18.1978 19.8367 18.2158 19.8472 18.2443C19.8262 18.2158 19.8022 18.1791 19.7775 18.1453L19.8434 18.1468ZM19.3951 17.8979C19.3269 17.8942 19.2984 17.8575 19.2812 17.811C19.3442 17.8522 19.4311 17.7803 19.4536 17.8934L19.3951 17.8979ZM19.216 17.6123L19.2062 17.6176C19.2092 17.6176 19.2122 17.6191 19.2145 17.6191C19.207 17.6536 19.1905 17.6768 19.1568 17.6858C19.1425 17.6446 19.1298 17.6011 19.108 17.5726L19.2175 17.6048C19.2175 17.6078 19.216 17.6093 19.216 17.6123ZM15.7114 16.9766C15.644 16.9999 15.6027 16.9714 15.5675 16.9302C15.6275 16.9354 15.6867 16.9339 15.7407 16.9407C15.7354 16.9572 15.7302 16.9721 15.7114 16.9766ZM11.2908 10.3049C11.2406 10.3491 11.1829 10.2659 11.1147 10.2599C11.1012 10.2487 11.0869 10.2367 11.0817 10.2254C11.1319 10.1565 11.2054 10.2637 11.2908 10.3049ZM11.4775 10.5096C11.461 10.5051 11.4603 10.52 11.443 10.5155C11.5727 10.6572 11.5967 10.5905 11.7024 10.628C11.7669 10.7007 11.7039 10.7914 11.6207 10.7884C11.542 10.661 11.3808 10.6145 11.3448 10.4706C11.3748 10.5268 11.4535 10.3941 11.4775 10.5096ZM13.6342 12.4204C13.6207 12.4099 13.608 12.4001 13.5952 12.3896C13.6065 12.3746 13.6102 12.3611 13.6275 12.3432C13.6687 12.3739 13.6417 12.3911 13.6342 12.4204ZM7.80055 15.9751C7.78481 15.9699 7.76981 15.9646 7.76532 15.9466C7.74208 15.8784 7.76981 15.8372 7.81179 15.8027C7.80655 15.8627 7.80805 15.9219 7.80055 15.9751ZM7.13712 19.4527C7.13487 19.4527 7.13263 19.4512 7.13038 19.4504L7.12513 19.4414C7.12513 19.4437 7.12288 19.4467 7.12363 19.4489C7.0884 19.4414 7.06516 19.4257 7.05616 19.392C7.09739 19.377 7.14087 19.365 7.16936 19.3432L7.13712 19.4527ZM6.84851 19.6888L6.84477 19.6303C6.84776 19.5614 6.88525 19.5336 6.93097 19.5164C6.89049 19.5794 6.96171 19.6656 6.84851 19.6888ZM6.59514 20.0786C6.5794 20.0959 6.5704 20.0981 6.55916 20.1041C6.54416 20.0884 6.52617 20.0711 6.49844 20.0824C6.52617 20.0606 6.5629 20.0366 6.59664 20.0127L6.59514 20.0786ZM6.47894 20.0621C6.46995 20.0539 6.45945 20.0464 6.44446 20.0486C6.4737 20.0112 6.48419 19.9812 6.49619 19.9504C6.50368 19.9857 6.49694 20.0239 6.47894 20.0621ZM5.43246 21.0127C5.43246 20.9902 5.4467 20.9759 5.4347 20.9482C5.46169 20.9445 5.49093 20.9295 5.51866 20.9167C5.49168 20.9505 5.46694 20.9879 5.43246 21.0127ZM4.48492 21.3245C4.47742 21.2908 4.48342 21.2541 4.52615 21.2046C4.55688 21.1881 4.57712 21.1963 4.59886 21.1986C4.54639 21.2248 4.51116 21.2713 4.48492 21.3245ZM3.1918 22.3987C3.14757 22.4062 3.0831 22.4055 3.07336 22.35C3.0936 22.2848 3.0981 22.2181 3.14382 22.1724C3.1813 22.2083 3.16556 22.2571 3.15582 22.29C3.15582 22.29 3.20679 22.2578 3.25702 22.2443C3.25252 22.2856 3.23528 22.3343 3.1918 22.3987ZM3.17831 22.5067L3.12208 22.4542C3.12508 22.407 3.15957 22.413 3.18805 22.4085C3.20379 22.4325 3.18505 22.4715 3.17831 22.5067ZM3.01264 22.7631L3.12658 22.7736C3.13408 23.0119 3.00889 22.6948 2.96616 22.946C2.8822 22.9152 2.78475 22.889 2.70004 22.8523C2.76901 22.7646 2.82673 22.5749 2.95716 22.5734C2.96316 22.6079 2.98865 22.6266 2.9789 22.6589C3.03663 22.5142 3.10034 22.5862 3.17231 22.5697C3.13708 22.6416 3.08085 22.7143 3.01264 22.7631ZM8.43099 10.1887C8.42574 10.1602 8.43474 10.1265 8.43849 10.095C8.47372 10.1137 8.49246 10.1467 8.53069 10.1617C8.53144 10.1617 8.53069 10.1617 8.53144 10.1625C8.52395 10.2104 8.50745 10.2419 8.43099 10.1887ZM7.79605 7.4308C7.73308 7.32136 7.72109 7.28837 7.71284 7.2389L7.78031 7.18567C7.87027 7.25614 7.85227 7.28912 7.85227 7.32361C7.83728 7.32136 7.82154 7.32061 7.8043 7.3371C7.82679 7.36184 7.85677 7.36783 7.88601 7.37758C7.90025 7.39032 7.9115 7.40307 7.94598 7.42106C7.94598 7.41881 7.94448 7.41656 7.94448 7.41356C7.96922 7.42556 7.9962 7.4323 8.01045 7.46379C7.95048 7.57323 7.88001 7.42406 7.79605 7.4308ZM6.07864 5.43603C6.07789 5.43528 6.07789 5.43603 6.07714 5.43528C6.02167 5.40004 5.96545 5.36856 5.90398 5.34982L5.90697 5.31983C5.94071 5.30109 5.97219 5.2771 6.00892 5.27111C6.07189 5.32133 6.11687 5.3828 6.07864 5.43603ZM2.91968 2.91876L2.82748 3.01771C2.784 3.01246 2.75476 3.01771 2.72253 3.02146C2.65581 2.94574 2.5726 2.88052 2.51113 2.80331L2.65956 2.84754C2.54412 2.81306 2.43842 2.65713 2.40993 2.60166L2.42642 2.60691C2.39944 2.38502 2.20828 2.5132 2.18879 2.36778C2.24126 2.35953 2.31173 2.31155 2.38519 2.32355L2.37095 2.30331L2.5801 2.39926C2.54187 2.45173 2.45866 2.44199 2.45866 2.44199C2.64382 2.62715 2.60184 2.72535 2.784 2.94125C2.78625 2.90976 2.8852 2.73285 2.99689 2.79881C3.09435 2.82805 3.02013 2.91726 3.06436 2.97873C3.01639 2.96448 2.91144 3.01171 2.91968 2.91876ZM1.41367 2.55293C1.25849 2.46673 1.32596 2.45323 1.39942 2.43899C1.41517 2.47647 1.43316 2.5162 1.4534 2.55668C1.43991 2.55668 1.42641 2.55069 1.41367 2.55293ZM14.2714 11.58C14.2159 11.6093 14.3486 11.6887 14.2317 11.7127C14.2369 11.6955 14.2219 11.6947 14.2272 11.6782C14.084 11.8079 14.1522 11.8319 14.114 11.9376C14.0413 12.0021 13.9505 11.9391 13.9528 11.8559C14.0802 11.7772 14.1282 11.616 14.2714 11.58ZM14.482 11.3491C14.494 11.3364 14.506 11.3222 14.5165 11.3162C14.5862 11.3671 14.4783 11.4398 14.4378 11.5261C14.3928 11.4751 14.476 11.4174 14.482 11.3491ZM14.5533 8.66545C14.5817 8.6602 14.6155 8.6692 14.647 8.6737C14.6282 8.70893 14.596 8.72692 14.5802 8.7659H14.5795C14.5323 8.75915 14.5 8.74266 14.5533 8.66545ZM17.3112 8.03126C17.4206 7.96754 17.4536 7.9563 17.5031 7.9473L17.557 8.01477C17.4858 8.10472 17.4528 8.08673 17.4184 8.08748C17.4199 8.07174 17.4214 8.05675 17.4049 8.03876C17.3801 8.062 17.3741 8.09198 17.3651 8.12047C17.3516 8.13471 17.3389 8.1467 17.3209 8.18119C17.3232 8.18119 17.3254 8.17969 17.3284 8.17969C17.3172 8.20368 17.3097 8.23066 17.2782 8.24566C17.168 8.18569 17.3179 8.11447 17.3112 8.03126ZM19.3067 6.3116C19.3419 6.25613 19.3734 6.20065 19.3921 6.13918L19.4221 6.14143C19.4416 6.17592 19.4649 6.2074 19.4716 6.24413C19.4206 6.30635 19.3592 6.35133 19.3067 6.31385C19.3067 6.3131 19.3067 6.3131 19.3067 6.3116ZM21.9386 2.74634L21.8952 2.89477C21.9297 2.77932 22.0856 2.67363 22.1403 2.64439L22.135 2.66088C22.3569 2.63465 22.2288 2.44274 22.3749 2.42325C22.3824 2.47572 22.4304 2.54619 22.4184 2.6204L22.4387 2.60541L22.3427 2.81531C22.2902 2.77708 22.3 2.69312 22.3 2.69312C22.1156 2.87903 22.0166 2.83705 21.8015 3.01846C21.8329 3.02146 22.0091 3.12041 21.9439 3.23135C21.9139 3.32881 21.8247 3.25459 21.7632 3.29882C21.7782 3.25084 21.7302 3.1459 21.8232 3.15489L21.7243 3.06269C21.7295 3.01846 21.7243 2.98997 21.7213 2.95774C21.7962 2.89027 21.8614 2.80781 21.9386 2.74634ZM22.1898 1.64888C22.2752 1.4937 22.2887 1.56117 22.3037 1.63463C22.2655 1.65038 22.2265 1.66762 22.1853 1.68861C22.186 1.67511 22.1913 1.66162 22.1898 1.64888ZM23.6381 22.0494C23.6688 22.0891 23.5196 22.0457 23.5444 22.1469C23.4799 22.1116 23.3944 21.931 23.5144 21.919C23.4327 21.8785 23.2685 21.8148 23.2033 21.7803C23.2438 21.7143 23.27 21.7998 23.321 21.7998L23.1118 21.6596L23.1028 21.7661C23.0159 21.5996 22.7895 21.6581 22.6418 21.5989C22.7505 21.5224 22.8465 21.5966 22.9634 21.6161C23.0121 21.4422 22.8599 21.6319 22.7685 21.5112C22.7715 21.4804 22.7902 21.4557 22.8262 21.434L22.6568 21.4317C22.6433 21.3965 22.6778 21.3905 22.6943 21.3957C22.4432 21.353 22.5631 21.5284 22.321 21.3792C22.3922 21.5412 22.4889 21.4137 22.5811 21.5187C22.5713 21.6206 22.4139 21.5599 22.3217 21.5434C22.3172 21.5359 22.3187 21.5284 22.3112 21.5217L22.2947 21.5397C22.2887 21.5389 22.2782 21.5359 22.2737 21.5367C22.2183 21.452 22.2745 21.3493 22.228 21.284C22.2288 21.2788 22.2318 21.2788 22.2318 21.2743C22.2295 21.2773 22.2273 21.2758 22.225 21.278C22.2078 21.257 22.18 21.2406 22.1306 21.2293C22.2632 21.269 22.2235 21.1476 22.3487 21.2623C22.4664 21.281 22.3554 21.1858 22.3959 21.1206C22.3457 21.1056 22.3172 21.2376 22.2415 21.1371L22.2587 21.1266L22.0833 21.0966C22.0661 20.9025 21.8367 20.9864 21.722 20.7983C21.7392 20.787 21.7722 20.7975 21.7887 20.8028C21.6755 20.751 21.7228 20.5899 21.6043 20.6019C21.5668 20.5382 21.6216 20.4962 21.6335 20.4429L21.6575 20.434L21.6343 20.4115C21.6328 20.404 21.6238 20.3957 21.6201 20.3882C21.71 20.3695 21.8847 20.3762 21.9154 20.401C21.8172 20.323 21.716 20.3477 21.6163 20.3815C21.6088 20.3687 21.6088 20.3582 21.5938 20.3432C21.5219 20.4789 21.4784 20.2525 21.3794 20.29C21.3637 20.1858 21.3794 20.0861 21.264 20.0839C21.303 20.0321 21.279 19.916 21.3802 19.9309C21.4776 19.9744 21.4686 20.0816 21.5413 20.0247C21.4626 19.9549 21.5316 19.9437 21.4042 19.8432C21.3397 19.8807 21.2512 19.892 21.159 19.8935C21.159 19.8875 21.1665 19.8845 21.1658 19.877L21.1163 19.8927C21.0968 19.8927 21.0781 19.8927 21.0586 19.8912L21.0391 19.79L21.0556 19.7953C20.9971 19.7773 20.9529 19.7008 20.9694 19.6573C20.9769 19.6513 20.9934 19.6536 20.9971 19.6453C20.9911 19.6468 20.9889 19.6416 20.9836 19.6416C21.0166 19.6363 21.0548 19.6633 21.0848 19.6446C21.0054 19.6393 20.9761 19.4872 20.9131 19.3837C20.9191 19.3747 20.9086 19.3612 20.9206 19.3575L21.0286 19.4827C20.9904 19.3462 21.0421 19.3305 20.9154 19.2308C20.9139 19.2465 20.9116 19.2765 20.8952 19.2713C20.8629 19.2465 20.8322 19.2061 20.8007 19.1813L20.8944 19.0839C20.7617 19.0449 20.7182 18.7668 20.4881 18.6836L20.5226 18.6776C20.4364 18.5629 20.2887 18.6491 20.15 18.6303C20.1388 18.6093 20.1365 18.5876 20.1373 18.5644C20.1613 18.5426 20.1793 18.5156 20.1995 18.4887C20.0826 18.4692 20.126 18.3575 20.0833 18.2668C20.0953 18.3365 20.0511 18.3455 20.0098 18.3515C19.9776 18.2907 19.9484 18.3635 19.8817 18.3177C19.8996 18.3485 19.9214 18.3852 19.9499 18.4009C19.9109 18.4399 19.8637 18.4354 19.8172 18.4152C19.8074 18.371 19.8104 18.329 19.8637 18.2967C19.8674 18.3035 19.8757 18.3095 19.8794 18.3155C19.8861 18.3102 19.8899 18.2937 19.8944 18.2803C19.9319 18.287 19.9626 18.278 19.9701 18.2023C19.9611 18.1903 19.9521 18.1978 19.9431 18.1918C19.9454 18.1895 19.9454 18.1843 19.9484 18.1828C19.8966 18.1551 19.8419 18.0981 19.8044 18.0231C19.8239 18.0973 19.785 18.0988 19.7445 18.0988C19.695 18.0231 19.653 17.9414 19.6605 17.8605C19.4604 17.8477 19.4649 17.76 19.2797 17.8087C19.2595 17.7503 19.2527 17.6828 19.2385 17.6236C19.2977 17.6408 19.3584 17.7113 19.4079 17.6461C19.2535 17.6626 19.2819 17.5299 19.132 17.5014L19.15 17.4916C18.9559 17.4204 18.9806 17.1985 18.8307 17.1715C18.7422 17.0246 18.6657 16.8882 18.5046 16.8102V16.9841C18.4424 17.0216 18.4079 17.0696 18.3224 17.0441C18.2032 16.853 18.5338 16.9661 18.4798 16.8095L18.2654 16.7308L18.2902 16.6438C18.2422 16.5643 18.174 16.5141 18.0998 16.4706L18.0525 16.4332C18.102 16.4324 18.1388 16.3957 18.189 16.3949C18.1477 16.2862 17.9941 16.335 18.0061 16.1948L17.9011 16.2435C17.8996 16.2397 17.8989 16.2383 17.8966 16.2353C17.8959 16.1933 17.8764 16.1633 17.8479 16.14C17.7669 15.9819 17.7594 15.9526 17.6058 15.7847L17.5818 15.8732C17.3351 15.8297 17.5653 15.6768 17.3284 15.5239C17.1837 15.4481 17.0878 15.4032 17.0113 15.5074C16.9146 15.4774 16.9536 15.4092 16.9588 15.3462C16.9019 15.3477 16.8149 15.3409 16.7444 15.3117C16.7182 15.284 16.7025 15.254 16.6927 15.2217C16.7467 15.2397 16.8007 15.2547 16.8479 15.2802C16.9228 15.1768 16.6972 15.0913 16.6575 14.9669C16.5803 14.9564 16.3861 14.9092 16.2174 14.8777C16.2384 14.8567 16.3246 14.8822 16.2767 14.8312C16.1687 14.706 16.0248 14.6011 15.8441 14.5321C15.8434 14.5306 15.8441 14.5306 15.8434 14.5298C15.8381 14.4991 15.8336 14.4699 15.8261 14.4399C15.8321 14.4294 15.8381 14.4166 15.8449 14.4046C15.8854 14.3957 15.9453 14.4039 15.9836 14.4414C15.9333 14.4414 15.9311 14.4729 15.9123 14.4991C16.1402 14.5973 16.0068 14.3349 16.0997 14.29C16.0375 14.2652 15.9581 14.1595 15.9491 14.2555C16.0023 14.0321 15.6147 14.0733 15.632 13.8717C15.614 13.8807 15.6222 13.9796 15.5248 13.9496C15.4153 13.8679 15.4865 13.8109 15.4753 13.7435C15.4078 13.754 15.2339 13.637 15.2677 13.6318C15.1702 13.6018 15.2002 13.8349 15.0525 13.8057C15.0428 13.8072 15.0383 13.8027 15.0293 13.8034C15.0075 13.7802 14.9843 13.7697 14.9626 13.7412L15.0645 13.7397C15.0225 13.6835 14.9805 13.6438 14.9273 13.6273L14.8441 13.5696C14.8404 13.5021 14.7976 13.4549 14.7309 13.4189C14.7691 13.3986 14.8524 13.4429 14.8951 13.5006C14.8591 13.3514 14.6949 13.2869 14.5892 13.3244C14.581 13.3184 14.5705 13.3132 14.563 13.3072C14.5563 13.2967 14.5495 13.2892 14.5428 13.2802C14.5135 13.2442 14.494 13.2007 14.5068 13.1378C14.5068 13.137 14.506 13.137 14.5053 13.1363C14.596 13.1168 14.7017 13.0313 14.7961 13.0883C14.9341 13.242 14.6417 13.1363 14.7467 13.2802L14.8359 13.212C14.8441 13.3102 14.9453 13.2929 15.0083 13.3439C15.0203 13.3964 14.973 13.3657 14.9401 13.3559C15.0495 13.4526 15.0892 13.5771 15.2572 13.5643C15.1912 13.3529 14.8838 13.2427 14.9131 13.092L14.5263 12.9256C14.4963 12.9556 14.5113 13.0598 14.4468 13.0853C14.4311 13.0733 14.4161 13.0583 14.4003 13.0523C14.4356 12.9406 14.4071 12.8304 14.3261 12.7202C14.2721 12.8447 14.1162 12.6992 14.06 12.7547C14.0135 12.7195 13.97 12.6842 13.9251 12.6498C14.024 12.649 14.1522 12.6558 14.2616 12.7007C14.2991 12.649 14.1529 12.604 14.1612 12.5096C14.1679 12.6243 14.0233 12.5628 14.0502 12.6355C13.9543 12.5823 13.8366 12.5381 13.7174 12.4878C13.6927 12.4683 13.6664 12.4466 13.6409 12.4264C13.6694 12.4076 13.6874 12.3791 13.7024 12.3409C13.7324 12.3484 13.7601 12.3462 13.7871 12.3447C13.7909 12.3866 13.8126 12.4174 13.8771 12.4144L13.8508 12.3207C13.8673 12.3109 13.8823 12.2974 13.8966 12.2772C13.9116 12.2839 13.9213 12.2937 13.9326 12.2862C14.0098 12.2427 13.8276 12.2097 13.946 12.1363C13.9775 12.1393 14.0285 12.1273 14.0345 12.1602C14.138 12.0628 14.0765 12.0703 14.1117 11.9623C14.1987 11.8192 14.3104 11.6617 14.4258 11.5725C14.4243 11.6018 14.4273 11.631 14.4581 11.6625C14.5608 11.5883 14.5675 11.6715 14.578 11.7397C14.6605 11.6295 14.5098 11.5995 14.4933 11.4991C14.53 11.535 14.6679 11.3461 14.6897 11.4818C14.7766 11.4061 14.6979 11.2989 14.7751 11.2554C14.8021 11.3004 14.8381 11.3566 14.8898 11.3979C14.8666 11.3604 14.9805 11.3199 14.9985 11.3087C14.9671 11.3057 14.9498 11.2037 14.9048 11.2997C14.8524 11.212 15.069 11.1295 15.006 11.0748C15.0945 11.149 15.1755 10.9383 15.2834 10.8986C15.0847 10.7142 15.2189 11.1093 15.036 10.9766C15.0645 10.8409 15.2654 10.6932 15.3779 10.508C15.4273 10.4578 15.4791 10.4166 15.5293 10.3679C15.569 10.3836 15.5405 10.4781 15.6102 10.508C15.5143 10.667 15.4258 10.643 15.3494 10.7869C15.5038 10.6992 15.6822 10.4811 15.7122 10.3334C15.8351 10.1932 16.0488 10.3784 16.1605 10.1707C16.078 10.1302 16.0668 10.113 15.9948 10.14C16.015 10.0748 16.087 10.0478 16.1327 10.0013C16.1215 9.93458 16.0143 10.0253 16.0435 9.92708C16.0803 9.91359 16.1417 9.86936 16.1732 9.92184L16.1687 9.93833C16.2647 9.72843 16.4281 9.97656 16.4408 9.72693C16.3996 9.70744 16.4101 9.77491 16.3576 9.7869C16.2857 9.76366 16.2992 9.61524 16.3396 9.53428C16.3711 9.58825 16.4019 9.49005 16.4581 9.46156C16.557 9.50279 16.3711 9.58825 16.3981 9.65722L16.527 9.55077L16.4911 9.56426L16.5503 9.36936C16.5023 9.44957 16.4573 9.39035 16.4468 9.33337C16.4581 9.33637 16.4693 9.32588 16.4821 9.33937C16.4783 9.31238 16.5105 9.26741 16.5473 9.21793C16.6147 9.17895 16.6785 9.15646 16.7249 9.21718C16.6935 9.17595 16.7025 9.13022 16.7249 9.0845L16.7377 9.09724C16.8629 9.01253 16.8396 8.89784 16.8389 8.79739L16.9341 8.7749L16.9371 8.79214C16.9416 8.78614 16.9401 8.77864 16.9438 8.77265L16.9573 8.7689C16.8456 8.92632 17.0563 8.81163 17.078 8.89634C17.1215 9.01703 16.9971 9.05676 16.9153 9.11673C17.2002 9.12423 17.0315 8.84311 17.222 8.79139C17.2587 8.82812 17.2909 8.88059 17.2294 8.92632C17.2752 8.93007 17.2684 8.74566 17.3921 8.70593C17.3449 8.70143 17.2257 8.6752 17.2767 8.56275L17.4731 8.54551C17.617 8.44131 17.4199 8.40758 17.4798 8.2629L17.3509 8.26814C17.3232 8.23141 17.3434 8.20143 17.3689 8.17294C17.4761 8.17069 17.5855 8.11897 17.6912 8.03351C17.7175 8.1527 17.674 8.29588 17.8187 8.40833C17.9311 8.25165 18.0833 8.01327 18.2227 7.97504C18.3037 7.81462 18.189 7.72166 18.0945 7.66319C18.1305 7.59947 18.1665 7.58673 18.2182 7.57398L18.204 7.67293C18.3104 7.48103 18.3501 7.35059 18.5098 7.19767C18.5368 7.15194 18.5286 7.11896 18.5091 7.09197L18.8119 6.88582C18.8382 6.85059 18.8689 6.8191 18.8974 6.78612C18.9251 6.79811 18.9506 6.8146 18.9708 6.83634C19.0121 6.75163 18.9678 6.75238 18.9244 6.75463C18.9731 6.70216 19.0196 6.64968 19.0683 6.59871C19.2662 6.48252 19.3089 6.25013 19.5975 6.35508C19.6418 6.2089 19.671 6.01025 19.8142 5.85582C19.7407 5.78311 19.8854 5.72763 19.7805 5.65267C19.7235 5.66317 19.6875 5.6939 19.6605 5.73288C19.7437 5.60619 19.8299 5.481 19.8884 5.35657C19.8951 5.38655 19.9109 5.41279 19.9079 5.44577C20.0406 5.32358 20.273 5.19315 20.3232 5.0807C20.4116 5.10469 20.4791 5.14442 20.5211 5.21488C20.5443 4.9825 20.7737 5.06946 20.8862 4.96226C20.9409 4.7831 20.6845 4.99524 20.6883 4.82807C20.7655 4.83482 20.7955 4.73662 20.8104 4.68864C20.806 4.75386 20.626 4.82283 20.5121 4.8798C20.5796 4.81833 20.4904 4.74411 20.4746 4.69239L20.3682 4.7696C20.3682 4.73212 20.3734 4.69239 20.3862 4.65116C20.4266 4.62042 20.4731 4.58894 20.4724 4.54246C20.5308 4.6639 20.5511 4.64966 20.6095 4.7711C20.665 4.64216 20.8037 4.50348 20.9379 4.48174C21.0203 4.47275 20.9439 4.5657 20.9446 4.61593C21.0278 4.65716 21.0001 4.48699 21.0938 4.54546C21.1358 4.61593 21.0428 4.60768 21.0278 4.65716L21.3254 4.41503C21.3622 4.45101 21.306 4.53047 21.2497 4.55896C21.3734 4.51922 21.4139 4.43901 21.3854 4.21937C21.5136 4.16315 21.674 4.11067 21.6958 4.19538C21.716 4.13016 21.6538 4.12567 21.6171 4.08893C21.761 3.98399 21.6448 3.84081 21.7168 3.76359L21.5923 3.7531C21.7835 3.70212 21.5076 3.61142 21.6673 3.55894C21.7205 3.64665 21.809 3.72161 21.9034 3.77934C21.8509 3.69163 21.9799 3.68563 22.0256 3.63915C21.9274 3.59792 22.0601 3.47498 21.9154 3.47948C21.9649 3.31681 22.1103 3.36254 22.0983 3.19387C22.0264 3.22161 22.1178 3.02895 22.0241 3.02146C22.1216 2.91201 22.2767 2.9255 22.3247 3.03045C22.2835 3.06044 22.1958 3.08667 22.2587 3.1414L22.4319 2.93975C22.5151 2.92925 22.5916 2.88577 22.6808 2.95999C22.6486 2.80706 22.9237 2.84829 22.8592 2.69162C22.8659 2.8258 22.7205 2.78082 22.6845 2.79282L22.698 2.74859C22.6943 2.75309 22.6875 2.75609 22.6793 2.75908L22.6186 2.53719C22.4851 2.55968 22.698 2.64439 22.5848 2.75234C22.4004 2.72235 22.5159 2.47722 22.4739 2.39101C22.5788 2.3123 22.6943 2.27632 22.7835 2.19311C22.7947 2.2201 22.8112 2.24633 22.8442 2.27257C22.8892 2.2096 22.9027 2.12789 22.8584 2.08741C22.8629 2.07842 22.8697 2.07392 22.8742 2.06492C23.0406 1.97647 23.0818 2.04918 23.2183 2.00945C23.2887 1.93149 23.2565 1.82654 23.2468 1.80855L23.2063 1.83928C23.1043 1.8138 23.2303 1.7051 23.255 1.62264C23.1178 1.55967 22.9836 1.37751 22.7355 1.42324C22.665 1.56117 22.4956 1.3985 22.3877 1.4967C22.3764 1.38501 22.4154 1.26356 22.5369 1.24407C22.5204 1.19235 22.4694 1.25532 22.4491 1.26956C22.4327 1.21859 22.4042 0.998944 22.261 1.10314C22.3022 1.07316 22.2572 1.22009 22.3599 1.19535C22.3247 1.25907 22.1395 1.34378 22.1276 1.22458C22.0871 1.30554 22.0219 1.46746 21.9859 1.53118C21.9184 1.49145 22.0061 1.46597 22.0061 1.41499L21.8629 1.62114L21.9716 1.63014C21.9252 1.65337 21.8974 1.68861 21.8787 1.72684C21.8539 1.74108 21.8307 1.76282 21.809 1.79955C21.812 1.78831 21.8165 1.77931 21.818 1.76732C21.6673 1.72534 21.7745 1.82654 21.7377 1.9135C21.728 1.92849 21.719 1.94348 21.7093 1.95698C21.6793 1.95323 21.653 1.93599 21.6328 1.9015L21.6305 2.0117C21.6156 2.01845 21.6036 2.03494 21.5863 2.03494C21.5811 2.00045 21.5556 1.98096 21.5653 1.94723C21.4956 2.12939 21.4184 1.96897 21.3284 2.06267L21.4259 2.15638C21.4214 2.22385 21.3449 2.16612 21.3299 2.2156C21.3659 2.20136 21.4619 2.19311 21.4724 2.26208C21.4664 2.28382 21.4551 2.29956 21.4499 2.32055C21.4386 2.3123 21.4162 2.31905 21.3914 2.3258C21.3922 2.32505 21.3922 2.32355 21.3922 2.3228C21.3922 2.3228 21.3862 2.32729 21.3854 2.32729C21.3614 2.33404 21.3352 2.33929 21.3112 2.32505C21.3067 2.34004 21.3165 2.35203 21.3284 2.36553C21.2962 2.38202 21.2595 2.39551 21.2355 2.37752C21.24 2.31005 21.285 2.26283 21.2632 2.17587C21.1073 2.28082 21.2227 2.15563 21.0863 2.14288C21.2138 2.23959 21.0218 2.3078 20.9776 2.40526C20.9259 2.36703 21.0121 2.34079 20.9964 2.28756C20.671 2.2246 20.8314 2.52895 20.62 2.66238C20.6103 2.64439 20.6193 2.61141 20.6245 2.59491C20.5751 2.70961 20.4169 2.66088 20.4289 2.78157C20.3329 2.84154 20.291 2.66688 20.1755 2.79282C20.3232 2.87453 20.0143 2.91426 20.1328 3.0432L19.9709 3.06419C19.9634 3.14215 20.0233 3.19162 20.0631 3.24335C20.0473 3.25534 20.0301 3.27183 20.0076 3.29957C20.0286 3.3348 20.0338 3.38278 20.0421 3.42851C19.8667 3.51172 19.8629 3.20737 19.7197 3.22761L19.7505 3.3333L19.6343 3.35654L19.6395 3.34005C19.6193 3.40602 19.5241 3.46599 19.4881 3.42851C19.4671 3.39252 19.5128 3.34605 19.4918 3.31007C19.4828 3.445 19.0526 3.42401 19.162 3.68863C19.0885 3.69763 19.0053 3.78533 18.9581 3.71487C19.0008 3.83706 18.7475 3.88054 18.7445 3.99148C18.7235 3.9555 18.6275 3.96375 18.6073 4.02971C18.6935 4.00348 18.689 4.07094 18.6957 4.15715C18.5885 4.14741 18.4993 4.34306 18.3824 4.26435C18.3584 4.39928 18.4551 4.44126 18.5076 4.53047C18.4004 4.52147 18.2549 4.69539 18.1725 4.55221C18.228 4.52297 18.3434 4.44801 18.2512 4.38879C18.1313 4.43002 18.2474 4.457 18.1927 4.53647C18.1777 4.51023 18.0803 4.51248 18.0608 4.466C18.0338 4.51922 17.9783 4.57395 17.9041 4.61293C18.0413 4.5747 17.9259 4.75086 18.0226 4.74262L18.0256 4.57245C18.1208 4.46225 18.1073 4.61368 18.1732 4.60243C18.054 4.76211 18.1118 4.84756 18.0938 4.98175C18.0563 4.99524 18.0188 5.01698 17.9813 5.01398C17.9776 5.07545 17.9656 5.11518 17.9528 5.14892C17.9281 5.15791 17.9041 5.16616 17.8959 5.17291C17.9453 5.10919 17.8329 5.01473 17.7819 5.02748C17.7744 5.21339 17.5608 5.14367 17.4648 5.20289C17.5563 5.15941 17.587 5.26436 17.5878 5.31609C17.4888 5.54472 17.4866 5.34082 17.3704 5.36481C17.1357 5.63168 16.8464 5.65792 16.7174 5.93528H16.9056L16.8486 5.81084C16.9903 5.80635 17.033 6.03124 17.0495 6.13394C17.0248 6.12194 16.9768 6.16692 16.9423 6.18341C16.9326 6.18116 16.9266 6.17292 16.9124 6.17667C16.9086 6.17067 16.9026 6.16992 16.9026 6.15567L16.8231 6.31835C16.8329 6.32209 16.8426 6.3191 16.8524 6.3176L16.8291 6.37907C16.8254 6.38057 16.8224 6.38206 16.8186 6.38281L16.7474 6.36407C16.7452 6.35358 16.7384 6.34758 16.7422 6.32809C16.7219 6.34758 16.7099 6.37607 16.6957 6.4023C16.662 6.42854 16.6305 6.45553 16.6058 6.48851C16.5968 6.43454 16.596 6.36932 16.6005 6.33259C16.515 6.40905 16.4483 6.31835 16.4476 6.26812L16.3479 6.39481C16.3471 6.34458 16.3111 6.3071 16.3104 6.25538C16.2047 6.29736 16.2519 6.45403 16.1155 6.44129L16.162 6.54848C15.9003 6.69466 15.9101 6.66168 15.7137 6.84834L15.8006 6.87382C15.7579 7.1242 15.608 6.88957 15.4588 7.13095C15.3846 7.27788 15.3396 7.37608 15.4423 7.45329C15.4131 7.55224 15.3464 7.51176 15.2849 7.50652C15.2864 7.60922 15.2737 7.81237 15.1417 7.83411C15.1665 7.75165 15.1859 7.68568 15.2204 7.62046C15.1185 7.54325 15.0353 7.77339 14.9138 7.81387C14.8996 7.91432 14.8269 8.21417 14.8036 8.39858C14.8141 8.40158 14.8201 8.41432 14.8306 8.41882C14.7714 8.47729 14.7249 8.55226 14.6792 8.62797C14.5922 8.62047 14.479 8.63322 14.3658 8.66545C14.3441 8.62947 14.3546 8.54551 14.3996 8.49903C14.3996 8.55001 14.4303 8.55226 14.4558 8.57175C14.5518 8.34011 14.2946 8.47504 14.2512 8.38059C14.2264 8.44356 14.123 8.52527 14.2167 8.53351C13.9985 8.48029 14.039 8.8746 13.8411 8.85661C13.8508 8.87535 13.9475 8.86635 13.9183 8.96605C13.8381 9.077 13.7811 9.00428 13.7159 9.01553C13.7264 9.0845 13.6117 9.26066 13.6065 9.22693C13.5772 9.32588 13.8051 9.29514 13.7766 9.44582C13.7834 9.4833 13.7796 9.51029 13.7699 9.53278C13.7219 9.56726 13.6844 9.60099 13.6612 9.63997C13.6387 9.65722 13.6185 9.67671 13.6065 9.70294C13.4595 9.72318 13.6454 9.57026 13.6499 9.50204L13.455 9.7914C13.3396 9.81464 13.3981 9.66696 13.479 9.60624C13.3269 9.64447 13.2586 9.82438 13.3051 9.93083C13.2294 9.97506 13.2152 10.0253 13.1289 10.0515C13.1424 9.95032 13.0098 9.81914 13.0742 9.70669C13.2249 9.56651 13.1222 9.86336 13.2624 9.75692L13.1957 9.66621C13.2916 9.65722 13.2751 9.55452 13.3254 9.4908C13.3756 9.4788 13.3463 9.52678 13.3366 9.56051C13.4318 9.44882 13.5532 9.40834 13.5405 9.23817C13.3336 9.30489 13.2257 9.61823 13.078 9.58825L12.9153 9.98106C12.9513 10.0185 13.1027 9.98031 13.0787 10.1145C12.9565 10.053 12.8351 10.0928 12.7152 10.185C12.8523 10.2472 12.6364 10.4496 12.7684 10.4781C12.7676 10.4121 12.8066 10.4143 12.8418 10.4241C12.7774 10.5095 12.7099 10.5875 12.6447 10.6685C12.6394 10.5763 12.6387 10.3904 12.6949 10.2509C12.6439 10.2119 12.6005 10.3611 12.5083 10.3529C12.6199 10.3454 12.5607 10.4938 12.6319 10.4661C12.5547 10.6093 12.4865 10.7952 12.4003 10.9691C12.3973 10.9541 12.3951 10.9391 12.3913 10.9301L12.3238 11.0605C12.3133 11.071 12.3044 11.0823 12.2946 11.0935C12.2556 10.9203 12.4693 10.7134 12.2631 10.6025C12.1987 10.7164 12.2699 10.7899 12.1897 10.8514C12.1424 10.8416 12.1049 10.8641 12.0697 10.8956L12.0435 10.9031C12.0142 10.8461 12.066 10.8304 12.051 10.8102C12.0075 10.7329 11.9753 10.9144 11.9018 10.7959C11.904 10.7644 11.8921 10.7134 11.9258 10.7082C11.8276 10.604 11.8358 10.6647 11.7271 10.6302C11.584 10.544 11.4273 10.4316 11.3381 10.3161C11.3673 10.3176 11.3965 10.3146 11.428 10.2832C11.3531 10.1812 11.437 10.1745 11.5045 10.164C11.395 10.0815 11.3651 10.2322 11.2639 10.2494C11.2998 10.2127 11.1109 10.0748 11.2474 10.0523C11.1709 9.96606 11.0637 10.044 11.0202 9.96756C11.0652 9.93983 11.1222 9.90459 11.1627 9.85212C11.1252 9.87611 11.0854 9.76141 11.0735 9.74417C11.0705 9.77491 10.9685 9.7914 11.0645 9.83713C10.9767 9.8896 10.895 9.67296 10.8403 9.73668C10.9138 9.64747 10.7039 9.56651 10.6634 9.45856C10.479 9.65722 10.8748 9.52378 10.7421 9.70594C10.6057 9.6782 10.4588 9.47655 10.2736 9.36411C10.2226 9.31463 10.1821 9.26366 10.1327 9.21343C10.1492 9.1737 10.2436 9.20219 10.2736 9.13172C10.4325 9.22768 10.4078 9.31613 10.5517 9.39259C10.4647 9.23817 10.2466 9.05976 10.0982 9.03052C9.95875 8.90758 10.1439 8.69244 9.93626 8.58149C9.89578 8.66395 9.87779 8.67519 9.90477 8.74791C9.8403 8.72692 9.81257 8.6557 9.76609 8.60923C9.69937 8.62047 9.79008 8.72767 9.69188 8.69843C9.67913 8.6617 9.63415 8.60023 9.68663 8.56875L9.70237 8.57324C9.49397 8.47729 9.7421 8.31462 9.49247 8.30113C9.47223 8.34311 9.5397 8.33186 9.55169 8.38359C9.52921 8.4563 9.38078 8.44206 9.29982 8.40233C9.35304 8.37084 9.25484 8.34086 9.22635 8.28389C9.26833 8.18568 9.35304 8.37084 9.42201 8.34461L9.31556 8.21567L9.32905 8.25165L9.13415 8.19168C9.21511 8.23966 9.15514 8.28464 9.09817 8.29588C9.10116 8.28314 9.09142 8.27264 9.10491 8.2599C9.07718 8.26365 9.0322 8.23141 8.98347 8.19468C8.94374 8.12721 8.92125 8.06424 8.98197 8.01777C8.94074 8.04925 8.89577 8.03951 8.84929 8.01702L8.86278 8.00427C8.77732 7.87908 8.66263 7.90232 8.56218 7.90382L8.53969 7.80787L8.55768 7.80487C8.55168 7.80037 8.54419 7.80187 8.53744 7.79812L8.53369 7.78463C8.69186 7.89708 8.57642 7.68568 8.66113 7.66319C8.78182 7.62121 8.8223 7.7449 8.88152 7.82661C8.88902 7.54175 8.60791 7.71117 8.55693 7.52001C8.59366 7.48328 8.64614 7.45179 8.69111 7.51326C8.69486 7.46678 8.51045 7.47353 8.47072 7.34984C8.46697 7.39707 8.43999 7.51626 8.32754 7.46604L8.31105 7.26888C8.2061 7.1257 8.17237 7.32211 8.02769 7.26213L8.03294 7.39107C7.9962 7.41956 7.96697 7.39857 7.93773 7.37383C7.93623 7.26663 7.88376 7.15719 7.79905 7.05074C7.91749 7.02525 8.06142 7.06798 8.17312 6.9233C8.0157 6.8116 7.77881 6.65868 7.74058 6.52C7.58016 6.43829 7.48645 6.55373 7.42873 6.64744C7.36426 6.61145 7.35152 6.57547 7.33878 6.5245L7.43773 6.53799C7.24657 6.43229 7.11613 6.39181 6.96321 6.23289C6.91673 6.2059 6.88375 6.2134 6.85676 6.23289L6.65136 5.93079C6.61613 5.9038 6.58464 5.87381 6.55166 5.84458C6.5629 5.81684 6.5794 5.79135 6.60114 5.77111C6.51643 5.72988 6.51793 5.77486 6.52017 5.81759C6.46695 5.76961 6.41448 5.72239 6.36425 5.67441C6.24806 5.47576 6.01567 5.43303 6.12062 5.14517C5.97369 5.10019 5.77579 5.07096 5.62136 4.92778C5.5479 5.00124 5.49318 4.85656 5.41746 4.96151C5.42871 5.01923 5.45944 5.05521 5.49767 5.08145C5.37099 4.99824 5.24655 4.91203 5.12211 4.85356C5.15209 4.84756 5.17758 4.83107 5.21131 4.83407C5.08912 4.70139 4.95794 4.46975 4.84549 4.41877C4.87023 4.33032 4.90921 4.26285 4.97968 4.22087C4.74804 4.19763 4.83425 3.96899 4.72705 3.8558C4.54864 3.80108 4.76003 4.05745 4.59287 4.05445C4.59961 3.97649 4.50216 3.9465 4.45343 3.93151C4.5194 3.93601 4.58762 4.11667 4.64459 4.22987C4.58387 4.1624 4.50891 4.25236 4.45793 4.26735L4.53514 4.37455C4.49691 4.37455 4.45793 4.36855 4.41595 4.35505C4.38522 4.31532 4.35373 4.2696 4.30726 4.27035C4.42945 4.21187 4.41445 4.19163 4.53589 4.13241C4.40771 4.07694 4.26902 3.93901 4.24654 3.80482C4.23679 3.72161 4.33049 3.79808 4.38072 3.79733C4.42195 3.71487 4.25178 3.7426 4.311 3.64815C4.38072 3.60617 4.37322 3.69913 4.42195 3.71487L4.17982 3.41651C4.21655 3.37978 4.29526 3.436 4.32375 3.49298C4.28402 3.36854 4.20381 3.32881 3.98491 3.35654C3.92869 3.22761 3.87547 3.06793 3.96092 3.04619C3.89571 3.0267 3.89046 3.08892 3.85373 3.12565C3.74953 2.98098 3.6056 3.09792 3.52839 3.02595L3.51789 3.14964C3.46767 2.95924 3.37696 3.23435 3.32374 3.07393C3.41144 3.02146 3.48641 2.933 3.54413 2.83929C3.45642 2.89177 3.45042 2.76208 3.4047 2.71635C3.36272 2.81531 3.24053 2.68187 3.24502 2.82655C3.0816 2.77708 3.12733 2.6309 2.95941 2.64364C2.98715 2.71561 2.79449 2.6249 2.78625 2.7186C2.67755 2.62115 2.69104 2.46598 2.79524 2.41725C2.82523 2.45848 2.85147 2.54619 2.90694 2.48322L2.70454 2.31005C2.69404 2.22684 2.65131 2.15038 2.72553 2.06117C2.57185 2.09416 2.61233 1.81829 2.45641 1.88276C2.59134 1.87602 2.54562 2.02144 2.55836 2.05743L2.51413 2.04393C2.51788 2.04843 2.52088 2.05443 2.52463 2.06342L2.30273 2.12339C2.32447 2.25683 2.40918 2.04393 2.51713 2.15788C2.48714 2.34154 2.24201 2.22609 2.15656 2.26882C2.07709 2.16238 2.04111 2.04768 1.95865 1.95922C1.98489 1.94723 2.01113 1.93149 2.03811 1.8985C1.97439 1.85278 1.89268 1.84003 1.8522 1.88351C1.84396 1.87976 1.83946 1.87227 1.82971 1.86777C1.74201 1.70135 1.81397 1.66012 1.77499 1.52369C1.69628 1.45322 1.59208 1.48546 1.57409 1.49595L1.60408 1.53643C1.57859 1.63763 1.47064 1.51169 1.38743 1.4877C1.32446 1.62489 1.1423 1.75832 1.18878 2.00645C1.32596 2.07692 1.16329 2.24708 1.26149 2.35353C1.15055 2.36628 1.02911 2.32655 1.00962 2.2051C0.957141 2.2216 1.02011 2.27257 1.0351 2.29281C0.983378 2.3093 0.763735 2.33779 0.868684 2.48097C0.838699 2.44049 0.984877 2.48547 0.960139 2.38202C1.02386 2.41725 1.10857 2.60241 0.990125 2.6144C1.07034 2.65563 1.23226 2.72085 1.29598 2.75534C1.25624 2.82355 1.23076 2.73585 1.18053 2.7366L1.38593 2.87978L1.39493 2.77033C1.41817 2.81681 1.4534 2.84454 1.49238 2.86403C1.50587 2.88802 1.52836 2.91126 1.56509 2.93375C1.5531 2.93075 1.5441 2.92625 1.53211 2.924C1.49088 3.07468 1.59208 2.96748 1.67904 3.00421C1.69328 3.01396 1.70827 3.02296 1.72177 3.03345C1.71877 3.06344 1.70078 3.08892 1.66704 3.10916L1.77724 3.11141C1.78399 3.12715 1.79973 3.13765 1.79973 3.15639C1.76525 3.16089 1.74576 3.18638 1.71277 3.17738C1.89343 3.24635 1.73376 3.32356 1.82747 3.41351L1.92192 3.31681C1.98939 3.32056 1.93167 3.39777 1.98114 3.41202C1.9669 3.37678 1.95865 3.28083 2.02762 3.26958C2.04861 3.27633 2.0651 3.28683 2.08534 3.29207C2.07784 3.30332 2.08384 3.32581 2.09134 3.35055C2.09059 3.3498 2.08909 3.3498 2.08834 3.3498C2.08834 3.3498 2.09209 3.35579 2.09284 3.35654C2.09883 3.38053 2.10408 3.40752 2.08984 3.43076C2.10483 3.43525 2.11757 3.42551 2.13032 3.41351C2.14756 3.44575 2.1603 3.48248 2.14231 3.50647C2.07485 3.50272 2.02762 3.45699 1.94066 3.47873C2.04636 3.63466 1.92042 3.51921 1.90843 3.6564C2.00438 3.52896 2.0726 3.72086 2.1708 3.76434C2.13182 3.81682 2.10558 3.72986 2.05311 3.74635C1.99014 4.07094 2.29374 3.91052 2.42717 4.12192C2.40993 4.13166 2.3762 4.12267 2.35971 4.11742C2.4744 4.1669 2.42642 4.32507 2.54711 4.31382C2.60634 4.40978 2.43167 4.45176 2.55761 4.56645C2.63932 4.41877 2.6798 4.72762 2.80874 4.60918L2.82898 4.7711C2.90769 4.7786 2.95567 4.71938 3.00814 4.67965C3.02088 4.69464 3.03663 4.71188 3.06511 4.73437C3.0996 4.71413 3.14757 4.70888 3.1933 4.69989C3.27726 4.87605 2.97216 4.87905 2.99315 5.02298L3.0981 4.99149L3.12208 5.10769L3.10484 5.10244C3.17156 5.12268 3.23078 5.21863 3.1933 5.25312C3.15807 5.27486 3.11084 5.22913 3.07561 5.25087C3.20979 5.25911 3.1888 5.69015 3.45342 5.57996C3.46242 5.65342 3.55087 5.73738 3.47966 5.78461C3.60185 5.74113 3.64608 5.9945 3.75627 5.99825C3.72029 6.01849 3.72854 6.11445 3.79526 6.13469C3.76827 6.04848 3.83649 6.05372 3.92194 6.04698C3.9122 6.15418 4.1086 6.24263 4.02989 6.36033C4.16408 6.38356 4.20605 6.28686 4.29601 6.23514C4.28627 6.34233 4.46018 6.48701 4.317 6.56947C4.28776 6.514 4.2128 6.39856 4.15433 6.49076C4.19481 6.61145 4.2218 6.49526 4.30126 6.54923C4.27577 6.56498 4.27802 6.66168 4.23154 6.68192C4.28402 6.70816 4.33949 6.76363 4.37772 6.83784C4.33949 6.70141 4.51565 6.81535 4.50741 6.72015L4.33799 6.71715C4.22704 6.6212 4.37847 6.63469 4.36798 6.56872C4.5269 6.68866 4.61311 6.63019 4.74729 6.64818C4.76003 6.68642 4.78252 6.72315 4.77952 6.76063C4.84099 6.76513 4.87998 6.77712 4.91446 6.78912C4.9227 6.8146 4.9317 6.83784 4.93845 6.84609C4.87473 6.79661 4.77953 6.90906 4.79227 6.96003C4.97818 6.96753 4.90846 7.18192 4.96843 7.27713C4.92495 7.18642 5.0299 7.15569 5.08088 7.15494C5.30952 7.25314 5.10637 7.25539 5.1296 7.37233C5.39722 7.60697 5.42271 7.89558 5.70008 8.02451V7.8371L5.57564 7.89408C5.57189 7.7524 5.79603 7.70892 5.89948 7.69242C5.88673 7.71791 5.93246 7.76514 5.9482 7.80037C5.9467 7.81012 5.93771 7.81461 5.94146 7.82961C5.93546 7.83336 5.93546 7.83935 5.92047 7.8401L6.08314 7.91881C6.08764 7.90907 6.08464 7.89932 6.08239 7.88958L6.14461 7.91282C6.14536 7.91656 6.14686 7.92031 6.14836 7.92331L6.12887 7.99453C6.11837 7.99753 6.11237 8.00277 6.09288 8.00052C6.11237 8.02076 6.14086 8.03276 6.1671 8.04625C6.19333 8.07999 6.22107 8.11147 6.25331 8.13621C6.19933 8.1452 6.13411 8.14595 6.09738 8.14221C6.17459 8.22691 6.08389 8.29363 6.03291 8.29438L6.1596 8.39483C6.10938 8.39483 6.07189 8.43081 6.02092 8.43156C6.0629 8.53726 6.21957 8.49079 6.20683 8.62647L6.31328 8.57999C6.45945 8.84236 6.42722 8.83262 6.61313 9.02827L6.63862 8.94132C6.88974 8.98479 6.65511 9.13397 6.89649 9.28315C7.04267 9.35811 7.14087 9.40309 7.21808 9.30039C7.31704 9.32963 7.27731 9.39634 7.27206 9.45706C7.37401 9.45556 7.57716 9.46906 7.5989 9.59949C7.51644 9.57551 7.45047 9.55601 7.38525 9.52153C7.30879 9.62423 7.53818 9.70744 7.57866 9.82813C7.67986 9.84237 7.97896 9.91509 8.16337 9.93833C8.16637 9.92783 8.17986 9.92184 8.18436 9.91134C8.24283 9.97056 8.3178 10.017 8.39351 10.0628C8.38526 10.1505 8.39876 10.2629 8.43099 10.3761C8.39501 10.3979 8.31105 10.3881 8.26457 10.3431C8.3148 10.3431 8.3178 10.3124 8.33654 10.2862C8.1049 10.1902 8.24059 10.4473 8.14538 10.4916C8.2091 10.5155 8.29006 10.619 8.29831 10.5253C8.24508 10.7442 8.63939 10.703 8.62215 10.9016C8.64014 10.8919 8.63114 10.7952 8.73085 10.8244C8.84254 10.9046 8.76908 10.9616 8.78107 11.0268C8.85004 11.0156 9.0262 11.1302 8.99172 11.1355C9.09142 11.1647 9.06069 10.9376 9.21136 10.9661C9.24809 10.9586 9.27583 10.9631 9.29832 10.9721C9.3328 11.0201 9.36654 11.0583 9.40552 11.0815C9.42201 11.1033 9.4415 11.1235 9.46774 11.1355C9.48873 11.2817 9.3358 11.0965 9.26758 11.0928L9.55619 11.2862C9.57943 11.4031 9.4325 11.3439 9.37103 11.2637C9.40926 11.4151 9.58993 11.4841 9.69637 11.4376C9.73985 11.5126 9.79008 11.5276 9.81632 11.613C9.71587 11.5995 9.58468 11.7322 9.47148 11.6677C9.33205 11.5171 9.62816 11.6205 9.52246 11.4796L9.431 11.547C9.42276 11.4503 9.32006 11.4676 9.25559 11.4166C9.2436 11.3664 9.29157 11.3964 9.3253 11.4061C9.21436 11.3109 9.17388 11.1887 9.00296 11.2015C9.06968 11.4084 9.38303 11.5171 9.35304 11.664L9.7466 11.8267C9.78333 11.7907 9.74585 11.6392 9.87928 11.6632C9.81781 11.7854 9.85755 11.9069 9.94975 12.0276C10.0127 11.8896 10.2144 12.1055 10.2429 11.9736C10.1776 11.9743 10.1799 11.9361 10.1889 11.9009C10.2751 11.9653 10.3523 12.0321 10.4333 12.0973C10.3418 12.1025 10.1552 12.1025 10.015 12.047C9.97674 12.098 10.1259 12.1415 10.1177 12.2337C10.1109 12.122 10.2586 12.182 10.2309 12.1108C10.3755 12.188 10.563 12.2562 10.7384 12.3439C10.7766 12.3769 10.8201 12.4136 10.8583 12.4474C10.6859 12.4871 10.4782 12.2727 10.368 12.4788C10.4812 12.5433 10.5555 12.4721 10.6162 12.5523C10.6042 12.6123 10.6402 12.6573 10.6896 12.7C10.6784 12.736 10.7009 12.757 10.6612 12.8559C10.7054 12.8102 10.7609 12.8184 10.7953 12.8529L10.7751 12.9016C10.6259 12.9713 10.5862 13.1528 10.4318 13.1887C10.488 13.1603 10.3523 13.0823 10.4707 13.0591C10.4662 13.0755 10.482 13.0763 10.4767 13.0928C10.6507 12.9399 10.506 12.9444 10.6237 12.7712C10.5472 12.8964 10.4408 13.0358 10.3321 13.1393C10.3298 13.137 10.3313 13.1348 10.3298 13.1325C10.2294 13.209 10.2226 13.1243 10.2121 13.0546C10.1574 13.1303 10.2076 13.1693 10.2504 13.218C10.2489 13.2187 10.2474 13.2217 10.2451 13.2232C10.2706 13.2367 10.2781 13.251 10.2803 13.266C10.2803 13.2675 10.2811 13.2697 10.2826 13.272C10.2818 13.2817 10.2751 13.2929 10.2683 13.3042C10.2159 13.3229 10.1214 13.4324 10.1034 13.3169C10.018 13.3941 10.0952 13.5028 10.0195 13.5471C9.99323 13.5013 9.95875 13.4436 9.90777 13.4031C9.93026 13.4406 9.81857 13.4811 9.80057 13.4938C9.83131 13.4968 9.8478 13.5995 9.89203 13.5013C9.9445 13.592 9.73236 13.6745 9.79383 13.7307C9.70687 13.655 9.62741 13.8694 9.52171 13.9106C9.71661 14.098 9.58543 13.6955 9.76459 13.8304C9.76009 13.8522 9.74135 13.8762 9.72936 13.8994C9.70387 13.9001 9.67763 13.9061 9.65739 13.8911C9.58018 13.9856 9.61766 14.0718 9.51496 14.1468C9.49397 14.1115 9.50447 14.0786 9.49322 14.0613C9.39952 14.1355 9.30881 14.2307 9.21586 14.3229C9.21061 14.3184 9.20911 14.3109 9.20237 14.3079C9.19037 14.3289 9.17313 14.3477 9.16263 14.3687C9.09142 14.4369 9.01346 14.4909 8.93475 14.5411C8.83504 14.5388 8.73085 14.5201 8.66338 14.6505C8.7286 14.6835 8.75333 14.694 8.79681 14.6858C8.77133 14.7217 8.74809 14.7585 8.7256 14.7937C8.7136 14.8035 8.70086 14.8117 8.69037 14.8222C8.69186 14.8297 8.69711 14.8297 8.70011 14.8342C8.68587 14.8589 8.67987 14.8852 8.66788 14.9099C8.66263 14.9054 8.65513 14.9107 8.65138 14.9047L8.65588 14.8874C8.56218 15.0996 8.40176 14.8477 8.38976 15.1011C8.43024 15.122 8.41975 15.0531 8.46997 15.0403C8.5262 15.0591 8.5217 15.1528 8.50146 15.233C8.45198 15.2202 8.4085 15.2472 8.36952 15.2915C8.40026 15.2532 8.44524 15.2113 8.43099 15.173L8.30505 15.281L8.34029 15.2675L8.3178 15.3439C8.27057 15.4009 8.22484 15.4466 8.17237 15.3919C8.18136 15.4579 7.98796 15.6071 7.99021 15.7375C7.92199 15.6978 8.04568 15.6078 8.00895 15.5711L7.94823 15.6663L7.9115 15.6295C7.85527 15.6663 7.83278 15.7098 7.82079 15.7532C7.74508 15.7997 7.74283 15.8927 7.71359 15.9684L7.70759 15.9302C7.69035 15.9526 7.6896 15.9796 7.68136 16.0044C7.66637 16.0231 7.65512 16.0448 7.62514 16.0531C7.58915 16.0164 7.55767 15.9624 7.61764 15.9159C7.57266 15.9122 7.57941 16.1003 7.45797 16.14C7.5037 16.1445 7.62064 16.1715 7.57191 16.2862L7.54717 16.2885L7.53518 16.2825L7.53293 16.2892L7.37926 16.3035C7.23832 16.4092 7.43098 16.4437 7.37251 16.5913L7.40549 16.5898C7.37851 16.6363 7.35602 16.6843 7.36426 16.736C7.30804 16.7645 7.15661 16.685 7.1791 16.82L7.16336 16.802C7.15586 16.748 7.15137 16.6933 7.14237 16.6371C7.20834 16.6063 7.23308 16.6805 7.31554 16.5306C7.25407 16.5224 7.19035 16.5359 7.12738 16.5613C7.11089 16.5201 7.08615 16.4796 7.04042 16.4429C6.93097 16.6033 6.7818 16.8447 6.64536 16.8837C6.62812 16.9189 6.62362 16.9497 6.62213 16.9789C6.60563 16.9976 6.58539 17.0179 6.5704 17.0351C6.48044 17.2787 6.08314 17.4287 6.18434 17.6708L6.13111 17.5831L5.79228 17.8042C5.58313 18.0704 5.28478 18.2623 5.19932 18.5389L5.09137 18.5291C5.10037 18.9144 4.53439 19.2503 4.64759 19.6109C4.48792 19.6641 4.58912 19.4887 4.55763 19.4354C4.48867 19.4774 4.47817 19.6288 4.41445 19.7053C4.40996 19.6986 4.39946 19.6986 4.39496 19.6911C4.39346 19.7091 4.38447 19.7143 4.38072 19.7278C4.35898 19.7413 4.33724 19.7548 4.30201 19.748C4.26603 19.7121 4.37772 19.6041 4.30651 19.6318C4.18207 19.6213 4.29226 19.7803 4.15283 19.769C4.18956 19.7848 4.20156 19.829 4.20231 19.8792C4.14234 19.8935 4.08162 19.9055 4.03814 19.9489C4.0014 20.0749 4.10935 20.0134 4.17832 20.0187C4.16333 20.0606 4.14384 20.1019 4.1206 20.1334C4.14084 20.1191 4.14084 20.1191 4.15658 20.1199C4.16108 20.1221 4.15583 20.1259 4.15808 20.1289C4.13559 20.1603 4.1206 20.1993 4.11235 20.2271C4.11385 20.2053 4.13634 20.1836 4.16482 20.1618C4.16183 20.1963 4.13259 20.2338 4.1116 20.2668C4.1116 20.2668 4.10111 20.2488 4.1056 20.2331C4.06512 20.2915 4.0104 20.3492 3.96692 20.4085C3.96242 20.38 3.98191 20.3358 3.98116 20.3005C3.89945 20.2593 3.92719 20.4317 3.83499 20.3717C3.79376 20.3005 3.88521 20.3088 3.89945 20.2593L3.6086 20.5044C3.57261 20.4677 3.62734 20.3875 3.68281 20.359C3.56137 20.3995 3.52239 20.4804 3.55013 20.7038C3.42419 20.7608 3.26751 20.814 3.24577 20.7278C3.22628 20.7938 3.287 20.7998 3.32374 20.8365C3.18205 20.943 3.296 21.0891 3.22553 21.1678L3.34023 21.1783C3.33423 21.1843 3.32748 21.1888 3.32224 21.1948C3.29975 21.2068 3.28176 21.2188 3.28251 21.2323C3.25702 21.2593 3.22853 21.2803 3.20304 21.3073C3.15432 21.2511 3.10709 21.1926 3.04262 21.1521C3.09435 21.2413 2.96766 21.2466 2.92268 21.2938C3.01938 21.3365 2.88895 21.461 3.03138 21.4565C3.02763 21.4669 3.02163 21.4707 3.01788 21.4804C2.8777 21.6131 2.74652 21.7593 2.59734 21.874L2.64232 21.7286C2.60709 21.8418 2.44741 21.946 2.39119 21.9737L2.39644 21.958C2.35146 21.9632 2.33422 21.9797 2.31323 21.9954C2.30273 21.9894 2.29299 21.9947 2.28174 21.9849C2.28924 22.0224 2.27875 22.0472 2.26 22.0674C2.26 22.0682 2.25926 22.0697 2.25851 22.0712C2.21803 22.1131 2.14156 22.1311 2.11233 22.1769C1.94966 22.3358 1.74051 22.3245 1.64156 22.5442C1.47139 22.6304 1.42941 22.5592 1.28998 22.5981C1.21801 22.6754 1.251 22.7781 1.26074 22.796L1.30197 22.7661C1.40617 22.7916 1.27798 22.898 1.25325 22.979C1.39343 23.0412 1.52986 23.2196 1.78324 23.1746C1.81322 23.1191 1.86195 23.1191 1.91442 23.1266C1.91442 23.1364 1.90318 23.1491 1.90468 23.1574C1.90618 23.1506 1.91068 23.1386 1.91667 23.1266C1.92567 23.1281 1.93466 23.1274 1.94441 23.1296C1.92042 23.2143 1.88819 23.3305 1.90693 23.3613C1.93092 23.2278 2.05311 23.3403 2.0666 23.1889C2.08759 23.2248 2.12882 23.2961 2.07335 23.3253C2.20003 23.32 2.25476 23.2398 2.35146 23.2818C2.24426 23.2863 2.28399 23.401 2.28249 23.425C2.35221 23.3935 2.43317 23.2706 2.43692 23.2053C2.55986 23.317 2.61158 22.9827 2.66481 23.1739C2.63407 23.1199 2.70454 23.0419 2.76976 23.0299C2.81623 23.0862 2.74652 23.2143 2.76301 23.3185C2.62358 23.5787 2.68055 23.2263 2.59959 23.2361L2.45941 23.3995C2.49089 23.4003 2.48115 23.5449 2.5711 23.437C2.59809 23.5584 2.55461 23.7084 2.42268 23.7301C2.43917 23.7826 2.48864 23.7188 2.50813 23.7039C2.52463 23.7563 2.55236 23.9797 2.69254 23.8733C2.65281 23.9033 2.69704 23.7548 2.59584 23.7796C2.63032 23.7144 2.81174 23.6289 2.82298 23.7488C2.86271 23.6679 2.92718 23.503 2.96166 23.4385C3.02838 23.4782 2.94217 23.5045 2.94292 23.5562L3.08235 23.3463L2.97591 23.338C3.14232 23.2503 3.08385 23.0247 3.14307 22.8763C3.22029 22.9857 3.14532 23.0809 3.12658 23.1979C3.299 23.2473 3.11009 23.0952 3.23078 23.0037C3.26152 23.0059 3.287 23.0254 3.30799 23.0614L3.31099 22.892C3.34622 22.8778 3.35147 22.9122 3.34622 22.9295C3.3897 22.6776 3.21354 22.7983 3.36272 22.5562C3.20155 22.6274 3.32898 22.7233 3.22328 22.8155C3.12058 22.8073 3.18205 22.6491 3.1993 22.5569C3.20604 22.5524 3.21354 22.5539 3.22104 22.5464L3.20304 22.5292C3.20304 22.5239 3.20604 22.5134 3.20529 22.5082C3.29 22.4535 3.3927 22.5089 3.45792 22.4632C3.46317 22.4632 3.46317 22.4662 3.46841 22.467C3.46467 22.464 3.46692 22.4625 3.46392 22.4602C3.48491 22.4422 3.50215 22.4145 3.51264 22.3658C3.47366 22.4977 3.5951 22.4587 3.47966 22.5839C3.46092 22.7016 3.55537 22.5899 3.62209 22.6304C3.63633 22.5809 3.5044 22.5524 3.60485 22.476L3.61534 22.4939L3.64533 22.3178C3.83948 22.3005 3.75552 22.0719 3.94443 21.9565C3.95493 21.9737 3.94518 22.0067 3.93993 22.0232C3.99091 21.91 4.15208 21.958 4.14009 21.8388C4.20381 21.8013 4.24579 21.8568 4.29901 21.868L4.308 21.8927L4.33049 21.8695C4.33799 21.868 4.34624 21.859 4.35373 21.8553C4.37322 21.9452 4.36573 22.1199 4.34174 22.1514C4.4197 22.0524 4.39421 21.9512 4.36123 21.8508C4.37322 21.8433 4.38447 21.8433 4.39871 21.8283C4.26303 21.7563 4.48942 21.7143 4.45193 21.6146C4.55613 21.5981 4.65658 21.6146 4.65883 21.4984C4.70981 21.5382 4.82675 21.5142 4.81176 21.6146C4.76753 21.7128 4.66108 21.7031 4.71806 21.7765C4.78777 21.6978 4.79827 21.7668 4.89797 21.6394C4.86123 21.5741 4.85074 21.4864 4.84849 21.3942C4.85449 21.3942 4.85824 21.4017 4.86498 21.401L4.84924 21.3508C4.84999 21.332 4.84999 21.3125 4.85074 21.2938L4.95194 21.2743L4.94669 21.2908C4.96468 21.2323 5.0419 21.1873 5.08388 21.2046C5.09137 21.2113 5.08837 21.2278 5.09662 21.2323C5.09512 21.2256 5.10112 21.2241 5.10037 21.2181C5.10562 21.2511 5.07863 21.2893 5.09737 21.32C5.10262 21.2406 5.25479 21.2113 5.35824 21.1484C5.36724 21.1536 5.38148 21.1439 5.38523 21.1559L5.25929 21.2638C5.39572 21.2248 5.41147 21.2765 5.51117 21.1506C5.49617 21.1491 5.46619 21.1469 5.47069 21.1296C5.49617 21.0981 5.53591 21.0674 5.56139 21.0352L5.6581 21.1289C5.69708 20.9962 5.97594 20.9534 6.05915 20.7233L6.0644 20.7578C6.17834 20.6716 6.09288 20.5239 6.11087 20.3852C6.13261 20.374 6.1551 20.371 6.17759 20.3717C6.19933 20.3957 6.22632 20.4137 6.25406 20.434C6.2728 20.317 6.38524 20.3612 6.47595 20.3178C6.40623 20.3305 6.39649 20.2855 6.39049 20.245C6.45196 20.2128 6.37924 20.1836 6.42422 20.1161C6.39349 20.1348 6.3575 20.1558 6.34176 20.1843C6.30203 20.1461 6.30653 20.0981 6.32752 20.0524C6.37175 20.0426 6.41373 20.0456 6.44521 20.0981C6.43921 20.1019 6.43322 20.1109 6.42572 20.1146C6.43172 20.1206 6.44821 20.1244 6.4617 20.1289C6.45496 20.1671 6.46395 20.1978 6.54042 20.2046C6.55166 20.1963 6.54416 20.1866 6.55016 20.1783C6.55241 20.1806 6.55841 20.1806 6.55991 20.1836C6.58689 20.1311 6.64386 20.0771 6.71958 20.0389C6.64461 20.0584 6.64312 20.0202 6.64312 19.9797C6.71958 19.9294 6.79979 19.8882 6.8815 19.8957C6.89424 19.6948 6.9827 19.6993 6.93397 19.5149C6.99169 19.4939 7.05916 19.4879 7.11838 19.4729C7.10114 19.5321 7.03143 19.5936 7.09664 19.6423C7.0794 19.4887 7.21209 19.5171 7.24057 19.3672L7.25107 19.3845C7.32153 19.1903 7.54343 19.2158 7.57116 19.0651C7.71809 18.9774 7.85377 18.901 7.93174 18.7398H7.75857C7.72034 18.6776 7.67236 18.6431 7.69785 18.5576C7.88976 18.4384 7.77656 18.7683 7.93324 18.715L8.01195 18.4999L8.09815 18.5254C8.17687 18.4767 8.22859 18.4084 8.27057 18.335L8.30955 18.287C8.3103 18.3372 8.34628 18.3732 8.34703 18.4234C8.45573 18.383 8.40775 18.2285 8.54719 18.2413L8.49921 18.1356C8.50296 18.1341 8.50371 18.1333 8.50745 18.1318C8.54868 18.1311 8.57867 18.1116 8.60191 18.0831C8.76083 18.0021 8.79007 17.9946 8.95724 17.841L8.86878 17.8162C8.91226 17.5696 9.06518 17.8005 9.21811 17.5629C9.29382 17.4189 9.33955 17.3222 9.2346 17.2473C9.26534 17.1498 9.3328 17.188 9.39502 17.1933C9.39427 17.1363 9.40177 17.0501 9.43025 16.9796C9.45799 16.9534 9.48798 16.9369 9.52021 16.9272C9.50297 16.9819 9.48723 17.0351 9.46099 17.0831C9.56519 17.1573 9.65065 16.9324 9.77509 16.8927C9.78558 16.8147 9.83281 16.6213 9.86429 16.4526C9.88528 16.4736 9.85979 16.5598 9.91077 16.5111C10.036 16.4039 10.1409 16.26 10.2099 16.0793C10.2114 16.0786 10.2114 16.0793 10.2121 16.0786C10.2429 16.0733 10.2721 16.0688 10.3021 16.0606C10.3133 16.0666 10.3261 16.0726 10.3373 16.0801C10.3471 16.1206 10.3388 16.1798 10.3006 16.218C10.3006 16.1685 10.2683 16.1655 10.2429 16.1468C10.1447 16.3747 10.407 16.242 10.452 16.335C10.4767 16.2727 10.5824 16.1925 10.4865 16.185C10.7099 16.2368 10.6686 15.8492 10.8711 15.8672C10.8606 15.8484 10.7624 15.8574 10.7923 15.7592C10.8741 15.6505 10.9318 15.721 10.9985 15.7105C10.988 15.643 11.1049 15.4691 11.1102 15.5021C11.1402 15.4047 10.907 15.4354 10.937 15.287C10.9348 15.278 10.9393 15.2735 10.9385 15.2645C10.9625 15.2427 10.973 15.2187 11.0007 15.1978L11.0022 15.2997C11.0592 15.257 11.0982 15.2158 11.1147 15.1625L11.1724 15.0793C11.2399 15.0756 11.2871 15.0321 11.3238 14.9661C11.3433 15.0036 11.2991 15.0876 11.2414 15.1295C11.3898 15.0936 11.455 14.9301 11.4175 14.8244C11.4235 14.8154 11.428 14.8057 11.4355 14.7982C11.4453 14.7907 11.4528 14.784 11.4618 14.778C11.4985 14.7487 11.5412 14.7285 11.6042 14.742C11.6049 14.742 11.6049 14.7412 11.6057 14.7405C11.6252 14.8312 11.7099 14.9369 11.6544 15.0306C11.5 15.1685 11.6057 14.8769 11.4618 14.9811L11.53 15.0711C11.4325 15.0793 11.449 15.1805 11.398 15.2435C11.3463 15.2555 11.3763 15.2083 11.386 15.1753C11.2893 15.284 11.1649 15.3237 11.1777 15.4924C11.389 15.4264 11.4992 15.1183 11.6507 15.1483L11.8163 14.7615C11.7864 14.7315 11.6829 14.7457 11.6574 14.682C11.6687 14.6663 11.6844 14.6513 11.6897 14.6348C11.8006 14.6708 11.9115 14.6423 12.0217 14.5613C11.8973 14.5066 12.0427 14.3514 11.9873 14.2952C12.0225 14.2487 12.0585 14.2052 12.093 14.1595C12.093 14.2585 12.087 14.3867 12.042 14.4969C12.0937 14.5343 12.1379 14.3882 12.2324 14.3957C12.1184 14.4031 12.1792 14.2577 12.1064 14.2847C12.1597 14.1888 12.2039 14.0711 12.2541 13.9526C12.2654 13.9384 12.2766 13.9249 12.2879 13.9106C12.3208 13.9106 12.3538 13.8274 12.4108 13.9069C12.4026 13.9361 12.4003 13.9624 12.3981 13.9886C12.3943 13.9908 12.3958 13.9968 12.3913 13.9976C12.3943 13.9998 12.3951 13.9998 12.3973 14.0028C12.3951 14.0598 12.4086 14.1115 12.4828 14.1505C12.5045 14.1138 12.5008 14.0876 12.503 14.0591C12.527 14.0576 12.557 14.0553 12.6214 14.0808C12.575 14.0366 12.584 13.9819 12.6184 13.9466L12.6664 13.9676C12.7369 14.1168 12.9176 14.1558 12.9543 14.3109C12.925 14.254 12.8471 14.3897 12.8238 14.2712C12.8403 14.2765 12.8411 14.2607 12.8583 14.2652C12.7054 14.0913 12.7099 14.236 12.536 14.119C12.6619 14.1947 12.8014 14.3012 12.9041 14.4099C12.9018 14.4121 12.9003 14.4099 12.8981 14.4121C12.9738 14.5133 12.8883 14.5193 12.8193 14.5298C12.8951 14.5846 12.9348 14.5343 12.9828 14.4916C12.9843 14.4931 12.9873 14.4954 12.9888 14.4969C13.0023 14.4714 13.0165 14.4646 13.0307 14.4624L13.0367 14.4601C13.0465 14.4601 13.0585 14.4676 13.069 14.4736C13.0885 14.5268 13.1979 14.6213 13.0817 14.6393C13.1597 14.724 13.2684 14.6475 13.3119 14.7225C13.2661 14.7487 13.2092 14.7832 13.1679 14.8349C13.2054 14.8117 13.2459 14.9241 13.2586 14.9406C13.2616 14.9107 13.3651 14.8942 13.2669 14.8492C13.3568 14.7982 13.44 15.0104 13.4963 14.9481C13.4206 15.0351 13.6342 15.1146 13.6754 15.2195C13.8628 15.0261 13.4603 15.1565 13.5952 14.9781C13.6177 14.9826 13.6409 14.9999 13.6642 15.0126C13.6649 15.0373 13.6717 15.0636 13.6567 15.0853C13.7504 15.161 13.8374 15.1243 13.9116 15.227C13.8763 15.248 13.8441 15.2382 13.8261 15.2487C13.9003 15.3424 13.9963 15.4339 14.0877 15.5268C14.0832 15.5313 14.0765 15.5328 14.0727 15.5396C14.0937 15.5516 14.1132 15.5688 14.1342 15.5793C14.2024 15.6513 14.2556 15.7292 14.3066 15.808C14.3044 15.9062 14.2849 16.0111 14.4153 16.0786C14.4483 16.0134 14.4595 15.9886 14.4506 15.9459C14.4873 15.9706 14.524 15.9946 14.5593 16.0164C14.5682 16.0284 14.5772 16.0411 14.5877 16.0516C14.5945 16.0501 14.5945 16.0448 14.599 16.0418C14.6237 16.0568 14.65 16.0621 14.6747 16.0741C14.6709 16.0801 14.6762 16.0876 14.6687 16.0913L14.653 16.0868C14.8651 16.1805 14.6125 16.341 14.8666 16.3529C14.8868 16.3117 14.8179 16.323 14.8059 16.272C14.8246 16.2165 14.9176 16.2195 14.9978 16.2405C14.9858 16.29 15.012 16.3335 15.057 16.3724C15.0188 16.3417 14.976 16.2967 14.9378 16.311L15.0458 16.4362L15.0323 16.4024L15.1095 16.4249C15.1657 16.4714 15.2114 16.5171 15.1575 16.5696C15.2227 16.5606 15.3726 16.7533 15.5023 16.7518C15.4633 16.82 15.3726 16.6963 15.3366 16.7338L15.4318 16.7945L15.3951 16.8312C15.4318 16.8867 15.4746 16.9092 15.5188 16.9219C15.5645 16.9969 15.6582 16.9991 15.7332 17.0291L15.6949 17.0344C15.7174 17.0516 15.7452 17.0524 15.7692 17.0606C15.7879 17.0763 15.8096 17.0868 15.8186 17.1176C15.7812 17.1536 15.7272 17.185 15.6815 17.1243C15.6777 17.17 15.8651 17.1625 15.9056 17.284C15.9093 17.2383 15.9371 17.1221 16.051 17.1708L16.0533 17.1948L16.0473 17.2068L16.0548 17.209L16.0683 17.3635C16.1747 17.5036 16.2092 17.3102 16.3561 17.3702L16.3546 17.3372C16.4019 17.3635 16.4491 17.3859 16.5008 17.3769C16.5293 17.4339 16.4498 17.5861 16.5855 17.5629L16.5668 17.5786C16.5135 17.5868 16.4581 17.5913 16.4018 17.5988C16.3711 17.5336 16.4453 17.5096 16.2962 17.4272C16.2872 17.4886 16.3014 17.5516 16.3261 17.6153C16.2849 17.6311 16.2452 17.6558 16.2084 17.7015C16.3681 17.811 16.6102 17.9609 16.6485 18.0966C16.6837 18.1146 16.7144 18.1191 16.7444 18.1206C16.7624 18.1371 16.7834 18.1558 16.8007 18.1723C17.0428 18.2623 17.1935 18.6588 17.4356 18.5584L17.3479 18.6108L17.569 18.9497C17.8359 19.1588 18.0271 19.4572 18.3037 19.5426L18.2947 19.6513C18.6792 19.6416 19.0151 20.2083 19.3756 20.0944C19.4289 20.254 19.2542 20.1528 19.201 20.1843C19.243 20.2533 19.3944 20.2645 19.4701 20.3275C19.4634 20.332 19.4634 20.3425 19.4566 20.3462C19.4739 20.3485 19.4791 20.3575 19.4933 20.3612C19.5061 20.383 19.5196 20.4047 19.5136 20.4399C19.4776 20.4767 19.3697 20.3642 19.3966 20.4355C19.3861 20.5599 19.5458 20.4497 19.5338 20.5899C19.5503 20.5524 19.5938 20.5412 19.6448 20.5397C19.6583 20.5996 19.6703 20.6603 19.7137 20.7038C19.8397 20.7413 19.7782 20.6334 19.7835 20.5636C19.8262 20.5794 19.8667 20.5981 19.8989 20.6214C19.8839 20.6011 19.8839 20.6011 19.8846 20.5861C19.8876 20.5809 19.8914 20.5869 19.8944 20.5839C19.9259 20.6064 19.9641 20.6214 19.9918 20.6296C19.9701 20.6281 19.9484 20.6064 19.9274 20.5771C19.9619 20.5801 19.9986 20.6094 20.0316 20.6311C20.0316 20.6311 20.0143 20.6416 19.9978 20.6364C20.0563 20.6776 20.1148 20.7323 20.174 20.7758C20.1455 20.7795 20.1005 20.7608 20.0653 20.7608C20.0241 20.8418 20.1965 20.8148 20.1373 20.907C20.0653 20.9482 20.0736 20.8575 20.0241 20.8418L20.27 21.1341C20.2325 21.1693 20.1523 21.1154 20.1238 21.0591C20.1643 21.1813 20.2452 21.2196 20.4686 21.1918C20.5256 21.3185 20.5796 21.4744 20.4934 21.4962C20.5593 21.5157 20.5646 21.455 20.6021 21.419C20.7085 21.5592 20.8539 21.446 20.9326 21.5164L20.9431 21.4017C20.9491 21.4077 20.9544 21.4145 20.9604 21.4205C20.9716 21.4422 20.9836 21.461 20.9979 21.4602C21.0241 21.4849 21.0458 21.5142 21.0721 21.5397C21.0158 21.5884 20.9574 21.6356 20.9161 21.6993C21.0061 21.6476 21.0114 21.775 21.0586 21.8193C21.1013 21.7226 21.2257 21.853 21.2212 21.7113C21.2325 21.7143 21.2362 21.7203 21.2452 21.7248C21.3787 21.865 21.5249 21.9954 21.6395 22.1454L21.4934 22.1004C21.6073 22.1356 21.7108 22.2945 21.7392 22.3508L21.7228 22.3455C21.728 22.3905 21.7445 22.4077 21.7602 22.4295C21.755 22.4392 21.7595 22.4497 21.7497 22.461C21.7872 22.4527 21.812 22.4632 21.8329 22.482C21.8337 22.4827 21.8352 22.4835 21.8359 22.4835C21.8787 22.5247 21.8967 22.6004 21.9424 22.6296C22.1006 22.7923 22.0893 23.0014 22.309 23.1004C22.3959 23.2713 22.3247 23.3125 22.3629 23.4527C22.4402 23.5247 22.5429 23.4917 22.5608 23.4812L22.5309 23.4392C22.5563 23.3365 22.6628 23.464 22.7438 23.4895C22.806 23.3485 22.9851 23.2128 22.9402 22.9587C22.8839 22.9295 22.8839 22.88 22.8914 22.8275C22.9012 22.8283 22.9139 22.8388 22.9222 22.838C22.9162 22.8365 22.9034 22.8313 22.8922 22.826C22.8937 22.8163 22.8929 22.8073 22.8952 22.7975C22.9791 22.8223 23.0953 22.8538 23.1268 22.8358C22.9926 22.811 23.1058 22.6889 22.9544 22.6754C22.9896 22.6544 23.0616 22.6131 23.0901 22.6686C23.0848 22.5419 23.0046 22.4872 23.0474 22.3905C23.0519 22.4977 23.1665 22.4587 23.1898 22.4602C23.1583 22.3897 23.0354 22.3088 22.9701 22.3058C23.0826 22.1821 22.7475 22.1304 22.9394 22.0779C22.8854 22.1086 22.8067 22.0382 22.7955 21.9722C22.851 21.9265 22.9799 21.9954 23.0841 21.9797C23.3435 22.1184 22.9919 22.0607 23.0009 22.1424L23.1643 22.2825C23.1658 22.2511 23.3097 22.2616 23.2025 22.1709C23.324 22.1439 23.4731 22.1873 23.4949 22.3193C23.5481 22.3035 23.4844 22.2533 23.4687 22.2338C23.5219 22.2173 23.7453 22.1896 23.6381 22.0494Z" fill="#00A3DF"/>
</g>
<path fill-rule="evenodd" clip-rule="evenodd" d="M14.0721 15.5404C14.0721 15.5396 14.0728 15.5396 14.0728 15.5396C14.0676 15.5359 14.0631 15.5329 14.0578 15.5291C14.0638 15.5329 14.0661 15.5366 14.0721 15.5404Z" fill="#00A3DF"/>
<path fill-rule="evenodd" clip-rule="evenodd" d="M13.7887 15.2849C13.8442 15.3786 13.9499 15.4625 14.0578 15.5292C13.9154 15.4393 13.9297 15.3568 13.7887 15.2849Z" fill="#00A3DF"/>
<path fill-rule="evenodd" clip-rule="evenodd" d="M19.8814 18.3178C19.8806 18.3171 19.8806 18.3163 19.8799 18.3156C19.8799 18.3163 19.8799 18.3171 19.8791 18.3178C19.8799 18.3178 19.8806 18.3171 19.8814 18.3178Z" fill="#00A3DF"/>
<path fill-rule="evenodd" clip-rule="evenodd" d="M22.5391 21.7476C22.5354 21.7409 22.5324 21.7349 22.5279 21.7296L22.5249 21.7671C22.5264 21.7551 22.5316 21.7491 22.5391 21.7476Z" fill="#00A3DF"/>
</svg>
