<svg width="29" height="32" viewBox="0 0 29 32" fill="none" xmlns="http://www.w3.org/2000/svg">
<path fill-rule="evenodd" clip-rule="evenodd" d="M27.7525 1.28917C28.3603 1.85206 28.3967 2.80111 27.8338 3.40893L16.2076 15.9631L27.834 28.5174C28.3969 29.1252 28.3605 30.0743 27.7527 30.6372C27.1448 31.2001 26.1958 31.1636 25.6329 30.5558L14.1631 18.1707L2.69333 30.5558C2.13044 31.1636 1.18139 31.2001 0.57357 30.6372C-0.0342473 30.0743 -0.0706637 29.1252 0.492231 28.5174L12.1187 15.9631L0.492388 3.40893C-0.0705059 2.80111 -0.0340895 1.85206 0.573728 1.28917C1.18154 0.726272 2.13059 0.762689 2.69349 1.37051L14.1631 13.7555L25.6327 1.37051C26.1956 0.762689 27.1447 0.726272 27.7525 1.28917Z" fill="#0C1C34"/>
</svg>
