<svg width="18" height="19" viewBox="0 0 18 19" fill="none" xmlns="http://www.w3.org/2000/svg">
<ellipse cx="9.17994" cy="9.68999" rx="7.74" ry="8.17" fill="#1C2D49"/>
<mask id="path-2-inside-1_6_195" fill="white">
<path fill-rule="evenodd" clip-rule="evenodd" d="M5.99693 6.33013C5.83126 6.50499 5.83126 6.78851 5.99693 6.96338L8.6966 9.81303L5.99693 12.6627C5.83126 12.8375 5.83126 13.1211 5.99693 13.2959C6.16259 13.4708 6.43119 13.4708 6.59686 13.2959L9.29652 10.4463L11.9962 13.2959C12.1619 13.4708 12.4304 13.4708 12.5961 13.2959C12.7618 13.1211 12.7618 12.8375 12.5961 12.6627L9.89645 9.81303L12.5961 6.96338C12.7618 6.78851 12.7618 6.50499 12.5961 6.33013C12.4304 6.15526 12.1619 6.15526 11.9962 6.33013L9.29652 9.17977L6.59686 6.33013C6.43119 6.15526 6.16259 6.15526 5.99693 6.33013Z"/>
</mask>
<path fill-rule="evenodd" clip-rule="evenodd" d="M5.99693 6.33013C5.83126 6.50499 5.83126 6.78851 5.99693 6.96338L8.6966 9.81303L5.99693 12.6627C5.83126 12.8375 5.83126 13.1211 5.99693 13.2959C6.16259 13.4708 6.43119 13.4708 6.59686 13.2959L9.29652 10.4463L11.9962 13.2959C12.1619 13.4708 12.4304 13.4708 12.5961 13.2959C12.7618 13.1211 12.7618 12.8375 12.5961 12.6627L9.89645 9.81303L12.5961 6.96338C12.7618 6.78851 12.7618 6.50499 12.5961 6.33013C12.4304 6.15526 12.1619 6.15526 11.9962 6.33013L9.29652 9.17977L6.59686 6.33013C6.43119 6.15526 6.16259 6.15526 5.99693 6.33013Z" fill="white"/>
<path d="M5.99693 6.96338L6.72288 6.27564L6.72288 6.27564L5.99693 6.96338ZM5.99693 6.33013L5.27098 5.64238L5.27098 5.64238L5.99693 6.33013ZM8.6966 9.81303L9.42255 10.5008L10.0741 9.81303L9.42255 9.12528L8.6966 9.81303ZM5.99693 12.6627L5.27098 11.9749L5.27098 11.9749L5.99693 12.6627ZM5.99693 13.2959L5.27098 13.9837L5.27098 13.9837L5.99693 13.2959ZM6.59686 13.2959L7.32281 13.9837L7.32281 13.9837L6.59686 13.2959ZM9.29652 10.4463L10.0225 9.75854L9.29652 8.99225L8.57057 9.75854L9.29652 10.4463ZM11.9962 13.2959L12.7221 12.6082L12.7221 12.6082L11.9962 13.2959ZM12.5961 12.6627L13.3221 11.9749L13.3221 11.9749L12.5961 12.6627ZM9.89645 9.81303L9.17049 9.12528L8.51895 9.81303L9.17049 10.5008L9.89645 9.81303ZM12.5961 6.96338L13.3221 7.65113L13.3221 7.65112L12.5961 6.96338ZM12.5961 6.33013L13.3221 5.64238L13.3221 5.64238L12.5961 6.33013ZM11.9962 6.33013L11.2702 5.64238L11.2702 5.64238L11.9962 6.33013ZM9.29652 9.17977L8.57057 9.86752L9.29652 10.6338L10.0225 9.86752L9.29652 9.17977ZM6.59686 6.33013L7.32281 5.64238L7.32281 5.64238L6.59686 6.33013ZM6.72288 6.27564C6.92261 6.48646 6.92261 6.80704 6.72288 7.01787L5.27098 5.64238C4.73992 6.20295 4.73992 7.09056 5.27098 7.65113L6.72288 6.27564ZM9.42255 9.12528L6.72288 6.27564L5.27098 7.65113L7.97064 10.5008L9.42255 9.12528ZM6.72288 13.3504L9.42255 10.5008L7.97064 9.12528L5.27098 11.9749L6.72288 13.3504ZM6.72288 12.6082C6.92261 12.819 6.92261 13.1396 6.72288 13.3504L5.27098 11.9749C4.73992 12.5355 4.73992 13.4231 5.27098 13.9837L6.72288 12.6082ZM5.8709 12.6082C6.09967 12.3667 6.49412 12.3667 6.72288 12.6082L5.27098 13.9837C5.83107 14.5749 6.76272 14.5749 7.32281 13.9837L5.8709 12.6082ZM8.57057 9.75854L5.8709 12.6082L7.32281 13.9837L10.0225 11.134L8.57057 9.75854ZM12.7221 12.6082L10.0225 9.75854L8.57057 11.134L11.2702 13.9837L12.7221 12.6082ZM11.8702 12.6082C12.0989 12.3667 12.4934 12.3667 12.7221 12.6082L11.2702 13.9837C11.8303 14.5749 12.762 14.5749 13.3221 13.9837L11.8702 12.6082ZM11.8702 13.3504C11.6704 13.1396 11.6704 12.819 11.8702 12.6082L13.3221 13.9837C13.8531 13.4231 13.8531 12.5355 13.3221 11.9749L11.8702 13.3504ZM9.17049 10.5008L11.8702 13.3504L13.3221 11.9749L10.6224 9.12528L9.17049 10.5008ZM11.8702 6.27564L9.17049 9.12528L10.6224 10.5008L13.3221 7.65113L11.8702 6.27564ZM11.8702 7.01787C11.6704 6.80704 11.6704 6.48646 11.8702 6.27564L13.3221 7.65112C13.8531 7.09056 13.8531 6.20295 13.3221 5.64238L11.8702 7.01787ZM12.7221 7.01787C12.4934 7.25934 12.0989 7.25934 11.8702 7.01787L13.3221 5.64238C12.762 5.05117 11.8303 5.05117 11.2702 5.64238L12.7221 7.01787ZM10.0225 9.86752L12.7221 7.01787L11.2702 5.64238L8.57057 8.49203L10.0225 9.86752ZM5.8709 7.01787L8.57057 9.86752L10.0225 8.49203L7.32281 5.64238L5.8709 7.01787ZM6.72288 7.01787C6.49412 7.25934 6.09967 7.25934 5.8709 7.01787L7.32281 5.64238C6.76271 5.05117 5.83107 5.05117 5.27098 5.64238L6.72288 7.01787Z" fill="#ECECEC" mask="url(#path-2-inside-1_6_195)"/>
</svg>
