<svg width="51" height="51" viewBox="0 0 51 51" fill="none" xmlns="http://www.w3.org/2000/svg">
<g filter="url(#filter0_d_0_551)">
<circle cx="25.019" cy="23.9663" r="14.9927" fill="white"/>
</g>
<path fill-rule="evenodd" clip-rule="evenodd" d="M30.4741 17.8008C30.795 17.4799 31.3153 17.4799 31.6362 17.8008V17.8008C31.9571 18.1217 31.9571 18.6419 31.6362 18.9628L20.0154 30.5836C19.6945 30.9045 19.1742 30.9045 18.8533 30.5836V30.5836C18.5324 30.2627 18.5324 29.7425 18.8533 29.4216L30.4741 17.8008Z" fill="#00A3DF"/>
<path fill-rule="evenodd" clip-rule="evenodd" d="M18.8535 18.9626C18.5326 18.6417 18.5326 18.1215 18.8535 17.8006V17.8006C19.1744 17.4797 19.6947 17.4797 20.0156 17.8006L31.6364 29.4213C31.9573 29.7422 31.9573 30.2625 31.6364 30.5834V30.5834C31.3155 30.9043 30.7952 30.9043 30.4743 30.5834L18.8535 18.9626Z" fill="#00A3DF"/>
<defs>
<filter id="filter0_d_0_551" x="0.0263672" y="0.973633" width="49.9854" height="49.9854" filterUnits="userSpaceOnUse" color-interpolation-filters="sRGB">
<feFlood flood-opacity="0" result="BackgroundImageFix"/>
<feColorMatrix in="SourceAlpha" type="matrix" values="0 0 0 0 0 0 0 0 0 0 0 0 0 0 0 0 0 0 127 0" result="hardAlpha"/>
<feOffset dy="2"/>
<feGaussianBlur stdDeviation="5"/>
<feColorMatrix type="matrix" values="0 0 0 0 0 0 0 0 0 0.639216 0 0 0 0 0.87451 0 0 0 0.203663 0"/>
<feBlend mode="normal" in2="BackgroundImageFix" result="effect1_dropShadow_0_551"/>
<feBlend mode="normal" in="SourceGraphic" in2="effect1_dropShadow_0_551" result="shape"/>
</filter>
</defs>
</svg>
