<svg width="24" height="24" viewBox="0 0 24 24"
  xmlns="http://www.w3.org/2000/svg">
  <path class="" opacity="1" fill="currentColor" fill-rule="evenodd" clip-rule="evenodd" d="M12.9374 2.21429L12.9423 2.22994V2.21429H14.5244V2.22994L14.5292 2.21429L15.2514 4.61786L16.2052 4.87936L17.9122 3.26145L17.9086 3.27742L17.9164 3.26392L19.2866 4.06686L19.2789 4.08053L19.2908 4.06934L18.7466 6.45429L19.3517 7.00578L21.6665 6.46153L21.6557 6.47372L21.6691 6.46581L22.4601 7.85664L22.4467 7.86455L22.4625 7.86092L20.8306 9.63478L21.0456 10.4323L21.0504 10.4812L23.1427 11.1289L23.1272 11.1338H23.1385V12.7397H23.1272L23.1427 12.7446L21.0506 13.3923L21.0456 13.4414L20.7649 14.4398L22.2495 16.0781L22.2337 16.0745L22.2434 16.0802L21.442 17.465L21.4322 17.459L21.4432 17.4714L19.2706 16.943L18.9782 17.2787L18.6503 17.559L19.123 19.6357L19.1111 19.6246L19.1167 19.6345L17.7462 20.4368L17.7405 20.4269L17.7441 20.4429L16.2244 19.001L16.2205 19.0027C15.872 19.1236 15.5119 19.2187 15.1421 19.2858L15.1394 19.2859L14.5292 21.3163L14.5244 21.3007V21.3121H12.9423V21.3007L12.9374 21.3163L12.3074 19.2197L11.6531 19.0667L11.5568 19.0239L9.88136 20.6122L9.88491 20.5961L9.87926 20.6061L8.509 19.803L8.51466 19.7931L8.5027 19.8043L9.01657 17.5527L8.89497 17.463L8.39273 16.8883L6.16496 17.4119L6.17594 17.3998L6.16608 17.4055L5.37511 16.0147L5.3848 16.0091L5.36897 16.0126L6.76506 14.4953H9.02013L9.1989 14.8297C10.1645 16.2805 11.7996 17.2343 13.6541 17.2343C16.6215 17.2343 19.0271 14.7925 19.0271 11.7805C19.0271 8.76844 16.6215 6.32683 13.6541 6.32683C11.7996 6.32683 10.1645 7.28062 9.1989 8.73122L8.79049 9.49497H6.75715L5.21716 7.79555L5.23299 7.79917L5.21959 7.79127L6.02107 6.40653L6.03447 6.41444L6.02349 6.40225L8.39774 6.97959L8.89497 6.41065L8.91322 6.39731L8.34348 3.89494L8.35559 3.90598L8.34783 3.89231L9.71841 3.09019L9.72617 3.10369L9.72261 3.08772L11.5722 4.8428L11.6531 4.8069L12.1967 4.67977L12.9374 2.21429Z" />
  <path class="text-abbvie-medium-gray" opacity="1" stroke="currentColor" stroke-miterlimit="8" d="M2.42972 15.4411H4.44077L6.08443 13.7254H9.80455L10.0815 14.2512C10.857 15.4338 12.1702 16.2114 13.6598 16.2114C16.0431 16.2114 17.9752 14.2209 17.9752 11.7653C17.9752 9.30966 16.0431 7.31909 13.6598 7.31909C11.8724 7.31909 10.3388 8.43886 9.68359 10.0345L9.64193 10.2478H6.08443L4.44077 8.53207H2.42972M0.857117 8.55414C0.857117 8.05386 1.25471 7.64844 1.74532 7.64844C2.23593 7.64844 2.63352 8.05386 2.63352 8.55414C2.63352 9.05441 2.23593 9.45984 1.74532 9.45984C1.25471 9.45984 0.857117 9.05441 0.857117 8.55414ZM0.857117 15.3057C0.857117 14.8054 1.25471 14.4 1.74532 14.4C2.23593 14.4 2.63352 14.8054 2.63352 15.3057C2.63352 15.806 2.23593 16.2114 1.74532 16.2114C1.25471 16.2114 0.857117 15.806 0.857117 15.3057Z" />
  <path opacity="1" stroke="currentColor" stroke-miterlimit="8" d="M12.6753 11.9371L4.57114 11.9301M12.6457 11.8477C12.6457 11.3474 13.0433 10.942 13.5339 10.942C14.0245 10.942 14.4221 11.3474 14.4221 11.8477C14.4221 12.348 14.0245 12.7534 13.5339 12.7534C13.0433 12.7534 12.6457 12.348 12.6457 11.8477ZM2.79474 11.8477C2.79474 11.3474 3.19233 10.942 3.68294 10.942C4.17355 10.942 4.57114 11.3474 4.57114 11.8477C4.57114 12.348 4.17355 12.7534 3.68294 12.7534C3.19233 12.7534 2.79474 12.348 2.79474 11.8477Z"/>
</svg>
