<svg xmlns="http://www.w3.org/2000/svg" xmlns:xlink="http://www.w3.org/1999/xlink" width="472.5" height="379.5" viewBox="0 0 472.5 379.5">
  <defs>
    <filter id="Rectangle_Copy_10" x="264" y="20.042" width="111" height="357.831" filterUnits="userSpaceOnUse">
      <feOffset dy="2" input="SourceAlpha"/>
      <feGaussianBlur stdDeviation="4.5" result="blur"/>
      <feFlood flood-color="#00a3df" flood-opacity="0.204"/>
      <feComposite operator="in" in2="blur"/>
      <feComposite in="SourceGraphic"/>
    </filter>
    <filter id="Rectangle" x="170" y="21.127" width="111" height="357.831" filterUnits="userSpaceOnUse">
      <feOffset dy="2" input="SourceAlpha"/>
      <feGaussianBlur stdDeviation="4.5" result="blur-2"/>
      <feFlood flood-color="#00a3df" flood-opacity="0.204"/>
      <feComposite operator="in" in2="blur-2"/>
      <feComposite in="SourceGraphic"/>
    </filter>
    <filter id="Rectangle-2" x="361.5" y="20.584" width="111" height="358.915" filterUnits="userSpaceOnUse">
      <feOffset dy="2" input="SourceAlpha"/>
      <feGaussianBlur stdDeviation="4.5" result="blur-3"/>
      <feFlood flood-color="#00a3df" flood-opacity="0.204"/>
      <feComposite operator="in" in2="blur-3"/>
      <feComposite in="SourceGraphic"/>
    </filter>
    <filter id="Rectangle_Copy_10-2" x="71.5" y="19.5" width="111" height="358.915" filterUnits="userSpaceOnUse">
      <feOffset dy="2" input="SourceAlpha"/>
      <feGaussianBlur stdDeviation="4.5" result="blur-4"/>
      <feFlood flood-color="#00a3df" flood-opacity="0.204"/>
      <feComposite operator="in" in2="blur-4"/>
      <feComposite in="SourceGraphic"/>
    </filter>
  </defs>
  <g id="Group_2" data-name="Group 2" transform="translate(-573.5 4300.813)">
    <g id="Rectangle-3" data-name="Rectangle" transform="translate(658.5 -4300.813)">
      <g transform="matrix(1, 0, 0, 1, -85, 0)" filter="url(#Rectangle_Copy_10)">
        <path id="Rectangle_Copy_10-3" data-name="Rectangle Copy 10" d="M0,0H327.988a2.843,2.843,0,0,1,2.843,2.843V81.157A2.843,2.843,0,0,1,327.988,84H0a0,0,0,0,1,0,0V0A0,0,0,0,1,0,0Z" transform="translate(361.5 31.54) rotate(90)" fill="#fff"/>
      </g>
      <g transform="matrix(1, 0, 0, 1, -85, 0)" filter="url(#Rectangle)">
        <path id="Rectangle-4" data-name="Rectangle" d="M0,0H327.988a2.843,2.843,0,0,1,2.843,2.843V81.157A2.843,2.843,0,0,1,327.988,84H0a0,0,0,0,1,0,0V0A0,0,0,0,1,0,0Z" transform="translate(267.5 32.63) rotate(90)" fill="#fff"/>
      </g>
      <g transform="matrix(1, 0, 0, 1, -85, 0)" filter="url(#Rectangle-2)">
        <path id="Rectangle-5" data-name="Rectangle" d="M0,0H329.073a2.843,2.843,0,0,1,2.843,2.843V81.157A2.843,2.843,0,0,1,329.073,84H0a0,0,0,0,1,0,0V0A0,0,0,0,1,0,0Z" transform="translate(459 32.08) rotate(90)" fill="#fff"/>
      </g>
      <path id="Rectangle_Copy" data-name="Rectangle Copy" d="M2.844,0H369.855A2.844,2.844,0,0,1,372.7,2.844V31a0,0,0,0,1,0,0H0a0,0,0,0,1,0,0V2.844A2.844,2.844,0,0,1,2.844,0Z" transform="translate(1.158)" fill="#10a4de"/>
      <g transform="matrix(1, 0, 0, 1, -85, 0)" filter="url(#Rectangle_Copy_10-2)">
        <path id="Rectangle_Copy_10-4" data-name="Rectangle Copy 10" d="M0,0H329.073a2.843,2.843,0,0,1,2.843,2.843V81.157A2.843,2.843,0,0,1,329.073,84H0a0,0,0,0,1,0,0V0A0,0,0,0,1,0,0Z" transform="translate(169 31) rotate(90)" fill="#fff"/>
      </g>
    </g>
    <g id="Copy" transform="translate(573.5 -4298.813)">
      <g id="Group" transform="translate(108 45)">
        <text id="_n_1_306_" data-name="(n=1,306)" transform="translate(2.329 22.4)" fill="#00a3df" font-size="8" font-family="SegoeUI, Segoe UI"><tspan x="0" y="9">(n=1,306)</tspan></text>
        <text id="_150_mg" data-name="150 mg" transform="translate(0 8.083)" fill="#00a3df" font-size="12" font-family="SegoeUI, Segoe UI"><tspan x="0" y="13">150 </tspan><tspan x="0" y="29">mg</tspan></text>
        <text id="SKYRIZI_" data-name="SKYRIZI®" transform="translate(1 -0.629)" fill="#00a3df" font-size="12" font-family="SegoeUI, Segoe UI"><tspan x="0" y="13">SKYRIZ</tspan><tspan x="0" y="24.371">I</tspan><tspan y="24.371" font-size="7.5">®</tspan></text>
      </g>
      <text id="a" transform="translate(143.242 53.575)" fill="#00a3df" font-size="7.584" font-family="SegoeUI, Segoe UI" letter-spacing="0.002em"><tspan x="0" y="8">a</tspan></text>
      <g id="Group_3" data-name="Group 3" transform="translate(299 42)">
        <text id="_n_304_" data-name="(n=304)" transform="translate(2 24)" fill="#50535a" font-size="7.584" font-family="SegoeUI, Segoe UI"><tspan x="0" y="0">(n=304)</tspan></text>
        <text id="HUMIRA" transform="translate(0 2.371)" fill="#a58576" font-size="12" font-family="SegoeUI, Segoe UI"><tspan x="0" y="13">HUMIR</tspan><tspan x="0" y="24.371">A</tspan></text>
        <text id="d" transform="translate(38)" fill="#a58576" font-size="7.584" font-family="SegoeUI, Segoe UI" letter-spacing="0.002em"><tspan x="0" y="8">d</tspan></text>
      </g>
      <g id="Group_2-2" data-name="Group 2" transform="translate(192 42)">
        <text id="Ustekinumab" fill="#208e6f" font-size="12" font-family="SegoeUI, Segoe UI"><tspan x="0" y="13">Ustekinum</tspan><tspan x="0" y="29">ab</tspan></text>
        <text id="_n_239_" data-name="(n=239)" transform="translate(1 16)" fill="#50535a" font-size="7.584" font-family="SegoeUI, Segoe UI"><tspan x="0" y="8">(n=239</tspan><tspan x="0" y="18">)</tspan></text>
        <text id="b_c" data-name="b,c" transform="translate(60)" fill="#208e6f" font-size="7.584" font-family="SegoeUI, Segoe UI" letter-spacing="0.002em"><tspan x="0" y="8">b,c</tspan></text>
      </g>
      <g id="Group_4" data-name="Group 4" transform="translate(401 42)">
        <text id="Placebo" fill="#50535a" font-size="12" font-family="SegoeUI, Segoe UI"><tspan x="0" y="13">Placeb</tspan><tspan x="0" y="29">o</tspan></text>
        <text id="_n_300_" data-name="(n=300)" transform="translate(0 16)" fill="#50535a" font-size="7.584" font-family="SegoeUI, Segoe UI"><tspan x="0" y="8">(n=300)</tspan></text>
        <text id="e" transform="translate(35)" fill="#50535a" font-size="7.584" font-family="SegoeUI, Segoe UI" letter-spacing="0.002em"><tspan x="0" y="8">e</tspan></text>
      </g>
      <text id="Any_Serious_Adverse" data-name="Any Serious Adverse" transform="translate(9 96)" fill="#666" font-size="9" font-family="SegoeUI, Segoe UI"><tspan x="-46.701" y="10">Any Serious </tspan><tspan x="-55.956" y="22">Adverse Event</tspan></text>
      <text id="Any_Infection_Copy" data-name="Any Infection Copy" transform="translate(27 141)" fill="#666" font-size="9" font-family="SegoeUI, Segoe UI" letter-spacing="0.002em"><tspan x="0" y="10">Any </tspan><tspan x="0" y="22">Infection</tspan></text>
      <text id="Any_Serious_Infection_Copy" data-name="Any Serious Infection Copy" transform="translate(0 181)" fill="#666" font-size="9" font-family="SegoeUI, Segoe UI"><tspan x="0" y="10">Any Serious </tspan><tspan x="0" y="22">Infection</tspan></text>
      <text id="Any_Malignancy_Copy" data-name="Any Malignancy Copy" transform="translate(17 220)" fill="#666" font-size="9" font-family="SegoeUI, Segoe UI" letter-spacing="0.002em"><tspan x="0" y="10">Any </tspan><tspan x="0" y="22">Malignancy</tspan></text>
      <text id="Depression" transform="translate(32 261)" fill="#666" font-size="9" font-family="SegoeUI, Segoe UI"><tspan x="0" y="10">Depressi</tspan><tspan x="0" y="22">on</tspan></text>
      <text id="IBD" transform="translate(57 301)" fill="#666" font-size="9" font-family="SegoeUI, Segoe UI" letter-spacing="0.002em"><tspan x="0" y="10">IB</tspan><tspan x="0" y="22">D</tspan></text>
      <text id="Candidiasis" transform="translate(29 335)" fill="#666" font-size="9" font-family="SegoeUI, Segoe UI" letter-spacing="0.002em"><tspan x="0" y="10">Candidiasi</tspan><tspan x="0" y="22">s</tspan></text>
      <text id="_2.4_" data-name="2.4%" transform="translate(115 105.169)" fill="#00a3df" font-size="12.325" font-family="SegoeUI, Segoe UI"><tspan x="0" y="13">2.4%</tspan></text>
      <text id="_3.0_" data-name="3.0%" transform="translate(306 104.226)" fill="#a58576" font-size="12.325" font-family="SegoeUI, Segoe UI"><tspan x="0" y="13">3.0%</tspan></text>
      <text id="_24.3_" data-name="24.3%" transform="translate(303 143.615)" fill="#a58576" font-size="12.325" font-family="SegoeUI, Segoe UI"><tspan x="0" y="13">24.3%</tspan></text>
      <text id="_0.3_" data-name="0.3%" transform="translate(306 183.005)" fill="#a58576" font-size="12.325" font-family="SegoeUI, Segoe UI"><tspan x="0" y="13">0.3%</tspan></text>
      <text id="_0.3_2" data-name="0.3%" transform="translate(303 222.395)" fill="#a58576" font-size="12.325" font-family="SegoeUI, Segoe UI"><tspan x="-13.023" y="13">0.3%</tspan></text>
      <text id="_0.3_3" data-name="0.3%" transform="translate(306 260.553)" fill="#a58576" font-size="12.325" font-family="SegoeUI, Segoe UI"><tspan x="0" y="13">0.3%</tspan></text>
      <text id="_0.0_" data-name="0.0%" transform="translate(306 301.943)" fill="#a58576" font-size="12.325" font-family="SegoeUI, Segoe UI"><tspan x="0" y="13">0.0%</tspan></text>
      <text id="_0.7_" data-name="0.7%" transform="translate(307 337.943)" fill="#a58576" font-size="12.325" font-family="SegoeUI, Segoe UI"><tspan x="0" y="13">0.7%</tspan></text>
      <text id="_22.1_" data-name="22.1%" transform="translate(111 144.169)" fill="#00a3df" font-size="12.325" font-family="SegoeUI, Segoe UI"><tspan x="0" y="13">22.1%</tspan></text>
      <text id="_0.4_" data-name="0.4%" transform="translate(115 182.169)" fill="#00a3df" font-size="12.325" font-family="SegoeUI, Segoe UI"><tspan x="0" y="13">0.4%</tspan></text>
      <text id="_5.0_" data-name="5.0%" transform="translate(213 105.169)" fill="#208e6f" font-size="12.325" font-family="SegoeUI, Segoe UI"><tspan x="0" y="13">5.0%</tspan></text>
      <text id="_4.0_" data-name="4.0%" transform="translate(404 105.229)" fill="#50535a" font-size="12.325" font-family="SegoeUI, Segoe UI"><tspan x="-13.023" y="13">4.0%</tspan></text>
      <text id="_14.7_" data-name="14.7%" transform="translate(400 144.601)" fill="#50535a" font-size="12.325" font-family="SegoeUI, Segoe UI"><tspan x="-16.345" y="13">14.7%</tspan></text>
      <text id="_0.3_4" data-name="0.3%" transform="translate(404 183.972)" fill="#50535a" font-size="12.325" font-family="SegoeUI, Segoe UI"><tspan x="-13.023" y="13">0.3%</tspan></text>
      <text id="_0.3_5" data-name="0.3%" transform="translate(404 223.344)" fill="#50535a" font-size="12.325" font-family="SegoeUI, Segoe UI"><tspan x="-13.023" y="13">0.3%</tspan></text>
      <text id="_0.7_2" data-name="0.7%" transform="translate(404 261.485)" fill="#50535a" font-size="12.325" font-family="SegoeUI, Segoe UI"><tspan x="-13.023" y="13">0.7%</tspan></text>
      <text id="_0.0_2" data-name="0.0%" transform="translate(397 301.94)" fill="#50535a" font-size="12.325" font-family="SegoeUI, Segoe UI"><tspan x="-13.023" y="13">0.0%</tspan></text>
      <text id="_0.0_3" data-name="0.0%" transform="translate(398 337.94)" fill="#50535a" font-size="12.325" font-family="SegoeUI, Segoe UI"><tspan x="-13.023" y="13">0.0%</tspan></text>
      <text id="_20.9_" data-name="20.9%" transform="translate(209 144.169)" fill="#208e6f" font-size="12.325" font-family="SegoeUI, Segoe UI"><tspan x="0" y="13">20.9%</tspan></text>
      <text id="_2.1_" data-name="2.1%" transform="translate(213 184.169)" fill="#208e6f" font-size="12.325" font-family="SegoeUI, Segoe UI"><tspan x="0" y="13">2.1%</tspan></text>
      <text id="_0.5_" data-name="0.5%" transform="translate(111 223.169)" fill="#00a3df" font-size="12.325" font-family="SegoeUI, Segoe UI"><tspan x="-13.023" y="13">0.5%</tspan></text>
      <text id="_0.0_4" data-name="0.0%" transform="translate(209 223.169)" fill="#208e6f" font-size="12.325" font-family="SegoeUI, Segoe UI"><tspan x="-13.023" y="13">0.0%</tspan></text>
      <text id="_0.3_6" data-name="0.3%" transform="translate(115 261.169)" fill="#00a3df" font-size="12.325" font-family="SegoeUI, Segoe UI"><tspan x="0" y="13">0.3%</tspan></text>
      <text id="_0.8_" data-name="0.8%" transform="translate(213 261.169)" fill="#208e6f" font-size="12.325" font-family="SegoeUI, Segoe UI"><tspan x="0" y="13">0.8%</tspan></text>
      <text id="_0.0_5" data-name="0.0%" transform="translate(115 302.169)" fill="#00a3df" font-size="12.325" font-family="SegoeUI, Segoe UI"><tspan x="0" y="13">0.0%</tspan></text>
      <text id="_0.2_" data-name="0.2%" transform="translate(116 338.169)" fill="#00a3df" font-size="12.325" font-family="SegoeUI, Segoe UI"><tspan x="0" y="13">0.2%</tspan></text>
      <text id="_0.0_6" data-name="0.0%" transform="translate(213 302.169)" fill="#208e6f" font-size="12.325" font-family="SegoeUI, Segoe UI"><tspan x="0" y="13">0.0%</tspan></text>
      <text id="_0.0_7" data-name="0.0%" transform="translate(213 338.169)" fill="#208e6f" font-size="12.325" font-family="SegoeUI, Segoe UI"><tspan x="0" y="13">0.0%</tspan></text>
      <text id="Ps_WEEK_16_ACROSS" data-name="Ps (WEEK 16) ACROSS" transform="translate(84.103 2)" fill="#fff" font-size="12" font-family="SegoeUI, Segoe UI" letter-spacing="0.036em"><tspan x="-36.796" y="13">Ps (WEEK 16)</tspan><tspan x="-75.206" y="27">ACROSS 4 PIVOTAL TRIALS</tspan></text>
    </g>
    <g id="Line" transform="translate(683.5 -4210.313)">
      <path id="Line_2_Copy_18" data-name="Line 2 Copy 18" d="M.5,0V37" transform="translate(37 0.5) rotate(90)" fill="none" stroke="rgba(11,147,203,0.2)" stroke-linecap="square" stroke-miterlimit="10" stroke-width="0.711"/>
      <path id="Line_2_Copy_19" data-name="Line 2 Copy 19" d="M.5,0V37" transform="translate(37 39.5) rotate(90)" fill="none" stroke="rgba(11,147,203,0.2)" stroke-linecap="square" stroke-miterlimit="10" stroke-width="0.711"/>
      <path id="Line_2_Copy_18-2" data-name="Line 2 Copy 18" d="M.5,0V37" transform="translate(229 0.5) rotate(90)" fill="none" stroke="rgba(11,147,203,0.2)" stroke-linecap="square" stroke-miterlimit="10" stroke-width="0.711"/>
      <path id="Line_2_Copy_20" data-name="Line 2 Copy 20" d="M.5,0V37" transform="translate(229 38.5) rotate(90)" fill="none" stroke="rgba(11,147,203,0.2)" stroke-linecap="square" stroke-miterlimit="10" stroke-width="0.711"/>
      <path id="Line_2_Copy" data-name="Line 2 Copy" d="M.5,0V38" transform="translate(135.5) rotate(90)" fill="none" stroke="rgba(35,137,106,0.2)" stroke-linecap="square" stroke-miterlimit="10" stroke-width="0.711"/>
      <path id="Line_2_Copy_2" data-name="Line 2 Copy 2" d="M.5,0V38" transform="translate(135.5 39) rotate(90)" fill="none" stroke="rgba(35,137,106,0.2)" stroke-linecap="square" stroke-miterlimit="10" stroke-width="0.711"/>
      <path id="Line_2_Copy-2" data-name="Line 2 Copy" d="M.5,0V38" transform="translate(327.5) rotate(90)" fill="none" stroke="rgba(35,137,106,0.2)" stroke-linecap="square" stroke-miterlimit="10" stroke-width="0.711"/>
      <path id="Line_2_Copy_3" data-name="Line 2 Copy 3" d="M.5,0V38" transform="translate(327.5 38) rotate(90)" fill="none" stroke="rgba(35,137,106,0.2)" stroke-linecap="square" stroke-miterlimit="10" stroke-width="0.711"/>
      <path id="Line_2_Copy_22" data-name="Line 2 Copy 22" d="M.5,0V37" transform="translate(37 79.5) rotate(90)" fill="none" stroke="rgba(11,147,203,0.2)" stroke-linecap="square" stroke-miterlimit="10" stroke-width="0.711"/>
      <path id="Line_2_Copy_21" data-name="Line 2 Copy 21" d="M.5,0V37" transform="translate(229 79.5) rotate(90)" fill="none" stroke="rgba(11,147,203,0.2)" stroke-linecap="square" stroke-miterlimit="10" stroke-width="0.711"/>
      <path id="Line_2_Copy_5" data-name="Line 2 Copy 5" d="M.5,0V38" transform="translate(135.5 79) rotate(90)" fill="none" stroke="rgba(35,137,106,0.2)" stroke-linecap="square" stroke-miterlimit="10" stroke-width="0.711"/>
      <path id="Line_2_Copy_4" data-name="Line 2 Copy 4" d="M.5,0V38" transform="translate(327.5 79) rotate(90)" fill="none" stroke="rgba(35,137,106,0.2)" stroke-linecap="square" stroke-miterlimit="10" stroke-width="0.711"/>
      <path id="Line_2_Copy_24" data-name="Line 2 Copy 24" d="M.5,0V37" transform="translate(37 117.5) rotate(90)" fill="none" stroke="rgba(11,147,203,0.2)" stroke-linecap="square" stroke-miterlimit="10" stroke-width="0.711"/>
      <path id="Line_2_Copy_23" data-name="Line 2 Copy 23" d="M.5,0V37" transform="translate(229 118.5) rotate(90)" fill="none" stroke="rgba(11,147,203,0.2)" stroke-linecap="square" stroke-miterlimit="10" stroke-width="0.711"/>
      <path id="Line_2_Copy_7" data-name="Line 2 Copy 7" d="M.5,0V38" transform="translate(135.5 118) rotate(90)" fill="none" stroke="rgba(35,137,106,0.2)" stroke-linecap="square" stroke-miterlimit="10" stroke-width="0.711"/>
      <path id="Line_2_Copy_6" data-name="Line 2 Copy 6" d="M.5,0V38" transform="translate(327.5 118) rotate(90)" fill="none" stroke="rgba(35,137,106,0.2)" stroke-linecap="square" stroke-miterlimit="10" stroke-width="0.711"/>
      <path id="Line_2_Copy_26" data-name="Line 2 Copy 26" d="M.5,0V37" transform="translate(37 158.5) rotate(90)" fill="none" stroke="rgba(11,147,203,0.2)" stroke-linecap="square" stroke-miterlimit="10" stroke-width="0.711"/>
      <path id="Line_2_Copy_25" data-name="Line 2 Copy 25" d="M.5,0V37" transform="translate(229 157.5) rotate(90)" fill="none" stroke="rgba(11,147,203,0.2)" stroke-linecap="square" stroke-miterlimit="10" stroke-width="0.711"/>
      <path id="Line_2_Copy_9" data-name="Line 2 Copy 9" d="M.5,0V38" transform="translate(135.5 158) rotate(90)" fill="none" stroke="rgba(35,137,106,0.2)" stroke-linecap="square" stroke-miterlimit="10" stroke-width="0.711"/>
      <path id="Line_2_Copy_8" data-name="Line 2 Copy 8" d="M.5,0V38" transform="translate(327.5 158) rotate(90)" fill="none" stroke="rgba(35,137,106,0.2)" stroke-linecap="square" stroke-miterlimit="10" stroke-width="0.711"/>
      <path id="Line_2_Copy_28" data-name="Line 2 Copy 28" d="M.5,0V37" transform="translate(37 197.5) rotate(90)" fill="none" stroke="rgba(11,147,203,0.2)" stroke-linecap="square" stroke-miterlimit="10" stroke-width="0.711"/>
      <path id="Line_2_Copy_31" data-name="Line 2 Copy 31" d="M.5,0V37" transform="translate(37 235.5) rotate(90)" fill="none" stroke="rgba(11,147,203,0.2)" stroke-linecap="square" stroke-miterlimit="10" stroke-width="0.711"/>
      <path id="Line_2_Copy_27" data-name="Line 2 Copy 27" d="M.5,0V37" transform="translate(229 197.5) rotate(90)" fill="none" stroke="rgba(11,147,203,0.2)" stroke-linecap="square" stroke-miterlimit="10" stroke-width="0.711"/>
      <path id="Line_2_Copy_32" data-name="Line 2 Copy 32" d="M.5,0V37" transform="translate(229 235.5) rotate(90)" fill="none" stroke="rgba(11,147,203,0.2)" stroke-linecap="square" stroke-miterlimit="10" stroke-width="0.711"/>
      <path id="Line_2_Copy_11" data-name="Line 2 Copy 11" d="M.5,0V38" transform="translate(135.5 198) rotate(90)" fill="none" stroke="rgba(35,137,106,0.2)" stroke-linecap="square" stroke-miterlimit="10" stroke-width="0.711"/>
      <path id="Line_2_Copy_14" data-name="Line 2 Copy 14" d="M.5,0V38" transform="translate(135.5 236) rotate(90)" fill="none" stroke="rgba(35,137,106,0.2)" stroke-linecap="square" stroke-miterlimit="10" stroke-width="0.711"/>
      <path id="Line_2_Copy_10" data-name="Line 2 Copy 10" d="M.5,0V38" transform="translate(327.5 198) rotate(90)" fill="none" stroke="rgba(35,137,106,0.2)" stroke-linecap="square" stroke-miterlimit="10" stroke-width="0.711"/>
      <path id="Line_2_Copy_15" data-name="Line 2 Copy 15" d="M.5,0V38" transform="translate(327.5 236) rotate(90)" fill="none" stroke="rgba(35,137,106,0.2)" stroke-linecap="square" stroke-miterlimit="10" stroke-width="0.711"/>
    </g>
  </g>
</svg>
