<svg width="950" height="72" viewBox="0 0 950 72" fill="none" xmlns="http://www.w3.org/2000/svg">
<path opacity="0.95" fill-rule="evenodd" clip-rule="evenodd" d="M950 22.2708V20.1769C950 7.99464 942.682 0 929.129 0C908.259 0 906 15.1327 906 34.1676V36.071C906 61.8633 909.433 71 931.478 71C936.177 71 942.953 70.0483 950 68.7158V33.882H928.949V44.4464H936.357V59.6743C934.099 60.5308 931.93 61.0067 929.491 61.0067C921.45 61.0067 919.823 56.1528 919.823 36.3566V34.6434C919.823 20.5576 920.366 10.2788 928.497 10.2788C933.737 10.2788 936.448 13.2292 936.448 21.4142V22.2708H950ZM503.244 3H466V71H504V60.5457H480.274V40.6731H501.448V30.2188H480.274V13.4543H503.244V3ZM523.377 3H509L525.3 71H541.509L559 3H545.355L533.817 52.446H533.634L523.377 3ZM566 3H603.244V13.4543H580.274V30.2188H601.448V40.6731H580.274V60.5457H604V71H566V3ZM612.699 3.44121H638.673C647.736 3.44121 654.556 8.89758 654.556 21.2214C654.556 30.9112 650.352 36.5557 642.036 37.8728V38.0609C649.604 38.7195 654.276 42.5765 654.276 51.4196C654.276 63.6494 655.117 69.5762 655.864 71.3636H642.036C640.822 68.7295 640.541 65.8131 640.541 61.1094V54.2419C640.541 46.0573 637.832 43.2351 630.357 43.2351H626.807V71.3636H612.699V3.44121ZM626.128 13.1444V31.5805H632.376C637.133 31.5805 639.557 27.453 639.557 21.858C639.557 16.0795 637.319 13.1444 632.376 13.1444H626.128ZM658 3H673.221L683.184 31.7258L693.793 3H708L689.365 47.4543V71H675.435V47.4543L658 3ZM757 3H713V14.3019H728.179V71H741.821V14.3019H757V3ZM766 3H779.987V30.2188H796.013V3H810V71H796.013V40.6731H779.987V71H766V3ZM835 3H822V71H835V3ZM845 3H863.924L881.735 50.0914H881.92V3H895V71H876.54L858.265 21.2715H858.08V71H845V3Z" fill="url(#paint0_radial_2_28)"/>
<path opacity="0.95" fill-rule="evenodd" clip-rule="evenodd" d="M337 23.3298V21.3244C337 9.65687 330.014 2.00003 317.078 2.00003C297.156 2.00003 295 16.4933 295 34.7239V36.5469C295 61.2494 298.277 70 319.32 70C323.805 70 330.273 69.0885 337 67.8124V34.4504H316.906V44.5684H323.977V59.1528C321.821 59.9732 319.752 60.429 317.423 60.429C309.747 60.429 308.195 55.7802 308.195 36.8204V35.1797C308.195 21.689 308.713 11.8445 316.474 11.8445C321.476 11.8445 324.064 14.6703 324.064 22.5094V23.3298H337ZM0 3.00003H17.41L33.7959 48.7064H33.9666V3.00003H46V69H29.0167L12.2041 20.7341H12.0334V69H0V3.00003ZM80.5 71C101.05 71 102 56.3244 102 37C102 17.6756 101.05 3.00003 80.5 3.00003C59.9498 3.00003 59 17.6756 59 37C59 56.3244 59.9498 71 80.5 71ZM80.8982 11.8C87.8657 11.8 89.2593 17.877 89.2593 36.2C89.2593 54.523 87.8657 60.6 80.8982 60.6C73.9306 60.6 72.537 54.523 72.537 36.2C72.537 17.877 73.9306 11.8 80.8982 11.8ZM151 3.00003H109V13.9696H123.489V69H136.511V13.9696H151V3.00003ZM159 3.00003H172.034V29.4183H186.966V3.00003H200V69H186.966V39.5651H172.034V69H159V3.00003ZM228 3.00003H214V69H228V3.00003ZM238 3.00003H255.41L271.796 48.7064H271.967V3.00003H284V69H267.017L250.204 20.7341H250.033V69H238V3.00003ZM376 3.00003H390V69H376V3.00003ZM438.227 21.7802V19.4102C438.227 10.3861 435.052 2.00003 420.202 2.00003C406.21 2.00003 399.773 8.38073 399.773 20.5041C399.773 30.5309 406.554 35.6354 413.506 39.9196C421.403 44.7507 425.867 47.5764 425.867 52.681C425.867 57.1475 423.721 60.1555 419.343 60.1555C413.678 60.1555 411.961 56.874 411.961 50.311V48.5791H399V52.681C399 61.614 402.777 70 417.798 70C431.532 70 439 64.7132 439 50.9491C439 39.4638 430.845 34.6327 423.721 30.5309L423.527 30.4202C417.857 27.1854 412.906 24.361 412.906 18.8633C412.906 14.7614 414.966 11.8445 419.601 11.8445C423.721 11.8445 425.609 14.5791 425.609 21.7802H438.227Z" fill="url(#paint1_radial_2_28)"/>
<defs>
<radialGradient id="paint0_radial_2_28" cx="0" cy="0" r="1" gradientUnits="userSpaceOnUse" gradientTransform="translate(708 35.6818) rotate(90) scale(136.626 926.624)">
<stop stop-color="white"/>
<stop offset="1" stop-color="white" stop-opacity="0.740467"/>
</radialGradient>
<radialGradient id="paint1_radial_2_28" cx="0" cy="0" r="1" gradientUnits="userSpaceOnUse" gradientTransform="translate(219.5 36.5) rotate(90) scale(132.101 840.471)">
<stop stop-color="white"/>
<stop offset="1" stop-color="white" stop-opacity="0.740467"/>
</radialGradient>
</defs>
</svg>
