<svg width="50" height="50" viewBox="0 0 50 50" fill="none" xmlns="http://www.w3.org/2000/svg">
<path d="M25 50C29.9445 50 34.778 48.5338 38.8892 45.7867C43.0005 43.0397 46.2048 39.1352 48.097 34.5671C49.9892 29.9989 50.4843 24.9723 49.5196 20.1228C48.555 15.2732 46.174 10.8187 42.6777 7.32234C39.1814 3.82603 34.7268 1.44501 29.8773 0.480379C25.0277 -0.484251 20.0011 0.0108311 15.4329 1.90302C10.8648 3.79521 6.9603 6.99952 4.21327 11.1108C1.46624 15.222 6.43253e-06 20.0555 6.00027e-06 25C5.71325e-06 28.283 0.646646 31.5339 1.90302 34.5671C3.15938 37.6002 5.00087 40.3562 7.32233 42.6777C9.6438 44.9991 12.3998 46.8406 15.4329 48.097C18.466 49.3534 21.7169 50 25 50ZM18.25 23.225L28.25 13.225C28.7156 12.7632 29.3441 12.5028 30 12.5C30.329 12.4981 30.6552 12.5612 30.9598 12.6856C31.2644 12.81 31.5414 12.9933 31.775 13.225C32.0093 13.4574 32.1953 13.7339 32.3222 14.0386C32.4491 14.3432 32.5145 14.67 32.5145 15C32.5145 15.33 32.4491 15.6568 32.3222 15.9615C32.1953 16.2661 32.0093 16.5426 31.775 16.775L23.55 25L31.725 33.225C32.1958 33.6958 32.4602 34.3342 32.4602 35C32.4602 35.3297 32.3953 35.6561 32.2691 35.9606C32.143 36.2652 31.9581 36.5419 31.725 36.775C31.4919 37.0081 31.2152 37.193 30.9106 37.3192C30.6061 37.4453 30.2796 37.5102 29.95 37.5102C29.2842 37.5102 28.6458 37.2458 28.175 36.775L18.175 26.775C17.9455 26.5377 17.7653 26.2573 17.6448 25.9499C17.5243 25.6426 17.4658 25.3144 17.4728 24.9844C17.4797 24.6543 17.552 24.3289 17.6854 24.027C17.8188 23.725 18.0107 23.4524 18.25 23.225Z" fill="#1BA2DA"/>
</svg>
