<svg width="50" height="50" viewBox="0 0 50 50" fill="none" xmlns="http://www.w3.org/2000/svg">
<path d="M25 0C20.0555 0 15.222 1.46622 11.1108 4.21326C6.99952 6.96029 3.79521 10.8648 1.90302 15.4329C0.0108321 20.0011 -0.484251 25.0277 0.480379 29.8773C1.44501 34.7268 3.82603 39.1813 7.32234 42.6777C10.8187 46.174 15.2732 48.555 20.1227 49.5196C24.9723 50.4843 29.9989 49.9892 34.5671 48.097C39.1352 46.2048 43.0397 43.0005 45.7867 38.8892C48.5338 34.778 50 29.9445 50 25C50 21.7169 49.3534 18.466 48.097 15.4329C46.8406 12.3998 44.9991 9.64379 42.6777 7.32233C40.3562 5.00086 37.6002 3.15938 34.5671 1.90301C31.534 0.646644 28.2831 0 25 0ZM31.75 26.775L21.75 36.775C21.2844 37.2369 20.6559 37.4972 20 37.5C19.671 37.5019 19.3448 37.4388 19.0402 37.3144C18.7356 37.19 18.4586 37.0067 18.225 36.775C17.9907 36.5426 17.8047 36.2661 17.6778 35.9614C17.5509 35.6568 17.4855 35.33 17.4855 35C17.4855 34.67 17.5509 34.3432 17.6778 34.0386C17.8047 33.7339 17.9907 33.4574 18.225 33.225L26.45 25L18.275 16.775C17.8042 16.3042 17.5398 15.6658 17.5398 15C17.5398 14.6704 17.6047 14.3439 17.7309 14.0394C17.857 13.7348 18.0419 13.4581 18.275 13.225C18.5081 12.9919 18.7848 12.807 19.0894 12.6808C19.3939 12.5547 19.7204 12.4898 20.05 12.4898C20.7158 12.4898 21.3542 12.7542 21.825 13.225L31.825 23.225C32.0545 23.4623 32.2347 23.7427 32.3552 24.0501C32.4757 24.3574 32.5342 24.6856 32.5272 25.0156C32.5203 25.3457 32.448 25.6711 32.3146 25.973C32.1812 26.275 31.9893 26.5476 31.75 26.775Z" fill="#1BA2DA"/>
</svg>
