<svg width="48" height="48" viewBox="0 0 48 48" fill="none" xmlns="http://www.w3.org/2000/svg">
<g filter="url(#filter0_d_99_86)">
<ellipse cx="24" cy="22.1179" rx="14.22" ry="14.231" transform="rotate(45 24 22.1179)" fill="white"/>
<path d="M33.4586 31.5765C28.2301 36.8051 19.7571 36.8077 14.5336 31.5842C9.31021 26.3608 9.31281 17.8878 14.5414 12.6592C19.7699 7.43066 28.243 7.42806 33.4664 12.6515C38.6898 17.8749 38.6872 26.3479 33.4586 31.5765Z" stroke="#1C2D49" stroke-width="1.68695"/>
</g>
<path fill-rule="evenodd" clip-rule="evenodd" d="M24.0026 13.8444C23.5722 13.8446 23.2234 14.1934 23.2232 14.6238L23.2205 21.6414L16.2029 21.6441C15.7725 21.6443 15.4237 21.9931 15.4235 22.4235C15.4234 22.8543 15.7727 23.2036 16.2035 23.2034L23.2199 23.2007L23.2172 30.2171C23.217 30.6479 23.5663 30.9972 23.9972 30.9971C24.4275 30.9969 24.7764 30.6481 24.7765 30.2177L24.7792 23.2001L31.7968 23.1974C32.2272 23.1973 32.576 22.8484 32.5762 22.4181C32.5764 21.9872 32.2271 21.6379 31.7962 21.6381L24.7798 21.6408L24.7825 14.6244C24.7827 14.1936 24.4334 13.8443 24.0026 13.8444Z" fill="#071D49"/>
<defs>
<filter id="filter0_d_99_86" x="0.774536" y="0.892334" width="46.4509" height="46.4509" filterUnits="userSpaceOnUse" color-interpolation-filters="sRGB">
<feFlood flood-opacity="0" result="BackgroundImageFix"/>
<feColorMatrix in="SourceAlpha" type="matrix" values="0 0 0 0 0 0 0 0 0 0 0 0 0 0 0 0 0 0 127 0" result="hardAlpha"/>
<feOffset dy="2"/>
<feGaussianBlur stdDeviation="4.5"/>
<feColorMatrix type="matrix" values="0 0 0 0 0 0 0 0 0 0.639216 0 0 0 0 0.87451 0 0 0 0.203663 0"/>
<feBlend mode="normal" in2="BackgroundImageFix" result="effect1_dropShadow_99_86"/>
<feBlend mode="normal" in="SourceGraphic" in2="effect1_dropShadow_99_86" result="shape"/>
</filter>
</defs>
</svg>
