<svg width="37" height="4" viewBox="-1 -1 37 4" fill="none" id="svg1250898451_227">
<line y1="1" x2="35" y2="1" stroke="white" stroke-width="2"></line>
<line y1="1" x2="35" y2="1" stroke="white" stroke-width="2"></line>
</svg>
<svg width="32" height="32" viewBox="0 0 32 32" fill="none" id="svg1870756370_1150">
<path d="M30.8575 6.79658C29.7646 7.26801 28.5754 7.6073 27.3504 7.73944C28.6222 6.98385 29.5746 5.79015 30.0289 4.3823C28.8355 5.09226 27.5281 5.5901 26.1646 5.85373C25.5948 5.24453 24.9056 4.75923 24.14 4.42804C23.3744 4.09685 22.5488 3.92688 21.7146 3.92873C18.3396 3.92873 15.6254 6.66444 15.6254 10.0216C15.6254 10.493 15.6825 10.9644 15.7754 11.418C10.7218 11.1537 6.21465 8.73944 3.21822 5.04301C2.67224 5.97557 2.38613 7.03739 2.38965 8.11801C2.38965 10.2323 3.46465 12.0966 5.10393 13.193C4.13788 13.155 3.19444 12.8894 2.35036 12.418V12.493C2.35036 15.4537 4.44322 17.9073 7.23251 18.4716C6.70879 18.6076 6.17003 18.6772 5.62893 18.6787C5.23251 18.6787 4.85751 18.6394 4.47893 18.5859C5.25036 21.0002 7.49679 22.7537 10.1718 22.8109C8.07893 24.4502 5.45751 25.4144 2.61108 25.4144C2.10036 25.4144 1.62893 25.3966 1.13965 25.3394C3.83965 27.0716 7.04322 28.0716 10.4932 28.0716C21.6932 28.0716 27.8218 18.793 27.8218 10.7394C27.8218 10.4752 27.8218 10.2109 27.8039 9.94658C28.9896 9.07873 30.0289 8.00373 30.8575 6.79658Z" fill="white"></path>
</svg>
<svg width="32" height="32" viewBox="0 0 32 32" fill="none" id="svg-1144702201_1628">
<path d="M16 11.2395C13.3786 11.2395 11.2393 13.3788 11.2393 16.0002C11.2393 18.6216 13.3786 20.7609 16 20.7609C18.6215 20.7609 20.7607 18.6216 20.7607 16.0002C20.7607 13.3788 18.6215 11.2395 16 11.2395ZM30.2786 16.0002C30.2786 14.0288 30.2965 12.0752 30.1857 10.1073C30.075 7.82161 29.5536 5.79304 27.8822 4.12161C26.2072 2.44661 24.1822 1.92875 21.8965 1.81804C19.925 1.70733 17.9715 1.72518 16.0036 1.72518C14.0322 1.72518 12.0786 1.70733 10.1107 1.81804C7.82503 1.92875 5.79646 2.45018 4.12503 4.12161C2.45003 5.79661 1.93217 7.82161 1.82146 10.1073C1.71074 12.0788 1.7286 14.0323 1.7286 16.0002C1.7286 17.968 1.71074 19.9252 1.82146 21.893C1.93217 24.1788 2.4536 26.2073 4.12503 27.8788C5.80003 29.5538 7.82503 30.0716 10.1107 30.1823C12.0822 30.293 14.0357 30.2752 16.0036 30.2752C17.975 30.2752 19.9286 30.293 21.8965 30.1823C24.1822 30.0716 26.2107 29.5502 27.8822 27.8788C29.5572 26.2038 30.075 24.1788 30.1857 21.893C30.3 19.9252 30.2786 17.9716 30.2786 16.0002ZM16 23.3252C11.9465 23.3252 8.67503 20.0538 8.67503 16.0002C8.67503 11.9466 11.9465 8.67518 16 8.67518C20.0536 8.67518 23.325 11.9466 23.325 16.0002C23.325 20.0538 20.0536 23.3252 16 23.3252ZM23.625 10.0859C22.6786 10.0859 21.9143 9.32161 21.9143 8.37518C21.9143 7.42875 22.6786 6.66447 23.625 6.66447C24.5715 6.66447 25.3357 7.42875 25.3357 8.37518C25.336 8.59992 25.292 8.8225 25.2061 9.03018C25.1202 9.23786 24.9942 9.42656 24.8353 9.58547C24.6764 9.74438 24.4877 9.87038 24.28 9.95625C24.0723 10.0421 23.8498 10.0862 23.625 10.0859Z" fill="white"></path>
</svg>
<svg width="162" height="69" viewBox="0 0 162 69" fill="none" id="svg283278091_10464">
<path d="M0.0527344 0H15.2118V15.1591H0.0527344V0Z" fill="white"></path>
<path d="M41.905 0H49.4846V15.1591H41.905C37.719 15.1591 34.3255 11.7656 34.3255 7.57955C34.3255 3.39348 37.719 0 41.905 0Z" fill="white"></path>
<path d="M68.5982 0H83.7573V15.1591H68.5982V0Z" fill="white"></path>
<path d="M0.0527344 17.1364H15.2118V32.2955H0.0527344V17.1364Z" fill="white"></path>
<path d="M34.3255 17.1364H49.4846V32.2955H34.3255V17.1364Z" fill="white"></path>
<path d="M68.5982 17.1364H83.7573V32.2955H78.4846C73.0245 32.2955 68.5982 27.8692 68.5982 22.4091V17.1364Z" fill="white"></path>
<path d="M17.1891 0H22.4618C27.9219 0 32.3482 4.42628 32.3482 9.88637V15.1591H17.1891V0Z" fill="white"></path>
<path d="M51.4618 0H66.6209V15.1591H51.4618V0Z" fill="white"></path>
<path d="M85.7346 0H100.894V15.1591H85.7346V0Z" fill="white"></path>
<path d="M17.1891 17.1364H32.3482V22.4091C32.3482 27.8692 27.9219 32.2955 22.4618 32.2955H17.1891V17.1364Z" fill="white"></path>
<path d="M51.4618 17.1364H59.0414C63.2275 17.1364 66.6209 20.5299 66.6209 24.7159C66.6209 28.902 63.2275 32.2955 59.0414 32.2955H51.4618V17.1364Z" fill="white"></path>
<path d="M85.7346 17.1364H100.894V22.4091C100.894 27.8692 96.4674 32.2955 91.0073 32.2955H85.7346V17.1364Z" fill="white"></path>
<path d="M3.16224 48.913H5.69686C7.29004 48.913 8.52114 48.4544 9.39015 47.5371C10.2753 46.6198 10.7178 45.3404 10.7178 43.699C10.7178 42.0736 10.2753 40.8103 9.39015 39.9091C8.52114 38.9918 7.29004 38.5332 5.69686 38.5332H3.16224V48.913ZM0.144835 51.327V36.1193H5.88997C8.35217 36.1193 10.2914 36.7952 11.7075 38.147C13.1237 39.4988 13.8318 41.3575 13.8318 43.7231C13.8318 46.0888 13.1237 47.9475 11.7075 49.2993C10.2914 50.6511 8.35217 51.327 5.88997 51.327H0.144835Z" fill="white"></path>
<path d="M26.4666 48.8165V51.327H15.097V36.1193H26.2493V38.6297H18.0661V42.323H24.4872V44.8094H18.0661V48.8165H26.4666Z" fill="white"></path>
<path d="M26.8004 45.9198L29.5764 45.7991C29.6408 46.9256 30.035 47.7785 30.7592 48.3578C31.4834 48.9372 32.4087 49.2269 33.5352 49.2269C34.4847 49.2269 35.233 49.0498 35.7802 48.6958C36.3434 48.3257 36.625 47.8268 36.625 47.1992C36.625 46.652 36.4239 46.2416 36.0216 45.9681C35.6192 45.6945 34.9836 45.4692 34.1146 45.2922L31.2179 44.7611C29.9626 44.5358 28.981 44.0772 28.2729 43.3852C27.5648 42.6771 27.2107 41.7196 27.2107 40.5126C27.2107 39.0803 27.7338 37.9458 28.7798 37.109C29.8258 36.256 31.2339 35.8296 33.0042 35.8296C34.9836 35.8296 36.5124 36.3124 37.5906 37.2779C38.6849 38.2274 39.2482 39.5551 39.2804 41.2609L36.5043 41.3575C36.4561 40.3275 36.1181 39.547 35.4905 39.016C34.879 38.4688 34.0421 38.1952 32.98 38.1952C32.0949 38.1952 31.4029 38.3803 30.904 38.7504C30.4213 39.1206 30.1799 39.6355 30.1799 40.2953C30.1799 40.8264 30.3569 41.2207 30.7109 41.4782C31.065 41.7196 31.6121 41.9127 32.3524 42.0575L35.1525 42.5644C36.6492 42.838 37.7515 43.3369 38.4596 44.0611C39.1838 44.7852 39.5459 45.7669 39.5459 47.006C39.5459 48.4544 38.9826 49.5889 37.8561 50.4097C36.7457 51.2143 35.3054 51.6166 33.5352 51.6166C31.5236 51.6166 29.8982 51.1178 28.6591 50.12C27.42 49.1062 26.8004 47.7061 26.8004 45.9198Z" fill="white"></path>
<path d="M40.9467 36.1193H43.9641V51.327H40.9467V36.1193Z" fill="white"></path>
<path d="M52.638 51.6166C50.4977 51.6166 48.7275 50.8844 47.3274 49.42C45.9273 47.9555 45.2273 46.0566 45.2273 43.7231C45.2273 41.4057 45.9515 39.5148 47.3998 38.0504C48.8642 36.5699 50.6827 35.8296 52.8553 35.8296C55.0278 35.8296 56.7336 36.3848 57.9728 37.4952C59.228 38.6056 59.9361 40.1344 60.097 42.0816L57.152 42.2023C57.0555 41.0598 56.6371 40.1586 55.8968 39.4988C55.1565 38.8229 54.1668 38.4849 52.9277 38.4849C51.5437 38.4849 50.4333 38.9596 49.5965 39.9091C48.7757 40.8586 48.3654 42.1299 48.3654 43.7231C48.3654 45.3646 48.7918 46.6681 49.6448 47.6337C50.5138 48.5831 51.6885 49.0579 53.1691 49.0579C54.2312 49.0579 55.1324 48.7763 55.8727 48.213C56.6129 47.6337 57.0957 46.8612 57.321 45.8956H53.2898V43.6507H60.1453V51.327H57.4659V49.082C57.0957 49.9028 56.4762 50.5304 55.6071 50.9649C54.7542 51.3994 53.7645 51.6166 52.638 51.6166Z" fill="white"></path>
<path d="M64.9571 36.1193L72.1506 46.2577V36.1193H74.9508V51.327H72.5368L64.764 40.6092V51.327H61.9639V36.1193H64.9571Z" fill="white"></path>
<path d="M79.6851 45.9198L82.4611 45.7991C82.5254 46.9256 82.9197 47.7785 83.6439 48.3578C84.3681 48.9372 85.2934 49.2269 86.4199 49.2269C87.3694 49.2269 88.1177 49.0498 88.6648 48.6958C89.2281 48.3257 89.5097 47.8268 89.5097 47.1992C89.5097 46.652 89.3086 46.2416 88.9062 45.9681C88.5039 45.6945 87.8683 45.4692 86.9992 45.2922L84.1025 44.7611C82.8473 44.5358 81.8656 44.0772 81.1576 43.3852C80.4495 42.6771 80.0954 41.7196 80.0954 40.5126C80.0954 39.0803 80.6184 37.9458 81.6645 37.109C82.7105 36.256 84.1186 35.8296 85.8888 35.8296C87.8682 35.8296 89.3971 36.3124 90.4753 37.2779C91.5696 38.2274 92.1328 39.5551 92.165 41.2609L89.389 41.3575C89.3407 40.3275 89.0028 39.547 88.3752 39.016C87.7637 38.4688 86.9268 38.1952 85.8647 38.1952C84.9796 38.1952 84.2876 38.3803 83.7887 38.7504C83.3059 39.1206 83.0645 39.6355 83.0645 40.2953C83.0645 40.8264 83.2416 41.2207 83.5956 41.4782C83.9497 41.7196 84.4968 41.9127 85.2371 42.0575L88.0372 42.5644C89.5339 42.838 90.6362 43.3369 91.3443 44.0611C92.0685 44.7852 92.4306 45.7669 92.4306 47.006C92.4306 48.4544 91.8673 49.5889 90.7408 50.4097C89.6304 51.2143 88.1901 51.6166 86.4199 51.6166C84.4083 51.6166 82.7829 51.1178 81.5438 50.12C80.3046 49.1062 79.6851 47.7061 79.6851 45.9198Z" fill="white"></path>
<path d="M99.1652 42.5644L103.148 36.1193H106.407L100.517 45.4611V51.327H97.572V45.4611L91.6821 36.1193H95.0374L99.1652 42.5644Z" fill="white"></path>
<path d="M105.629 45.9198L108.405 45.7991C108.469 46.9256 108.864 47.7785 109.588 48.3578C110.312 48.9372 111.237 49.2269 112.364 49.2269C113.313 49.2269 114.062 49.0498 114.609 48.6958C115.172 48.3257 115.454 47.8268 115.454 47.1992C115.454 46.652 115.253 46.2416 114.85 45.9681C114.448 45.6945 113.812 45.4692 112.943 45.2922L110.047 44.7611C108.791 44.5358 107.81 44.0772 107.102 43.3852C106.393 42.6771 106.039 41.7196 106.039 40.5126C106.039 39.0803 106.562 37.9458 107.608 37.109C108.655 36.256 110.063 35.8296 111.833 35.8296C113.812 35.8296 115.341 36.3124 116.419 37.2779C117.514 38.2274 118.077 39.5551 118.109 41.2609L115.333 41.3575C115.285 40.3275 114.947 39.547 114.319 39.016C113.708 38.4688 112.871 38.1952 111.809 38.1952C110.924 38.1952 110.232 38.3803 109.733 38.7504C109.25 39.1206 109.009 39.6355 109.009 40.2953C109.009 40.8264 109.186 41.2207 109.54 41.4782C109.894 41.7196 110.441 41.9127 111.181 42.0575L113.981 42.5644C115.478 42.838 116.58 43.3369 117.288 44.0611C118.012 44.7852 118.375 45.7669 118.375 47.006C118.375 48.4544 117.811 49.5889 116.685 50.4097C115.574 51.2143 114.134 51.6166 112.364 51.6166C110.352 51.6166 108.727 51.1178 107.488 50.12C106.249 49.1062 105.629 47.7061 105.629 45.9198Z" fill="white"></path>
<path d="M126.625 51.327H123.608V38.6297H118.225V36.1193H132.081V38.6297H126.625V51.327Z" fill="white"></path>
<path d="M144.612 48.8165V51.327H133.242V36.1193H144.395V38.6297H136.212V42.323H142.633V44.8094H136.212V48.8165H144.612Z" fill="white"></path>
<path d="M155.199 51.327H152.616L148.899 39.3539H148.802V51.327H146.002V36.1193H150.758L154.089 47.175H154.161L157.324 36.1193H161.982V51.327H158.941V39.3539H158.844L155.199 51.327Z" fill="white"></path>
<path d="M6.49345 69.0002C4.54622 69.0002 2.97717 68.4932 1.7863 67.4794C0.595434 66.4655 0 64.9045 0 62.7964V53.5028H2.99326V62.4826C2.99326 65.1379 4.15999 66.4655 6.49345 66.4655C8.843 66.4655 10.0178 65.1459 10.0178 62.5067V53.5028H13.0352V62.7964C13.0352 64.9045 12.4317 66.4655 11.2247 67.4794C10.0339 68.4932 8.45677 69.0002 6.49345 69.0002Z" fill="white"></path>
<path d="M17.7838 53.5028L24.9773 63.6413V53.5028H27.7775V68.7105H25.3635L17.5907 57.9927V68.7105H14.7906V53.5028H17.7838Z" fill="white"></path>
<path d="M29.7191 53.5028H32.7366V68.7105H29.7191V53.5028Z" fill="white"></path>
<path d="M42.7381 68.7105H39.5276L33.5169 53.5028H36.6792L41.1691 65.0413H41.2656L45.7072 53.5028H48.7246L42.7381 68.7105Z" fill="white"></path>
<path d="M60.8565 66.2V68.7105H49.4869V53.5028H60.6392V56.0133H52.456V59.7066H58.8771V62.1929H52.456V66.2H60.8565Z" fill="white"></path>
<path d="M75.1371 68.7105H72.0473C71.7576 68.3243 71.5484 67.2782 71.4196 65.5724C71.3553 64.7034 71.1139 64.0758 70.6955 63.6895C70.2931 63.2872 69.6575 63.0861 68.7885 63.0861H65.2159V68.7105H62.2467V53.5028H69.1264C71.0254 53.5028 72.4657 53.9132 73.4473 54.7339C74.429 55.5546 74.9198 56.6892 74.9198 58.1375C74.9198 59.2318 74.606 60.1169 73.9784 60.7928C73.3508 61.4687 72.5461 61.871 71.5645 61.9998C73.2703 62.3377 74.2037 63.3838 74.3646 65.1379C74.4773 66.377 74.5738 67.2219 74.6543 67.6725C74.7348 68.107 74.8957 68.453 75.1371 68.7105ZM65.2159 60.7204H68.716C69.8104 60.7204 70.615 60.5353 71.13 60.1652C71.661 59.779 71.9266 59.1755 71.9266 58.3548C71.9266 56.7455 70.8564 55.9408 68.716 55.9408H65.2159V60.7204Z" fill="white"></path>
<path d="M75.6003 63.3033L78.3763 63.1826C78.4406 64.3091 78.8349 65.162 79.5591 65.7414C80.2833 66.3207 81.2086 66.6104 82.3351 66.6104C83.2846 66.6104 84.0329 66.4334 84.58 66.0793C85.1433 65.7092 85.4249 65.2103 85.4249 64.5827C85.4249 64.0355 85.2237 63.6252 84.8214 63.3516C84.4191 63.078 83.7835 62.8527 82.9144 62.6757L80.0177 62.1446C78.7625 61.9193 77.7808 61.4607 77.0727 60.7687C76.3647 60.0606 76.0106 59.1031 76.0106 57.8961C76.0106 56.4639 76.5336 55.3293 77.5797 54.4925C78.6257 53.6396 80.0338 53.2131 81.804 53.2131C83.7834 53.2131 85.3123 53.6959 86.3905 54.6615C87.4848 55.6109 88.048 56.9386 88.0802 58.6444L85.3042 58.741C85.2559 57.7111 84.918 56.9306 84.2904 56.3995C83.6789 55.8523 82.842 55.5788 81.7799 55.5788C80.8948 55.5788 80.2028 55.7638 79.7039 56.134C79.2211 56.5041 78.9797 57.0191 78.9797 57.6789C78.9797 58.2099 79.1568 58.6042 79.5108 58.8617C79.8649 59.1031 80.412 59.2962 81.1523 59.441L83.9524 59.948C85.4491 60.2215 86.5514 60.7204 87.2595 61.4446C87.9837 62.1688 88.3458 63.1504 88.3458 64.3896C88.3458 65.8379 87.7825 66.9725 86.656 67.7932C85.5456 68.5978 84.1053 69.0002 82.3351 69.0002C80.3235 69.0002 78.6981 68.5013 77.459 67.5035C76.2198 66.4897 75.6003 65.0896 75.6003 63.3033Z" fill="white"></path>
<path d="M89.7466 53.5028H92.764V68.7105H89.7466V53.5028Z" fill="white"></path>
<path d="M102.355 68.7105H99.3378V56.0133H93.9547V53.5028H107.811V56.0133H102.355V68.7105Z" fill="white"></path>
<path d="M115.272 59.948L119.255 53.5028H122.514L116.624 62.8447V68.7105H113.679V62.8447L107.789 53.5028H111.145L115.272 59.948Z" fill="white"></path>
</svg>
