<svg width="165" height="45" viewBox="0 0 165 45" fill="none" xmlns="http://www.w3.org/2000/svg">
<path d="M60.6838 12.9922C63.578 12.9922 65.4631 13.9239 67.3481 15.331L65.644 18.4589C64.2921 17.4226 62.7973 16.6525 60.7028 16.6525C56.9327 16.6525 54.6478 19.248 54.6478 22.5661C54.6478 25.8841 56.9327 28.4796 60.7028 28.4796C62.7973 28.4796 64.2921 27.7095 65.644 26.6732L67.3481 29.8012C65.4631 31.2082 63.578 32.14 60.6838 32.14C54.3907 32.14 50.4873 27.7381 50.4873 22.5661C50.4873 17.3941 54.3907 12.9922 60.6838 12.9922Z" fill="black"/>
<path d="M78.5061 12.9922C83.8186 12.9922 88.1504 17.2895 88.1504 22.5661C88.1504 27.8426 83.8186 32.14 78.5061 32.14C73.1651 32.1495 68.8428 27.8522 68.8428 22.5661C68.8428 17.28 73.1651 12.9922 78.5061 12.9922ZM78.5061 28.3751C81.5622 28.3751 84.0851 25.9602 84.0851 22.5661C84.0851 19.172 81.5622 16.7571 78.5061 16.7571C75.4215 16.7571 72.8985 19.172 72.8985 22.5661C72.8985 25.9602 75.431 28.3751 78.5061 28.3751Z" fill="black"/>
<path d="M91.6543 31.8549V13.2871H99.8134C103.669 13.2871 105.792 16.1013 105.792 19.3623C105.792 22.6233 103.641 25.3044 99.8134 25.3044H95.7767V31.8549H91.6543ZM99.2802 22.0624C100.737 22.0624 101.641 20.9215 101.641 19.3338C101.641 17.689 100.737 16.5481 99.2802 16.5481H95.7767V22.0624H99.2802Z" fill="black"/>
<path d="M105.449 31.8549L112.618 13.2871H116.626L123.9 31.8549H119.597L118.273 28.3848V28.4418H110.971V28.3848L109.695 31.8549H105.449ZM112.085 25.0667H117.102L114.637 17.6415L112.085 25.0667Z" fill="black"/>
<path d="M133.439 31.8549H126.48V13.2871H133.439C139.523 13.2871 143.322 17.4513 143.322 22.5663C143.322 27.6812 139.523 31.8549 133.439 31.8549ZM133.439 16.5481H130.593V28.5939H133.439C136.972 28.5939 139.18 25.8843 139.18 22.5758C139.18 19.2672 136.972 16.5481 133.439 16.5481Z" fill="black"/>
<path d="M155.356 12.9922C160.668 12.9922 165 17.2895 165 22.5661C165 27.8426 160.668 32.14 155.356 32.14C150.015 32.14 145.683 27.8426 145.683 22.5661C145.683 17.2895 150.015 12.9922 155.356 12.9922ZM155.356 28.3751C158.412 28.3751 160.935 25.9602 160.935 22.5661C160.935 19.172 158.412 16.7571 155.356 16.7571C152.271 16.7571 149.748 19.172 149.748 22.5661C149.748 25.9602 152.281 28.3751 155.356 28.3751Z" fill="black"/>
<path d="M22.04 44.5092C34.2124 44.5092 44.08 34.6552 44.08 22.4997C44.08 10.3442 34.2124 0.490234 22.04 0.490234C9.86764 0.490234 0 10.3442 0 22.4997C0 34.6552 9.86764 44.5092 22.04 44.5092Z" fill="#00C3EF"/>
<path d="M30.5231 14.0957C29.2972 14.0944 28.0856 14.3579 26.9714 14.8683C25.8572 15.3787 24.8668 16.1238 24.0681 17.0525V17.043L24.0396 17.0715C23.8492 17.2902 23.6778 17.5183 23.516 17.7465L21.688 20.1139L17.718 25.2478L17.28 25.8182L17.0134 26.17C16.5636 26.6223 16.0279 26.9806 15.4378 27.2238C14.8477 27.4671 14.2149 27.5904 13.5765 27.5866C10.8727 27.5866 8.65442 25.4665 8.65442 22.4907C8.65442 19.5149 10.8727 17.3948 13.5765 17.3948C14.4322 17.3911 15.2734 17.6157 16.0132 18.0452C16.7529 18.4747 17.3645 19.0937 17.7846 19.8381L20.1076 17.1666C19.3131 16.2054 18.3156 15.4317 17.1864 14.9008C16.0573 14.3698 14.8246 14.0949 13.5765 14.0957C8.89244 14.0957 5.09375 17.8701 5.09375 22.5002C5.09375 27.1303 8.89244 30.9047 13.5765 30.9047C15.6709 30.902 17.6896 30.1227 19.2412 28.718L26.3721 19.6955V19.7145C26.8065 19.0032 27.4181 18.4165 28.1473 18.0116C28.8765 17.6067 29.6983 17.3974 30.5326 17.4043C33.2174 17.4043 35.4261 19.5244 35.4261 22.5002C35.4261 25.476 33.2078 27.5961 30.5326 27.5961C27.8287 27.5961 25.6105 25.476 25.6105 22.5002L22.8019 25.9514C23.4788 27.4287 24.5662 28.6808 25.935 29.5589C27.3037 30.437 28.8962 30.9041 30.5231 30.9047C35.1881 30.9047 38.9868 27.1303 38.9868 22.5002C38.9868 17.8701 35.1881 14.0957 30.5231 14.0957Z" fill="white"/>
<path d="M30.5133 24.0959C31.2862 24.0959 31.9128 23.4702 31.9128 22.6984C31.9128 21.9265 31.2862 21.3008 30.5133 21.3008C29.7404 21.3008 29.1138 21.9265 29.1138 22.6984C29.1138 23.4702 29.7404 24.0959 30.5133 24.0959Z" fill="white"/>
</svg>
