<svg id="Layer_1" data-name="Layer 1" xmlns="http://www.w3.org/2000/svg" viewBox="0 0 403.42 228.8"><defs><style>.cls-1,.cls-3{fill:#4ea0c9;}.cls-1,.cls-2{fill-rule:evenodd;}.cls-2,.cls-4{fill:#7a7b7d;}</style></defs><path class="cls-1" d="M278.31,56.46C285.14,51,293,46.93,300.05,41.82,272.46,10.76,231.19-5.27,188.5,1.56c-51,8.15-84.77,38-101.59,86.84-.78,2.27-1.68,2.45-3.86,2.17-26.63-3.49-48.82,5.33-66.34,25.3-22.73,25.89-20.78,62-3.11,87.59a74.14,74.14,0,0,0,23.3,21.8c0-11.17-.06-21.55,0-31.93a12.79,12.79,0,0,0-2-7.11c-14.81-24.42-7.12-53.13,17.82-65.8,16.46-8.37,33.07-7.42,49.39.72,2.21,1.1,3.1,1.42,3.51-1.59,2.19-16,8.14-30.8,16.65-44.39,19.4-31,47.59-47.46,84.19-47.78,28.3-.24,51.91,10.27,70.83,30.07A6.52,6.52,0,0,1,278.31,56.46Z"/><path class="cls-1" d="M386.49,154.08c-5,0-10-.06-15,0-1.68,0-2.29-.48-2.28-2.22q.09-15,0-30c0-1.67.49-2.26,2.22-2.25q14.86.1,29.73,0c1.67,0,2.29.46,2.27,2.2-.06,10-.08,20,0,30.05,0,2-.88,2.29-2.56,2.26C396.07,154,391.28,154.08,386.49,154.08Z"/><path class="cls-1" d="M350.38,66.85c0-6.92.07-13.84,0-20.76,0-2.32.4-3.47,3.14-3.45,14.11.13,28.22.1,42.33,0,2.12,0,2.91.61,2.89,2.82q-.1,21.38,0,42.75c0,2.2-.82,2.86-2.91,2.85-14.11,0-28.22-.08-42.33,0-2.76,0-3.15-1.23-3.12-3.52C350.44,80.68,350.38,73.76,350.38,66.85Z"/><path class="cls-1" d="M280.63,124.81c0-3.12.06-6.24,0-9.36-.05-1.63.51-2.24,2.18-2.22q9.36.1,18.73,0c1.7,0,2.17.71,2.16,2.27q-.06,9.38,0,18.73c0,1.63-.56,2.25-2.21,2.23q-9.37-.09-18.73,0c-1.73,0-2.17-.72-2.13-2.29C280.69,131.06,280.63,127.93,280.63,124.81Z"/><path class="cls-2" d="M324.48,116.09c0-3.9.06-7.8,0-11.7,0-1.61.38-2.43,2.55-2.41,9.19.08,18.4.06,27.6,0,1.81,0,2.56.45,2.54,2.12q-.12,12,0,23.94c0,1.57-.7,1.91-2.38,1.91q-14-.09-27.9,0c-2,0-2.45-.63-2.41-2.18C324.54,123.89,324.48,120,324.48,116.09Z"/><path class="cls-2" d="M267.84,104.64c0,4.53-.08,9.06,0,13.58.05,2-.39,2.76-2.57,2.73-9.36-.12-18.73-.1-28.1,0-1.91,0-2.53-.54-2.51-2.48.08-9.37.1-18.74,0-28.1,0-2.2.84-2.57,2.76-2.55,9.26.07,18.52.09,27.78,0,2.06,0,2.72.56,2.66,2.65C267.74,95.17,267.84,99.91,267.84,104.64Z"/><path class="cls-2" d="M309,53.77c4.5,0,9,.06,13.52,0,2,0,3.25.35,3.22,3-.1,10.14-.08,20.29,0,30.44,0,2.21-.72,2.92-2.79,2.9q-14.38-.13-28.78,0c-2.08,0-2.79-.72-2.77-2.91.07-10.15.09-20.3,0-30.45,0-2.65,1.21-3,3.24-3C299.41,53.83,304.2,53.77,309,53.77Z"/><path class="cls-3" d="M96.58,171.5c-.44-5-2.25-8.83-5.46-11.37s-7.79-3.81-13.77-3.81q-8.1,0-13.18,3a9.66,9.66,0,0,0-5.07,8.8A8.45,8.45,0,0,0,63,175.79q3.92,2.52,15,5a129.11,129.11,0,0,1,16,4.42,27,27,0,0,1,10.64,7q4.42,4.78,4.42,12.83a21.14,21.14,0,0,1-8.12,17q-8.13,6.75-21.2,6.75-16.68,0-25-7.46T46,202l9.93-.87q.7,9.51,7.35,13.86t16,4.34q8.81,0,14.23-3.61A11.26,11.26,0,0,0,99,205.9a9.93,9.93,0,0,0-5.68-9.45q-5.65-3-19-5.86t-19.25-8.13a17.35,17.35,0,0,1-5.89-13.61,19.56,19.56,0,0,1,7.45-15.71q7.45-6.21,20.31-6.22,13.17,0,21.19,6.19t8.51,17.58Z"/><path class="cls-4" d="M148.1,203.68H118.39v-9.77H148.1Z"/><path class="cls-4" d="M160.52,148.27h27.32a89.59,89.59,0,0,1,12.37.74,26.08,26.08,0,0,1,9.91,3.56,27.6,27.6,0,0,1,8.26,7.8A40.46,40.46,0,0,1,224,171.79a52.76,52.76,0,0,1,2,15.64q0,17.49-8.32,28.75T189,227.45H160.52ZM171,218.05h17a59.64,59.64,0,0,0,9.26-.65,20.4,20.4,0,0,0,8.27-3.51q4.19-2.87,6.94-9.4t2.75-17.28a55.47,55.47,0,0,0-1-11.09,26.24,26.24,0,0,0-3.89-9.4,18.38,18.38,0,0,0-6.51-6.21,20.42,20.42,0,0,0-7.16-2.41,76.9,76.9,0,0,0-8.93-.43H171Z"/><path class="cls-4" d="M262.26,168.85q11.61,0,19.25,7.56t7.64,21.5q0,16.91-8.26,23.89a28.1,28.1,0,0,1-18.63,7,27.28,27.28,0,0,1-18.85-7.19q-8-7.17-8-22.79,0-15.12,7.72-22.54A26.52,26.52,0,0,1,262.26,168.85Zm0,52q8.31,0,12.64-6.15t4.32-16.21q0-10.74-4.89-16.2a15.58,15.58,0,0,0-12.07-5.45,15.28,15.28,0,0,0-12.15,5.54q-4.76,5.52-4.75,16.49t4.83,16.45A15.37,15.37,0,0,0,262.26,220.8Z"/><path class="cls-4" d="M347.37,207.63q-1.89,11-8.64,16.06a24.7,24.7,0,0,1-15.28,5.11q-12.48,0-19.28-8.19t-6.81-21.68q0-11.18,3.92-17.9a22.35,22.35,0,0,1,9.8-9.45,29.05,29.05,0,0,1,12.37-2.73,25,25,0,0,1,15.15,4.59q6.28,4.59,7.75,13.5L337,188.4q-1.45-5.78-4.73-8.7a12.06,12.06,0,0,0-8.34-2.91q-8.16,0-12.37,5.78t-4.21,16.15q0,10.58,4.13,16.33t11.91,5.75q6.27,0,9.86-3.59t4.5-10.77Z"/><path class="cls-4" d="M387.71,186.19a10,10,0,0,0-3.8-7.05q-3.17-2.35-8.78-2.35a18.55,18.55,0,0,0-9,1.89,6,6,0,0,0-3.43,5.51,5.07,5.07,0,0,0,2.73,4.86q2.71,1.45,10.77,3.56a121.43,121.43,0,0,1,13.58,4.11,16.2,16.2,0,0,1,7,5c1.68,2.15,2.51,5.13,2.51,8.94a16.19,16.19,0,0,1-6.26,12.91q-6.27,5.24-16.74,5.24-10.9,0-17-4.62t-7.53-13.85l9.66-1.46q.76,6,4.46,9t10.34,3q6.38,0,9.77-2.67a8,8,0,0,0,3.41-6.51,5.65,5.65,0,0,0-1.57-4.16,10,10,0,0,0-3.91-2.35q-2.36-.78-10.56-2.78-12.21-2.91-16.12-7.07a14,14,0,0,1-3.92-9.94A14.58,14.58,0,0,1,359,173.49q5.71-4.63,15.39-4.64,10.26,0,16,4t6.83,12Z"/></svg>