<?xml version="1.0" encoding="utf-8"?>
<!-- Generator: Adobe Illustrator 25.0.1, SVG Export Plug-In . SVG Version: 6.00 Build 0)  -->
<svg version="1.1" id="Layer_1" xmlns="http://www.w3.org/2000/svg" xmlns:xlink="http://www.w3.org/1999/xlink" x="0px" y="0px"
	 viewBox="0 0 460 135" style="enable-background:new 0 0 460 135;" xml:space="preserve">
<style type="text/css">
	.st0{fill:#FFFFFF;}
	.st1{fill:#EEC21A;}
</style>
<path class="st0" d="M127.2,77.6c-11.8-1.9-20.4-12.1-20.4-24V37.5c0.1-2.1,1.9-3.8,4.1-3.7c2,0.1,3.6,1.7,3.7,3.7v16.2
	c0,9.1,7.4,16.5,16.5,16.5s16.5-7.4,16.5-16.5V37.5c0-2.1,1.7-3.9,3.9-3.9c2.1,0,3.9,1.7,3.9,3.9l0,0v16.2c0,12-8.6,22.1-20.4,24
	v20.7c0.1,2.1-1.5,4-3.7,4.1c-2.1,0.1-4-1.5-4.1-3.7c0-0.1,0-0.3,0-0.4L127.2,77.6L127.2,77.6z"/>
<path class="st0" d="M157.5,78c0-13.4,10.8-24.3,24.3-24.3s24.3,10.8,24.3,24.3s-10.8,24.3-24.3,24.3l0,0
	C168.3,102.3,157.5,91.4,157.5,78z M198.3,78c0-9.1-7.4-16.5-16.5-16.5S165.3,69,165.3,78c0,9.1,7.4,16.5,16.5,16.5
	S198.3,87.2,198.3,78L198.3,78z"/>
<path class="st0" d="M252.9,95.7c-4.4,4.2-10.3,6.5-16.5,6.5c-13.4,0-24.3-10.8-24.3-24.3V57.6c-0.1-2.1,1.5-4,3.7-4.1
	s4,1.5,4.1,3.7c0,0.1,0,0.3,0,0.4V78c0,9.1,7.3,16.5,16.5,16.5s16.5-7.3,16.5-16.5l0,0V57.6c0-2.1,1.7-3.9,3.9-3.9
	c2.2,0,3.9,1.7,3.9,3.9l0,0v40.8c0,2.1-1.7,3.9-3.9,3.9c-2.1,0-3.9-1.7-3.9-3.9V95.7L252.9,95.7z"/>
<path class="st0" d="M269.9,57.6c0-2.1,1.7-3.9,3.9-3.9c2.1,0,3.9,1.7,3.9,3.9v2.6c4.4-4.2,10.3-6.5,16.5-6.5
	c2.1,0.1,3.8,1.9,3.7,4.1c-0.1,2-1.7,3.6-3.7,3.7c-9.1,0-16.5,7.3-16.5,16.5l0,0v20.4c0,2.1-1.7,3.9-3.9,3.9c-2.1,0-3.9-1.7-3.9-3.9
	V57.6z"/>
<path class="st0" d="M309.8,81.9c2.1,8.8,10.9,14.3,19.8,12.2c3-0.7,5.7-2.2,7.8-4.4c1.6-1.5,4.1-1.3,5.5,0.2s1.4,3.8,0,5.3
	c-9.4,9.5-24.9,9.5-34.3,0.1c-9.5-9.4-9.5-24.9-0.1-34.3c9.4-9.5,24.9-9.5,34.3-0.1c4.6,4.5,7.1,10.7,7.1,17.2
	c0,2.1-1.7,3.9-3.9,3.9L309.8,81.9z M341.9,74c-2.1-8.8-11-14.3-19.9-12.2c-6,1.4-10.7,6.1-12.2,12.2H341.9z"/>
<path class="st0" d="M380.5,83.5L362.9,101c-0.7,0.8-1.7,1.2-2.7,1.2c-2.1,0-3.9-1.7-3.9-3.9V37.5c0.1-2.1,1.9-3.8,4.1-3.7
	c2,0.1,3.6,1.7,3.7,3.7V89l34.1-34c1.6-1.4,4-1.3,5.4,0.3c1.3,1.5,1.3,3.7,0,5.1L386.1,78l17.6,17.7c1.4,1.6,1.3,4-0.3,5.4
	c-1.5,1.3-3.7,1.3-5.1,0L380.5,83.5z"/>
<path class="st0" d="M449.9,95.7c-4.4,4.2-10.3,6.5-16.5,6.5c-13.4,0-24.3-10.8-24.3-24.3s10.8-24.3,24.3-24.3s24.3,10.8,24.3,24.3
	l0,0v20.4c0.1,2.1-1.5,4-3.7,4.1s-4-1.5-4.1-3.7c0-0.1,0-0.3,0-0.4L449.9,95.7L449.9,95.7z M449.9,77.9c0-9.1-7.4-16.5-16.5-16.5
	s-16.5,7.4-16.5,16.5s7.4,16.5,16.5,16.5S449.9,87.1,449.9,77.9L449.9,77.9z"/>
<path class="st0" d="M51.2,117.3H31.7c-1.6,0.1-3-1.1-3.1-2.7s1.1-3,2.7-3.1c0.1,0,0.3,0,0.4,0h19.6c1.6-0.1,3,1.1,3.1,2.7
	s-1.1,3-2.7,3.1C51.5,117.3,51.4,117.3,51.2,117.3z"/>
<path class="st0" d="M49.6,126.8H33.3c-1.6,0-2.9-1.3-2.9-2.9s1.3-2.9,2.9-2.9h16.4c1.6,0,2.9,1.3,2.9,2.9
	C52.5,125.4,51.2,126.8,49.6,126.8z"/>
<path class="st1" d="M67.6,18.5C60.1,11.4,49.8,7.6,39.4,8.3C18.6,9.7,2.8,27.6,4.1,48.3c0.7,11.4,6.6,22,16.2,28.6
	c1.1,0.8,1.8,2.1,1.7,3.5l0.2,14.8c0,6,4.9,10.9,10.9,10.9h17.4c6,0,10.9-4.9,10.9-10.9V80.5c0-1.3,0.6-2.6,1.7-3.4
	c17.2-11.9,21.5-35.3,9.6-52.4C71.2,22.4,69.5,20.4,67.6,18.5L67.6,18.5z M53.6,80.5v14.7c0,1.7-1.3,3-3,3H33.2c-1.7,0-3-1.4-3-3
	l0,0L30,80.5c0-4-1.9-7.7-5.2-9.9c-8.8-6-13.7-16.4-12.7-27c1.3-14.7,13.1-26.2,27.8-27.2h1.9c16.5,0,29.7,13.4,29.7,29.8
	c0,9.8-4.8,19-12.9,24.5C55.5,72.8,53.6,76.4,53.6,80.5z"/>
<path class="st0" d="M52.2,36.9c-1.5,0-2.8,1.2-2.8,2.8v3.4c0.2,4.2-3,7.7-7.2,7.9c-4.2,0.2-7.7-3-7.9-7.2c0-0.3,0-0.5,0-0.8v-3.4
	c0-1.5-1.2-2.8-2.8-2.8c-1.5,0-2.8,1.2-2.8,2.8v3.4c0,6.2,4.3,11.6,10.4,12.9V65c0,1.5,1.2,2.8,2.8,2.8c1.5,0,2.8-1.2,2.8-2.8l0,0
	v-8.9C50.7,54.8,55,49.4,55,43.2v-3.4C55,38.3,53.8,37,52.2,36.9C52.2,36.9,52.2,36.9,52.2,36.9z"/>
</svg>
